<svg width="187" height="208" viewBox="0 0 187 208" fill="none" xmlns="http://www.w3.org/2000/svg">
<path d="M1.04839 175.618C0.97915 175.072 0.97915 174.519 1.04839 173.973C1.47491 170.66 4.45392 167.647 8.24639 165.399C20.8528 157.923 33.7736 157.824 48.761 161.645C65.3885 165.9 81.1234 169.92 99.314 170.156C120.994 170.439 125.167 166.267 146.017 168.703C161.042 170.459 185.275 175.709 185.985 182.648C186.926 191.849 147.539 200.469 128.504 203.565C106.738 207.099 73.035 212.592 39.1402 200.95C28.1761 197.196 18.1816 191.42 9.4226 185.769C5.13986 183.006 1.50129 179.45 1.04839 175.618Z" fill="#EDEDED"/>
<path d="M138.648 56.0599C137.949 64.8742 137.085 73.6798 136.581 82.5052C135.19 106.83 133.965 131.164 132.637 155.491C132.198 163.528 131.644 171.557 131.142 179.589C128.893 182.875 126.288 182.553 123.494 180.36C122.133 178.372 122.086 176.084 122.047 173.811C121.627 151.288 122.631 128.76 125.054 106.364C125.934 98.303 125.239 90.2418 125.859 82.2137C126.448 74.5698 126.299 66.6963 130.729 59.8674C131.402 56.4663 134.717 56.9588 136.834 55.6712C137.155 55.638 137.476 55.6138 137.799 55.585C138.083 55.7441 138.364 55.9141 138.648 56.0599Z" fill="#FDD344"/>
<path d="M47.5474 180.371C45.2565 139.761 42.9642 99.1526 40.6704 58.5445C43.1129 55.7595 46.5229 57.067 49.4799 56.4398C50.189 56.4983 50.8597 56.7875 51.3904 57.2635C53.2416 60.0375 53.778 63.1516 53.7472 66.418C50.1768 76.8137 52.8261 87.3993 53.3075 97.8105C54.0353 113.27 56.2426 128.755 54.8311 144.157C54.1716 151.348 54.6926 157.923 56.1305 164.783C57.2033 169.898 56.17 175.097 55.1037 180.192C54.5299 181.243 53.5516 181.685 52.4655 181.959C50.588 182.193 48.8049 182.122 47.5474 180.371Z" fill="#FDBD23"/>
<path d="M139.114 42.1989C140.559 43.6301 140.099 45.4853 140.213 47.2124C137.028 48.2835 138.455 53.0761 134.902 53.8557C135.583 54.5845 137.626 53.2594 137.32 55.4746C137.401 55.7816 137.498 56.082 137.606 56.3779C134.882 57.5087 131.907 56.9875 129.128 57.6876C126.95 57.7406 124.731 57.7052 125.855 61.0689C126.338 62.5111 126.413 64.1322 124.887 64.9339C123.1 65.8725 121.75 64.8433 120.728 63.3327C119.688 61.4731 120.147 58.6947 117.379 57.893C108.95 57.5705 100.543 57.8289 92.1358 57.7781C90.3568 57.9717 88.5623 57.9754 86.7824 57.7892C77.8717 58.1514 68.9105 56.8373 60.0526 58.5423C58.6698 59.8453 58.8325 61.9943 57.4914 63.3194C55.2467 64.3464 54.8531 62.3432 54.0265 61.1307C52.9382 59.5273 52.7579 57.2569 50.5748 56.4751C47.7167 55.2935 44.2144 58.0012 41.7477 52.7404C39.0435 46.9672 41.4069 46.033 45.3994 44.54C47.1429 44.0276 48.9171 44.169 50.6979 44.1314C76.291 43.4689 101.88 43.7052 127.455 43.9812C131.431 44.4869 135.468 43.8697 139.114 42.1989Z" fill="#BDB2AB"/>
<path d="M139.114 42.1989C137.714 49.0322 132.444 44.8779 128.963 45.8077C125.943 34.6368 125.142 23.0927 123.406 11.712C122.194 3.78325 121.994 3.24657 113.8 3.17148C94.8928 2.99479 75.9854 3.47405 57.078 2.93516C55.2027 2.78719 53.279 2.77836 52.0214 1.0093C53.3735 -0.360009 55.0993 0.0596175 56.7131 0.0596175C77.786 0.0750775 98.859 0.0596175 119.932 0.150168C129.386 0.189923 131.696 1.9899 133.477 11.0627C135.495 21.412 137.243 31.8165 139.114 42.1989Z" fill="#A1D273"/>
<path d="M52.0082 1.00929L56.9153 1.30966C55.8161 16.3588 55.04 31.4653 49.5832 45.7923L44.6453 46.1766C41.4223 46.8391 38.1464 47.579 39.4941 42.2277C41.6179 30.9397 43.7021 19.6473 45.8853 8.37263C46.5668 4.86102 47.5804 1.45542 52.0082 1.00929Z" fill="#759B57"/>
<path d="M132.789 188.154C126.818 190.237 120.767 191.361 114.389 192.017C102.75 193.211 91.1113 192.238 79.5272 192.478C68.4203 192.712 56.6163 193.196 45.8457 188.297C47.4946 185.868 50.2252 186.555 52.5095 185.941C77.0121 185.879 101.519 185.477 126.026 186.122C128.416 186.343 131.03 185.848 132.789 188.154Z" fill="#BDB2AB"/>
<path d="M39.4942 42.221C39.1688 46.2274 42.1104 45.9292 44.6453 46.1677C43.4493 47.7137 38.3751 47.1086 43.3086 51.7951C45.9315 54.2864 49.1875 53.3411 50.8914 55.9009C51.293 56.4235 51.2248 56.877 50.6869 57.2613C50.3962 57.1097 50.0941 56.9812 49.7833 56.877C46.4723 57.0294 43.0822 58.0962 39.9668 56.0091C33.6658 52.8575 33.4438 51.9939 37.2341 46.3709C38.1113 45.0789 38.7467 43.6146 39.4942 42.221Z" fill="#BDB2AB"/>
<path d="M137.327 55.4724C135.627 53.9838 133.29 55.2736 131.446 54.2864C132.143 52.4643 137.208 55.3443 134.963 50.0128C133.609 46.795 138.041 47.5834 140.222 47.2102C142.256 47.1925 143.74 47.6364 143.878 50.1917C144.098 54.0324 141.152 54.7922 138.65 56.0577L137.327 55.4724Z" fill="#BDB2AB"/>
<path d="M132.789 188.154L126.503 188.006C126.593 185.83 125.754 184.335 123.865 182.9C123.408 182.553 123.469 181.784 123.533 181.168C123.698 180.901 123.863 180.632 124.03 180.364C126.479 180.777 128.88 180.762 131.153 179.585C133.818 182.023 135.39 184.689 132.789 188.154Z" fill="#BDB2AB"/>
<path d="M52.1313 188.063L45.8479 188.284C42.704 184.841 42.8161 182.1 47.5474 180.36L52.1027 180.773C52.3211 183.198 52.3307 185.637 52.1313 188.063Z" fill="#9F998F"/>
<path d="M39.9668 56.0157C43.2646 55.8964 46.668 54.8076 49.7811 56.8859C47.167 59.7725 43.6868 57.8665 40.6704 58.5423C40.4373 57.7001 40.2028 56.8579 39.9668 56.0157Z" fill="#F4B002"/>
<path d="M56.9637 63.4232L57.3638 57.2591C67.0682 56.676 76.7747 55.6137 86.4482 57.5396C88.2884 58.5069 87.9388 60.8215 89.2426 62.2063C90.8013 61.0335 90.2715 58.6063 92.0479 57.6169C99.413 55.4812 106.934 57.0471 114.37 56.6275C116.348 56.5148 118.402 57.1376 120.306 56.1018C122.711 58.1977 120.978 61.0468 121.625 63.463C123.098 65.9078 124.591 66.9238 125.894 63.3812C126.437 61.9037 126.127 60.1877 127.031 58.7808C128.418 57.4733 129.918 57.6456 131.463 58.4495C131.877 60.0309 132.343 61.6011 132.679 63.1957C132.807 63.7854 132.679 64.4325 132.679 65.0553C127.22 64.5739 129.346 68.6752 129.016 71.2393C128.546 74.9121 127.754 78.6071 127.838 82.2821C128.245 100.28 125.56 118.061 124.421 135.935C123.483 150.697 124.096 165.56 124.021 180.378L124.14 180.76C121.721 182.789 118.797 182.798 115.9 182.805C98.3313 182.856 80.7628 182.882 63.1965 182.78C60.1648 182.765 56.8933 183.158 54.5937 180.351C53.545 178.703 53.158 176.987 53.6923 175.026C55.5017 168.376 54.7915 162.011 51.4366 155.957C51.1508 155.436 50.777 154.582 50.9969 154.213C55.1169 147.276 50.9969 139.382 53.5648 132.306C54.6926 129.199 53.4394 126.182 53.1448 123.222C51.9356 111.097 51.065 98.9678 50.8672 86.7809C50.8232 84.0953 50.9485 81.434 49.9878 78.8014C48.2949 74.1347 50.9441 70.0842 52.1401 65.8372C53.6989 64.9007 55.6468 64.8013 56.9637 63.4232Z" fill="#FECC31"/>
<path d="M131.47 58.4451C130.287 59.1209 129.111 59.3285 127.952 58.3855C127.154 57.6059 127 56.813 127.906 55.998C131.155 55.7264 134.414 55.2604 137.61 56.3779C136.15 58.8162 133.73 58.3877 131.47 58.4451Z" fill="#F9BC1C"/>
<path d="M54.5937 180.329L124.14 180.746C125.951 182.831 129.161 184.455 126.503 188.006L52.1313 188.063C48.7434 185.634 49.7921 183.204 52.1115 180.775L54.5937 180.329Z" fill="#9F998F"/>
<path d="M56.9637 63.4232C57.2781 68.1031 54.7652 67.0651 52.1533 65.8239C51.6652 62.9719 51.1764 60.1214 50.6869 57.2724L50.8913 55.9119C56.3063 55.6425 54.3584 61.3891 56.9637 63.4232Z" fill="#E3D9CF"/>
<path d="M49.5832 45.7923C51.0584 36.2645 52.5556 26.7412 53.9957 17.2091C54.2991 15.1883 54.963 12.9841 54.4706 11.1311C53.4394 7.23523 54.4903 4.17416 56.9175 1.30966C77.6849 1.26549 98.4522 1.28757 119.22 1.10868C122.517 1.07997 124.643 2.27922 124.755 5.38225C125.239 18.9649 130.371 32.0462 128.963 45.8099L49.5832 45.7923Z" fill="#96C95A"/>
<path d="M92.0303 58.3546C90.6848 60.7729 93.7891 65.7952 89.3063 65.7908C84.8235 65.7864 87.9169 60.7862 86.6065 58.3568C86.0723 57.5197 86.1075 56.7202 86.7714 55.9671H91.8654C92.5294 56.7202 92.5558 57.5175 92.0303 58.3546Z" fill="#E7DBD5"/>
<path d="M86.7714 55.9671L86.6065 58.3568C78.7314 56.7534 70.7881 56.3028 62.9855 58.3325C60.5935 58.9531 59.4524 56.2123 57.3638 57.2547C59.1227 54.6265 61.8049 55.9141 64.0166 55.8699C71.5993 55.7242 79.1865 55.9141 86.7714 55.9671Z" fill="#F4B002"/>
<path d="M92.0303 58.3546L91.8654 55.9671L120.31 56.0974C118.738 57.9195 116.792 57.4049 114.693 57.4005C107.134 57.3872 99.5053 56.3006 92.0303 58.3546Z" fill="#F4B002"/>
<path d="M127.91 55.998L127.957 58.3855C127.37 60.5609 126.789 62.7408 126.198 64.9118C125.787 66.4114 124.681 66.5881 123.324 66.5483C120.893 66.4776 121.601 64.8146 121.64 63.4563C123.713 64.3155 126.294 65.1415 124.445 61.4222C122.265 57.0537 123.731 55.8567 127.91 55.998Z" fill="#DDD2CC"/>
<path d="M89.3965 139.795C75.4578 139.795 64.553 128.909 64.6806 115.112C64.8059 101.768 75.9195 90.8845 89.4382 90.8646C102.761 90.8469 114.033 102.493 113.899 116.139C113.772 129.068 102.669 139.791 89.3965 139.795Z" fill="#FBFCF9"/>
<path d="M120.284 18.6137C122.388 24.0004 122.245 29.3937 120.354 34.7981C117.496 37.1281 114.198 37.9077 110.575 37.89C96.368 37.8488 82.1618 37.8488 67.9564 37.89C64.3816 37.89 60.9782 37.4351 58.2037 34.8732C56.4624 29.4335 56.225 24.0048 58.3356 18.5939C61.983 17.0103 65.8106 16.6967 69.7504 16.7011C83.8913 16.7188 98.0367 16.9396 112.169 16.5421C115.308 16.4493 117.415 18.6778 120.284 18.6137Z" fill="#759B57"/>
<path d="M58.2037 34.8687C76.9792 37.3158 95.836 35.4518 114.647 35.9598C116.658 36.015 118.092 33.378 120.363 34.7981C119.411 39.4471 115.447 39.5597 112.153 39.6083C96.9499 39.8277 81.7463 39.8277 66.5427 39.6083C63.2163 39.5708 59.3029 39.3985 58.2037 34.8687Z" fill="#658E4B"/>
<path d="M120.284 18.6137C103.999 18.5983 87.7124 18.7087 71.4323 18.4834C67.0572 18.4216 62.7019 20.1443 58.3356 18.5894C59.6965 16.1092 62.0929 15.3186 64.6036 14.72C81.5016 13.8778 98.431 13.8859 115.328 14.7443L120.284 18.6137Z" fill="#658E4B"/>
<path d="M115.328 14.7443L64.6036 14.72C65.8897 13.2646 67.6222 13.6158 69.2403 13.5959C84.1053 13.4486 98.9703 13.3058 113.835 13.1674C114.873 13.1564 115.201 13.872 115.328 14.7443Z" fill="#A1D273"/>
<path d="M82.3348 131.725C75.4006 132.681 74.7059 126.442 71.9225 122.469C68.9941 118.288 71.0739 114.297 72.8305 110.856C73.8155 108.922 77.498 108.719 79.2722 110.686C80.5913 112.162 83.0515 114.37 80.2769 116.979C78.8237 118.346 76.6274 119.85 77.5662 121.99C78.3928 123.874 80.9343 123.028 82.6074 122.891C86.468 122.571 86.8879 124.587 86.9583 127.736C87.0374 131.226 85.3995 132.081 82.3348 131.725Z" fill="#A9C257"/>
<path d="M102.506 122.902C101.59 121.672 100.167 120.53 99.8241 119.121C99.3009 116.985 95.2995 115.366 98.2236 112.862C99.9033 111.422 102.585 108.418 104.408 110.212C106.47 112.254 108.783 115.271 108.055 118.975C106.956 124.625 101.24 129.313 95.6183 131.361C92.6151 132.465 92.3095 131.029 91.019 129.612C89.203 127.624 89.8582 125.888 91.2015 124.09C92.248 122.688 92.6877 121.034 95.3589 122.679C97.1375 123.79 100.125 122.902 102.506 122.902Z" fill="#A9C257"/>
<path d="M84.397 97.2716C89.9813 97.5609 96.0316 95.0123 100.154 101.945C102.352 105.655 100.594 107.722 98.5753 108.988C96.7154 110.156 93.5187 110.755 92.4942 106.607C92.2074 105.402 91.6753 104.27 90.9314 103.282C90.1875 102.293 89.2479 101.47 88.1719 100.865C85.3006 101.368 84.2717 99.9351 84.397 97.2716Z" fill="#A9C257"/>
<path d="M84.397 97.2716C85.3028 98.8419 86.5164 100.088 88.1719 100.867C88.5456 103.619 86.3999 105.386 85.4501 107.594C83.9551 111.093 81.9192 108.92 79.9955 107.994C78.0718 107.069 76.0382 106.249 77.8542 103.513C79.5712 100.938 79.9142 96.9227 84.397 97.2716Z" fill="#A9C257"/>
</svg>
