<svg width="364" height="237" viewBox="0 0 364 237" fill="none" xmlns="http://www.w3.org/2000/svg">
<g filter="url(#filter0_d_337_441)">
<path d="M170.209 78.5919C170.209 78.5919 220.365 80.6445 212.784 64.2533C212.784 64.2533 178.052 56.6329 174.552 58.5134C170.837 60.5144 169.736 71.0993 170.209 78.5919Z" fill="#EBE7DF"/>
<path d="M84.3335 166.128C88.3896 162.18 92.3598 158.131 97.0776 154.941C100.71 158.97 105.655 160.349 110.635 161.61C112.018 161.961 113.206 161.588 114.451 160.683C118.439 157.792 122.424 154.85 126.673 152.387C132.766 148.852 139.006 147.91 145.596 151.777C152.836 156.022 160.362 159.778 167.758 163.756C175.728 168.08 184.255 171.28 193.097 173.264C203.981 175.671 214.958 177.672 225.906 179.786C230.435 180.661 234.908 181.998 239.574 179.899C246.59 176.74 254.065 174.874 261.445 172.77C267.618 171.015 273.88 169.724 280.362 170.039C283.911 170.213 286.896 171.588 288.374 174.904C290.244 179.097 291.489 183.507 291.391 188.202C280.741 191.87 270.093 195.535 259.445 199.198C252.338 201.627 245.198 203.974 238.091 206.398C237.071 206.787 235.954 206.833 234.905 206.531C214.809 200.855 194.712 195.208 174.616 189.589C162.362 186.147 150.091 182.743 137.854 179.264C136.001 178.734 134.036 178.734 132.183 179.264C120.502 182.422 108.821 185.552 97.1389 188.652C97.1046 184.854 98.0922 181.295 99.6705 177.88C100.514 176.059 100.494 174.85 98.0359 174.439C94.6048 173.859 91.4726 172.268 88.6297 170.385C87.0122 169.324 84.7183 168.574 84.3335 166.128Z" fill="#AEDCF7"/>
<path d="M79.5053 160.678C75.4664 164.392 71.4594 168.144 67.3764 171.809C63.2934 175.474 59.2128 179.164 54.9729 182.649C49.0371 187.531 43.2802 192.612 37.6263 197.819C37.1508 198.256 36.5847 198.75 35.9328 198.281C35.2808 197.811 35.5602 197.128 35.7122 196.499C37.7414 188.077 39.6727 179.626 41.5941 171.179C44.0718 160.292 47.0863 149.547 49.3239 138.591C50.6571 132.072 52.5393 125.659 54.0613 119.172C56.7988 107.488 59.8868 95.8877 62.416 84.1523C63.3555 79.7915 64.3578 75.4487 65.4231 71.1239C65.8275 69.4745 66.8005 69.0025 68.5258 69.74C79.2627 74.322 90.0486 78.7861 100.788 83.3632C108.02 86.4458 115.201 89.6513 122.404 92.8027C121.603 93.2353 120.774 93.6262 120.002 94.108C113.645 98.073 107.285 102.016 101.398 106.701C91.2495 114.776 81.8753 123.368 78.3608 136.566C76.1845 144.734 75.5645 152.807 79.5053 160.678ZM65.8275 144.093C65.8275 142.618 65.3128 142.013 63.7835 142.406C60.421 143.272 57.0782 144.348 53.6569 144.815C50.1204 145.307 48.9048 147.254 48.2284 150.469C46.7996 157.269 44.9884 163.989 43.4248 170.762C43.1356 172.018 42.2901 174.028 45.1967 173.286C49.4317 172.205 53.674 171.143 57.9409 170.191C59.6981 169.8 60.6122 168.906 60.9553 167.138C61.5852 163.901 62.3792 160.7 63.063 157.473C64.0041 153.009 64.906 148.552 65.8275 144.093ZM78.101 115.929C78.4834 114.393 77.856 113.601 76.2654 113.946C70.1074 115.273 63.9543 116.631 57.8061 118.019C56.5807 118.294 55.6273 118.918 55.3259 120.283C54.3063 124.925 53.2688 129.565 52.2134 134.201C51.8678 135.708 52.2134 136.241 53.8603 135.855C60.35 134.326 66.8503 132.847 73.3612 131.418C74.6699 131.128 75.4493 130.563 75.6895 129.142C76.437 124.739 77.2874 120.332 78.101 115.929ZM100.945 94.6168C101.026 93.6335 99.9768 93.2181 98.4573 93.5549C97.477 93.7687 96.5751 94.2653 95.6021 94.4619C90.2276 95.5362 84.8383 96.957 79.4612 97.4757C73.0328 98.1001 70.5036 101.126 70.2781 107.04C70.2653 107.224 70.2265 107.404 70.1629 107.576C69.4277 109.818 70.5428 110.157 72.3932 109.759C80.6964 107.972 88.9973 106.173 97.3079 104.423C98.4818 104.177 99.4621 103.781 99.69 102.512C100.112 100.177 100.442 97.8174 100.942 94.6168H100.945ZM62.7983 96.9275C68.9081 95.75 74.991 94.3833 81.1376 93.4639C85.2623 92.8469 87.9312 91.313 87.9067 86.7309C87.9067 86.0156 88.1689 85.2831 88.3968 84.5923C89.1737 82.3505 88.4434 81.7875 86.1911 82.2915C80.0617 83.6877 73.8489 84.8185 67.6288 85.9001C65.5922 86.2491 62.7272 86.3794 62.5091 89.521C62.3684 91.4416 62.0467 93.3445 61.5484 95.2043C61.2739 96.2245 61.3229 97.0897 62.7959 96.9275H62.7983ZM59.6662 112.301C62.0361 112.498 64.0923 111.441 64.7295 108.368C65.1511 106.32 65.6559 104.287 66.0922 102.24C66.2392 101.549 66.0922 100.981 65.2614 100.784C62.9625 100.234 60.1147 101.841 59.2202 104.152C58.3501 106.396 58.1786 108.778 57.7497 111.111C57.5144 112.262 58.0683 112.608 59.6662 112.301Z" fill="#EAE6DE"/>
<path d="M178.515 145.737C178.554 145.188 178.55 144.636 178.503 144.088C178.054 141.266 179.441 140.189 182.074 139.764C189.563 138.557 197.006 137.075 204.498 135.887C212.355 134.643 220.184 133.25 227.984 131.708C232.003 130.917 233.775 132.542 236.003 134.975C238.415 137.613 240.628 140.418 243.057 143.023C245.922 146.096 249.779 146.396 253.529 145.41C257.278 144.425 260.391 142.232 263.283 139.511C269.961 133.225 275.851 126.236 281.968 119.435C289.242 111.345 295.692 102.591 302.91 94.4595C303.373 93.9384 303.667 93.019 304.571 93.3607C305.307 93.636 305.125 94.4693 305.091 95.0814C304.628 102.854 304.679 110.649 303.942 118.41C303.63 121.684 300.812 122.271 298.724 123.461C291.616 127.517 286.541 133.5 285.688 141.465C285.073 147.202 282.012 148.67 277.701 150.002C269.05 152.674 260.474 155.614 251.762 158.06C245.944 159.695 240.422 162.192 234.533 163.571C233.558 163.813 232.54 163.821 231.562 163.593C215.954 160.036 200.337 156.493 184.711 152.964C184.443 152.903 184.174 152.849 183.907 152.782C178.515 151.408 178.515 151.408 178.515 145.737ZM186.233 146.401L186.191 147.242C187.936 147.655 189.669 148.144 191.431 148.471C202.028 150.437 212.645 152.31 223.23 154.356C228.479 155.368 233.611 156.202 238.812 153.987C241.888 152.677 242.074 152.419 239.824 150.071C236.599 146.703 233.349 143.355 230.266 139.87C229.153 138.616 228.028 138.54 226.59 138.817C218.79 140.327 210.985 141.818 203.177 143.291C197.531 144.356 191.879 145.368 186.233 146.401Z" fill="#EBE7DF"/>
<path d="M291.391 188.21C291.489 183.527 290.244 179.114 288.374 174.911C286.904 171.595 283.911 170.221 280.362 170.046C273.88 169.732 267.618 171.03 261.445 172.777C254.065 174.874 246.591 176.74 239.574 179.906C234.917 182.01 230.435 180.668 225.906 179.793C214.958 177.679 203.981 175.678 193.097 173.271C184.256 171.287 175.73 168.087 167.761 163.763C160.364 159.778 152.85 156.022 145.598 151.779C139.008 147.913 132.768 148.854 126.676 152.389C122.426 154.847 118.441 157.797 114.454 160.685C113.209 161.59 112.02 161.964 110.638 161.612C105.658 160.344 100.712 158.972 97.0801 154.943C99.2172 152.276 101.832 150.115 104.53 148.08C106.329 146.728 108.628 147.419 110.68 147.119C118.635 145.956 126.671 145.309 134.592 143.977C138.795 143.272 142.128 145.172 145.638 146.46C158.338 151.13 170.849 156.32 183.625 160.779C189.539 162.846 195.879 163.657 202.028 165.076C211.743 167.323 221.454 169.587 231.16 171.87C233.115 172.339 235.164 172.206 237.042 171.489C242.978 169.373 249.027 167.568 255.014 165.59C263.513 162.787 271.995 159.936 280.487 157.124C281.007 156.951 281.539 156.806 282.066 156.661C286.083 155.545 285.891 155.678 288.315 159.181C293.707 166.956 301.405 170.078 310.647 169.294C312.892 169.102 313.691 169.717 313.87 171.728C314.071 174.011 315.181 176.103 315.23 178.434C315.249 179.289 315.553 180.196 314.421 180.415C312.46 180.791 310.745 182.113 308.649 181.936C308.671 180.85 308.667 179.759 308.723 178.672C308.779 177.586 308.346 176.792 307.194 176.897C304.106 177.182 301.027 177.566 297.949 177.947C296.952 178.072 296.614 178.724 296.692 179.712C296.869 181.897 296.984 184.087 297.123 186.275L291.391 188.21Z" fill="#EBE7DF"/>
<path d="M302.321 65.8585C302.476 68.4789 303.728 70.8363 304.138 73.3953C304.292 74.3614 304.397 75.3348 304.522 76.3058C302.53 77.7045 301.336 79.8062 299.8 81.613C292.403 90.3412 284.993 99.0579 277.569 107.763C272.267 113.96 267.03 120.234 261.518 126.227C257.896 130.16 252.833 130.01 249.463 126.126C244.316 120.182 239.339 114.081 234.268 108.058C233.101 106.674 232.952 105.779 234.829 104.717C242.159 100.573 249.397 96.2638 256.663 92.0087C271.041 83.5869 285.419 75.1603 299.797 66.7287C300.594 66.2641 301.324 65.6963 302.321 65.8585Z" fill="#ACD194"/>
<path d="M302.321 65.8585C301.324 65.6963 300.594 66.2641 299.8 66.7287C285.422 75.1652 271.044 83.5918 256.666 92.0087C249.399 96.2638 242.162 100.573 234.832 104.717C232.954 105.779 233.116 106.684 234.27 108.058C239.341 114.078 244.319 120.182 249.465 126.126C252.835 130.01 257.898 130.157 261.521 126.227C267.045 120.234 272.27 113.96 277.571 107.763C285.008 99.0678 292.419 90.351 299.802 81.613C301.334 79.8062 302.532 77.7045 304.525 76.3058C305.995 78.6435 305.652 80.7158 303.863 82.7954C297.295 90.4158 290.707 98.0361 284.293 105.797C276.233 115.543 267.932 125.059 258.881 133.901C257.825 134.934 256.744 135.927 255.45 136.605C252.191 138.326 249.943 137.588 247.642 134.707C243.115 129.054 238.047 123.891 232.873 118.85C228.837 114.916 225.722 110.315 222.757 105.575C221.83 104.1 222.266 103.255 223.859 103.164C231.028 102.758 236.089 97.7141 242.164 94.9118C248.291 92.0849 254.029 88.4812 260.072 85.4601C266.601 82.1956 272.856 78.3879 279.255 74.8628C285.823 71.2444 292.41 67.6587 299.015 64.1058C300.853 63.1176 301.969 63.8354 302.321 65.8585Z" fill="#EAE7DE"/>
<path d="M79.5055 160.678C75.5646 152.812 76.1847 144.734 78.3634 136.553C81.8778 123.355 91.2521 114.764 101.401 106.689C107.283 102.004 113.655 98.0607 120.005 94.0957C120.777 93.604 121.605 93.223 122.407 92.7904C126.063 93.9236 129.641 95.2486 132.945 97.2151C132.401 98.5524 131.028 98.8621 129.975 99.4988C120.99 104.924 112.125 110.521 104.3 117.611C99.8005 121.686 95.443 125.816 93.6759 131.927C92.0805 137.443 91.0585 142.952 93.2103 148.559C89.1493 153.178 84.3752 156.981 79.5055 160.678Z" fill="#AFDCF6"/>
<path d="M172.983 64.6933C172.628 65.8388 172.358 67.0188 171.555 67.9676C162.702 68.5502 153.85 69.123 145 69.7375C144.085 69.7842 143.184 69.9879 142.336 70.3398C136.68 72.8545 130.994 75.3176 125.426 78.0462C122.946 79.2753 120.316 80.0324 117.828 81.1705C116.537 81.7605 115.24 81.4999 113.87 80.9247C102.609 76.1239 91.3231 71.4115 80.0201 66.6869C78.9491 66.2371 77.78 65.9691 77.0472 64.5876C81.2626 63.5331 85.3456 62.7784 89.4605 62.0876C97.1217 60.7996 104.734 59.2239 112.395 57.9407C115.723 57.3851 119.024 56.5371 122.443 56.5641C122.009 57.6334 120.992 57.5474 120.12 57.7268C115.365 58.7101 110.621 59.7278 105.846 60.598C103.734 60.9839 102.577 62.0459 102.322 64.1599C102.217 65.1632 102.058 66.1602 101.847 67.1466C101.357 69.268 102.239 69.8235 104.204 69.4548C110.944 68.1938 117.684 66.9966 124.436 65.7331C127.477 65.1677 128.357 63.5355 128.499 59.5729C128.609 56.5199 126.472 57.1664 124.801 56.8689C124.541 56.7831 124.293 56.6624 124.066 56.51C126.722 54.5951 129.965 55.0892 132.908 54.3493C132.869 58.1988 132.195 61.9844 131.813 65.802C131.43 69.6195 131.813 69.8137 135.369 68.506C139.709 66.9032 143.863 64.5852 148.708 64.7326C149.997 64.772 150.301 63.9337 150.5 62.7931C151.051 59.6123 151.108 56.4215 150.99 53.2062C152.546 53.2185 154.054 53.452 155.419 54.2632C155.343 56.8148 155.732 59.4008 155.125 61.9057C154.556 64.2582 155.585 64.8113 157.671 64.7769C162.773 64.6958 167.878 64.7154 172.983 64.6933Z" fill="#EBE7DF"/>
<path d="M115.583 138.205C119.505 134.587 123.208 131.113 126.985 127.736C130.872 124.263 134.925 120.976 138.748 117.434C141.949 114.464 146.228 113.682 149.819 111.534C150.953 110.853 151.36 112.026 151.951 112.677C156.816 118.038 160.558 124.28 165.293 129.742C166.19 130.777 167.008 131.868 167.9 132.92C171.241 136.912 169.342 141.625 169.65 146.022C169.741 147.338 168.753 146.956 167.898 146.654C163.509 145.096 159.075 143.635 154.698 142.06C150.571 140.585 146.436 139.093 142.376 137.436C137.766 135.555 133.158 136.848 128.56 137.234C125.289 137.507 122.049 138.137 118.784 138.547C117.828 138.663 116.824 138.766 115.583 138.205ZM161.979 131.529C161.55 130.939 161.269 130.469 160.911 130.071C158.409 127.276 156.166 124.265 153.595 121.514C148.833 116.414 148.939 116.315 143.13 119.808C143.052 119.855 142.981 119.919 142.9 119.958C141.131 120.819 141.003 121.947 142.228 123.434C144.434 126.121 146.588 128.859 148.775 131.566C149.86 132.913 150.98 134.228 152.073 135.573C152.809 136.475 153.512 137.271 154.816 136.423C157.215 134.867 159.957 133.778 161.979 131.529Z" fill="#EBE7DF"/>
<path d="M209.145 102.07C209.913 101.951 210.7 102.072 211.397 102.417C212.55 103.048 213.537 103.947 214.274 105.037C217.951 110.507 221.57 116.018 225.303 121.453C226.621 123.378 225.808 124.004 223.955 124.331C216.936 125.575 209.924 126.853 202.905 128.087C195.08 129.464 187.235 130.737 179.429 132.22C177.468 132.593 176.14 132.254 174.895 130.671C169.92 124.344 164.847 118.092 159.857 111.777C159.266 111.04 158.193 110.236 158.71 109.182C159.2 108.181 160.445 108.346 161.445 108.314C168.212 108.102 174.924 107.377 181.659 106.642L186.735 105.811L197.425 104.049L206.888 102.488C207.628 102.37 208.39 102.154 209.145 102.07ZM217.921 122.655L178.062 126.588C180.561 126.3 182.284 126.082 184.012 125.91C185.416 125.769 185.676 125.172 185.1 123.886C183.345 119.953 181.686 115.993 179.973 112.05C179.579 111.136 178.885 110.499 177.846 110.62C175.853 110.853 173.868 111.168 171.886 111.492C170.589 111.704 170.278 112.318 170.834 113.626C172.305 117.067 173.572 120.605 175 124.071C175.682 125.723 176.826 126.839 178.062 126.588L217.921 122.655Z" fill="#EBE7DF"/>
<path d="M93.2103 148.562C91.0585 142.955 92.0805 137.446 93.676 131.93C95.443 125.819 99.8029 121.689 104.3 117.613C112.126 110.521 120.988 104.924 129.98 99.4939C131.033 98.8572 132.406 98.5475 132.95 97.2102C136.93 98.3262 140.756 99.7003 143.697 102.844C145.103 104.346 145.38 105.475 143.096 106.239C140.106 107.237 138.18 109.71 135.906 111.647C127.61 118.685 119.441 125.873 111.263 133.048C105.967 137.694 100.724 142.411 95.4846 147.109C94.7984 147.714 94.1661 148.385 93.2103 148.562ZM131.933 101.104C131.359 101.337 130.519 101.519 129.862 101.969C119.647 108.958 109.52 116.035 101.582 125.767C98.4942 129.557 96.3106 133.69 95.9184 138.628C95.8498 139.469 95.0533 140.58 96.1464 141.118C97.1978 141.635 97.7149 140.381 98.3325 139.825C110.568 128.642 122.785 117.435 134.982 106.205C135.832 105.425 137.413 104.882 137.106 103.592C136.758 102.131 135.04 102.021 133.754 101.625C133.227 101.46 132.695 101.323 131.928 101.104H131.933Z" fill="#EAE7DE"/>
<path d="M84.3334 166.128C84.7255 168.586 87.0121 169.324 88.6296 170.393C91.4726 172.276 94.6071 173.866 98.0358 174.446C100.487 174.859 100.514 176.069 99.6704 177.888C98.0921 181.302 97.1045 184.862 97.1388 188.66C94.9821 189.225 92.8303 189.835 90.578 189.889C91.2128 187.984 91.8818 186.091 92.4676 184.173C92.8156 183.03 92.5705 182.01 91.1294 182.15C87.2645 182.522 84.2207 180.823 81.3777 178.52C80.3974 177.731 79.4588 177.556 78.4368 178.52C71.9455 184.708 65.446 190.888 58.9383 197.062C58.2815 197.689 57.6811 198.36 59.1344 198.768C57.7203 200.061 55.8307 199.67 54.1862 200.144C50.847 201.139 47.4428 201.898 43.9983 202.418C57.3281 190.154 70.5379 177.819 84.3334 166.128Z" fill="#EAE7DE"/>
<path d="M318.823 134.206L321.519 145.816C321.556 145.99 321.635 146.153 321.749 146.29C321.737 146.676 321.722 147.062 321.71 147.451C320.065 150.108 318.195 152.517 315.338 154.009C311.193 156.162 305.718 155.73 302.481 152.873C298.966 149.783 297.54 144.865 299.028 140.978C302.326 132.338 311.034 129.361 318.823 134.206Z" fill="#ACD194"/>
<path d="M159.168 90.6468C153.867 91.3646 148.439 91.1385 143.268 92.8051C139.101 91.3302 134.714 90.3469 131.2 87.4119C135.406 85.6321 139.042 82.2497 143.515 81.5466C152.338 80.1405 161.305 79.5309 170.209 78.5968" fill="#AFDCF6"/>
<path d="M318.823 134.206C311.034 129.361 302.326 132.338 299.018 140.978C297.53 144.865 298.957 149.783 302.471 152.873C305.709 155.722 311.184 156.162 315.328 154.009C318.198 152.517 320.068 150.108 321.7 147.451C321.854 147.972 322.043 148.483 322.158 149.014C323.359 154.542 322.423 156.556 317.257 159.058C305.574 164.732 292.05 157.583 293.018 143.522C293.322 139.135 295.528 135.533 298.609 132.527C302.888 128.348 307.998 126.396 314.049 126.991C316.178 127.2 317.418 128.06 317.759 130.253C317.987 131.593 318.465 132.891 318.823 134.206Z" fill="#EAE7DE"/>
<path d="M59.1468 198.775C57.6934 198.367 58.2939 197.696 58.9507 197.069C65.4469 190.884 71.9464 184.704 78.4492 178.527C79.4589 177.566 80.4098 177.74 81.3901 178.527C84.233 180.83 87.272 182.529 91.1418 182.158C92.5829 182.018 92.828 183.038 92.48 184.181C91.8942 186.098 91.2251 187.991 90.5904 189.896C89.4655 190.953 87.9803 191.125 86.5833 191.501C77.437 193.935 68.2915 196.359 59.1468 198.775Z" fill="#AED296"/>
<path d="M296.79 53.2431C298.334 52.9973 299.329 53.334 299.844 55.1064C300.388 56.9845 299.334 57.5842 298.077 58.248C289.091 63.0005 280.109 67.748 271.133 72.4907C267.18 74.5752 263.185 76.5811 259.273 78.7394C257.945 79.4768 257.403 79.1253 256.764 77.9061C254.431 73.4469 252.009 69.0345 249.6 64.6171C248.811 63.1692 248.865 62.2056 250.781 61.9279C252.593 61.6673 254.384 61.2764 256.173 60.9446C258.916 63.8944 262.386 66.0109 265.256 68.796C266.859 70.3521 268.133 70.0128 269.873 69.1697C277.909 65.2735 285.438 60.4087 293.629 56.805C295.087 56.156 297.128 55.6472 296.79 53.2431Z" fill="#EBE7DF"/>
<path d="M214.73 93.2746L217.737 87.2742C222.489 87.0923 226.974 86.3696 230.155 82.203C234.013 77.1514 235.385 71.4435 235.013 65.2071L237.684 64.418C239.919 69.3344 242.066 74.2999 244.429 79.1671C245.468 81.3008 245.042 82.4783 242.976 83.5132C239.544 85.2339 236.069 86.9276 232.864 89.0195C228.871 91.6227 224.558 92.692 219.906 92.8862C218.178 92.9477 216.456 93.1394 214.73 93.2746Z" fill="#AED296"/>
<path d="M296.79 53.2431C297.128 55.6472 295.075 56.1659 293.641 56.8026C285.45 60.4063 277.921 65.271 269.885 69.1672C268.145 70.0104 266.871 70.3496 265.268 68.7936C262.398 66.0085 258.928 63.892 256.185 60.9421C267.747 58.7298 279.307 56.5174 290.867 54.305C292.837 53.9437 294.815 53.5971 296.79 53.2431Z" fill="#D7D3CC"/>
<path d="M150.988 53.2062C151.105 56.4019 151.049 59.5975 150.497 62.7931C150.299 63.9337 150.007 64.772 148.706 64.7327C143.861 64.5852 139.707 66.9032 135.366 68.506C131.805 69.8211 131.423 69.6515 131.81 65.802C132.197 61.9524 132.867 58.1988 132.906 54.3493C136.68 53.6536 140.442 52.8744 144.231 52.2893C146.535 51.9304 148.711 53.0538 150.988 53.2062Z" fill="#D7D3CC"/>
<path d="M170.209 78.5919C161.305 79.5309 152.348 80.1406 143.515 81.5417C139.047 82.2521 135.405 85.6272 131.2 87.4069C130.742 87.4199 130.284 87.3878 129.832 87.3111C127.911 86.8047 125.09 86.6031 124.661 84.9463C124.333 83.6779 127.357 83.1838 128.916 82.4291C132.452 80.7207 136.146 79.3097 139.579 77.4193C142.795 75.6494 146.292 75.4725 149.689 75.3569C156.551 75.1111 163.362 74.2901 170.217 74.086L170.209 78.5919Z" fill="#EBE7DF"/>
<path d="M124.063 56.51C124.291 56.6624 124.538 56.7831 124.798 56.8689C126.47 57.1565 128.607 56.51 128.497 59.5729C128.352 63.5355 127.475 65.1678 124.433 65.7331C117.691 66.9893 110.942 68.1913 104.202 69.4548C102.241 69.8236 101.349 69.268 101.844 67.1466C102.056 66.1602 102.215 65.1633 102.32 64.1599C102.565 62.0459 103.731 60.9839 105.844 60.598C110.618 59.7278 115.363 58.7027 120.117 57.7268C120.99 57.5498 122.007 57.6334 122.441 56.5641L124.063 56.51Z" fill="#D7D3CC"/>
<path d="M175.535 92.1758C168.771 93.3828 161.906 93.7097 155.09 94.4496C154.017 94.5652 152.306 94.1645 152.512 96.0253C152.681 97.5371 153.186 99.1669 155.397 98.9285C157.487 98.6998 159.595 98.6064 161.685 98.3877C167.055 97.8296 172.417 97.2299 177.785 96.6473C178.921 97.4972 179.754 98.6933 180.157 100.057C172.422 100.696 164.678 101.234 156.96 102.023C154.424 102.269 152.372 102.117 150.48 100.14C148.782 98.3704 146.559 97.1414 144.902 95.2756C144.236 94.5234 143.415 93.8916 143.268 92.8027C148.439 91.1458 153.867 91.3622 159.168 90.6444C159.168 90.6444 213.755 86.8293 219.754 82.2865L217.737 87.2717L175.535 92.1734" fill="#EAE7DE"/>
<path d="M214.73 93.2746C216.446 93.1394 218.178 92.9477 219.906 92.8764C224.563 92.6822 228.871 91.6129 232.864 89.0097C236.069 86.9178 239.544 85.2241 242.976 83.5033C245.042 82.4684 245.468 81.291 244.429 79.1573C242.066 74.2999 239.919 69.3368 237.684 64.4082C239.775 63.8551 241.36 64.2386 242.405 66.419C244.735 71.2518 247.115 76.0673 249.701 80.7649C250.789 82.7462 250.328 83.8327 248.517 84.6587C241.708 87.756 235.454 91.9226 228.702 95.0789C225.166 96.7333 220.987 96.2146 217.1 96.6571C215.772 96.8095 214.235 97.8862 213.029 96.2761C213.316 95.1399 213.904 94.1028 214.73 93.2746Z" fill="#EAE7DE"/>
<path d="M172.983 64.6933C167.878 64.7154 162.773 64.6933 157.668 64.7794C155.583 64.8138 154.554 64.2607 155.122 61.9082C155.73 59.4033 155.34 56.8173 155.416 54.2657C161.479 55.3129 167.636 55.8537 173.574 57.5842C173.243 59.6147 173.491 61.6452 173.586 63.6781L172.983 64.6933Z" fill="#D7D3CC"/>
<path d="M235.013 65.2071C235.385 71.4435 234.013 77.1514 230.155 82.203C226.969 86.3819 222.489 87.0923 217.737 87.2742L219.757 82.289C226.795 79.0934 229.219 73.1273 229.621 65.9273L235.013 65.2071Z" fill="#EAE7DE"/>
<path d="M229.619 65.9273C229.217 73.1175 226.793 79.1032 219.757 82.289C221.023 76.7641 220.485 70.9772 218.223 65.7823C222.014 66.3133 225.803 67.1392 229.619 65.9273Z" fill="#AFDAF4"/>
<path d="M297.114 186.278C296.974 184.09 296.869 181.9 296.682 179.714C296.604 178.731 296.942 178.075 297.94 177.949C301.018 177.568 304.096 177.185 307.184 176.9C308.336 176.794 308.767 177.566 308.713 178.674C308.659 179.783 308.662 180.852 308.64 181.939C307.003 183.746 304.584 183.751 302.513 184.562C300.765 185.255 298.917 185.715 297.114 186.278Z" fill="#AED296"/>
<path d="M328.126 173.603C328.278 175.508 327.241 176.16 325.888 176.496C324.589 176.818 323.879 176.204 323.349 175.022C322.2 172.445 322.102 169.668 321.761 166.959C321.487 164.776 323.572 164.255 325.043 163.903C326.374 163.581 326.268 165.204 326.479 166.076C327.101 168.655 327.623 171.265 328.126 173.603Z" fill="#EBE7DF"/>
<path d="M312.612 108.837C313.259 111.564 313.919 114.285 314.546 117.016C314.791 118.056 315.347 119.41 313.644 119.602C312.014 119.784 311.044 118.864 311.193 117.107C311.424 114.403 311.683 111.682 311.929 108.968L312.612 108.837Z" fill="#EBE7DF"/>
<path d="M173.586 63.6781C173.491 61.6452 173.243 59.6147 173.574 57.5842C174.279 57.4843 174.997 57.544 175.675 57.7588C176.354 57.9736 176.976 58.3381 177.495 58.8256L173.586 63.6781Z" fill="#EAE6DE"/>
<path d="M321.751 146.29C321.638 146.153 321.559 145.99 321.521 145.816L321.751 146.29Z" fill="#EAE7DE"/>
<path d="M177.785 96.6473C172.417 97.2299 167.055 97.8297 161.685 98.3877C159.595 98.6064 157.487 98.6999 155.397 98.9285C153.191 99.1743 152.681 97.5371 152.512 96.0253C152.306 94.1645 154.017 94.5652 155.09 94.4496L217.737 87.2742L214.73 93.2746L177.785 96.6473Z" fill="#AED296"/>
<path d="M65.8276 144.093C64.9061 148.552 64.0042 153.016 63.0607 157.47C62.3769 160.698 61.5902 163.898 60.953 167.136C60.6099 168.903 59.6957 169.798 57.9385 170.189C53.6741 171.14 49.4318 172.202 45.1944 173.284C42.2878 174.021 43.1333 172.015 43.4225 170.759C44.9861 163.984 46.7972 157.266 48.226 150.467C48.9024 147.254 50.118 145.305 53.6545 144.813C57.0856 144.346 60.4187 143.269 63.7812 142.404C65.3129 142.013 65.8325 142.625 65.8276 144.093Z" fill="#D7D3CC"/>
<path d="M78.1012 115.929C77.29 120.332 76.4395 124.73 75.6896 129.142C75.4445 130.563 74.6701 131.128 73.3613 131.418C66.852 132.859 60.3517 134.338 53.8604 135.855C52.2159 136.241 51.8679 135.708 52.2135 134.201C53.2738 129.566 54.3113 124.927 55.326 120.283C55.6274 118.918 56.5857 118.294 57.8062 118.019C63.9544 116.639 70.1075 115.281 76.2655 113.946C77.8561 113.601 78.481 114.393 78.1012 115.929Z" fill="#D7D3CC"/>
<path d="M100.942 94.6168C100.452 97.8124 100.112 100.177 99.6901 102.52C99.4622 103.788 98.4818 104.184 97.3079 104.43C88.9973 106.18 80.6965 107.979 72.3932 109.767C70.5428 110.165 69.4326 109.826 70.163 107.584C70.2265 107.411 70.2653 107.231 70.2782 107.048C70.5085 101.126 73.0328 98.1 79.4588 97.4757C84.8358 96.957 90.2251 95.5362 95.5997 94.4619C96.58 94.2653 97.4844 93.7687 98.4549 93.5549C99.9744 93.2181 101.023 93.6311 100.942 94.6168Z" fill="#D7D3CC"/>
<path d="M62.7959 96.9275C61.3254 97.0897 61.2739 96.2343 61.5484 95.2068C62.0467 93.347 62.3684 91.444 62.5091 89.5234C62.7395 86.3819 65.5922 86.2516 67.6288 85.9025C73.8489 84.8283 80.0519 83.6902 86.2058 82.3013C88.4507 81.7974 89.1811 82.3603 88.4115 84.6021C88.1665 85.2929 87.9067 86.0254 87.9214 86.7408C87.9459 91.3228 85.277 92.8567 81.1523 93.4737C74.9885 94.3833 68.9057 95.75 62.7959 96.9275Z" fill="#D7D3CC"/>
<path d="M59.6663 112.301C58.0684 112.608 57.5243 112.262 57.7424 111.101C58.1786 108.769 58.3502 106.387 59.2129 104.142C60.1074 101.832 62.9552 100.224 65.2541 100.775C66.0775 100.971 66.2344 101.539 66.0849 102.23C65.6486 104.277 65.1438 106.31 64.7223 108.358C64.0924 111.441 62.0362 112.498 59.6663 112.301Z" fill="#D7D3CC"/>
<path d="M186.232 146.401C191.869 145.368 197.53 144.356 203.172 143.294C210.98 141.819 218.785 140.328 226.585 138.82C228.016 138.542 229.141 138.618 230.261 139.872C233.356 143.358 236.606 146.706 239.819 150.073C242.069 152.421 241.882 152.679 238.807 153.989C233.606 156.202 228.474 155.371 223.225 154.358C212.64 152.313 202.023 150.445 191.426 148.473C189.663 148.144 187.931 147.655 186.186 147.244L186.232 146.401Z" fill="#D7D3CC"/>
<path d="M201.915 112.151C203.243 115.258 204.559 118.368 205.907 121.465C206.709 123.306 206.226 124.191 204.14 124.285C199.844 124.479 195.563 124.73 191.264 125.074C189.879 125.184 189.303 124.609 188.862 123.424C187.477 119.757 185.965 116.138 184.576 112.471C183.439 109.477 186.218 110.75 187.232 110.116L194.053 109.467L197.455 109.142C198.077 109.083 198.68 108.936 199.315 108.884C200.447 108.788 200.619 109.268 201.03 110.189C201.322 110.846 201.621 111.492 201.915 112.151Z" fill="#AED296"/>
<path d="M204.493 109.186C204.451 109.262 204.426 109.346 204.422 109.432C204.421 109.603 204.461 109.772 204.54 109.924C204.954 110.885 205.476 111.797 205.907 112.753C206.481 114.036 207.054 115.32 207.623 116.608C210.603 123.422 210.598 123.424 217.916 122.665C218.19 122.638 218.465 122.627 218.74 122.633C220.47 122.672 220.838 122.121 219.914 120.521C218.044 117.281 216.206 114.019 214.988 110.443C214.338 108.53 212.841 107.785 210.726 107.66C209.407 107.952 208.076 108.171 206.758 108.456C206.228 108.555 204.829 108.567 204.493 109.186Z" fill="#D7D3CC"/>
<path d="M161.979 131.529C159.945 133.778 157.215 134.867 154.816 136.423C153.512 137.271 152.806 136.475 152.073 135.573C150.983 134.228 149.868 132.913 148.774 131.566C146.588 128.862 144.441 126.121 142.228 123.434C141.003 121.947 141.13 120.819 142.9 119.958C142.981 119.919 143.052 119.855 143.13 119.808C148.936 116.315 148.833 116.414 153.595 121.514C156.166 124.265 158.409 127.276 160.911 130.071C161.269 130.469 161.55 130.939 161.979 131.529Z" fill="#D7D3CC"/>
<path d="M178.061 126.588C176.836 126.834 175.682 125.723 175 124.071C173.572 120.605 172.305 117.077 170.834 113.626C170.278 112.318 170.589 111.704 171.885 111.492C173.868 111.168 175.853 110.853 177.846 110.62C178.885 110.499 179.579 111.136 179.973 112.05C181.689 115.983 183.345 119.961 185.1 123.886C185.676 125.175 185.416 125.769 184.012 125.91C182.284 126.082 180.561 126.3 178.061 126.588Z" fill="#D7D3CC"/>
<path d="M131.928 101.104C132.695 101.323 133.227 101.46 133.749 101.623C135.035 102.021 136.753 102.131 137.101 103.589C137.408 104.88 135.827 105.423 134.977 106.202C122.77 117.413 110.554 128.621 98.3274 139.825C97.7098 140.386 97.1927 141.635 96.1413 141.118C95.0482 140.58 95.8447 139.469 95.9134 138.628C96.3055 133.69 98.4891 129.557 101.577 125.767C109.505 116.035 119.642 108.958 129.857 101.969C130.514 101.519 131.354 101.338 131.928 101.104Z" fill="#AED296"/>
<path d="M177.785 96.6497L214.73 93.2771L214.897 97.1463L180.157 100.057L177.785 96.6497Z" fill="#EAE7DE"/>
<path d="M159.168 90.6468C159.168 90.6468 216.487 86.9301 219.754 82.289C223.021 77.648 218.22 65.7823 218.22 65.7823C218.22 65.7823 213.24 63.8157 212.417 65.829C211.593 67.8423 210.302 73.2036 206.275 74.5506C202.248 75.8977 170.209 78.5919 170.209 78.5919L159.168 90.6468Z" fill="#AFDCF6"/>
<path d="M170.217 68.0537C170.217 68.0537 177.392 64.858 176.549 56.6428C176.549 56.6428 184.666 57.1737 183.6 59.5238C182.843 61.1904 181.502 69.295 170.217 74.091" fill="#FDFDFC"/>
<path d="M209.179 67.4883C208.964 67.7808 208.527 68.1126 208.571 68.3585C209.216 72.0064 207.121 71.3869 204.849 70.9346C200.386 70.0472 195.903 69.2434 191.401 68.5846C188.977 68.2331 187.428 67.4588 187.855 64.6343C188.002 63.651 187.879 62.6161 187.203 61.7632C187.99 60.9225 189.09 60.7135 190.1 60.3251C193.465 60.9446 196.815 61.6771 200.204 62.1319C201.92 62.363 203.466 63.742 205.336 62.9431C205.506 63.0017 205.684 63.034 205.863 63.039C206.961 64.5262 208.483 65.6913 209.179 67.4883Z" fill="#D7D3CC"/>
<path d="M217.1 96.6669C220.987 96.2245 225.166 96.7431 228.702 95.0888C235.454 91.9325 241.709 87.7658 248.517 84.6685C250.328 83.8426 250.789 82.7561 249.701 80.7748C247.115 76.0772 244.735 71.2616 242.405 66.4288C241.353 64.2484 239.775 63.8649 237.682 64.4205L235.013 65.2071L229.621 65.9273C225.805 67.1392 222.024 66.3133 218.223 65.7823L177.498 58.8256L184.115 53.9683L214.684 59.6909C224.097 62.6186 233.168 59.7155 242.289 58.0095C262.187 54.2878 282.074 50.508 301.951 46.6699C304.326 46.2078 304.488 47.5573 304.892 49.1281C312.449 78.8295 320.014 108.528 327.587 138.223C330.804 150.849 334.027 163.475 337.255 176.098C338.544 181.145 338.547 181.145 334.201 183.227C333.41 183.419 332.594 183.549 331.824 183.815C307.279 192.283 282.723 200.712 258.217 209.286C253.418 210.965 248.443 212.209 243.9 214.589C240.468 215.498 237.099 216.865 233.503 215.341C200.851 206.037 168.201 196.722 135.555 187.396C134.391 187.064 133.428 187.285 132.369 187.573C101.546 195.931 70.7251 204.3 39.9055 212.681C35.2662 213.952 30.4676 214.743 26.0684 216.833C26.0885 216.812 26.1073 216.79 26.1248 216.766H25.588C21.5369 217.258 21.5614 217.258 22.5809 213.232C33.9428 168.347 45.3022 123.455 56.6591 78.555C57.8527 73.8427 59.1099 69.1476 60.2152 64.4131C60.6196 62.6924 61.3843 61.8246 63.2199 61.5026C90.0046 56.7927 116.772 51.9771 143.559 47.2771C148.091 46.4831 152.441 48.2235 156.838 48.9659C165.955 50.4998 175.027 52.2869 184.12 53.9683L177.503 58.8256C176.983 58.3381 176.361 57.9736 175.682 57.7588C175.004 57.544 174.286 57.4843 173.581 57.5842C167.643 55.8635 161.487 55.3129 155.424 54.2657C154.058 53.4471 152.551 53.221 150.995 53.2087C148.718 53.0538 146.542 51.9304 144.238 52.2893C140.449 52.8817 136.687 53.6536 132.913 54.3493C129.972 55.0867 126.727 54.5951 124.071 56.51L122.448 56.5543C119.034 56.5272 115.733 57.3753 112.4 57.9309C104.739 59.214 97.1266 60.7897 89.4654 62.0778C85.3506 62.7686 81.2675 63.5232 77.0522 64.5778C77.7874 65.9593 78.954 66.2272 80.025 66.6771C91.3158 71.3968 102.609 76.114 113.883 80.9149C115.253 81.4999 116.549 81.7605 117.841 81.1607C120.338 80.0226 122.968 79.2581 125.438 78.0364C130.994 75.3078 136.68 72.8447 142.349 70.3299C143.195 69.982 144.094 69.7816 145.008 69.7375C153.857 69.123 162.71 68.5502 171.562 67.9652C170.417 69.8531 171.057 72.1441 170.224 74.091C163.362 74.295 156.556 75.1234 149.696 75.3618C146.299 75.4774 142.802 75.6544 139.587 77.4243C136.155 79.3146 132.46 80.7256 128.923 82.434C127.362 83.1961 124.333 83.6877 124.666 84.9512C125.095 86.608 127.916 86.8096 129.837 87.316C130.289 87.3927 130.747 87.4248 131.205 87.4119C134.719 90.3617 139.104 91.345 143.273 92.8051C143.42 93.8941 144.253 94.5259 144.907 95.2781C146.564 97.1438 148.787 98.3729 150.485 100.143C152.377 102.109 154.429 102.284 156.965 102.026C164.44 101.261 172.599 100.676 180.088 100.059L217.095 96.662L217.1 96.6669ZM161.428 108.314C160.428 108.27 159.186 108.181 158.693 109.182C158.176 110.236 159.249 111.035 159.84 111.777C164.832 118.092 169.903 124.344 174.878 130.671C176.123 132.254 177.439 132.593 179.412 132.22C187.218 130.745 195.063 129.464 202.888 128.087C209.907 126.858 216.919 125.575 223.938 124.331C225.791 124.004 226.604 123.378 225.286 121.453C221.563 116.018 217.933 110.507 214.257 105.037L161.428 108.314ZM296.773 53.2431C294.798 53.5971 292.82 53.9314 290.849 54.3075C279.288 56.5149 267.728 58.7273 256.168 60.9446C254.367 61.2789 252.575 61.6698 250.776 61.9279C248.853 62.2056 248.816 63.1692 249.595 64.6171C252.004 69.0419 254.426 73.4469 256.759 77.9061C257.398 79.1352 257.94 79.4719 259.268 78.7394C263.19 76.5811 267.175 74.5752 271.128 72.4907C280.114 67.7497 289.095 63.0021 298.072 58.248C299.329 57.5842 300.383 56.9845 299.839 55.1064C299.329 53.334 298.334 52.9973 296.79 53.2431H296.773ZM321.71 147.451C321.71 147.062 321.737 146.676 321.749 146.29L321.518 145.816L318.823 134.206C318.465 132.891 317.987 131.593 317.776 130.253C317.435 128.06 316.195 127.2 314.066 126.991C308.02 126.396 302.91 128.353 298.626 132.527C295.545 135.533 293.339 139.135 293.035 143.522C292.055 157.578 305.591 164.732 317.274 159.058C322.42 156.556 323.366 154.542 322.175 149.014C322.055 148.483 321.867 147.972 321.71 147.451ZM59.1467 198.775C68.2963 196.351 77.4378 193.927 86.571 191.504C87.968 191.133 89.4532 190.956 90.5781 189.899C92.8304 189.837 94.9895 189.227 97.1389 188.669C108.816 185.546 120.491 182.416 132.163 179.279C134.016 178.748 135.981 178.748 137.834 179.279C150.088 182.755 162.342 186.162 174.596 189.604C194.693 195.239 214.789 200.887 234.886 206.545C235.934 206.848 237.052 206.801 238.072 206.413C245.179 203.989 252.316 201.641 259.425 199.213C270.081 195.573 280.73 191.908 291.371 188.217L297.094 186.285C298.9 185.722 300.746 185.262 302.503 184.564C304.564 183.753 306.983 183.748 308.63 181.941C310.733 182.118 312.441 180.796 314.404 180.42C315.536 180.201 315.232 179.294 315.213 178.438C315.164 176.108 314.053 174.014 313.852 171.733C313.674 169.722 312.872 169.107 310.63 169.299C301.388 170.083 293.685 166.961 288.298 159.186C285.874 155.686 286.065 155.55 282.049 156.666C281.522 156.811 280.99 156.956 280.47 157.128C271.978 159.95 263.496 162.782 254.997 165.594C249.009 167.561 242.961 169.373 237.025 171.494C235.147 172.211 233.097 172.343 231.143 171.875C221.433 169.604 211.722 167.339 202.011 165.081C195.869 163.662 189.512 162.851 183.608 160.784C170.839 156.325 158.328 151.13 145.62 146.465C142.111 145.177 138.778 143.269 134.575 143.982C126.654 145.314 118.618 145.949 110.662 147.124C108.611 147.424 106.312 146.733 104.513 148.085C101.817 150.12 99.2 152.281 97.0629 154.946C92.3427 158.141 88.3724 162.187 84.3188 166.135C70.538 177.819 57.3282 190.154 43.9984 202.418C47.447 201.899 50.8554 201.139 54.1986 200.144C55.843 199.677 57.7326 200.068 59.1467 198.775ZM93.2127 148.562C94.1685 148.385 94.8008 147.714 95.487 147.102C100.737 142.404 105.969 137.687 111.265 133.041C119.444 125.865 127.612 118.678 135.908 111.64C138.182 109.71 140.109 107.237 143.099 106.232C145.383 105.467 145.106 104.339 143.699 102.837C140.758 99.693 136.932 98.3188 132.952 97.2004C129.644 95.2338 126.066 93.9162 122.414 92.7756C115.211 89.6242 108.03 86.4188 100.798 83.3362C90.0585 78.7591 79.2726 74.295 68.5357 69.7129C66.8201 68.9755 65.8398 69.4475 65.433 71.0969C64.371 75.4282 63.3686 79.771 62.4259 84.1253C59.8966 95.8606 56.8086 107.461 54.0711 119.145C52.5492 125.639 50.667 132.053 49.3337 138.564C47.0962 149.513 44.0817 160.265 41.6039 171.152C39.6801 179.596 37.7489 188.048 35.722 196.472C35.5701 197.101 35.325 197.807 35.9426 198.254C36.5602 198.701 37.168 198.229 37.6361 197.792C43.2901 192.585 49.047 187.504 54.9828 182.622C59.2227 179.137 63.2983 175.447 67.3863 171.782C71.4742 168.117 75.4739 164.365 79.5152 160.651C84.3751 156.981 89.1493 153.178 93.2102 148.562H93.2127ZM304.522 76.3132C304.397 75.3299 304.292 74.3687 304.138 73.4027C303.728 70.8437 302.476 68.4863 302.321 65.8659C301.969 63.8428 300.851 63.125 299.001 64.123C292.398 67.6776 285.811 71.2632 279.24 74.88C272.841 78.4051 266.587 82.2128 260.058 85.4773C254.014 88.4984 248.282 92.1021 242.15 94.929C236.074 97.7313 231.013 102.776 223.845 103.181C222.239 103.272 221.815 104.115 222.742 105.593C225.707 110.332 228.822 114.934 232.859 118.867C238.032 123.913 243.101 129.081 247.627 134.725C249.928 137.593 252.176 138.338 255.435 136.622C256.742 135.934 257.822 134.941 258.867 133.918C267.917 125.069 276.218 115.561 284.279 105.814C290.692 98.0583 297.268 90.4428 303.848 82.8126C305.65 80.7158 306 78.6435 304.522 76.3132ZM178.515 145.737C178.515 151.408 178.515 151.408 183.907 152.782C184.174 152.849 184.443 152.903 184.71 152.964C200.327 156.504 215.942 160.049 231.555 163.598C232.533 163.826 233.551 163.818 234.525 163.576C240.407 162.197 245.936 159.7 251.754 158.065C260.467 155.607 269.042 152.679 277.693 150.007C282.002 148.675 285.065 147.207 285.681 141.47C286.533 133.505 291.597 127.522 298.716 123.466C300.804 122.276 303.618 121.689 303.934 118.414C304.669 110.654 304.62 102.859 305.084 95.0863C305.118 94.4841 305.299 93.6507 304.564 93.3656C303.66 93.0239 303.366 93.9433 302.902 94.4644C295.695 102.596 289.234 111.35 281.96 119.44C275.833 126.241 269.951 133.23 263.275 139.516C260.391 142.22 257.259 144.432 253.521 145.415C249.784 146.398 245.924 146.101 243.049 143.028C240.62 140.423 238.407 137.62 235.996 134.98C233.768 132.547 231.996 130.922 227.977 131.713C220.19 133.25 212.361 134.643 204.491 135.892C196.999 137.079 189.556 138.562 182.066 139.769C179.434 140.194 178.047 141.271 178.495 144.093C178.545 144.64 178.551 145.189 178.515 145.737ZM115.584 138.205C116.824 138.766 117.828 138.663 118.782 138.545C122.046 138.134 125.286 137.505 128.558 137.232C133.156 136.846 137.763 135.553 142.373 137.433C146.434 139.09 150.569 140.575 154.696 142.057C159.083 143.633 163.519 145.093 167.896 146.652C168.751 146.954 169.739 147.335 169.648 146.02C169.339 141.622 171.239 136.91 167.898 132.918C167.018 131.866 166.183 130.774 165.29 129.739C160.556 124.277 156.813 118.036 151.948 112.675C151.358 112.026 150.951 110.851 149.816 111.532C146.226 113.682 141.947 114.464 138.746 117.431C134.925 120.973 130.872 124.26 126.982 127.733C123.208 131.113 119.519 134.587 115.584 138.205ZM328.126 173.603C327.636 171.265 327.109 168.655 326.479 166.074C326.266 165.201 326.374 163.579 325.043 163.901C323.572 164.255 321.487 164.773 321.761 166.956C322.102 169.66 322.2 172.443 323.349 175.019C323.879 176.204 324.589 176.819 325.888 176.494C327.241 176.16 328.278 175.508 328.126 173.603ZM312.612 108.837L311.938 108.968C311.693 111.672 311.424 114.393 311.203 117.107C311.054 118.869 312.024 119.784 313.654 119.602C315.369 119.41 314.796 118.056 314.556 117.016C313.919 114.285 313.259 111.564 312.612 108.837Z" fill="#FDFDFC"/>
<path d="M191.372 113.656C190.457 111.719 189.988 109.59 190 107.435C190.031 105.969 190.396 104.489 191.256 103.302C191.972 102.319 192.975 101.6 194.116 101.252C195.236 100.916 196.426 100.916 197.546 101.252C198.706 101.596 199.739 102.294 200.51 103.254C201.403 104.371 201.867 105.78 201.973 107.213C202.123 109.224 201.626 111.243 200.898 113.093C200.425 114.272 199.864 115.411 199.221 116.501C198.852 117.134 198.461 117.755 198.052 118.36C197.729 118.843 197.36 119.288 197.001 119.747C196.724 120.112 196.537 120.519 196.208 120.85C196.055 121.003 195.848 121.08 195.702 120.878C194.05 118.612 192.6 116.194 191.372 113.656ZM196.006 102.914C190.435 102.762 190.409 111.781 195.917 111.742C201.474 111.864 201.544 102.874 196.006 102.914Z" fill="#D1351B"/>
<path d="M70.6262 173.411C69.0601 170.216 68.1214 166.283 68.1999 162.718C68.2538 160.199 68.9008 157.654 70.4203 155.614C71.6892 153.927 73.465 152.693 75.4861 152.094C77.47 151.514 79.5777 151.514 81.5616 152.094C83.6167 152.686 85.4461 153.885 86.8112 155.536C88.392 157.455 89.213 159.877 89.4017 162.34C89.6664 165.796 88.7865 169.267 87.4974 172.448C86.6593 174.478 85.6662 176.441 84.5271 178.318C83.8735 179.406 83.184 180.471 82.4586 181.514C81.8851 182.345 81.2332 183.109 80.596 183.901C80.1058 184.525 79.775 185.228 79.1917 185.793C78.9196 186.056 78.552 186.189 78.2971 185.845C75.37 181.942 72.8024 177.78 70.6262 173.411ZM78.8363 154.946C68.9719 154.685 68.9229 170.186 78.6795 170.12C88.5169 170.319 88.6395 154.867 78.8363 154.946Z" fill="#D1351B"/>
<path d="M302.51 131.185C300.944 127.989 300.005 124.056 300.084 120.492C300.138 117.972 300.785 115.428 302.304 113.387C303.574 111.7 305.349 110.465 307.37 109.865C309.354 109.286 311.462 109.286 313.446 109.865C315.501 110.457 317.33 111.656 318.695 113.306C320.276 115.226 321.095 117.648 321.286 120.111C321.55 123.567 320.671 127.038 319.381 130.219C318.543 132.249 317.55 134.211 316.411 136.089C315.758 137.177 315.068 138.242 314.343 139.284C313.769 140.115 313.117 140.88 312.48 141.671C311.99 142.296 311.659 142.999 311.076 143.564C310.804 143.827 310.436 143.96 310.181 143.616C307.254 139.714 304.687 135.553 302.51 131.185ZM310.718 112.731C300.851 112.471 300.804 127.972 310.561 127.906C320.401 128.105 320.526 112.652 310.718 112.731Z" fill="#D1351B"/>
<path d="M103.372 119.651C102.488 117.792 101.958 115.505 102.003 113.432C102.033 111.967 102.398 110.487 103.256 109.301C103.973 108.319 104.975 107.601 106.116 107.252C107.237 106.916 108.426 106.916 109.547 107.252C110.707 107.597 111.74 108.294 112.511 109.253C113.403 110.37 113.867 111.778 113.973 113.21C114.123 115.22 113.626 117.239 112.898 119.089C112.425 120.269 111.864 121.411 111.221 122.503C110.852 123.136 110.463 123.756 110.053 124.361C109.729 124.844 109.361 125.289 109.002 125.748C108.725 126.112 108.538 126.52 108.209 126.85C108.055 127.003 107.848 127.08 107.704 126.878C106.051 124.61 104.601 122.191 103.372 119.651ZM108.007 108.919C102.437 108.767 102.409 117.782 107.918 117.744C113.474 117.855 113.544 108.869 108.007 108.915V108.919Z" fill="#D1351B"/>
<path d="M219.372 141.656C218.457 139.719 217.987 137.59 218 135.435C218.031 133.97 218.396 132.488 219.256 131.301C219.972 130.319 220.975 129.601 222.116 129.253C223.236 128.916 224.426 128.916 225.546 129.253C226.706 129.598 227.739 130.296 228.51 131.255C229.403 132.372 229.867 133.781 229.973 135.214C230.123 137.227 229.626 139.245 228.898 141.096C228.424 142.273 227.862 143.412 227.218 144.499C226.85 145.133 226.458 145.754 226.05 146.359C225.726 146.842 225.358 147.287 224.998 147.748C224.721 148.111 224.534 148.52 224.205 148.85C224.053 149.002 223.845 149.081 223.7 148.879C222.048 146.612 220.599 144.195 219.372 141.656ZM224.006 130.919C218.435 130.768 218.409 139.787 223.917 139.75C229.474 139.864 229.544 130.875 224.006 130.919Z" fill="#D1351B"/>
<path d="M193.372 59.6562C192.457 57.7193 191.987 55.59 192 53.4346C192.031 51.9701 192.396 50.4883 193.256 49.3013C193.972 48.3191 194.975 47.601 196.116 47.2532C197.236 46.9156 198.426 46.9156 199.546 47.2532C200.706 47.5979 201.739 48.2956 202.51 49.2555C203.403 50.3725 203.867 51.7813 203.973 53.2144C204.123 55.2267 203.626 57.2448 202.898 59.0955C202.424 60.2734 201.862 61.4115 201.218 62.4995C200.85 63.1331 200.458 63.7538 200.05 64.3588C199.726 64.8422 199.358 65.287 198.998 65.7475C198.721 66.1108 198.534 66.5199 198.205 66.8503C198.053 67.0019 197.845 67.0805 197.7 66.8789C196.048 64.6121 194.599 62.1945 193.372 59.6562ZM198.006 48.9194C192.435 48.7678 192.409 57.7868 197.917 57.7497C203.474 57.8641 203.544 48.875 198.006 48.9194Z" fill="#D1351B"/>
<path d="M133.433 48.754C131.865 45.5584 130.926 41.6253 131.005 38.0609C131.058 35.5413 131.705 32.9971 133.227 30.9568C134.496 29.2682 136.272 28.0332 138.293 27.4342C140.276 26.8553 142.383 26.8553 144.366 27.4342C146.421 28.0258 148.251 29.2251 149.616 30.8756C151.197 32.7955 152.018 35.2168 152.206 37.6799C152.471 41.1361 151.591 44.6071 150.302 47.7879C149.465 49.812 148.474 51.7687 147.339 53.6409C146.687 54.7299 145.994 55.7967 145.271 56.8365C144.697 57.6674 144.045 58.4319 143.408 59.2234C142.918 59.8478 142.587 60.5508 142.004 61.1162C141.732 61.3792 141.364 61.512 141.109 61.1678C138.18 57.272 135.611 53.1169 133.433 48.754ZM141.639 30.3004C131.774 30.0399 131.725 45.5412 141.482 45.4748C151.322 45.6739 151.447 30.2218 141.639 30.3004Z" fill="#D1351B"/>
<path d="M260.433 88.753C258.867 85.5574 257.928 81.6243 258.004 78.0599C258.058 75.5403 258.708 72.9961 260.227 70.9558C261.495 69.267 263.271 68.032 265.293 67.4332C267.277 66.8556 269.384 66.8556 271.368 67.4332C273.423 68.0266 275.252 69.2257 276.618 70.8747C278.199 72.7945 279.017 75.2158 279.206 77.6789C279.473 81.1351 278.593 84.6061 277.302 87.787C276.464 89.8171 275.472 91.7796 274.334 93.6571C273.68 94.7469 272.991 95.8121 272.265 96.8528C271.69 97.6836 271.04 98.4481 270.4 99.2372C269.91 99.864 269.579 100.565 268.996 101.132C268.727 101.395 268.359 101.528 268.102 101.182C265.175 97.2807 262.608 93.1207 260.433 88.753ZM268.641 70.2995C258.774 70.0389 258.727 85.5402 268.484 85.4738C278.324 85.6656 278.446 70.2134 268.641 70.2921V70.2995Z" fill="#D1351B"/>
</g>
<g clip-path="url(#clip0_337_441)">
<path d="M130.219 224.779C124.445 220.271 124.652 214.991 124.83 209.714C124.975 205.352 124.522 201.465 121.299 197.689C118.034 193.868 114.185 192.55 109.663 192.521C90.3906 192.396 71.1171 192.434 51.8435 192.486C43.5054 192.508 37.2702 198.72 36.0749 207.974C35.2796 214.135 40.9851 222.095 47.5659 223.895C49.1165 224.319 50.7413 224.739 52.3333 224.742C77.8426 224.794 103.353 224.779 130.219 224.779Z" fill="#574F7F"/>
<path d="M100.213 209.065C100.213 208.558 100.029 208.124 99.6618 207.765C99.2868 207.405 98.8454 207.226 98.3375 207.226C97.8297 207.226 97.3883 207.405 97.0133 207.765C96.6461 208.124 96.4625 208.558 96.4625 209.065C96.4625 209.565 96.6461 209.999 97.0133 210.366C97.3805 210.733 97.8219 210.917 98.3375 210.917C98.8532 210.917 99.2946 210.733 99.6618 210.366C100.029 209.999 100.213 209.565 100.213 209.065ZM85.3297 209.065C85.3297 208.558 85.1461 208.124 84.7789 207.765C84.4039 207.405 83.9625 207.226 83.4547 207.226C82.9469 207.226 82.5055 207.405 82.1305 207.765C81.7633 208.124 81.5797 208.558 81.5797 209.065C81.5797 209.565 81.7633 209.999 82.1305 210.366C82.4977 210.733 82.9391 210.917 83.4547 210.917C83.9704 210.917 84.4118 210.733 84.7789 210.366C85.1461 209.999 85.3297 209.565 85.3297 209.065ZM70.4469 209.065C70.4469 208.558 70.2633 208.124 69.8961 207.765C69.5211 207.405 69.0797 207.226 68.5719 207.226C68.0641 207.226 67.6227 207.405 67.2477 207.765C66.8805 208.124 66.6969 208.558 66.6969 209.065C66.6969 209.565 66.8805 209.999 67.2477 210.366C67.6149 210.733 68.0563 210.917 68.5719 210.917C69.0875 210.917 69.5289 210.733 69.8961 210.366C70.2633 209.999 70.4469 209.565 70.4469 209.065Z" fill="white"/>
</g>
<g clip-path="url(#clip1_337_441)">
<path d="M153.48 229C158.301 229 163.052 228.503 167.65 226.961C169.102 226.503 170.477 225.83 171.729 224.965C173.287 223.851 174.022 222.463 173.761 220.447C173.39 217.583 172.452 214.999 170.66 212.744C168.53 210.023 165.498 208.155 162.113 207.48C161.952 207.438 161.782 207.434 161.619 207.468C161.455 207.503 161.302 207.575 161.171 207.679C157.142 210.753 149.666 210.774 145.613 207.637C145.495 207.549 145.359 207.488 145.214 207.459C145.07 207.43 144.921 207.433 144.778 207.47C138.616 208.597 133.681 214.155 133.065 220.335C132.816 222.848 133.922 224.304 135.853 225.46C137.785 226.615 139.877 227.27 142.028 227.795C145.399 228.603 149.136 228.996 153.48 229Z" fill="#574F7F"/>
<path d="M153.621 207.392C155.812 207.422 157.837 206.532 159.568 205.029C162.681 202.325 164.376 198.901 164.362 194.726C164.362 189.641 160.415 185.02 155.4 184.164C149.415 183.14 143.786 186.957 142.691 192.908C141.934 197.027 143.264 200.605 145.937 203.706C147.556 205.584 149.564 206.859 152.046 207.298C152.568 207.364 153.094 207.395 153.621 207.392Z" fill="#EFE1B8"/>
</g>
<g clip-path="url(#clip2_337_441)">
<path d="M318 30.9705C316.207 28.8454 316.24 26.3484 316.307 23.8928C316.397 20.6167 315.558 17.945 313.167 16.1298C312.183 15.3819 311.129 14.9994 309.956 15C290.461 15.0086 270.966 15.0114 251.471 15.0082C248.239 15.0082 246.477 17.4627 245.387 20.655C244.431 23.4548 245.379 25.9642 246.847 28.1908C248.131 30.1387 249.792 31.0047 251.925 31C273.423 30.9524 294.922 30.9425 316.421 30.9705H318Z" fill="#718E2F"/>
<path d="M264.731 22.4883C264.731 21.9805 264.914 21.5469 265.281 21.1875C265.656 20.8281 266.098 20.6484 266.606 20.6484C267.113 20.6484 267.555 20.8281 267.93 21.1875C268.297 21.5469 268.481 21.9805 268.481 22.4883C268.481 22.9883 268.297 23.4219 267.93 23.7891C267.563 24.1562 267.121 24.3398 266.606 24.3398C266.09 24.3398 265.648 24.1562 265.281 23.7891C264.914 23.4219 264.731 22.9883 264.731 22.4883ZM279.613 22.4883C279.613 21.9805 279.797 21.5469 280.164 21.1875C280.539 20.8281 280.981 20.6484 281.488 20.6484C281.996 20.6484 282.438 20.8281 282.813 21.1875C283.18 21.5469 283.363 21.9805 283.363 22.4883C283.363 22.9883 283.18 23.4219 282.813 23.7891C282.445 24.1562 282.004 24.3398 281.488 24.3398C280.973 24.3398 280.531 24.1562 280.164 23.7891C279.797 23.4219 279.613 22.9883 279.613 22.4883ZM294.496 22.4883C294.496 21.9805 294.68 21.5469 295.047 21.1875C295.422 20.8281 295.863 20.6484 296.371 20.6484C296.879 20.6484 297.32 20.8281 297.695 21.1875C298.063 21.5469 298.246 21.9805 298.246 22.4883C298.246 22.9883 298.063 23.4219 297.695 23.7891C297.328 24.1562 296.887 24.3398 296.371 24.3398C295.856 24.3398 295.414 24.1562 295.047 23.7891C294.68 23.4219 294.496 22.9883 294.496 22.4883Z" fill="white"/>
</g>
<g clip-path="url(#clip3_337_441)">
<path d="M343.333 45C338.511 45 333.761 44.5031 329.162 42.9605C327.711 42.5029 326.336 41.8303 325.083 40.965C323.526 39.8514 322.791 38.4625 323.052 36.447C323.422 33.5834 324.36 30.9991 326.153 28.7441C328.282 26.0227 331.314 24.1553 334.699 23.4798C334.861 23.4376 335.03 23.4337 335.194 23.4683C335.357 23.5029 335.51 23.5752 335.641 23.6794C339.67 26.7525 347.147 26.7745 351.2 23.6375C351.318 23.5487 351.454 23.4876 351.598 23.4586C351.743 23.4296 351.892 23.4334 352.034 23.4698C358.197 24.5973 363.132 30.155 363.747 36.3353C363.996 38.8477 362.891 40.3044 360.959 41.4599C359.027 42.6153 356.936 43.2698 354.785 43.7947C351.413 44.6029 347.677 44.996 343.333 45Z" fill="#718E2F"/>
<path d="M343.191 23.392C341.001 23.422 338.975 22.5319 337.244 21.0293C334.131 18.3253 332.436 14.9009 332.45 10.7262C332.45 5.64147 336.398 1.01974 341.413 0.163641C347.398 -0.860084 353.026 2.95743 354.122 8.90821C354.878 13.0271 353.548 16.6051 350.875 19.7062C349.256 21.584 347.248 22.8592 344.767 23.2982C344.244 23.3638 343.718 23.3952 343.191 23.392Z" fill="#EFE1B8"/>
</g>
<g clip-path="url(#clip4_337_441)">
<path d="M318 49.9705C316.207 47.8454 316.24 45.3484 316.307 42.8928C316.397 39.6167 315.558 36.945 313.167 35.1298C312.183 34.3819 311.129 33.9994 309.956 34C290.461 34.0086 270.966 34.0114 251.471 34.0082C248.239 34.0082 246.477 36.4627 245.387 39.655C244.431 42.4548 245.379 44.9642 246.847 47.1908C248.131 49.1387 249.792 50.0047 251.925 50C273.423 49.9524 294.922 49.9425 316.421 49.9705H318Z" fill="#718E2F"/>
<path d="M264.731 41.4883C264.731 40.9805 264.914 40.5469 265.281 40.1875C265.656 39.8281 266.098 39.6484 266.606 39.6484C267.113 39.6484 267.555 39.8281 267.93 40.1875C268.297 40.5469 268.481 40.9805 268.481 41.4883C268.481 41.9883 268.297 42.4219 267.93 42.7891C267.563 43.1562 267.121 43.3398 266.606 43.3398C266.09 43.3398 265.648 43.1562 265.281 42.7891C264.914 42.4219 264.731 41.9883 264.731 41.4883ZM279.613 41.4883C279.613 40.9805 279.797 40.5469 280.164 40.1875C280.539 39.8281 280.981 39.6484 281.488 39.6484C281.996 39.6484 282.438 39.8281 282.813 40.1875C283.18 40.5469 283.363 40.9805 283.363 41.4883C283.363 41.9883 283.18 42.4219 282.813 42.7891C282.445 43.1562 282.004 43.3398 281.488 43.3398C280.973 43.3398 280.531 43.1562 280.164 42.7891C279.797 42.4219 279.613 41.9883 279.613 41.4883ZM294.496 41.4883C294.496 40.9805 294.68 40.5469 295.047 40.1875C295.422 39.8281 295.863 39.6484 296.371 39.6484C296.879 39.6484 297.32 39.8281 297.695 40.1875C298.063 40.5469 298.246 40.9805 298.246 41.4883C298.246 41.9883 298.063 42.4219 297.695 42.7891C297.328 43.1562 296.887 43.3398 296.371 43.3398C295.856 43.3398 295.414 43.1562 295.047 42.7891C294.68 42.4219 294.496 41.9883 294.496 41.4883Z" fill="white"/>
</g>
<g clip-path="url(#clip5_337_441)">
<path d="M82.8056 56.9096C72.0641 56.9096 61.3224 56.9054 50.5805 56.8971C49.7656 56.8971 48.6837 57.2767 48.1908 56.5831C47.5357 55.657 48.7503 55.1906 49.193 54.5768C51.2367 51.7342 50.6668 48.4753 50.4839 45.3958C50.2077 40.6851 52.6166 37.7499 56.1991 35.326C57.6478 34.3461 59.2254 34.0018 60.9481 34.0034C79.4427 34.0171 97.9369 34.0235 116.431 34.0224C121.039 34.0278 125.492 37.8681 126.684 42.7398C127.823 47.394 125.787 52.238 122.069 54.6278C119.35 56.3749 116.531 56.9801 113.348 56.9492C103.166 56.8472 92.987 56.9101 82.8056 56.9096Z" fill="#1515B5"/>
<path d="M70.9046 46.4883C70.9046 45.9805 71.0882 45.5469 71.4554 45.1875C71.8304 44.8281 72.2718 44.6484 72.7796 44.6484C73.2874 44.6484 73.7288 44.8281 74.1038 45.1875C74.471 45.5469 74.6546 45.9805 74.6546 46.4883C74.6546 46.9883 74.471 47.4219 74.1038 47.7891C73.7367 48.1562 73.2952 48.3398 72.7796 48.3398C72.264 48.3398 71.8226 48.1562 71.4554 47.7891C71.0882 47.4219 70.9046 46.9883 70.9046 46.4883ZM85.7874 46.4883C85.7874 45.9805 85.971 45.5469 86.3382 45.1875C86.7132 44.8281 87.1546 44.6484 87.6624 44.6484C88.1702 44.6484 88.6117 44.8281 88.9867 45.1875C89.3538 45.5469 89.5374 45.9805 89.5374 46.4883C89.5374 46.9883 89.3538 47.4219 88.9867 47.7891C88.6195 48.1562 88.1781 48.3398 87.6624 48.3398C87.1468 48.3398 86.7054 48.1562 86.3382 47.7891C85.971 47.4219 85.7874 46.9883 85.7874 46.4883ZM100.67 46.4883C100.67 45.9805 100.854 45.5469 101.221 45.1875C101.596 44.8281 102.037 44.6484 102.545 44.6484C103.053 44.6484 103.494 44.8281 103.869 45.1875C104.237 45.5469 104.42 45.9805 104.42 46.4883C104.42 46.9883 104.237 47.4219 103.869 47.7891C103.502 48.1562 103.061 48.3398 102.545 48.3398C102.03 48.3398 101.588 48.1562 101.221 47.7891C100.854 47.4219 100.67 46.9883 100.67 46.4883Z" fill="white"/>
</g>
<g clip-path="url(#clip6_337_441)">
<path d="M20.3329 59C15.5111 59 10.7609 58.5031 6.1622 56.9605C4.71082 56.5029 3.33595 55.8303 2.08328 54.965C0.525803 53.8514 -0.209121 52.4625 0.0517867 50.447C0.422236 47.5834 1.36031 44.9991 3.1528 42.7441C5.28241 40.0227 8.3141 38.1553 11.699 37.4798C11.8607 37.4376 12.03 37.4337 12.1935 37.4683C12.357 37.5029 12.5103 37.5752 12.6411 37.6794C16.6702 40.7525 24.1469 40.7745 28.1999 37.6375C28.3176 37.5487 28.4537 37.4876 28.5982 37.4586C28.7426 37.4296 28.8917 37.4334 29.0344 37.4698C35.1966 38.5973 40.132 44.155 40.7474 50.3353C40.9964 52.8477 39.891 54.3044 37.9591 55.4599C36.0272 56.6153 33.9359 57.2698 31.7849 57.7947C28.413 58.6029 24.6767 58.996 20.3329 59Z" fill="#1515B5"/>
<path d="M20.1914 37.392C18.0006 37.422 15.9751 36.5319 14.2443 35.0293C11.1314 32.3253 9.43646 28.9009 9.4504 24.7262C9.4504 19.6415 13.3979 15.0197 18.4129 14.1636C24.3978 13.1399 30.0262 16.9574 31.1217 22.9082C31.8785 27.0271 30.5481 30.6051 27.8753 33.7062C26.256 35.584 24.2484 36.8592 21.7668 37.2982C21.2443 37.3638 20.718 37.3952 20.1914 37.392Z" fill="#EFE1B8"/>
</g>
<g clip-path="url(#clip7_337_441)">
<path d="M78.8405 81.9096C69.3227 81.9096 59.8047 81.9054 50.2867 81.8971C49.5645 81.8971 48.6059 82.2767 48.1691 81.5831C47.5887 80.657 48.6649 80.1906 49.0571 79.5768C50.868 76.7342 50.3631 73.4753 50.201 70.3958C49.9563 65.6851 52.0908 62.7499 55.2651 60.326C56.5488 59.3461 57.9466 59.0018 59.4731 59.0034C75.8607 59.0171 92.248 59.0235 108.635 59.0224C112.718 59.0278 116.664 62.8681 117.72 67.7398C118.729 72.394 116.925 77.238 113.631 79.6278C111.222 81.3749 108.723 81.9801 105.904 81.9492C96.8816 81.8472 87.862 81.9101 78.8405 81.9096Z" fill="#1515B5"/>
<path d="M66.3848 71.4883C66.3848 70.9805 66.5684 70.5469 66.9356 70.1875C67.3106 69.8281 67.752 69.6484 68.2598 69.6484C68.7676 69.6484 69.2091 69.8281 69.5841 70.1875C69.9512 70.5469 70.1348 70.9805 70.1348 71.4883C70.1348 71.9883 69.9512 72.4219 69.5841 72.7891C69.2169 73.1562 68.7755 73.3398 68.2598 73.3398C67.7442 73.3398 67.3028 73.1562 66.9356 72.7891C66.5684 72.4219 66.3848 71.9883 66.3848 71.4883ZM81.2676 71.4883C81.2676 70.9805 81.4512 70.5469 81.8184 70.1875C82.1934 69.8281 82.6348 69.6484 83.1426 69.6484C83.6505 69.6484 84.0919 69.8281 84.4669 70.1875C84.8341 70.5469 85.0176 70.9805 85.0176 71.4883C85.0176 71.9883 84.8341 72.4219 84.4669 72.7891C84.0997 73.1562 83.6583 73.3398 83.1426 73.3398C82.627 73.3398 82.1856 73.1562 81.8184 72.7891C81.4512 72.4219 81.2676 71.9883 81.2676 71.4883ZM96.1505 71.4883C96.1505 70.9805 96.3341 70.5469 96.7012 70.1875C97.0762 69.8281 97.5176 69.6484 98.0255 69.6484C98.5333 69.6484 98.9747 69.8281 99.3497 70.1875C99.7169 70.5469 99.9005 70.9805 99.9005 71.4883C99.9005 71.9883 99.7169 72.4219 99.3497 72.7891C98.9825 73.1562 98.5411 73.3398 98.0255 73.3398C97.5098 73.3398 97.0684 73.1562 96.7012 72.7891C96.3341 72.4219 96.1505 71.9883 96.1505 71.4883Z" fill="white"/>
</g>
<g clip-path="url(#clip8_337_441)">
<path d="M316.806 186.91C306.064 186.91 295.322 186.905 284.581 186.897C283.766 186.897 282.684 187.277 282.191 186.583C281.536 185.657 282.75 185.191 283.193 184.577C285.237 181.734 284.667 178.475 284.484 175.396C284.208 170.685 286.617 167.75 290.199 165.326C291.648 164.346 293.225 164.002 294.948 164.003C313.443 164.017 331.937 164.023 350.431 164.022C355.039 164.028 359.492 167.868 360.684 172.74C361.823 177.394 359.787 182.238 356.069 184.628C353.35 186.375 350.531 186.98 347.348 186.949C337.166 186.847 326.987 186.91 316.806 186.91Z" fill="#F3A26A"/>
<path d="M304.905 176.488C304.905 175.98 305.088 175.547 305.455 175.188C305.83 174.828 306.272 174.648 306.78 174.648C307.287 174.648 307.729 174.828 308.104 175.188C308.471 175.547 308.655 175.98 308.655 176.488C308.655 176.988 308.471 177.422 308.104 177.789C307.737 178.156 307.295 178.34 306.78 178.34C306.264 178.34 305.823 178.156 305.455 177.789C305.088 177.422 304.905 176.988 304.905 176.488ZM319.787 176.488C319.787 175.98 319.971 175.547 320.338 175.188C320.713 174.828 321.155 174.648 321.662 174.648C322.17 174.648 322.612 174.828 322.987 175.188C323.354 175.547 323.537 175.98 323.537 176.488C323.537 176.988 323.354 177.422 322.987 177.789C322.619 178.156 322.178 178.34 321.662 178.34C321.147 178.34 320.705 178.156 320.338 177.789C319.971 177.422 319.787 176.988 319.787 176.488ZM334.67 176.488C334.67 175.98 334.854 175.547 335.221 175.188C335.596 174.828 336.037 174.648 336.545 174.648C337.053 174.648 337.494 174.828 337.869 175.188C338.237 175.547 338.42 175.98 338.42 176.488C338.42 176.988 338.237 177.422 337.869 177.789C337.502 178.156 337.061 178.34 336.545 178.34C336.03 178.34 335.588 178.156 335.221 177.789C334.854 177.422 334.67 176.988 334.67 176.488Z" fill="white"/>
</g>
<g clip-path="url(#clip9_337_441)">
<path d="M254.333 189C249.511 189 244.761 188.503 240.162 186.961C238.711 186.503 237.336 185.83 236.083 184.965C234.526 183.851 233.791 182.463 234.052 180.447C234.422 177.583 235.36 174.999 237.153 172.744C239.282 170.023 242.314 168.155 245.699 167.48C245.861 167.438 246.03 167.434 246.194 167.468C246.357 167.503 246.51 167.575 246.641 167.679C250.67 170.753 258.147 170.774 262.2 167.637C262.318 167.549 262.454 167.488 262.598 167.459C262.743 167.43 262.892 167.433 263.034 167.47C269.197 168.597 274.132 174.155 274.747 180.335C274.996 182.848 273.891 184.304 271.959 185.46C270.027 186.615 267.936 187.27 265.785 187.795C262.413 188.603 258.677 188.996 254.333 189Z" fill="#F3A26A"/>
<path d="M254.191 167.392C252.001 167.422 249.975 166.532 248.244 165.029C245.131 162.325 243.436 158.901 243.45 154.726C243.45 149.641 247.398 145.02 252.413 144.164C258.398 143.14 264.026 146.957 265.122 152.908C265.878 157.027 264.548 160.605 261.875 163.706C260.256 165.584 258.248 166.859 255.767 167.298C255.244 167.364 254.718 167.395 254.191 167.392Z" fill="#EFE1B8"/>
</g>
<defs>
<filter id="filter0_d_337_441" x="17.0071" y="27" width="335.997" height="209.988" filterUnits="userSpaceOnUse" color-interpolation-filters="sRGB">
<feFlood flood-opacity="0" result="BackgroundImageFix"/>
<feColorMatrix in="SourceAlpha" type="matrix" values="0 0 0 0 0 0 0 0 0 0 0 0 0 0 0 0 0 0 127 0" result="hardAlpha"/>
<feOffset dx="5" dy="10"/>
<feGaussianBlur stdDeviation="5"/>
<feComposite in2="hardAlpha" operator="out"/>
<feColorMatrix type="matrix" values="0 0 0 0 0 0 0 0 0 0 0 0 0 0 0 0 0 0 0.1 0"/>
<feBlend mode="normal" in2="BackgroundImageFix" result="effect1_dropShadow_337_441"/>
<feBlend mode="normal" in="SourceGraphic" in2="effect1_dropShadow_337_441" result="shape"/>
</filter>
<clipPath id="clip0_337_441">
<rect width="94.2188" height="32.3438" fill="white" transform="matrix(-1 0 0 1 130.219 192.438)"/>
</clipPath>
<clipPath id="clip1_337_441">
<rect width="40.7812" height="45" fill="white" transform="matrix(-1 0 0 1 173.812 184)"/>
</clipPath>
<clipPath id="clip2_337_441">
<rect width="73" height="16" fill="white" transform="matrix(-1 0 0 1 318 15)"/>
</clipPath>
<clipPath id="clip3_337_441">
<rect width="40.7812" height="45" fill="white" transform="translate(323)"/>
</clipPath>
<clipPath id="clip4_337_441">
<rect width="73" height="16" fill="white" transform="matrix(-1 0 0 1 318 34)"/>
</clipPath>
<clipPath id="clip5_337_441">
<rect width="79" height="23" fill="white" transform="translate(48 34)"/>
</clipPath>
<clipPath id="clip6_337_441">
<rect width="40.7812" height="45" fill="white" transform="translate(0 14)"/>
</clipPath>
<clipPath id="clip7_337_441">
<rect width="70" height="23" fill="white" transform="translate(48 59)"/>
</clipPath>
<clipPath id="clip8_337_441">
<rect width="79" height="23" fill="white" transform="translate(282 164)"/>
</clipPath>
<clipPath id="clip9_337_441">
<rect width="40.7812" height="45" fill="white" transform="translate(234 144)"/>
</clipPath>
</defs>
</svg>
