<svg width="379" height="226" viewBox="0 0 379 226" fill="none" xmlns="http://www.w3.org/2000/svg">
<path d="M0.0206241 140.491C-0.743267 126.372 19.8665 112.229 36.3054 107.366C47.4067 104.08 64.98 103.277 98.3277 110.094C135.099 117.611 140.794 109.075 212.619 106.585C279.568 104.265 303.066 98.1276 338.222 110.483C349.323 114.385 377.986 124.459 378.009 137.766C378.04 155.128 331.156 171.105 295.318 176.735C246.765 184.367 240.736 169.554 180.637 169.722C115.485 169.913 97.3174 187.38 49.1827 173.229C38.6315 170.124 1.02132 159.068 0.0206241 140.491Z" fill="#EDEDED"/>
<g clip-path="url(#clip0_337_440)">
<path d="M92.9336 52.4355C96.4365 45.8518 102.546 42.4992 109.303 39.3993C105.555 37.1674 102.352 34.6637 99.565 31.6544C94.8937 26.6088 95.0081 25.4952 100.779 21.6037C103.485 19.7772 106.327 18.2129 109.556 17.4642C110.538 17.2257 111.724 16.911 112.079 18.0126C112.909 20.5927 114.862 19.9703 116.555 19.7462C119.871 19.305 123.162 18.6541 126.465 18.077V22.8055C128.043 21.4773 129.355 19.4672 130.628 19.4839C133.931 19.5554 136.847 18.6731 139.844 17.6406C141.139 17.19 140.629 18.1581 140.469 18.7471C137.746 19.5435 135.361 20.9217 135.173 24.0145C134.946 27.8559 134.157 32.1027 139.227 33.946C140.359 34.3609 141.904 34.5659 142.057 36.3996C142.791 45.2819 143.612 54.1571 144.346 63.0394C144.823 68.6812 145.083 74.3373 145.624 79.9695C146.487 88.9377 147.532 97.8915 147.82 106.915L138.638 101.149C141.041 96.9282 142.052 92.5645 139.689 87.9958C138.106 84.9341 135.342 83.4437 132.023 83.0932C129.448 82.8214 127.447 83.9278 125.89 86.4506C126.772 86.3862 127.349 86.4387 127.869 86.2885C130.766 85.4443 133.053 86.3862 134.546 88.8733C136.453 92.0471 137.035 95.4736 135.662 99.0599C132.543 96.437 132.221 100.312 130.602 101.464C129.648 99.9422 128.68 98.6236 127.953 97.1714C126.999 95.2829 125.995 95.0396 124.679 96.7636C122.962 99.0122 121.03 99.2292 118.841 97.4385C118.474 97.138 118.002 96.9616 117.625 96.6754C116.28 95.6238 115.591 95.8384 115.169 97.6006C113.739 103.536 110.639 109.416 114.931 115.418C113.789 115.468 112.644 115.489 111.504 115.575C109.477 115.723 109.196 116.615 110.474 118.122C110.56 119.154 110.684 120.184 110.724 121.222C110.879 125.201 109.592 127.66 106.788 128.781C106.912 126.778 107.889 124.918 107.66 122.843C106.576 112.987 105.516 103.131 104.479 93.2751C104.384 92.3594 104.32 91.4986 103.216 91.3126C97.6454 90.3755 92.2779 88.3678 86.5741 88.1436C86.1258 87.2208 85.1434 86.4506 86.0638 85.2059C86.4287 84.7147 86.5145 83.9326 86.5407 83.2768C86.6981 77.8878 87.9714 72.6633 88.8108 67.3745C88.8108 66.807 88.8187 66.2387 88.8346 65.6696C90.5157 61.356 90.9449 56.6561 92.9336 52.4355Z" fill="#3D3C3B"/>
<path d="M229.392 46.8891C233.873 46.3335 238.344 45.4584 243.611 46.9869C238.015 40.4438 237.698 33.3236 237.929 26.0031C238 23.7402 238.84 23.1632 240.867 23.3301C243.748 23.5847 246.522 24.5418 248.948 26.1176C250.378 27.0142 250.727 27.9036 248.755 28.5856C247.92 28.8741 246.847 29.3129 246.89 30.1689C246.942 31.416 248.304 31.6592 249.274 31.9167C253.83 33.1603 258.562 33.6334 263.274 33.3165C267.089 33.0399 270.737 33.6622 274.071 35.701C275.723 36.7049 276.281 37.63 274.827 39.4661C271.434 43.7416 267.554 47.3565 261.996 49.7935C268.322 51.2671 273.52 53.5109 277.271 58.2656C279.5 62.1585 281.194 66.334 282.307 70.6794C284.792 80.5418 285.884 90.5353 284.909 100.724C284.689 103.049 284.217 105.493 285.366 107.79C283.542 109.735 280.879 111.4 283.175 114.705C283.361 114.969 283.013 115.611 282.913 116.076C282.076 117.318 282.658 118.72 282.464 120.034C279.417 121.603 279.417 121.603 279.412 118.386V115.93C276.496 119.455 273.79 117.538 271.009 116.267C267.716 114.76 262.516 118.687 262.799 122.345C262.873 123.318 263.469 124.729 261.931 124.968C258.66 125.509 259.13 127.705 259.499 129.932C259.444 131.215 258.836 131.716 257.506 131.687C252.93 131.592 248.354 131.601 243.781 131.57C248.132 124.827 252.339 117.979 256.957 111.416C258.951 108.581 259.79 105.341 257.911 101.962C257.208 100.698 258.076 99.7944 258.703 98.8334C260.689 95.7884 262.623 92.71 264.638 89.684C265.651 88.1651 264.748 87.371 263.632 86.6581C262.516 85.9451 261.402 85.5206 260.508 87.1183C259.48 88.9544 258.445 90.8095 257.186 92.4834C255.279 94.9991 254.349 98.8024 249.956 98.2802C249.639 98.242 249.241 98.8453 248.886 99.1529C246.024 99.6727 244.973 102.205 243.401 104.16C241.787 106.159 241.017 108.825 238.661 110.236C238.363 109.309 238.833 108.546 239.221 107.787C241.189 103.946 242.417 99.8063 244.081 95.8432C245.462 92.5621 245.221 89.4622 243.44 86.4697C241.949 83.9421 241.949 81.3287 242.903 78.72C244.064 75.5868 245.326 72.4821 246.718 69.4442C247.806 67.0717 246.883 65.9319 244.751 65.0043C242.438 63.998 241.286 65.0901 240.518 67.0168C239.598 69.3298 238.878 71.7262 237.896 74.0058C236.703 76.7671 236.095 80.103 232.774 81.2452C230.482 82.0321 228.481 83.2673 226.426 84.4572C226.397 81.7627 226.7 79.0944 226.903 76.4142C227.614 66.5614 228.357 56.7133 229.392 46.8891Z" fill="#3D3C3B"/>
<path d="M285.364 107.78C284.215 105.493 284.687 103.04 284.906 100.715C285.86 90.5258 284.789 80.5323 282.305 70.6699C281.191 66.3245 279.498 62.149 277.269 58.2561C278.931 57.5975 280.685 57.2024 282.469 57.0853C280.361 59.0168 280.528 61.0985 281.802 63.4615C282.469 64.6991 282.548 66.2419 283.108 67.5557C283.824 69.2249 284.747 70.7939 285.583 72.4058C286.666 74.4899 288.659 73.4836 290.555 73.5456C285.829 77.5993 285.514 79.6023 288.91 82.819C291.502 85.2727 294.692 84.9388 297.84 84.5478C298.615 84.45 298.956 83.7132 299.366 83.0026C300.952 80.2604 306.231 78.5436 309.083 79.6977C309.538 79.8837 310.001 80.1197 309.922 80.7016C309.832 81.3454 309.245 81.2929 308.797 81.3001C307.426 81.3215 306.612 82.1323 305.721 83.1552C309.145 83.9731 311.868 82.5138 314.348 78.8989C315.485 77.2297 315.512 75.8181 314.787 73.8485C312.798 68.4523 308.508 65.362 304.161 62.2478C303.227 61.5777 302.003 60.8171 301.002 61.3202C299.552 62.0356 301.095 63.3709 300.84 64.4201C300.806 64.5632 300.601 64.6585 300.47 64.7849C299.843 64.8302 299.755 64.2198 299.418 63.9313C294.888 60.0779 294.227 60.1828 291.721 65.672C291.721 60.7122 289.477 58.0844 285.102 57.3118C284.959 57.2856 284.863 57.0352 284.735 56.8898C283.18 53.4442 281.575 50.02 281.315 46.1595C281.11 43.1168 281.611 42.8736 284.463 43.7106C287.009 44.4593 287.489 46.0402 287.212 48.2817C285.102 49.6528 285.154 50.1464 288.113 54.1357C287.579 50.6066 289.914 50.3562 292.041 50.1321C296.187 49.6957 296.428 53.1342 297.194 56.1482C298.181 54.6865 298.698 53.5109 298.684 52.0945C298.67 50.5208 299.526 49.4 301.128 49.5717C302.731 49.7434 303.751 50.919 303.417 52.5857C303.193 53.7327 303.72 54.6388 303.801 55.6665L301.178 59.0692C301.274 59.1718 301.369 59.3554 301.514 59.415C311.801 63.5545 317.238 71.8479 320.591 81.8747C324.167 92.6051 326.342 103.562 325.305 114.962C325.271 115.31 325.24 115.661 325.207 116.009C324.365 116.934 324.754 118.076 324.663 119.133C322.66 118.997 320.557 119.741 318.759 119.483C315.774 119.056 312.748 120.847 309.834 119.08C309.169 118.677 308.193 119.276 307.404 119.7C305.666 120.635 304.49 122.13 303.291 123.616L302.161 122.442C301.657 120.754 301.684 118.606 298.903 118.959C298.996 117.967 301.049 116.789 298.534 116.314C297.838 116.183 298.176 115.148 298.152 114.509C298.081 112.506 298.028 110.503 297.969 108.5C298.553 107.601 299.826 106.593 297.566 106.182C296.64 106.018 296.023 105.41 295.591 104.649C294.852 103.35 293.884 103.471 292.68 103.92C290.062 104.878 287.715 106.33 285.364 107.78ZM315.244 94.6224C318.821 94.6772 320.638 92.8268 320.471 88.642C320.35 85.5898 318.864 82.3469 315.812 82.4423C312.092 82.5496 306.751 86.3362 306.767 89.1451C306.772 91.6894 311.215 94.5604 315.244 94.6224ZM302.044 90.5687C303.236 89.5505 305.33 89.0235 305.308 87.1254C305.294 85.6947 303.894 84.7409 302.237 84.8148C300.065 84.9222 300.162 86.8012 299.914 88.1699C299.683 89.4503 300.625 90.2277 302.039 90.5687H302.044Z" fill="#524E4E"/>
<path d="M229.392 46.8891C228.362 56.7133 227.614 66.5614 226.896 76.4142C226.7 79.0944 226.397 81.7627 226.419 84.4548C226.729 86.4459 225.31 88.2152 225.415 90.0369C225.813 96.9854 223.865 103.75 224.044 110.67C224.092 112.532 223.944 114.345 223.271 116.25C222.527 118.367 222.317 120.978 224.905 122.643C225.947 123.31 226.655 124.417 226.424 125.833C225.849 125.867 225.277 125.922 224.702 125.931C219.602 126.031 214.21 125.085 210.757 130.493C209.975 131.714 208.64 131.475 207.848 129.911C206.894 128.034 206.372 125.941 204.973 124.3C206.425 122.929 207.934 121.72 207.956 119.343C208.015 112.807 207.808 106.28 208.394 99.73C209.055 92.3642 208.328 84.946 208.959 77.5206C209.637 69.5778 208.974 61.5706 209.546 53.5753C210.176 44.7955 208.223 47.2921 216.425 43.5866C216.573 43.5198 216.793 43.6152 217.165 43.6581C217.165 44.5952 217.215 45.5514 217.165 46.5004C216.599 55.7857 215.886 65.0639 215.495 74.3564C215.326 78.3862 214.992 82.4184 214.68 86.4196C214.413 89.8772 214.477 93.3347 214.203 96.7756C213.628 104.129 213.116 111.488 212.534 118.842C212.331 121.393 213.674 122.896 215.958 122.853C218.021 122.807 219.373 121.203 219.461 118.99C219.814 109.883 220.479 100.801 221.159 91.7132C221.76 83.675 221.65 75.5725 222.511 67.57C222.942 63.5593 222.816 59.5414 223.317 55.5258C223.82 51.4722 223.968 47.3016 224.051 43.1764C224.084 41.419 222.539 39.521 224.955 37.971C222.332 38.1284 220.002 38.5695 217.644 38.7841C212.422 39.2611 207.25 40.4318 201.956 39.9645C202.056 37.3868 202.307 34.802 201.617 32.2601C205.356 32.1075 208.993 31.5114 212.376 29.8064C213.075 29.4535 214.463 30.2214 214.37 28.5808C215.417 28.4473 216.475 28.3853 217.503 28.1707C219.976 27.6532 222.778 27.8511 224.309 25.1757C226.815 24.8848 228.944 23.6234 231.059 22.4073C231.741 22.0162 232.955 21.1387 231.059 20.5235C231.321 19.5697 229.33 19.3551 230.31 18.1819C236.606 19.9822 239.279 25.1757 236.784 30.9606C235.964 32.8682 234.03 33.6121 232.254 34.275C230.685 34.864 229.996 35.72 229.948 37.4059C229.86 40.5654 229.588 43.7249 229.392 46.8891Z" fill="#616060"/>
<path d="M88.7965 67.3793C87.9667 72.6681 86.6862 77.8926 86.5289 83.2816C86.5098 83.9374 86.4239 84.7123 86.052 85.2107C85.1292 86.4554 86.114 87.2256 86.5622 88.1484C82.9362 87.2041 79.3093 86.2575 75.6817 85.3084C74.8161 85.07 74.0411 84.853 73.5356 85.9737C72.3005 88.7207 70.9937 91.439 69.7204 94.1669C72.2671 91.6346 73.0587 96.0745 74.902 95.2757C75.2429 96.8781 73.8099 97.3717 73.011 98.2349C72.0338 99.2972 70.999 100.305 69.9112 101.254C64.5698 105.865 63.5946 112.18 63.0676 118.677C61.9183 119.679 61.4771 121.353 59.932 121.975C56.2765 120.807 52.1871 120.962 48.9846 118.398C48.8058 118.198 48.6294 117.998 48.4505 117.8C46.2901 113.167 46.9411 108.369 47.8305 103.641C50.2341 90.8501 54.7933 78.8798 62.0423 68.0183C63.3681 66.032 64.7439 64.0362 66.8113 62.7009L66.9138 62.8082C66.9997 64.184 66.2175 65.0854 65.3854 66.0821C63.6137 68.2043 61.6631 70.2097 60.8548 73.0282C60.3588 74.7784 61.0479 76.0208 62.5239 75.9063C64.7654 75.7346 67.1404 75.4294 69.0814 74.0416C69.6274 73.6553 70.9198 73.0878 69.625 72.134C68.1037 71.0204 69.3246 70.9107 70.1019 70.7343C74.3726 69.7805 78.226 70.3981 81.4975 73.6076C82.623 74.7093 83.5959 76.946 85.1745 76.4118C86.97 75.799 86.5289 73.269 87.0344 71.5832C87.497 70.1024 86.9128 68.252 88.7965 67.3793ZM61.7776 83.0885C63.9977 83.0605 66.201 82.6987 68.3135 82.0154C69.0551 81.777 69.7442 81.3311 69.6799 80.4059C69.6083 79.5212 68.7451 79.5355 68.1538 79.3615C66.5228 78.8846 64.8608 78.4863 63.2131 78.05C61.3054 77.5445 59.6363 77.8855 58.239 79.34C57.7334 79.8694 57.5045 80.5108 57.9504 81.157C58.3619 81.7874 58.9324 82.2979 59.6044 82.6371C60.2765 82.9762 61.0261 83.1319 61.7776 83.0885Z" fill="#524E4E"/>
<path d="M302.156 122.431L303.286 123.604C303.422 124.348 302.273 125.049 303.019 125.7C303.658 126.258 304.488 125.917 305.096 125.352C305.704 124.786 306.472 124.715 307.242 124.66C308.348 125.755 309.514 124.248 310.635 124.736C310.897 126.384 312.135 125.979 312.471 125.189C313.346 123.12 314.379 124.517 315.395 124.784C317.474 127.004 316.229 129.77 316.62 132.269L315.998 136.266C315.452 137.765 314.82 139.241 314.374 140.77C313.659 143.264 312.466 143.958 310.37 142.053C310.046 141.759 309.519 141.693 309.085 141.521C307.893 140.381 307.23 143.617 306.102 141.962C304.247 139.239 303.114 141.247 302.049 142.558C300.351 144.642 298.779 145.069 296.977 142.732C296.578 142.217 295.873 141.433 295.455 141.516C292.041 142.191 288.438 142.565 285.352 144.018C283.445 144.921 281.811 146.812 279.689 147.733C277.548 148.416 275.337 148.859 273.098 149.051C271.586 148.834 270.11 148.56 269.7 146.726C269.917 143.987 272.292 143.028 273.992 141.509C275.018 140.968 276.026 140.374 277.228 140.317C277.273 143.09 279.179 144.435 281.592 143.004C283.514 141.864 285.374 140.858 287.949 140.782C286.838 139.272 285.803 138.443 284.27 138.431C285.083 137.954 285.481 137.267 285.304 136.301L285.266 134.546C285.467 133.507 285.779 132.472 285.846 131.423C286.008 128.866 286.323 126.415 288.683 124.822L290.713 125.838C292.093 125.662 293.65 126.58 294.852 125.375C297.303 122.924 299.654 121.644 302.17 125.528L302.156 122.431Z" fill="#616060"/>
<path d="M59.9343 121.975C61.4795 121.353 61.9206 119.679 63.0699 118.68C64.8583 116.259 71.9546 114.865 75.126 116.321C74.2605 117.454 72.5031 117.275 71.6327 118.615C72.0786 118.842 72.4077 119.138 72.7558 119.159C74.2867 119.262 76.1061 118.05 77.2864 119.636C78.2831 120.995 78.8125 122.707 79.5207 124.274C80.6557 126.789 78.6861 129.126 79.07 131.601C78.2975 132 78.4906 132.765 78.3761 133.414L76.1729 134.558C74.766 135.021 73.1183 134.899 72.0763 136.249C69.9874 138.395 73.8098 138.915 73.3257 140.615C72.6962 140.889 72.2122 140.675 71.6566 140.455C67.7722 138.946 63.5492 138.331 59.9534 136.06C58.4297 132.722 55.0317 133.345 52.435 132.911C47.6469 132.107 42.7372 131.985 37.8704 131.718C35.8531 131.613 34.5559 131.003 34.451 128.816C34.5464 123.771 35.4048 123.346 40.0212 123.547C40.6936 123.575 41.3685 123.516 42.0409 123.496H44.9953L49.4734 123.527C53.0001 123.353 56.7724 124.715 59.9343 121.975Z" fill="#94BC45"/>
<path d="M284.735 56.8874C284.856 57.0328 284.959 57.2832 285.102 57.3095C289.477 58.082 291.733 60.7098 291.721 65.6696C294.227 60.1852 294.878 60.0755 299.418 63.9289C299.759 64.2174 299.843 64.8278 300.47 64.7825C300.596 64.6633 300.806 64.5608 300.84 64.4177C301.095 63.3709 299.552 62.0332 301.002 61.3178C302.003 60.8242 303.226 61.5754 304.161 62.2454C308.508 65.3596 312.798 68.4451 314.787 73.8461C315.502 75.8157 315.485 77.2369 314.348 78.8965C311.868 82.5114 309.145 83.9707 305.721 83.1528C306.612 82.1299 307.426 81.3192 308.797 81.2977C309.245 81.2977 309.832 81.343 309.922 80.6992C310.001 80.1174 309.538 79.8813 309.083 79.6953C306.221 78.5412 300.952 80.258 299.366 83.0002C298.956 83.7156 298.615 84.4476 297.84 84.5454C294.692 84.9365 291.502 85.2608 288.91 82.8166C285.514 79.5999 285.829 77.6041 290.555 73.5432C288.659 73.4812 286.666 74.497 285.583 72.4034C284.746 70.7915 283.819 69.2201 283.108 67.5533C282.548 66.2395 282.469 64.6919 281.802 63.4591C280.528 61.0961 280.371 59.0144 282.469 57.0829L284.735 56.8874Z" fill="#616060"/>
<path d="M285.29 136.294C285.467 137.26 285.068 137.942 284.255 138.424C281.837 138.791 279.009 137.627 277.214 140.31C276.022 140.374 275.003 140.968 273.978 141.502C273.604 139.494 272.45 138.466 270.358 138.624C267.44 137.403 264.938 135.307 261.805 134.537C259.993 133.526 260.021 131.59 259.497 129.932C259.127 127.703 258.657 125.507 261.929 124.965C263.467 124.71 262.883 123.31 262.797 122.342C262.513 118.685 267.714 114.757 271.007 116.264C273.787 117.535 276.491 119.452 279.41 115.928V118.37C279.41 121.586 279.41 121.586 282.462 120.017C285.765 120.017 286.733 123.043 288.662 124.813C286.294 126.403 285.986 128.866 285.824 131.413C285.758 132.462 285.445 133.497 285.245 134.539C283.752 134.706 282.212 134.742 280.462 136.292L285.29 136.294Z" fill="#EBCB96"/>
<path d="M140.469 18.7471C140.629 18.1581 141.139 17.19 139.844 17.6406C136.847 18.6803 133.921 19.5483 130.628 19.4958C129.355 19.4719 128.043 21.4892 126.465 22.8174V18.0889C126.634 16.2838 126.861 14.4812 126.942 12.6713C126.996 11.5887 127.709 11.2048 128.489 10.8328C133.02 8.67009 137.588 6.56695 142.081 4.3422C143.807 3.49092 145.324 3.25009 147.16 4.16813C148.164 4.67364 149.487 5.08855 150.751 4.53773C151.147 6.55741 152.973 6.07812 154.254 6.55264C155.01 7.40868 157.044 7.02955 156.786 8.66055C156.61 9.78604 154.747 9.87189 154.235 11.0451C155.666 11.7604 157.986 10.1151 158.589 12.6308C159.066 14.6505 160.003 16.5771 159.989 18.7113C158.689 21.6371 155.725 20.9837 153.429 21.7706C152.694 21.9685 151.521 19.8392 151.195 22.1974C149.17 22.1116 147.313 22.7793 145.457 23.4565C144.611 21.0386 142.613 19.8129 140.469 18.7471Z" fill="#EBCB96"/>
<path d="M182.396 8.08828C183.943 6.12344 184.625 3.14756 188.212 3.71269C189.969 3.99168 191.836 3.86291 193.617 3.63162C196.181 3.2954 198.05 3.84861 198.725 6.61465C198.682 7.41346 199.188 7.8069 199.829 8.07635C199.829 8.36726 199.843 8.66056 199.848 8.95386C199.727 12.3208 198.949 15.59 198.115 18.8162C197.399 21.5727 196.803 24.117 197.027 26.3727L196.903 26.4634C191.781 25.2711 187.058 26.1534 182.754 29.2103C180.333 29.8971 177.906 30.1951 175.462 29.3105C178.027 29.6109 178.271 28.1373 177.846 26.1629C177.657 25.2568 177.47 24.3515 177.286 23.4469C178.027 20.4806 177.906 16.9897 181.969 16.1098C182.923 15.9023 183.095 15.249 182.446 14.3882C181.991 13.7897 181.702 13.06 181.337 12.3876C180.779 10.7303 182.928 9.73836 182.396 8.08828Z" fill="#C6A262"/>
<path d="M92.9336 52.4355C90.9449 56.6561 90.5157 61.3631 88.8227 65.6743C88.5939 65.1653 88.3384 64.6686 88.0573 64.1864C87.4039 63.1801 86.4931 62.3408 85.2722 62.4672C84.1729 62.5816 84.2874 63.7 84.2278 64.5488C84.1896 65.0711 84.0036 65.517 83.4361 65.567C82.7207 65.6338 82.5395 64.9876 82.2176 64.5274C79.5493 60.7122 79.2298 60.6907 76.8095 64.3581C76.4471 64.9065 76.1776 65.7435 75.3574 65.3119C74.8113 65.0257 74.9568 64.2627 75.1547 63.7286C75.5362 62.7008 75.9583 61.5992 74.8852 60.8528C73.7287 60.0516 72.4459 60.4546 71.38 61.17C70.0089 62.088 68.6926 63.0323 66.9233 62.8105L66.8208 62.7032L69.5153 60.2615L66.3224 58.7521C67.0831 58.094 67.4169 57.4072 66.3224 56.792C65.4923 56.2932 64.8285 55.5597 64.4148 54.6841C63.4395 52.8075 65.1135 52.0993 66.208 51.3458C67.0831 50.7353 68.354 49.9318 69.1457 51.4316C70.6766 54.3312 73.9147 54.7223 76.2229 56.4796C76.7451 56.8779 77.6703 57.4191 78.2593 56.5106C78.6981 55.8334 78.0209 55.2969 77.6894 54.7175C75.5863 50.9547 75.6101 50.1869 78.741 47.2516C80.6057 45.5013 81.1565 42.8712 83.9225 41.1377C81.9553 40.8468 81.2757 41.4643 80.5675 42.3299C78.8054 44.476 77.0623 46.665 75.0831 48.6131C73.9576 49.7267 72.4029 51.1169 71.1845 48.4176C70.8315 47.6402 70.1043 47.0727 69.0384 47.5329C68.1227 47.9288 67.1522 47.7881 66.2008 47.5759C67.4493 46.5061 69.0396 45.919 70.6837 45.921C71.4253 45.9019 72.4339 45.8232 72.6223 46.7651C73.1302 49.2975 73.9863 47.428 74.4918 46.8915C76.335 44.9314 78.1997 42.9737 79.8355 40.8444C81.6692 38.4599 83.5053 38.8175 85.4224 40.5129C88.6976 43.3795 91.0826 47.1249 92.2946 51.3052C92.421 51.7273 92.3303 52.271 92.9336 52.4355Z" fill="#524E4E"/>
<path d="M224.316 25.1757C222.785 27.8511 219.983 27.6532 217.51 28.1707C216.483 28.3853 215.424 28.4473 214.384 28.5832C211.699 27.2431 208.9 26.3179 205.86 26.2678C204.331 25.2902 202.65 25.6359 201 25.7098H201.019C200.943 23.0869 201.339 20.7977 204.539 20.2255C205.254 20.0919 206.668 19.2502 205.459 18.6064C201.737 16.632 203.702 14.2642 204.596 11.8892C206.844 9.9482 209.196 8.19081 212.2 7.59707C213.094 7.29185 213.733 6.75772 213.869 5.75861C216.492 5.93506 219.036 6.95086 221.721 6.52642C220.069 8.84178 220.46 9.82421 224.127 12.5712C223.955 13.3411 223.964 14.1407 224.155 14.9064C224.345 15.6721 224.711 16.383 225.224 16.9825C225.169 18.6374 225.701 20.8693 223.751 21.4487C220.527 22.4025 222.506 23.0917 223.596 24.0407C223.91 24.3197 224.077 24.7894 224.316 25.1757Z" fill="#95D0CC"/>
<path d="M316 136.266L316.623 132.269C318.154 132.269 319.687 132.214 321.218 132.255C324.098 132.326 326.464 131.673 327.684 128.635C328.19 127.367 329.354 126.592 330.763 126.282C331.975 126.017 333.17 125.676 334.34 125.261C335.446 124.865 336.543 124.178 336.605 122.938C336.657 121.863 335.768 121.157 334.838 120.518C332.558 118.947 329.885 118.561 327.332 117.864C326.208 117.557 325.309 117.323 325.209 115.997C325.243 115.649 325.274 115.299 325.307 114.95C333.212 115.051 340.971 116.076 348.399 118.904C350.993 119.891 353.809 120.94 354.005 124.338C354.119 126.315 351.358 127.731 347.328 128.244C344.293 128.63 341.269 129.148 338.267 129.725C336.569 130.049 335.644 130.891 336.836 132.753C337.907 134.422 337.552 135.834 335.467 136.142C328.984 137.1 322.496 137.227 316 136.266Z" fill="#C3966F"/>
<path d="M155.21 157.767C152.897 158.859 150.465 158.177 148.135 158.036C142.064 157.674 136.153 157.96 130.554 160.628C130.652 159.364 132.13 158.709 132.056 157.178C129.391 157.564 129.288 155.721 128.549 153.816C126.88 149.538 126.608 148.307 129.841 146.021C131.911 144.554 132.746 143.297 131.606 141.013L132.755 140.908C132.994 142.43 134.245 141.984 135.171 142.177C136.756 143.216 138.175 144.635 140.302 144.456C140.302 144.638 140.302 144.821 140.326 145.002C141.463 146.602 142.968 147.625 144.935 147.895C144.396 149.659 145.286 150.201 146.876 150.618C148.76 151.112 150.873 149.965 152.563 151.5C152.504 152.108 150.832 152.48 152.036 153.155C155.184 154.924 152.449 154.989 151.421 155.408C150.617 155.738 149.652 155.647 148.922 156.286C150.809 157.431 153.01 157.95 155.21 157.767Z" fill="#C6A262"/>
<path d="M59.9391 136.07C63.5421 138.34 67.7579 138.955 71.6423 140.465C72.2026 140.684 72.6867 140.899 73.3114 140.624C73.7883 138.924 69.9731 138.4 72.062 136.258L75.1284 137.067C74.7183 138.471 75.2739 139.475 76.1252 140.644C78.4382 143.82 81.7741 143.173 84.9121 143.388C84.7833 147.399 83.8605 148.589 80.0048 148.491C72.1359 148.295 64.565 146.61 57.6213 142.716C56.1262 141.876 54.1304 140.884 54.4809 138.974C54.8744 136.828 57.1253 136.449 59.0735 136.158C59.3644 136.115 59.6529 136.099 59.9391 136.07Z" fill="#C3966F"/>
<path d="M120.78 149.557C117.084 147.854 112.995 147.95 109.115 147.055C101.842 145.386 94.6123 143.679 87.9691 140.14C87.7633 140.02 87.5258 139.965 87.2882 139.983C87.0506 140.001 86.824 140.091 86.6385 140.241C85.8707 138.95 85.6346 137.618 86.3691 136.232L89.7885 134.594C92.0895 134.465 94.2785 134.959 96.4079 135.786C95.0296 138.393 96.8657 139.125 98.759 139.735C106.473 142.26 114.43 143.696 122.416 145.002L120.78 149.557Z" fill="#C3966F"/>
<path d="M186.023 140.934C188.348 140.629 189.986 141.256 190.963 143.686C191.841 145.87 193.508 146.414 195.437 144.602C195.778 144.282 196.166 144.015 196.515 143.7C200.33 140.241 200.33 140.238 201.904 145.405C197.089 145.2 192.532 146.44 188.193 148.288C182.854 150.563 177.264 151.104 171.601 151.445C170.018 151.326 168.659 151.026 169.827 148.965C170.266 148.193 169.798 147.535 169.725 146.819C174.551 146.869 178.829 145.243 182.754 142.527C183.767 141.838 184.697 140.999 186.023 140.934Z" fill="#C3966F"/>
<path d="M120.78 149.557L122.416 144.986C124.085 143.555 125.771 142.363 128.189 142.601C129.143 142.697 129.758 142.077 128.327 141.507C128.296 141.128 128.263 140.751 128.232 140.374C129.388 140.333 130.54 140.544 131.606 140.994C132.746 143.288 131.911 144.545 129.841 146.002C126.608 148.288 126.884 149.519 128.549 153.797C129.288 155.704 129.391 157.545 132.056 157.159C132.13 158.69 130.652 159.345 130.554 160.609C124.955 162.662 121.035 160.242 120.618 154.385C120.506 152.8 120.718 151.174 120.78 149.557Z" fill="#825B3B"/>
<path d="M248.416 146.097C245.187 147.349 241.909 147.749 238.544 146.693C236.889 144.981 235.168 143.319 235.625 140.57C235.716 140.014 235.149 139.819 234.65 139.766L238.613 134.043L240.302 133.311C242.448 133.311 244.534 133.392 244.916 136.23C245.047 137.184 246.253 136.788 246.635 137.475C246.675 138.269 246.196 139.201 247.24 139.726L248.879 139.873C248.733 141.614 245.996 143.557 249.279 145.029C248.991 145.384 248.705 145.742 248.416 146.097Z" fill="#E0D9AA"/>
<path d="M279.682 147.733C281.804 146.812 283.426 144.921 285.345 144.018C288.431 142.565 292.022 142.191 295.448 141.516C295.866 141.433 296.571 142.217 296.97 142.732C298.772 145.069 300.344 144.64 302.041 142.558C303.117 141.237 304.249 139.239 306.095 141.962C307.223 143.617 307.879 140.381 309.078 141.521C309.004 142.952 307.984 143.839 306.932 144.416C299.516 148.498 291.671 150.525 283.17 149.004C281.976 148.787 280.845 148.167 279.682 147.733Z" fill="#C3966F"/>
<path d="M169.725 146.817C169.799 147.532 170.266 148.193 169.827 148.963C168.659 151.023 170.018 151.324 171.601 151.443C173.003 153.904 174.1 156.293 172.443 159.205C171.1 161.563 169.238 161.732 167.85 160.034C165.337 156.963 162.168 157.008 158.815 157.128C158.222 155.318 154.786 154.774 156.512 151.932C158.055 151.65 159.726 152.435 161.176 151.364L163.584 149.087C164.41 149.061 165.125 148.892 165.168 147.857C165.838 147.821 166.277 147.52 166.36 146.812C167.481 146.443 168.602 145.832 169.725 146.817Z" fill="#E0D9AA"/>
<path d="M196.62 151.512C198.289 150.499 199.283 150.349 200.325 152.075C201.408 153.868 200.53 154.719 199.481 155.716C197.631 157.473 195.556 158.835 192.981 159.324C192.323 159.45 191.657 159.357 191.507 158.821C191.111 157.39 190.422 157.698 189.249 157.867C187.613 158.105 187.556 156.124 186.676 155.23C185.851 154.39 186.29 153.663 186.95 153.002C189.29 150.663 192.099 149.089 195.194 147.995C196.114 147.673 196.88 148.076 197.468 148.81C198.358 149.938 196.846 150.213 196.62 151.512Z" fill="#95D0CC"/>
<path d="M269.693 146.722C270.103 148.555 271.579 148.83 273.091 149.047C273.172 152.225 271.477 154.054 268.572 154.884C265.518 155.769 262.478 155.442 259.497 154.55C258.393 154.219 257.298 153.618 257.112 152.297C256.903 150.866 257.775 149.912 258.884 149.242C262.201 147.234 265.942 146.943 269.693 146.722Z" fill="#C3966F"/>
<path d="M66.196 47.5592C67.1499 47.7714 68.118 47.9121 69.0336 47.5163C70.0995 47.056 70.8268 47.6236 71.1797 48.4009C72.3982 51.1002 73.9529 49.71 75.0784 48.5964C77.0527 46.6483 78.7958 44.4617 80.5628 42.3132C81.2781 41.45 81.9505 40.8325 83.9178 41.121C81.1517 42.8545 80.6009 45.4846 78.7362 47.2349C75.6053 50.175 75.5815 50.938 77.6846 54.7008C78.0089 55.2802 78.6933 55.8167 78.2545 56.4939C77.6656 57.4024 76.7404 56.8612 76.2182 56.4629C73.9171 54.7056 70.6718 54.3169 69.1409 51.4149C68.3564 49.9103 67.0735 50.721 66.2104 51.341C65.1159 52.1064 63.4419 52.8146 64.4172 54.6793C64.8309 55.555 65.4947 56.2884 66.3248 56.7872C67.4288 57.4024 67.095 58.0892 66.3248 58.7473C65.6095 58.5232 64.875 58.3563 64.1931 58.063C59.1116 55.8668 59.0878 55.7452 62.593 51.1479C64.8941 51.0668 65.9314 49.6981 66.2032 47.5711L66.196 47.5592Z" fill="#616060"/>
<path d="M160.008 18.7208C160.022 16.5748 159.09 14.6672 158.608 12.6403C158.005 10.1247 155.692 11.7795 154.254 11.0546C154.767 9.86236 156.638 9.78605 156.805 8.6701C157.063 7.04863 155.029 7.41823 154.273 6.56219C155.386 4.89303 157.831 5.07902 158.837 3.2644L159.936 3.30494L160.704 3.64116C163.914 4.96218 167.161 6.2069 170.316 7.64953C171.332 8.12643 171.716 7.44685 172.288 7.09155C174.029 6.00421 175.605 6.11628 177.276 7.48977C175.04 8.71779 171.365 7.01286 171.031 11.0856C169.193 11.3455 168.885 9.45461 167.755 8.7011C166.367 7.78545 162.347 7.43969 161.271 8.35296C159.817 9.58576 162.037 10.2606 161.734 11.3098C161.734 12.7405 161.853 14.1712 161.698 15.6019C161.567 16.8013 161.891 18.4037 160.008 18.7208Z" fill="#A57854"/>
<path d="M303.801 55.6546C303.72 54.6269 303.193 53.7208 303.417 52.5738C303.744 50.9046 302.723 49.7291 301.128 49.5598C299.533 49.3905 298.67 50.5136 298.684 52.0826C298.698 53.5133 298.181 54.6793 297.194 56.1363C296.428 53.1222 296.187 49.6838 292.041 50.1201C289.914 50.3443 287.579 50.597 288.114 54.1237C285.154 50.1344 285.102 49.6408 287.212 48.2698C289.408 48.1577 291.612 48.1243 293.798 47.9049C295.229 47.7595 296.369 47.5425 297.613 46.1022C299.075 44.414 301.514 46.1404 303.291 47.1133C304.891 47.9908 307.323 48.7824 306.868 51.0072C306.534 52.6978 304.874 54.1166 303.801 55.6546Z" fill="#616060"/>
<path d="M98.0174 153.732C95.0832 153.942 92.1763 153.049 89.8671 151.226C88.7774 150.368 87.8594 149.237 88.3673 147.757C88.8752 146.276 90.3178 145.849 91.7056 146.087C95.9667 146.874 100.106 148.14 103.952 150.141C105.734 151.073 105.383 152.244 103.647 153.002C101.911 153.761 100.07 153.734 98.0174 153.732Z" fill="#C3966F"/>
<path d="M260.548 144.375C257.449 146.044 254.139 146.354 250.715 146.044C252.572 145.298 254.563 141.485 254.246 139.277C256.209 138.8 254.632 137.722 254.644 136.914C254.702 136.542 254.761 136.168 254.818 135.796C256.156 133.972 257.527 133.528 259.022 135.648C259.227 135.936 259.633 136.084 259.945 136.297C263 140.999 263.012 141.147 260.548 144.375Z" fill="#E0D9AA"/>
<path d="M161.734 11.3074C162.037 10.251 159.826 9.58338 161.271 8.35058C162.347 7.43731 166.367 7.78307 167.755 8.69872C168.888 9.44507 169.186 11.336 171.031 11.0832L173.275 12.3017C173.392 12.8328 173.551 13.3536 173.752 13.8588C175.095 16.5581 174.775 17.5739 172.142 18.7852C172.269 17.0851 170.85 16.3626 169.772 16.0001C166.739 14.9819 163.995 13.5989 161.734 11.3074Z" fill="#94BC45"/>
<path d="M86.3667 136.23C85.6346 137.622 85.8707 138.948 86.6385 140.238C86.4621 141.504 85.513 142.353 84.9169 143.393C81.7789 143.181 78.443 143.827 76.13 140.651C75.2787 139.482 74.7231 138.478 75.1332 137.074L77.3437 135.617C77.9398 135.889 78.5359 136.173 79.1297 136.428C79.7234 136.683 80.682 139.136 80.9419 136.165C80.992 135.605 81.9267 135.827 82.4585 135.86C83.7628 135.941 85.0647 136.096 86.3667 136.23Z" fill="#94BC45"/>
<path d="M42.0266 123.518C41.3542 123.537 40.6794 123.597 40.0069 123.568C35.3905 123.368 34.5225 123.792 34.4367 128.838C33.2731 128.397 32.0903 128.006 30.9529 127.507C30.0993 127.13 28.9833 126.832 29 125.654C29.0167 124.589 29.9347 124.043 30.7789 123.57C35.0066 121.207 39.6445 120.037 44.2967 118.904C45.6892 118.565 47.0675 118.169 48.4529 117.8C48.6317 117.998 48.8082 118.198 48.987 118.398C47.7041 119.769 45.0287 118.875 44.3634 121.26C42.6847 121.071 42.0052 121.923 42.0266 123.518Z" fill="#C3966F"/>
<path d="M34.8158 118.625C34.5299 118.66 34.2409 118.66 33.955 118.625C32.3502 118.21 30.104 118.534 29.9228 116.2C29.7225 113.66 32.0426 113.513 33.738 113.198C36.5827 112.673 39.4942 112.575 42.1935 113.887C43.8078 114.671 44.1393 115.687 42.2841 116.734C39.9568 118.05 37.3744 118.272 34.8158 118.625Z" fill="#C3966F"/>
<path d="M260.548 144.375C263.009 141.147 262.997 140.989 259.945 136.306C260.122 135.904 260.378 135.541 260.697 135.238C261.016 134.936 261.392 134.7 261.803 134.544C264.936 135.314 267.437 137.405 270.356 138.631C270.427 140.338 269.247 141.166 267.986 141.845C265.681 143.135 263.161 143.992 260.548 144.375Z" fill="#C3966F"/>
<path d="M221.709 6.51212C219.025 6.93656 216.483 5.92076 213.857 5.7443C212.999 4.03699 213.981 2.44413 214.17 0.805971C214.251 0.0906166 214.771 -0.0858376 215.419 0.0214656C215.896 0.0977701 216.373 0.157383 216.828 0.240841C223.708 1.50463 222.713 0.073925 221.709 6.51212Z" fill="#616060"/>
<path d="M224.316 25.1757C224.077 24.7894 223.91 24.3197 223.584 24.0335C222.494 23.0797 220.515 22.3954 223.739 21.4416C225.694 20.8621 225.169 18.6302 225.212 16.9777L225.844 15.8999H228.105C228.419 17.0684 229.49 17.4952 230.313 18.1605C229.33 19.3336 231.321 19.5554 231.059 20.5021C228.319 21.4988 229.101 17.7909 227.029 17.3664C227.506 18.5229 227.668 19.5268 228.222 20.2278C228.937 21.1197 229.905 22.6124 231.061 20.5188C232.969 21.134 231.746 22.0115 231.061 22.4025C228.951 23.6234 226.822 24.8848 224.316 25.1757Z" fill="#A57854"/>
<path d="M335.899 109.447C338.179 109.781 340.43 109.335 342.547 110.212C343.086 110.434 343.68 110.584 343.697 111.295C343.713 112.005 343.108 112.28 342.59 112.454C338.248 113.923 334.089 113.086 330.033 111.333C329.75 111.209 329.411 110.739 329.442 110.47C329.506 109.912 330.088 109.831 330.555 109.795C332.382 109.659 334.199 109.557 335.899 109.447Z" fill="#C3966F"/>
<path d="M172.145 18.7852C174.768 17.5739 175.097 16.5581 173.754 13.8588C173.553 13.3537 173.392 12.8329 173.275 12.3017C177.422 13.2961 179.077 8.86801 182.41 8.08827C182.94 9.73836 180.791 10.7303 181.354 12.3804C180.188 14.8841 178.254 16.3912 175.605 17.1947C175.044 17.364 174.808 18.5992 174.413 19.3408L170.914 19.2502C170.914 19.0117 170.914 18.7924 170.914 18.5611C171.42 18.0985 171.716 18.8281 172.145 18.7852Z" fill="#C3966F"/>
<path d="M212.2 7.58992C209.195 8.1932 206.844 9.95059 204.596 11.8821C202.774 11.2859 202.431 8.30527 199.848 8.94194C199.848 8.64865 199.836 8.35535 199.829 8.06205C201.834 7.41824 204.298 7.8236 205.595 5.55354C208.266 4.70466 210.621 4.88111 212.2 7.58992Z" fill="#C3966F"/>
<path d="M156.512 151.934C154.786 154.777 158.222 155.32 158.815 157.13L158.775 157.156L158.205 157.633L155.212 157.774C153.011 157.954 150.809 157.432 148.922 156.284C149.652 155.645 150.617 155.735 151.421 155.406C152.449 154.986 155.184 154.929 152.036 153.153C150.844 152.478 152.513 152.106 152.561 151.498C153.584 150.768 154.271 149.299 155.844 149.757C157.008 150.089 156.259 151.207 156.512 151.934Z" fill="#825B3B"/>
<path d="M254.249 139.287C254.566 141.495 252.579 145.308 250.717 146.054L248.416 146.097C248.705 145.742 248.991 145.382 249.279 145.026C245.996 143.555 248.733 141.612 248.879 139.871L254.249 139.287Z" fill="#C3966F"/>
<path d="M234.653 139.766C235.158 139.818 235.716 140.004 235.625 140.57C235.168 143.319 236.889 144.981 238.544 146.693L231.152 146.772C231.98 144.475 231.555 141.764 233.417 139.809L234.653 139.766Z" fill="#C3966F"/>
<path d="M207.505 156.951L202.536 151.579C203.983 151.524 205.654 150.639 206.828 152.239C207.827 153.589 208.328 155.196 207.505 156.951Z" fill="#95D0CC"/>
<path d="M158.837 3.25486C157.831 5.0814 155.391 4.89064 154.273 6.55264C152.992 6.07574 151.173 6.55264 150.77 4.53773C151.962 3.16663 153.581 2.90672 155.203 3.22386C156.445 3.46947 157.628 3.25009 158.837 3.25486Z" fill="#C3966F"/>
<path d="M205.595 5.5583C204.298 7.83551 201.834 7.42299 199.829 8.06681C199.188 7.79021 198.682 7.4063 198.725 6.60749C199.006 6.58126 199.44 6.66472 199.55 6.51449C201.265 4.19913 203.368 4.52819 205.595 5.5583Z" fill="#E0D9AA"/>
<path d="M228.1 15.9143H225.839L225.601 15.6758C225.615 15.7259 225.601 15.7974 225.644 15.8236C225.705 15.8629 225.772 15.8934 225.842 15.9143L225.21 16.9921C224.697 16.3919 224.331 15.6807 224.141 14.9146C223.95 14.1485 223.941 13.3487 224.113 12.5783C226.261 12.7119 228.148 13.1578 228.1 15.9143Z" fill="#C3966F"/>
<path d="M66.2104 47.5687C65.9314 49.6957 64.9013 51.0644 62.6002 51.1455C63.4586 49.6146 64.5412 48.3079 66.2104 47.5687Z" fill="#524E4E"/>
<path d="M160.704 3.63161L159.936 3.2954C160.009 3.26688 160.086 3.25295 160.164 3.25442C160.242 3.2559 160.319 3.27274 160.39 3.30398C160.461 3.33522 160.526 3.38024 160.58 3.43647C160.634 3.49269 160.676 3.55901 160.704 3.63161Z" fill="#C3966F"/>
<path d="M158.205 157.626L158.775 157.149L158.205 157.626Z" fill="#E0D9AA"/>
<path d="M96.4079 135.77C94.2785 134.949 92.0895 134.456 89.7909 134.577L88.3864 134.034C85.3795 132.825 82.1866 132.386 79.0558 131.611C78.6719 129.136 80.6415 126.799 79.5064 124.283C78.7911 122.717 78.2689 121.005 77.2721 119.646C76.1013 118.05 74.282 119.262 72.7416 119.169C72.3934 119.147 72.0644 118.851 71.6185 118.625C72.484 117.275 74.2414 117.464 75.1118 116.331C71.9404 114.879 64.8441 116.269 63.0557 118.689C63.5826 112.189 64.5579 105.875 69.8992 101.263C70.987 100.315 72.0219 99.3067 72.9991 98.2445C73.7979 97.3813 75.231 96.8877 74.89 95.2853C73.0539 96.0889 72.2551 91.6441 69.7085 94.1765C70.9889 91.4486 72.2957 88.7302 73.5237 85.9833C74.0268 84.8625 74.8018 85.0891 75.6697 85.318C79.2942 86.2718 82.9211 87.2184 86.5503 88.1579C92.2541 88.3821 97.6216 90.3899 103.192 91.327C104.296 91.513 104.36 92.3738 104.456 93.2894C105.495 103.145 106.556 113.001 107.637 122.857C107.875 124.932 106.888 126.792 106.764 128.795C106.17 129.987 104.041 128.597 103.874 130.514C102.498 130.791 101.883 129.155 100.609 129.188C99.875 131.02 101.341 132.403 101.539 134.034C100.087 135.331 98.6016 136.592 96.4079 135.77Z" fill="#EBCB96"/>
<path d="M114.926 115.42C110.617 109.418 113.734 103.538 115.164 97.603C115.587 95.8409 116.276 95.6262 117.621 96.6778C117.997 96.9711 118.469 97.1404 118.837 97.4409C121.026 99.2316 122.957 99.0146 124.674 96.766C125.99 95.042 126.992 95.2853 127.948 97.1738C128.675 98.6045 129.643 99.9327 130.597 101.466C132.216 100.314 132.538 96.4441 135.657 99.0599C135.14 102.842 132.579 103.309 129.333 102.892C126.088 102.475 123.31 103.207 120.682 104.954C119.614 105.67 118.467 106.485 119.082 107.947C119.588 109.139 120.706 109.664 122.094 109.769C126.167 110.076 129.87 109.292 133.184 106.743C134.951 105.384 138.168 105.992 138.771 107.885C140.091 111.999 140.25 116.397 139.229 120.595C138.445 123.892 135.946 125.986 133.885 128.389C133.714 128.707 133.54 129.025 133.366 129.343L130.454 130.474L121.317 130.507C119.261 130.316 117.196 130.166 115.327 129.148C116.545 126.177 119.397 126.46 121.817 125.883C123.565 126.012 123.811 124.827 123.377 123.666C122.628 121.665 122.142 119.419 119.984 118.279C120.751 114.569 124.037 116.655 126.026 115.701C123.451 112.95 119.826 114.183 118.443 118.231C116.581 118.162 116.962 115.279 114.926 115.42Z" fill="#C6A262"/>
<path d="M140.469 18.7471C142.615 19.8129 144.611 21.0386 145.476 23.466C142.257 26.5659 142.377 28.6738 145.965 30.6911C147.014 31.2825 148.259 31.54 149.285 32.16C151.614 33.5716 154.604 34.368 154.962 37.7874C151.953 37.9591 149.184 36.5952 146.206 36.4259C144.973 36.3615 144.387 36.0944 144.752 37.7302C145.398 40.6226 145.307 43.7702 146.755 46.3717C148.843 50.1297 149.323 54.2263 149.442 58.2633C149.809 70.4529 150.718 82.6092 151.295 94.7845C151.493 98.9026 151.683 103.03 152.122 107.127C152.32 108.968 150.93 110.916 152.492 112.642C152.499 112.798 152.467 112.953 152.399 113.093C151.03 112.792 150.398 114.34 149.168 114.385C148.018 112.32 148.502 110.05 148.347 107.859C148.171 107.541 147.994 107.223 147.816 106.905C147.518 97.8892 146.483 88.9353 145.62 79.96C145.078 74.3278 144.809 68.6717 144.341 63.0299C143.607 54.1476 142.787 45.2724 142.052 36.3901C141.9 34.5564 140.355 34.3513 139.222 33.9364C134.157 32.0932 134.946 27.8464 135.168 24.0049C135.361 20.9217 137.746 19.5435 140.469 18.7471Z" fill="#616060"/>
<path d="M66.9257 62.8081C68.695 63.0299 70.0113 62.0928 71.3824 61.1676C72.4483 60.4522 73.7311 60.0493 74.8876 60.8505C75.9606 61.5968 75.5386 62.6985 75.1571 63.7262C74.9592 64.2603 74.8137 65.0234 75.3597 65.3095C76.18 65.7435 76.4495 64.9065 76.8119 64.3557C79.2322 60.6883 79.5517 60.7002 82.22 64.525C82.5419 64.9852 82.7231 65.6314 83.4385 65.5646C84.006 65.5146 84.192 65.0687 84.2302 64.5465C84.2898 63.6976 84.1753 62.5792 85.2746 62.4648C86.4954 62.3384 87.4063 63.1801 88.0597 64.184C88.3408 64.6662 88.5962 65.1629 88.8251 65.6719C88.8156 66.2411 88.8076 66.8094 88.8013 67.3769C86.9151 68.2496 87.4993 70.1 87.0582 71.5784C86.5527 73.2642 86.9938 75.7942 85.1983 76.407C83.6197 76.9459 82.6468 74.7045 81.5213 73.6028C78.2498 70.3933 74.3964 69.7662 70.1257 70.7295C69.3508 70.906 68.1299 71.0156 69.6488 72.1292C70.9436 73.083 69.6488 73.6529 69.1052 74.0368C67.1642 75.4246 64.7797 75.7346 62.5477 75.9015C61.067 76.016 60.3778 74.7736 60.8786 73.0234C61.6774 70.2049 63.6279 68.1995 65.4092 66.0773C66.2271 65.0854 67.0092 64.184 66.9257 62.8081Z" fill="#616060"/>
<path d="M133.878 128.38C135.938 125.974 138.437 123.88 139.222 120.583C140.243 116.385 140.084 111.987 138.764 107.873C138.161 105.98 134.949 105.372 133.177 106.731C129.863 109.275 126.16 110.069 122.087 109.757C120.699 109.652 119.581 109.135 119.075 107.935C118.46 106.473 119.607 105.653 120.675 104.943C123.298 103.195 126.067 102.46 129.326 102.88C132.586 103.3 135.132 102.83 135.65 99.048C137.023 95.4713 136.432 92.0375 134.534 88.8638C133.048 86.3767 130.762 85.4348 127.857 86.2789C127.337 86.4292 126.76 86.3767 125.878 86.4411C127.435 83.9183 129.436 82.8119 132.011 83.0837C135.33 83.4342 138.094 84.9245 139.677 87.9863C142.04 92.5526 141.029 96.9186 138.626 101.139C137.705 102.331 136.325 103.586 138.149 104.983C141.642 107.673 143.199 111.221 143.256 115.537V116.636C143.256 118.937 143.586 121.405 141.587 123.089C139.198 125.094 136.935 127.333 133.878 128.38ZM123.386 107.112C126.61 107.477 129.276 107.961 131.527 105.148C128.575 104.976 125.966 104.606 123.396 107.112H123.386Z" fill="#718E2F"/>
<path d="M121.817 125.893C119.397 126.47 116.545 126.186 115.327 129.16C112.003 130.531 112.704 133.542 112.465 136.173C110.584 134.635 107.556 135.367 106.12 132.949C106.201 132.186 105.917 131.716 105.099 131.673L103.886 130.507C104.053 128.599 106.182 129.982 106.776 128.788C109.58 127.66 110.868 125.211 110.713 121.229C110.672 120.194 110.548 119.164 110.462 118.129C111.346 119.213 112.233 120.296 113.123 121.379C113.674 125.318 116.445 123.525 118.536 123.477C119.535 124.415 120.463 125.445 121.817 125.893Z" fill="#E0D9AA"/>
<path d="M113.13 121.377C112.243 120.294 111.356 119.211 110.469 118.127C109.191 116.617 109.473 115.725 111.499 115.577C112.639 115.492 113.784 115.47 114.926 115.42C116.962 115.279 116.581 118.162 118.443 118.241L119.984 118.289C122.142 119.429 122.628 121.675 123.377 123.675C123.811 124.837 123.565 126.022 121.817 125.893C120.463 125.445 119.535 124.415 118.541 123.475L113.13 121.377Z" fill="#D63526"/>
<path d="M143.256 115.537C143.197 111.221 141.64 107.668 138.146 104.983C136.332 103.586 137.712 102.329 138.623 101.139L147.816 106.9L148.347 107.854C146.168 110.095 145.336 113.234 143.256 115.537Z" fill="#C6A262"/>
<path d="M232.27 125.781L226.431 125.833C226.669 124.417 225.954 123.31 224.912 122.643C222.318 120.974 222.527 118.367 223.278 116.25C223.951 114.342 224.099 112.532 224.051 110.67C223.872 103.755 225.82 96.9854 225.422 90.0369C225.317 88.2152 226.736 86.4459 226.426 84.4548C228.479 83.2625 230.48 82.0321 232.774 81.2452C236.095 80.1031 236.701 76.7671 237.896 74.0058C238.883 71.7262 239.603 69.3298 240.518 67.0168C241.286 65.0901 242.438 63.998 244.751 65.0043C246.883 65.9319 247.806 67.0717 246.718 69.4443C245.328 72.4821 244.067 75.5868 242.903 78.72C241.949 81.3287 241.93 83.9421 243.428 86.4626C245.209 89.4551 245.45 92.555 244.069 95.8361C242.4 99.7992 241.177 103.943 239.209 107.78C238.821 108.538 238.351 109.301 238.649 110.229C238.616 111.529 237.934 112.563 237.307 113.636C236.353 115.251 235.273 116.846 235.649 118.882C234.934 118.968 234.51 119.3 234.612 120.087C234.556 120.821 234.5 121.554 234.443 122.285C232.941 122.965 233.191 124.739 232.27 125.781ZM232.802 121.16C235.757 113.629 238.763 106.376 241.432 99.0123C243.101 94.4173 244.758 89.653 240.9 85.1368C240.032 84.121 240.323 82.819 240.781 81.56C241.515 79.5403 242.08 77.4586 242.719 75.4032L242.037 75.1385C240.642 77.3561 239.968 79.9409 238.78 82.2587C237.745 84.276 237.86 85.9952 238.861 87.9815C240.228 90.6951 240.497 93.5422 239.741 96.6349C237.929 104.058 234.927 111.078 232.726 118.363C232.461 119.238 231.729 120.056 232.802 121.16Z" fill="#718E2F"/>
<path d="M249.952 98.285C237.094 121.036 229.869 130.733 228.992 130.304C227.115 129.384 243.549 97.944 249.952 98.285C250.858 98.4139 251.783 98.3046 252.634 97.9678C254.866 97.014 255.753 94.3911 257.181 92.4835C258.44 90.8143 259.475 88.9544 260.503 87.1183C261.397 85.5207 262.492 85.926 263.627 86.6581C264.762 87.3901 265.647 88.1651 264.633 89.684C262.618 92.71 260.684 95.7884 258.698 98.8334C258.071 99.7872 257.203 100.698 257.906 101.962C259.788 105.341 258.948 108.581 256.953 111.417C252.334 117.991 248.13 124.827 243.776 131.57C243.239 133.404 241.251 132.307 240.299 133.304L238.611 134.041C236.901 134.232 235.928 132.651 234.443 132.303C234.443 129.885 235.263 127.195 232.268 125.781C232.458 124.974 232.803 124.212 233.284 123.537C233.614 123.071 234.007 122.653 234.45 122.292" fill="#825B3B"/>
<path d="M285.364 107.78C287.715 106.33 290.062 104.878 292.675 103.908C293.867 103.459 294.847 103.338 295.587 104.637C296.018 105.398 296.636 106.006 297.561 106.171C299.821 106.574 298.548 107.589 297.964 108.488C294.366 112.146 289.878 114.428 285.374 116.677C284.568 116.417 283.533 117.068 282.91 116.064C283.011 115.599 283.359 114.958 283.173 114.693C280.876 111.39 283.54 109.726 285.364 107.78Z" fill="#EBCB96"/>
<path d="M240.302 133.309C241.255 132.312 243.242 133.409 243.778 131.575C248.352 131.606 252.928 131.597 257.503 131.692C258.834 131.721 259.442 131.215 259.497 129.937C260.021 131.606 259.993 133.533 261.805 134.544C261.394 134.7 261.018 134.936 260.699 135.238C260.38 135.541 260.125 135.904 259.948 136.306C259.635 136.094 259.232 135.946 259.025 135.658C257.53 133.538 256.163 133.988 254.821 135.805L246.635 137.475C246.253 136.788 245.047 137.191 244.916 136.23C244.534 133.39 242.443 133.321 240.302 133.309Z" fill="#A57854"/>
<path d="M282.91 116.062C283.533 117.065 284.58 116.414 285.374 116.674C286.287 118.582 290.734 118.37 288.271 122.302C292.324 121.625 290.441 124.333 290.698 125.831L288.669 124.815C286.733 123.046 285.765 120.015 282.469 120.02C282.655 118.706 282.073 117.304 282.91 116.062Z" fill="#524E4E"/>
<path d="M290.698 125.831C290.441 124.333 292.325 121.625 288.271 122.302C290.734 118.37 286.287 118.575 285.374 116.674C289.883 114.428 294.366 112.144 297.964 108.488C298.024 110.491 298.076 112.494 298.148 114.497C298.171 115.136 297.833 116.166 298.529 116.302C301.054 116.779 298.992 117.955 298.899 118.947C301.684 118.594 301.653 120.742 302.156 122.431V125.53C299.64 121.646 297.289 122.927 294.838 125.378C293.636 126.572 292.079 125.654 290.698 125.831Z" fill="#C6A262"/>
<path d="M315.244 94.6224C311.215 94.5604 306.772 91.6894 306.768 89.138C306.768 86.329 312.092 82.5424 315.812 82.4351C318.864 82.3445 320.343 85.5874 320.471 88.6348C320.638 92.8316 318.812 94.6772 315.244 94.6224Z" fill="#616060"/>
<path d="M325.202 115.997C325.302 117.323 326.201 117.557 327.324 117.864C329.878 118.561 332.551 118.947 334.831 120.518C335.761 121.157 336.65 121.863 336.598 122.939C336.536 124.178 335.439 124.865 334.333 125.261C333.163 125.676 331.968 126.017 330.756 126.282C329.325 126.592 328.183 127.367 327.677 128.635C326.468 131.673 324.101 132.326 321.211 132.255C319.68 132.214 318.146 132.255 316.616 132.269C316.224 129.77 317.469 127.004 315.39 124.784C315.556 124.666 315.683 124.5 315.755 124.309C315.826 124.118 315.839 123.909 315.791 123.711L317.739 123.575C317.977 125.423 318.692 126.892 320.853 126.184C322.849 125.528 322.536 123.928 321.823 122.409C321.63 121.992 321.165 121.629 321.613 121.148C322.181 120.537 322.746 121.052 323.113 121.362C323.969 122.078 324.949 122.807 324.766 124.171C323.793 127.271 321.699 128.819 318.447 128.812C317.839 128.812 317.267 129.002 317.302 129.765C317.321 130.183 317.677 130.342 318.072 130.481C320.421 131.272 324.01 130.445 325.281 128.335C327 125.473 329.401 124.231 332.592 124.152C333.407 124.133 334.156 123.914 334.366 123.005C334.604 121.961 333.889 121.324 333.109 120.983C332.275 120.623 331.426 120.075 330.391 120.268C331.822 122.555 331.636 122.872 328.836 123.008C328.169 123.039 327.498 123.101 326.831 123.148C327.169 121.229 325.021 120.664 324.651 119.13C324.749 118.065 324.36 116.915 325.202 115.997Z" fill="#A57854"/>
<path d="M324.659 119.121C325.028 120.654 327.177 121.219 326.84 123.136C326.056 123.289 326.006 124.913 324.773 124.171C324.957 122.807 323.977 122.085 323.121 121.362C322.753 121.052 322.188 120.537 321.621 121.148C321.172 121.625 321.637 121.992 321.831 122.409C322.546 123.928 322.856 125.528 320.86 126.184C318.714 126.899 317.975 125.423 317.746 123.575C317.786 122.547 319.177 121.486 317.841 120.516C316.921 119.848 315.965 120.487 315.299 121.095C314.195 122.109 315.135 122.927 315.798 123.718C315.844 123.916 315.83 124.123 315.758 124.313C315.686 124.503 315.558 124.667 315.392 124.784C314.381 124.517 313.344 123.115 312.469 125.189C312.133 125.979 310.895 126.382 310.633 124.736C310.449 123.616 312.042 122.125 310.781 121.56C309.519 120.995 308.577 122.671 307.7 123.635C307.461 123.897 307.388 124.314 307.24 124.66C306.467 124.715 305.709 124.777 305.094 125.352C304.478 125.926 303.663 126.258 303.017 125.7C302.27 125.049 303.42 124.348 303.284 123.604C304.476 122.118 305.668 120.623 307.397 119.688C308.186 119.264 309.162 118.665 309.827 119.068C312.741 120.835 315.767 119.045 318.752 119.471C320.552 119.729 322.656 118.985 324.659 119.121Z" fill="#F1AB38"/>
<path d="M302.039 90.5687C300.608 90.2277 299.678 89.4504 299.91 88.1699C300.148 86.8012 300.06 84.9222 302.232 84.8149C303.901 84.7314 305.289 85.6852 305.303 87.1255C305.33 89.0164 303.231 89.5505 302.039 90.5687Z" fill="#616060"/>
<path d="M204.989 124.307L203.885 124.15C200.969 123.387 200.184 121.42 200.382 118.568C200.752 113.214 200.75 107.818 200.809 102.472C200.955 89.4074 202.063 76.3594 201.494 63.2851C203.418 60.8242 204.961 58.3253 202.559 55.2683C201.949 54.491 202.939 54.1142 203.168 53.5491C204.007 51.4746 204.627 48.6751 202.707 47.7094C199.429 46.0617 200.816 43.9299 201.052 41.7481C201.052 41.6527 201.052 41.555 201.067 41.4596L201.973 39.9621C207.266 40.439 212.438 39.2611 217.661 38.7842C220.019 38.5696 222.358 38.1284 224.971 37.971C222.556 39.521 224.101 41.419 224.068 43.1764C223.984 47.3017 223.829 51.4698 223.333 55.5258C222.833 59.5414 222.959 63.5593 222.527 67.57C221.667 75.5725 221.776 83.6751 221.175 91.7133C220.496 100.801 219.83 109.883 219.478 118.99C219.389 121.203 218.047 122.805 215.975 122.853C213.69 122.903 212.348 121.393 212.551 118.842C213.132 111.488 213.645 104.129 214.22 96.7756C214.489 93.33 214.425 89.8772 214.697 86.4196C215.009 82.4184 215.343 78.3862 215.512 74.3564C215.901 65.0568 216.614 55.7858 217.181 46.5005C217.239 45.5466 217.181 44.5928 217.181 43.6581C216.809 43.6152 216.59 43.5198 216.442 43.5866C208.239 47.2921 210.192 44.7955 209.563 53.5753C208.99 61.5706 209.653 69.5778 208.976 77.5206C208.344 84.9412 209.072 92.3642 208.411 99.73C207.824 106.28 208.032 112.807 207.972 119.343C207.941 121.72 206.432 122.929 204.989 124.307Z" fill="#524E4E"/>
<path d="M205.86 26.2678C208.897 26.3179 211.699 27.2431 214.384 28.5832C214.47 30.2214 213.082 29.4535 212.384 29.8065C209 31.5114 205.364 32.1075 201.632 32.2601L200.974 32.1194C200.399 29.6681 198.265 28.3447 196.901 26.4634L197.025 26.3727C198.389 26.4607 199.754 26.2373 201.019 25.7194H201C202.493 27.019 204.233 26.1462 205.86 26.2678Z" fill="#D63526"/>
<path d="M200.974 32.1194L201.632 32.2601C202.314 34.802 202.063 37.3868 201.963 39.9645C201.66 40.4605 201.36 40.9612 201.057 41.4596C201.029 38.3502 201.001 35.2368 200.974 32.1194Z" fill="#C6A262"/>
<path d="M194.619 122.426C193.381 119.669 190.565 119.087 188.262 117.8C188.076 116.572 187.73 115.344 187.728 114.116C187.694 95.135 187.728 76.1543 187.654 57.1735C187.654 56.2197 188.784 54.8033 187.558 54.3908C186.569 54.0594 185.157 54.708 184.022 55.1539C182.591 55.719 183.087 57.1187 183.085 58.2013C183.063 77.4729 183.052 96.743 183.052 116.011C180.422 116.003 177.841 116.722 175.595 118.091C175.581 116.741 175.55 115.391 175.55 114.037C175.55 95.7192 175.486 77.4038 175.614 59.0883C175.633 56.1601 174.072 56.482 172.176 56.3771C170.101 56.2627 169.355 57.2498 169.419 59.0764C169.794 69.542 170.211 80.0053 170.404 90.4805C170.557 98.7476 171.053 107.005 170.965 115.279C170.945 117.142 171.315 119.006 171.508 120.871C170.759 120.812 169.968 120.893 169.274 120.666C166.579 119.789 165.459 121.102 165.087 123.527C164.083 122.619 163.954 121.434 163.987 120.175C164.052 117.831 164.033 115.489 163.415 113.198L164.631 112.017C166.083 111.259 168.601 110.751 168.141 109.015C167.71 107.38 165.28 107.143 163.372 107.375C163.754 97.0856 162.836 86.8178 162.631 76.5406C162.535 71.7143 162.869 66.7641 161.808 61.9426C163 62.181 162.924 63.1658 162.848 63.9861C162.609 66.5351 163.928 68.6454 164.429 71.0705C165.642 70.4219 166.098 69.7232 166.336 68.5453C167.226 63.9408 167.409 59.3029 167.4 54.6436C167.4 52.7622 168.42 51.1884 168.969 49.4859C169.159 48.8945 169.839 47.9598 170.984 48.2531C171.785 48.4581 172.057 48.935 172.078 49.6838C172.104 50.6662 172.147 51.5914 173.485 51.775C174.742 51.9395 175.602 51.2099 176.108 50.3824C178.063 47.2158 180.591 44.2471 180.305 40.1505C186.457 41.3642 192.618 39.9287 198.773 40.2101C198.704 43.0715 198.031 45.344 194.428 45.2176C193.517 45.1866 192.583 45.6945 191.665 45.9687C190.684 46.2715 189.802 46.839 189.95 47.955C190.098 49.071 191.056 49.3643 192.11 49.4572C193.756 49.6576 195.415 49.2226 196.751 48.2411C198.987 46.5124 200.139 47.4614 201.057 49.5717C200.732 50.0353 200.261 50.3769 199.719 50.5422C195.213 51.8561 195.213 51.8799 195.213 56.3294C195.213 58.7282 195.277 61.1271 195.313 63.5235L195.418 64.3676C195.346 65.6123 195.215 66.8547 195.215 68.0994C195.201 85.1185 195.191 102.138 195.186 119.157C195.191 120.254 195.642 121.486 194.619 122.426Z" fill="#524E4E"/>
<path d="M194.619 122.426C195.642 121.486 195.191 120.254 195.194 119.157C195.222 102.139 195.232 85.1201 195.222 68.0994C195.222 66.8547 195.353 65.6123 195.423 64.3676C197.654 65.1903 199.686 64.8898 201.484 63.2779C202.054 76.3522 200.945 89.4003 200.8 102.465C200.74 107.811 200.742 113.207 200.373 118.561C200.175 121.422 200.959 123.38 203.876 124.143C199.316 127.123 197.857 126.851 194.619 122.426Z" fill="#616060"/>
<path d="M171.518 120.878C171.325 119.014 170.955 117.149 170.974 115.287C171.062 107.01 170.566 98.7523 170.414 90.4876C170.221 80.0124 169.803 69.5492 169.429 59.0835C169.365 57.257 170.111 56.2698 172.185 56.3843C174.093 56.4892 175.643 56.1673 175.624 59.0955C175.495 77.4109 175.557 95.7264 175.559 114.044C175.559 115.394 175.59 116.743 175.605 118.098C174.064 118.758 174.05 121.684 171.518 120.878Z" fill="#616060"/>
<path d="M204.989 124.307C206.389 125.948 206.918 128.041 207.865 129.918C208.657 131.482 209.992 131.721 210.774 130.5C214.239 125.092 219.618 126.038 224.719 125.938C225.293 125.938 225.866 125.874 226.44 125.84L232.28 125.788C235.275 127.202 234.455 129.892 234.455 132.31C233.532 134.732 232.43 137.131 233.439 139.816C231.577 141.776 232.008 144.483 231.176 146.779C230.143 148.586 228.689 149.056 226.624 148.675C221.669 147.761 216.793 146.347 211.711 146.18C210.435 146.137 209.405 146.292 208.485 147.478C207.405 148.87 206.067 150.685 204.052 150.046C202.037 149.407 202.161 147.184 201.906 145.413C200.339 140.245 200.339 140.248 196.517 143.708C196.169 144.022 195.78 144.289 195.439 144.609C193.51 146.421 191.843 145.878 190.966 143.693C189.988 141.263 188.343 140.636 186.025 140.942C184.311 139.466 182.21 139.826 180.219 139.749C179.005 138.154 175.786 139.377 175.545 136.411L176.659 136.218C178.838 135.467 181.046 134.952 183.383 135.15C184.048 135.204 184.752 135.164 184.702 134.122C184.63 132.586 182.467 130.989 180.722 131.237C178.831 130.76 176.978 130.073 174.963 130.812C173.75 131.26 172.507 131.766 171.148 131.575C170.688 129.684 168.981 129.98 167.714 129.784C164.865 129.346 164.045 127.877 164.917 125.225C165.087 124.703 165.041 124.112 165.096 123.556C165.48 121.119 166.589 119.805 169.283 120.695C169.977 120.933 170.769 120.84 171.518 120.9C174.05 121.694 174.064 118.78 175.605 118.112C177.846 116.738 180.423 116.011 183.052 116.011L188.252 117.8C190.549 119.099 193.372 119.669 194.609 122.426C197.848 126.851 199.307 127.123 203.866 124.143L204.989 124.307Z" fill="#95D0CC"/>
<path d="M183.052 116.011C183.052 96.7398 183.06 77.4697 183.076 58.2013C183.076 57.1187 182.577 55.719 184.013 55.1538C185.148 54.7079 186.559 54.0594 187.549 54.3908C188.774 54.8033 187.642 56.2173 187.644 57.1735C187.711 76.1543 187.685 95.135 187.718 114.116C187.718 115.344 188.066 116.572 188.252 117.8L183.052 116.011Z" fill="#616060"/>
<path d="M164.641 112.036L163.425 113.217C162.032 113.865 161.081 114.996 160.909 116.455C160.244 122.085 158.944 127.951 165.225 131.616C164.464 131.559 163.68 131.616 162.953 131.418C161.665 131.091 161.682 131.911 161.732 132.705C161.925 135.648 164.832 138.063 167.762 137.339C170.802 136.58 173.962 136.08 176.699 134.315C177.57 133.755 178.648 133.438 178.845 132.109C178.604 131.999 178.346 131.927 178.082 131.895C174.582 132.038 171.182 133.325 167.626 132.829C166.692 132.701 165.347 133.337 165.208 131.611L171.143 131.57C172.5 131.756 173.743 131.256 174.959 130.807C176.974 130.068 178.826 130.745 180.717 131.232C182.811 132.734 182.215 133.616 180.107 134.387C178.893 134.825 177.129 134.341 176.654 136.213L175.54 136.406C173.275 137.184 171.368 138.731 168.721 138.643C164.648 138.507 164.643 138.679 165.297 142.613C166.012 143.436 166.441 144.373 166.36 145.494V146.815C166.279 147.53 165.84 147.823 165.168 147.859C165.452 144.802 163.737 142.403 162.378 139.966C160.566 136.709 159.54 133.247 159.04 129.622C158.863 128.347 159.452 127.035 159.226 125.654C158.334 120.223 158.305 114.972 163.151 111.076C163.627 110.692 163.968 110.272 163.925 109.628C165.578 110 165.282 110.971 164.641 112.036Z" fill="#F1AB38"/>
<path d="M171.148 131.57L165.213 131.611C158.932 127.946 160.232 122.073 160.897 116.45C161.069 114.991 162.02 113.861 163.413 113.212C164.03 115.504 164.049 117.845 163.985 120.189C163.952 121.448 164.08 122.633 165.084 123.542C165.029 124.102 165.084 124.693 164.905 125.211C164.033 127.865 164.853 129.331 167.702 129.77C168.983 129.975 170.688 129.68 171.148 131.57Z" fill="#616060"/>
<path d="M165.297 142.613C164.643 138.679 164.648 138.507 168.721 138.643C171.368 138.731 173.285 137.179 175.543 136.406C175.781 139.37 179.003 138.147 180.216 139.745L180.164 139.804C175.226 140.827 170.5 142.99 165.297 142.613Z" fill="#A57854"/>
<path d="M166.36 146.815C166.36 146.374 166.36 145.935 166.36 145.496C169.823 145.078 173.232 144.296 176.53 143.162C178.123 142.618 180.131 142.184 180.164 139.802L180.216 139.742C182.217 139.818 184.308 139.458 186.023 140.934C184.697 140.987 183.765 141.838 182.754 142.534C178.829 145.241 174.551 146.867 169.725 146.827C168.601 145.832 167.481 146.443 166.36 146.815Z" fill="#A57854"/>
<path d="M234.445 132.302C235.931 132.651 236.904 134.232 238.613 134.041L234.65 139.764L233.429 139.807C232.411 137.124 233.522 134.725 234.445 132.302Z" fill="#A57854"/>
<path d="M176.656 136.213C177.133 134.341 178.895 134.825 180.109 134.387C182.217 133.624 182.813 132.734 180.72 131.232C182.465 130.993 184.628 132.581 184.699 134.117C184.749 135.159 184.046 135.2 183.381 135.145C181.044 134.947 178.836 135.462 176.656 136.213Z" fill="#C6A262"/>
<path d="M61.7776 83.0885C61.028 83.1298 60.2809 82.973 59.6111 82.634C58.9414 82.2949 58.3727 81.7855 57.9623 81.157C57.5164 80.5108 57.7454 79.8694 58.2509 79.34C59.6387 77.8854 61.3221 77.5445 63.225 78.05C64.8727 78.4863 66.5347 78.8774 68.1657 79.3615C68.757 79.5355 69.6202 79.5212 69.6918 80.4059C69.7657 81.3311 69.067 81.7865 68.3254 82.0154C66.2091 82.6999 64.0017 83.0617 61.7776 83.0885Z" fill="#616060"/>
<path d="M44.3635 121.257C45.0287 118.873 47.7018 119.769 48.987 118.396C52.1894 120.959 56.2789 120.804 59.9344 121.973C56.7725 124.713 53.0002 123.356 49.4592 123.542C47.5492 123.256 47.1891 119.498 44.3635 121.257Z" fill="#A57854"/>
<path d="M277.214 140.31C279.014 137.627 281.837 138.791 284.255 138.424C285.798 138.424 286.823 139.265 287.935 140.775C285.359 140.841 283.499 141.857 281.578 142.997C279.164 144.428 277.259 143.083 277.214 140.31Z" fill="#D63526"/>
<path d="M307.244 124.66C307.392 124.314 307.464 123.897 307.705 123.635C308.582 122.681 309.524 120.995 310.785 121.56C312.047 122.125 310.454 123.616 310.638 124.736C309.517 124.248 308.351 125.755 307.244 124.66Z" fill="#524E4E"/>
<path d="M285.29 136.294H280.469C282.219 134.744 283.759 134.708 285.252 134.542C285.264 135.126 285.278 135.71 285.29 136.294Z" fill="#FEFEFE"/>
<path d="M88.3864 134.034L89.7861 134.584L86.3691 136.23C85.0647 136.103 83.7628 135.948 82.4585 135.86C81.9267 135.827 80.992 135.605 80.9419 136.165C80.682 139.137 79.7616 136.695 79.1297 136.428C78.4978 136.161 77.9374 135.889 77.3437 135.619L76.1633 134.561L78.3666 133.416C81.6835 134.019 85.048 133.972 88.3864 134.034Z" fill="#FEFEFE"/>
<path d="M88.3864 134.034C85.048 133.972 81.6787 134.019 78.3714 133.423C78.4859 132.775 78.2927 132.009 79.0653 131.611C82.1866 132.386 85.3843 132.825 88.3864 134.034Z" fill="#C3966F"/>
<path d="M44.3634 121.257C47.1891 119.498 47.5491 123.256 49.4591 123.544L44.9882 123.513C44.4947 122.869 44.2746 122.057 44.3754 121.253L44.3634 121.257Z" fill="#C3966F"/>
<path d="M76.1634 134.561L77.3437 135.605L75.1333 137.06L72.0668 136.251C73.1088 134.909 74.7565 135.038 76.1634 134.561Z" fill="#E0D9AA"/>
<path d="M44.3682 121.253C44.2695 122.058 44.4922 122.871 44.9882 123.513H42.0338C42.0051 121.923 42.6847 121.071 44.3682 121.253Z" fill="#A57854"/>
<path d="M180.312 40.1743C180.598 44.2733 178.07 47.242 176.115 50.4087C175.605 51.2361 174.744 51.9657 173.492 51.8012C172.154 51.6248 172.111 50.6924 172.085 49.71C172.064 48.9541 171.792 48.4772 170.991 48.2793C169.846 47.986 169.167 48.9207 168.976 49.5121C168.427 51.2146 167.404 52.7884 167.407 54.6698C167.407 59.3291 167.233 63.9694 166.343 68.5715C166.117 69.7495 165.657 70.4481 164.436 71.0967C163.935 68.6717 162.619 66.5661 162.855 64.0123C162.931 63.1921 163.017 62.2072 161.813 61.9688C162.371 59.5342 160.518 58.1536 159.402 56.4582C158.313 54.3439 157.911 51.9421 158.253 49.5884C158.813 45.6205 157.082 42.1964 155.964 38.6005C155.794 38.0569 155.501 37.8113 154.969 37.7874C154.609 34.368 151.619 33.5716 149.289 32.16C148.264 31.54 147.019 31.2825 145.97 30.6911C142.393 28.6738 142.262 26.5611 145.481 23.466C147.336 22.7888 149.194 22.1211 151.218 22.207C151.746 23.1162 152.183 24.0745 152.525 25.0684C153.658 28.6452 159.774 32.427 163.327 32.005C164.45 31.8714 165.728 31.3492 165.95 30.5981C166.172 29.847 165.142 28.8526 164.042 28.5832C164.011 28.2207 163.978 27.8559 163.945 27.4911C164.08 26.7757 164.314 26.1462 165.232 26.6279C165.983 27.0213 166.689 27.5149 167.595 27.4577C170.099 28.5903 172.741 29.1269 175.464 29.32C177.908 30.2047 180.336 29.9066 182.754 29.2198C185.112 29.8207 187.465 29.3963 189.75 28.9242C193.822 28.0872 195.508 28.6547 197.731 32.0837C194.099 31.7331 190.603 32.6536 187.081 33.2759C183.622 33.8649 180.495 37.1436 180.312 40.1743Z" fill="#D63526"/>
<path d="M172.145 18.7852C171.716 18.8281 171.43 18.0985 170.914 18.5754C165.821 19.8082 163.761 22.2642 163.422 27.5006C159.268 27.0452 156.483 24.1957 153.448 21.7778C155.744 20.9909 158.708 21.6443 160.008 18.7185C161.891 18.4013 161.567 16.8108 161.698 15.5876C161.853 14.176 161.734 12.7262 161.734 11.2955C163.995 13.587 166.742 14.97 169.775 15.9882C170.852 16.3626 172.271 17.0851 172.145 18.7852ZM162.349 21.6466C163.959 21.0028 164.972 20.2803 165.046 18.7852C165.072 18.1319 164.412 17.6478 163.854 17.922C162.442 18.6183 162.628 20.049 162.349 21.6395V21.6466Z" fill="#E0D9AA"/>
<path d="M153.448 21.773C156.483 24.1885 159.269 27.038 163.422 27.4959L163.401 27.4815C163.32 28.0157 163.492 28.402 164.038 28.5689C165.137 28.8383 166.167 29.8279 165.945 30.5838C165.723 31.3397 164.445 31.8571 163.322 31.9907C159.769 32.4127 153.653 28.6213 152.52 25.0541C152.179 24.0602 151.741 23.1019 151.214 22.1927C151.536 19.8487 152.713 21.9781 153.448 21.773Z" fill="#94BC45"/>
<path d="M197.728 32.0741C195.506 28.6452 193.82 28.0777 189.747 28.9146C187.463 29.3915 185.11 29.8112 182.751 29.2103C187.058 26.1534 191.781 25.283 196.903 26.4634C198.265 28.3447 200.399 29.6681 200.974 32.1194C201.002 35.232 201.03 38.3454 201.057 41.4596C201.057 41.5549 201.057 41.6527 201.043 41.7481C200.804 43.9228 199.419 46.0545 202.698 47.7094C204.617 48.6632 203.997 51.4745 203.158 53.5491C202.919 54.1142 201.939 54.5029 202.55 55.2683C204.951 58.3252 203.408 60.8242 201.484 63.285C199.686 64.897 197.654 65.1926 195.423 64.3748C195.389 64.0934 195.356 63.812 195.32 63.5306C197.423 62.9178 198.983 61.5658 200.316 59.8847C201.06 58.95 201.772 57.6194 201.246 56.7848C200.509 55.6236 199.7 57.2403 198.861 57.4072C197.924 57.5908 196.953 57.9246 196.14 57.1688C195.945 56.9851 195.933 56.4152 196.057 56.1172C196.251 55.6727 196.566 55.291 196.964 55.0144C197.363 54.7379 197.83 54.5773 198.315 54.5506C201.472 54.2477 202.309 52.8027 201.069 49.5717C200.151 47.4614 198.999 46.5124 196.763 48.2411C195.428 49.2343 193.765 49.6788 192.113 49.4835C191.059 49.3905 190.1 49.0876 189.952 47.9812C189.805 46.8748 190.687 46.2978 191.667 45.9949C192.585 45.7135 193.52 45.2128 194.431 45.2438C198.034 45.3702 198.706 43.0977 198.775 40.2363C199.839 37.3344 199.283 34.6494 197.728 32.0741Z" fill="#F1AB38"/>
<path d="M201.019 25.7194C199.754 26.2373 198.389 26.4607 197.025 26.3727C196.803 24.117 197.402 21.5727 198.115 18.8162C198.949 15.59 199.727 12.3208 199.848 8.95386C202.431 8.31242 202.774 11.2978 204.596 11.894C203.702 14.2666 201.734 16.6344 205.459 18.6088C206.668 19.2526 205.266 20.0943 204.539 20.2278C201.338 20.8192 200.935 23.0893 201.019 25.7194Z" fill="#A57854"/>
<path d="M175.462 29.3105C172.736 29.1173 170.094 28.5808 167.593 27.4482C166.687 23.8976 169.977 22.0568 170.917 19.2621L174.415 19.3527C175.345 20.7405 174.987 23.0368 177.3 23.4469C177.486 24.3531 177.673 25.2584 177.861 26.1629C178.283 28.1373 178.028 29.6109 175.462 29.3105Z" fill="#E0D9AA"/>
<path d="M177.295 23.4422C174.982 23.032 175.34 20.7358 174.41 19.348C174.796 18.604 175.033 17.3688 175.602 17.2019C178.256 16.3983 180.185 14.8913 181.351 12.3876C181.716 13.0576 182.005 13.7873 182.46 14.3858C183.114 15.2466 182.937 15.9 181.983 16.1074C177.915 16.9897 178.044 20.4806 177.295 23.4422Z" fill="#A57854"/>
<path d="M205.86 26.2678C204.233 26.1462 202.493 27.0118 201 25.7098C202.65 25.6359 204.331 25.2902 205.86 26.2678Z" fill="#A57854"/>
<path d="M163.923 109.628C163.966 110.272 163.623 110.692 163.148 111.076C158.303 114.972 158.331 120.223 159.223 125.654C159.45 127.035 158.861 128.347 159.037 129.622C159.54 133.247 160.566 136.709 162.375 139.966C163.737 142.403 165.452 144.814 165.168 147.859C165.125 148.894 164.409 149.063 163.582 149.087C162.888 148.782 162.378 148.202 161.751 147.795C159.388 146.261 156.774 144.821 155.029 142.706C152.566 139.723 151.094 136.087 151.266 131.988C151.314 130.836 151.729 129.532 150.365 127.934C149.201 129.305 148.219 130.619 147.084 131.766C144.408 134.444 141.928 137.25 138.239 138.843C136.43 139.628 134.157 139.148 132.755 140.887L131.606 140.992C130.54 140.542 129.388 140.33 128.232 140.372C127.106 140.133 125.978 139.926 124.858 139.68C124.118 139.518 123.63 139.06 123.684 138.273C123.725 137.708 124.199 137.536 124.719 137.486C130.38 136.928 134.102 133.092 137.786 129.42C141.63 125.585 145.24 121.496 148.707 117.316C149.9 115.871 151.996 115.194 152.399 113.081C152.467 112.941 152.499 112.786 152.492 112.63C154.891 111.664 157.847 112.776 159.924 110.618L161.632 109.538L163.923 109.628Z" fill="#FDD04D"/>
<path d="M140.302 144.447C138.175 144.626 136.756 143.207 135.171 142.165C141.382 140.717 145.662 136.416 150.3 131.172C149.823 136.449 150.231 140.634 153.515 143.941C149.132 144.666 144.706 144.297 140.302 144.447Z" fill="#A57854"/>
<path d="M153.515 143.944C150.231 140.634 149.826 136.449 150.3 131.172C145.658 136.418 141.382 140.71 135.171 142.165C134.245 141.974 132.986 142.42 132.755 140.899C134.157 139.16 136.43 139.64 138.239 138.855C141.928 137.258 144.408 134.456 147.084 131.778C148.238 130.631 149.192 129.315 150.365 127.946C151.729 129.532 151.319 130.836 151.266 132C151.094 136.099 152.566 139.735 155.029 142.718C156.774 144.833 159.388 146.273 161.751 147.807C162.378 148.214 162.888 148.794 163.582 149.099L161.174 151.379C159.702 150.368 158.928 148.546 157.134 147.912C156.801 146.645 155.961 145.882 154.736 145.508C154.817 144.592 153.961 144.43 153.515 143.944Z" fill="#F1AB38"/>
<path d="M157.134 147.9C158.927 148.534 159.702 150.356 161.174 151.367C159.726 152.437 158.055 151.653 156.512 151.934C156.259 151.207 157.008 150.089 155.844 149.75C154.271 149.292 153.584 150.761 152.561 151.491C150.873 149.955 148.76 151.102 146.876 150.608C145.286 150.191 144.396 149.655 144.935 147.885L157.134 147.9Z" fill="#C3966F"/>
<path d="M157.134 147.9L144.935 147.885C142.968 147.609 141.463 146.593 140.326 144.993C144.258 145.355 148.195 145.742 152.122 146.059C153.014 146.13 154.03 146.478 154.745 145.496C155.961 145.87 156.801 146.633 157.134 147.9Z" fill="#A57854"/>
<path d="M154.736 145.496C154.039 146.478 153.014 146.13 152.113 146.059C148.178 145.742 144.244 145.343 140.316 144.993C140.304 144.812 140.297 144.628 140.293 144.447C144.697 144.297 149.115 144.666 153.505 143.941C153.961 144.43 154.817 144.592 154.736 145.496Z" fill="#C3966F"/>
<path d="M112.47 136.173C112.708 133.55 111.993 130.531 115.331 129.16C117.201 130.175 119.266 130.326 121.321 130.516C122.671 134.506 126.329 133.964 129.97 134.153C126.491 137.014 123.038 136.28 119.74 136.409C119.106 136.435 118.324 136.211 118.012 137.052C117.737 137.794 118.169 138.283 118.665 138.798C120.935 141.182 124.772 143.276 128.332 141.516C129.762 142.086 129.15 142.709 128.193 142.611C125.776 142.372 124.078 143.565 122.421 144.995C114.435 143.689 106.478 142.253 98.7638 139.728C96.8705 139.108 95.0344 138.385 96.4126 135.779C98.6064 136.602 100.092 135.34 101.563 134.029C104.186 137.536 107.524 139.687 112.017 139.804C113.381 139.84 114.852 139.439 115.017 138.254C115.188 136.983 113.774 136.347 112.47 136.173Z" fill="#A57854"/>
<path d="M128.327 141.516C124.767 143.276 120.935 141.17 118.66 138.798C118.164 138.283 117.733 137.794 118.007 137.052C118.319 136.211 119.101 136.435 119.736 136.409C123.033 136.28 126.486 137.002 129.965 134.153C126.319 133.964 122.666 134.506 121.317 130.516L130.447 130.454C130.177 131.482 128.391 131.151 128.508 132.601C131.064 133.511 132.829 131.933 134.338 130.478C135.6 129.265 133.952 129.525 133.358 129.315C133.532 128.997 133.705 128.679 133.878 128.361C136.935 127.316 139.198 125.077 141.585 123.072C143.59 121.389 143.254 118.921 143.254 116.62C144.797 118.15 146.242 118.377 147.546 116.324C148.002 115.608 148.948 115.294 149.158 114.369C150.389 114.323 151.02 112.776 152.389 113.076C151.986 115.189 149.897 115.866 148.698 117.311C145.231 121.491 141.621 125.581 137.777 129.415C134.093 133.087 130.371 136.924 124.71 137.482C124.19 137.532 123.715 137.703 123.675 138.269C123.62 139.055 124.109 139.513 124.848 139.675C125.969 139.914 127.097 140.138 128.222 140.367C128.263 140.76 128.296 141.137 128.327 141.516Z" fill="#F1AB38"/>
<path d="M246.635 137.472L254.821 135.803C254.764 136.175 254.704 136.549 254.647 136.921C252.305 138.19 249.42 138.021 247.24 139.721C246.196 139.199 246.675 138.266 246.635 137.472Z" fill="#C3966F"/>
<path d="M247.24 139.723C249.42 138.023 252.305 138.192 254.647 136.924C254.647 137.732 256.211 138.807 254.249 139.287L248.879 139.871L247.24 139.723Z" fill="#A57854"/>
<path d="M231.064 20.5235C229.907 22.6148 228.949 21.1244 228.224 20.2326C227.664 19.5411 227.49 18.5372 227.032 17.3712C229.104 17.7956 228.322 21.5036 231.062 20.5068L231.064 20.5235Z" fill="#C3966F"/>
<path d="M170.912 19.2621C169.958 22.0568 166.682 23.8976 167.588 27.4482C166.684 27.5054 165.979 27.0118 165.227 26.6184C164.309 26.1415 164.076 26.7543 163.94 27.4815C163.764 27.4297 163.577 27.4297 163.401 27.4815L163.422 27.4959C163.759 22.2499 165.821 19.8034 170.914 18.5706C170.914 18.8043 170.915 19.0332 170.912 19.2621Z" fill="#A57854"/>
<path d="M225.844 15.9C225.774 15.8791 225.708 15.8486 225.646 15.8093C225.613 15.7831 225.618 15.7116 225.603 15.6615L225.842 15.9H225.844Z" fill="#A57854"/>
<path d="M112.47 136.173C113.767 136.347 115.181 136.983 115.005 138.245C114.84 139.437 113.369 139.83 112.005 139.795C107.505 139.678 104.165 137.527 101.551 134.019C101.353 132.388 99.8821 131.005 100.621 129.174C101.895 129.141 102.51 130.776 103.886 130.5L105.104 131.673C104.966 132.481 105.331 132.889 106.125 132.949C107.567 135.367 110.596 134.635 112.47 136.173Z" fill="#D63526"/>
<path d="M119.984 118.289L118.443 118.241C119.836 114.187 123.451 112.959 126.026 115.711C124.04 116.677 120.751 114.578 119.984 118.289Z" fill="#825B3B"/>
<path d="M133.358 129.315C133.952 129.513 135.6 129.265 134.338 130.478C132.829 131.933 131.064 133.511 128.508 132.601C128.391 131.144 130.177 131.475 130.447 130.455L133.358 129.315Z" fill="#FDD04D"/>
<path d="M159.922 110.63C157.845 112.788 154.888 111.676 152.489 112.642C150.918 110.916 152.318 108.968 152.12 107.127C151.681 103.03 151.49 98.9026 151.292 94.7845C150.715 82.6092 149.807 70.4624 149.439 58.2633C149.32 54.2263 148.841 50.1297 146.752 46.3717C145.305 43.7702 145.395 40.6226 144.749 37.7302C144.384 36.0944 144.971 36.3615 146.204 36.4259C149.182 36.5856 151.95 37.9591 154.96 37.7874C155.494 37.8113 155.787 38.0569 155.956 38.6005C157.075 42.1892 158.818 45.6206 158.245 49.5884C157.907 51.9398 158.311 54.3381 159.402 56.4486C158.16 56.6132 156.421 55.6785 156.591 58.3563C157.404 71.123 158.048 83.9016 158.813 96.6707C159.094 101.325 159.55 105.975 159.922 110.63Z" fill="#524E4E"/>
<path d="M149.168 114.385C148.958 115.31 148.011 115.625 147.556 116.341C146.249 118.394 144.804 118.167 143.264 116.636V115.537C145.345 113.234 146.178 110.095 148.357 107.859C148.502 110.05 148.018 112.32 149.168 114.385Z" fill="#3D3C3B"/>
<path d="M123.396 107.112C125.966 104.606 128.575 104.966 131.537 105.148C129.286 107.961 126.62 107.477 123.396 107.112Z" fill="#C6A262"/>
<path d="M113.13 121.377L118.541 123.475C116.452 123.513 113.681 125.316 113.13 121.377Z" fill="#EBCB96"/>
<path d="M106.132 132.949C105.338 132.889 104.973 132.472 105.111 131.673C105.929 131.716 106.213 132.176 106.132 132.949Z" fill="#EBCB96"/>
<path d="M232.802 121.16C231.729 120.056 232.461 119.238 232.726 118.367C234.927 111.083 237.929 104.06 239.741 96.6397C240.497 93.5398 240.218 90.6998 238.861 87.9862C237.86 85.9976 237.745 84.2783 238.78 82.2634C239.972 79.9457 240.643 77.3608 242.037 75.1432L242.719 75.4079C242.08 77.4634 241.515 79.5451 240.781 81.5647C240.323 82.8214 240.032 84.1233 240.9 85.1415C244.758 89.6578 243.099 94.4221 241.432 99.017C238.756 106.38 235.75 113.629 232.802 121.16Z" fill="#94BC45"/>
<path d="M235.657 118.89C235.657 119.605 235.375 120.048 234.619 120.094C234.517 119.3 234.944 118.975 235.657 118.89Z" fill="#825B3B"/>
<path d="M324.773 124.171C326.006 124.913 326.056 123.289 326.84 123.136C327.506 123.091 328.176 123.029 328.843 122.998C331.643 122.862 331.831 122.545 330.398 120.258C331.433 120.058 332.282 120.606 333.116 120.974C333.898 121.315 334.614 121.951 334.373 122.996C334.163 123.904 333.419 124.124 332.599 124.143C329.408 124.221 327.007 125.457 325.288 128.325C324.017 130.447 320.428 131.275 318.08 130.471C317.684 130.338 317.329 130.178 317.309 129.756C317.274 128.993 317.846 128.802 318.454 128.802C321.706 128.819 323.8 127.264 324.773 124.171Z" fill="#C3966F"/>
<path d="M315.798 123.711C315.135 122.927 314.195 122.109 315.299 121.088C315.965 120.48 316.921 119.841 317.841 120.509C319.176 121.479 317.786 122.54 317.746 123.568L315.798 123.711Z" fill="#825B3B"/>
<path d="M159.922 110.63C159.547 105.975 159.092 101.33 158.813 96.6635C158.048 83.8944 157.404 71.1158 156.591 58.3491C156.421 55.6785 158.16 56.6132 159.402 56.4415C160.518 58.1441 162.371 59.5199 161.813 61.9545C162.872 66.7688 162.542 71.731 162.638 76.5525C162.843 86.8298 163.761 97.0975 163.379 107.387C162.855 108.154 161.782 108.472 161.629 109.533L159.922 110.63Z" fill="#616060"/>
<path d="M197.728 32.0741C199.283 34.6399 199.839 37.3344 198.78 40.2363C192.626 39.955 186.464 41.3904 180.312 40.1767C180.495 37.1436 183.622 33.8649 187.079 33.2616C190.601 32.644 194.097 31.7236 197.728 32.0741Z" fill="#616060"/>
<path d="M201.057 49.5621C202.297 52.7932 201.46 54.2382 198.303 54.541C197.819 54.5677 197.351 54.7283 196.952 55.0049C196.554 55.2815 196.24 55.6632 196.045 56.1077C195.921 56.4057 195.933 56.9756 196.128 57.1592C196.937 57.9175 197.912 57.5837 198.849 57.3977C199.7 57.2308 200.518 55.6141 201.234 56.7753C201.761 57.6099 201.048 58.9405 200.304 59.8752C198.971 61.5563 197.411 62.9083 195.308 63.5211C195.272 61.1366 195.217 58.7259 195.208 56.327C195.191 51.8775 195.208 51.8537 199.707 50.5303C200.253 50.368 200.728 50.027 201.057 49.5621Z" fill="#616060"/>
<path d="M161.632 109.549C161.784 108.479 162.857 108.162 163.382 107.403C165.289 107.165 167.719 107.403 168.151 109.044C168.611 110.78 166.093 111.288 164.641 112.046C165.282 110.98 165.578 110.019 163.925 109.638L161.632 109.549Z" fill="#A57854"/>
<path d="M165.213 131.611C165.351 133.337 166.696 132.701 167.631 132.829C171.186 133.321 174.587 132.038 178.087 131.895C178.351 131.927 178.608 131.999 178.85 132.109C178.647 133.438 177.57 133.755 176.704 134.315C173.979 136.08 170.807 136.58 167.767 137.339C164.848 138.054 161.93 135.648 161.736 132.705C161.686 131.911 161.67 131.091 162.957 131.418C163.673 131.604 164.469 131.559 165.23 131.616L165.213 131.611Z" fill="#FDD04D"/>
<path d="M180.164 139.807C180.131 142.191 178.123 142.623 176.53 143.166C173.231 144.299 169.823 145.08 166.36 145.496C166.441 144.373 166.021 143.436 165.297 142.613C170.5 142.99 175.226 140.827 180.164 139.807Z" fill="#C3966F"/>
<path d="M163.401 27.4959C163.577 27.4441 163.764 27.4441 163.94 27.4959C163.973 27.8607 164.007 28.2255 164.038 28.588C163.499 28.4067 163.32 28.0204 163.401 27.4959Z" fill="#E0D9AA"/>
<path d="M162.349 21.6395C162.628 20.049 162.442 18.6183 163.861 17.9101C164.412 17.6359 165.072 18.1199 165.053 18.7733C164.982 20.2732 163.959 20.9957 162.349 21.6395Z" fill="#A57854"/>
</g>
<g filter="url(#filter0_b_337_440)">
<rect x="274.324" y="29.0282" width="47.7226" height="89.9539" transform="rotate(4.14665 274.324 29.0282)" fill="#C4C4C4" fill-opacity="0.1"/>
</g>
<g clip-path="url(#clip1_337_440)">
<path d="M283.148 127.835C278.229 129.391 273.31 130.932 268.27 132.074C267.039 132.334 265.886 132.879 264.903 133.664C263.324 134.949 263.247 136.649 264.749 138.031C266.3 139.464 268.242 140.015 270.268 140.293C273.827 140.778 277.365 140.374 280.909 140.009C283.001 139.792 285.069 139.339 287.218 139.685C290.493 140.217 292.662 142.032 293.69 145.134C294.872 148.727 295.939 152.357 297.397 155.852C297.568 156.263 297.771 156.661 297.959 157.066C299.226 159.177 300.596 161.218 302.07 163.19C303.845 165.582 305.693 167.907 307.844 169.987C309.778 171.901 312.365 173.012 315.085 173.096C315.787 173.129 316.472 172.861 317.181 172.93C317.611 172.913 317.951 172.654 318.329 172.495C317.853 172.785 317.26 172.893 316.924 173.405C315.89 174.753 315.876 176.233 316.307 177.796C317.18 180.948 318.062 184.099 318.951 187.249C321.956 197.902 325 208.543 328.084 219.173C328.637 221.083 329.162 223 329.763 224.898C329.886 225.296 329.991 225.704 330.319 226H368.046C360.629 208.885 353.173 191.785 346.732 174.267C344.441 168.038 343.062 161.607 342.205 155.041C341.589 150.336 341.211 145.618 341.011 140.875C340.857 137.348 340.885 133.823 340.857 130.296C340.826 127.002 340.46 123.8 339.124 120.73C337.948 118.026 336.812 115.308 335.523 112.652C331.529 104.392 327.153 96.3333 322.682 88.3257C322.597 88.1913 322.504 88.0621 322.404 87.9389C321.887 88.4721 321.867 89.1716 321.879 89.8295C321.927 92.3287 321.694 94.8171 321.648 97.3132C321.566 101.794 321.503 106.275 321.417 110.754C321.363 113.552 322.079 115.992 323.66 118.23C323.996 118.697 324.301 119.186 324.574 119.693C325.057 120.563 325.666 121.356 326.381 122.048C328.78 124.288 330.675 126.869 331.598 129.364C328.46 124.834 324.452 120.227 320.093 115.915C319.551 115.387 319.015 114.854 318.486 114.307C318.06 113.838 317.582 113.419 317.061 113.059C316.29 112.553 315.745 111.826 315.15 111.15C314.861 111.144 314.575 111.079 314.312 110.959C311.75 109.698 308.961 109.481 306.187 109.147C303.856 108.866 301.512 109.002 299.177 108.822C296.719 108.632 294.246 109.006 291.781 109.02C290.599 109.02 290.007 109.945 290.164 111.274C290.346 112.815 291.027 114.154 291.946 115.378C293.273 117.158 294.922 118.674 296.808 119.846C299.833 121.738 303.173 123.07 306.67 123.777C307.653 123.972 308.172 124.475 308.475 125.381C308.873 126.565 309.218 127.767 309.643 128.941C309.759 129.25 309.874 129.558 309.995 129.866C312.007 135.24 313.736 140.718 315.907 146.034C317.808 150.691 320.189 155.072 323.466 158.927C324.054 159.629 324.694 160.285 325.381 160.89C324.856 160.457 324.065 159.986 323.363 159.392C322.603 158.75 321.85 158.11 321.252 157.298C320.682 156.528 320.118 155.739 319.629 154.912C317.865 151.965 316.357 148.872 315.122 145.667C313.919 142.484 312.907 139.239 311.971 135.96C311.831 135.473 311.75 134.943 311.235 134.664C309.274 133.938 307.229 133.553 305.203 133.062C298.697 131.478 292.195 129.88 285.695 128.27C284.842 128.068 284.015 127.86 283.148 127.835Z" fill="#F8B684"/>
<path d="M330.296 226C329.988 224.099 329.306 222.302 328.783 220.453C326.537 212.541 324.241 204.641 321.985 196.725C320.167 190.353 318.39 183.971 316.572 177.602C316.141 176.092 316.273 174.706 317.201 173.42C317.134 173.349 317.044 173.304 316.948 173.293C316.851 173.283 316.753 173.307 316.672 173.361C315.34 174.15 314.092 175.021 313.759 176.689C316.562 185.266 318.124 194.135 319.876 202.956C321.37 210.49 322.703 218.056 324.105 225.606C324.122 225.733 324.132 225.861 324.135 225.989L330.296 226Z" fill="#F6AC78"/>
<path d="M315.187 111.378C315.176 111.821 315.384 112.11 315.74 112.382C316.64 113.071 317.497 113.815 318.37 114.539C318.873 114.432 318.87 114.003 318.908 113.635C319.095 111.851 319.192 110.057 319.304 108.267C319.54 104.495 319.802 100.725 320.028 96.9526C320.182 94.4257 320.409 91.905 320.491 89.3734C320.525 88.2532 320.714 87.1423 320.694 86.016C320.686 85.5306 320.674 85.0591 320.497 84.6031C320.463 82.1008 320.756 79.6139 320.905 77.1209C321.278 70.8837 321.706 64.6496 322.11 58.4139C322.604 50.7715 323.096 43.1286 323.586 35.4852C323.662 34.3034 323.771 33.1185 323.777 31.9413C323.788 29.2911 321.876 27.077 319.23 26.8566C314.696 26.4822 310.15 26.228 305.609 25.9322C298.988 25.4905 292.368 25.057 285.748 24.6317C282.487 24.4191 279.226 24.1772 275.963 24.0154C272.907 23.8613 270.599 25.8413 270.38 28.8736C269.907 35.4251 269.499 41.9828 269.071 48.5374C268.636 55.1885 268.205 61.8402 267.776 68.4924C267.432 73.8338 267.092 79.1753 266.755 84.5168C266.71 85.2194 266.622 85.9189 266.555 86.6184C265.948 87.4921 266.105 88.5244 266.035 89.4813C265.834 92.2747 265.703 95.0744 265.474 97.8663C265.438 98.3286 265.451 98.7616 265.764 99.1344C265.601 102.715 265.411 106.296 265.051 109.865C264.932 109.973 264.836 110.104 264.771 110.251C264.706 110.398 264.672 110.557 264.672 110.718C264.559 112.721 264.364 114.734 264.277 116.746C264.226 118.023 263.978 119.288 264.063 120.575C264.095 121.06 264.111 121.536 264.416 121.943C265.354 124.98 266.644 126.092 269.809 126.336C274.277 126.678 278.745 126.926 283.214 127.223C283.622 127.25 284.049 127.16 284.436 127.377C284.633 127.686 284.955 127.741 285.275 127.761C287.349 127.895 289.423 128.031 291.497 128.169C295.167 128.407 298.838 128.632 302.505 128.889C304.579 129.035 306.657 129.112 308.73 129.288C309.143 129.323 309.572 129.316 309.87 128.934C309.533 127.436 309.076 125.969 308.503 124.545C308.338 124.132 308.152 123.737 307.614 123.641C303.856 122.978 300.362 121.604 297.064 119.703C296.14 119.231 295.123 119.274 294.146 119.21C291.716 119.056 289.285 118.911 286.855 118.747C283.403 118.505 279.949 118.324 276.499 118.059C274.391 117.895 272.273 117.871 270.171 117.613C268.954 117.459 268.428 116.934 268.524 115.7C268.775 112.473 268.934 109.241 269.168 106.014C269.342 103.617 269.476 101.216 269.641 98.8186C269.889 95.1422 270.115 91.4658 270.357 87.7895C270.511 85.3596 270.652 82.9267 270.82 80.4983C271.057 76.9822 271.266 73.4646 271.508 69.9484C271.675 67.5201 271.8 65.0872 271.971 62.6573C272.216 59.2075 272.414 55.753 272.656 52.3016C272.821 49.9364 272.964 47.5682 273.118 45.2031C273.368 41.3341 273.544 37.4605 273.906 33.5992C274.011 32.4667 274.447 32.0754 275.601 32.0754C278.423 32.0754 281.232 32.3835 284.047 32.5376C286.605 32.6917 289.163 32.8689 291.719 33.043C295.298 33.2864 298.881 33.5052 302.46 33.7425C304.891 33.8966 307.321 34.0507 309.751 34.2048C312.597 34.3958 315.452 34.5129 318.286 34.798C319.312 34.9012 319.816 35.5684 319.716 36.801C319.632 37.8241 319.609 38.8503 319.528 39.8703C319.101 45.2046 318.814 50.5497 318.449 55.8947C318.212 59.4108 318.013 62.9316 317.787 66.4493C317.569 69.8072 317.346 73.1641 317.119 76.52C316.95 79.013 316.799 81.5091 316.645 84.0037C316.431 87.4566 316.195 90.9096 315.961 94.361C315.799 96.7585 315.665 99.1591 315.498 101.557C315.327 104.082 315.212 106.61 314.995 109.133C314.911 109.883 314.75 110.661 315.187 111.378Z" fill="#312C4B"/>
<path d="M309.859 128.929C305.332 128.644 300.806 128.359 296.28 128.075C292.329 127.834 288.377 127.613 284.425 127.373L283.146 127.835C284.596 128.541 286.192 128.736 287.73 129.12C295.56 131.075 303.403 132.984 311.241 134.91C311.634 134.513 311.431 134.071 311.318 133.647C311.052 132.627 310.66 131.644 310.36 130.636C310.274 130.344 310.089 130.045 310.272 129.721C310.112 129.468 310.135 129.119 309.859 128.929Z" fill="#F5A672"/>
<path d="M264.416 121.935C264.461 118.083 264.912 114.27 265.054 110.43C265.054 110.239 265.054 110.048 265.054 109.857C263.381 109.427 261.69 109.339 260.011 109.749C258.056 110.228 256.684 111.39 256.208 113.41C255.663 115.721 256.174 117.746 258.077 119.284C259.925 120.78 262.21 121.273 264.416 121.935Z" fill="#F8B684"/>
<path d="M320.494 84.6C320.298 87.2194 320.084 89.8311 319.91 92.4489C319.464 99.1237 319.042 105.802 318.592 112.479C318.546 113.165 318.705 113.882 318.37 114.538C318.816 115.105 319.334 115.611 319.911 116.043C321.352 117.059 322.592 118.313 323.951 119.425C324.235 119.656 324.45 120.042 324.924 119.888C324.336 118.356 323.318 117.062 322.572 115.615C322.081 114.644 321.831 113.569 321.843 112.481C321.83 109.181 321.748 105.877 321.862 102.58C322.008 98.2654 322.186 93.9589 322.233 89.6446C322.241 89.0745 322.491 88.5198 322.41 87.9359C321.856 86.7773 321.215 85.6622 320.494 84.6Z" fill="#F5A672"/>
<path d="M265.764 99.1268C266.089 94.9589 266.397 90.7894 266.555 86.6108C265.564 86.536 264.568 86.6187 263.604 86.8557C259.92 87.7402 258.8 90.1176 259.361 93.6184C259.857 96.7169 262.401 98.8001 265.764 99.1268Z" fill="#F8B684"/>
<path d="M317.209 172.657C315.397 172.8 313.605 172.824 311.847 172.195C310.553 171.732 309.368 171.009 308.366 170.069C305.727 167.634 303.551 164.804 301.494 161.878C300.448 160.389 299.437 158.878 298.402 157.382C298.298 157.228 298.3 156.876 297.949 157.073C300.91 164.007 304.643 170.391 310.913 174.922C311.733 175.535 312.619 176.055 313.554 176.472C313.746 176.352 313.891 176.169 313.964 175.955C314.468 174.819 315.327 174.053 316.404 173.469C316.725 173.287 317.249 173.227 317.209 172.657Z" fill="#F6AC78"/>
<path d="M317.209 172.657C316.56 173.047 315.88 173.394 315.269 173.834C314.37 174.482 313.745 175.34 313.554 176.465L313.766 176.696C314.537 175.489 315.381 174.343 316.694 173.651C316.859 173.563 317.038 173.497 317.21 173.426L318.867 172.326C318.187 172.226 317.731 172.608 317.209 172.657Z" fill="#F3A26A"/>
<path d="M310.266 129.721C309.948 130.062 310.121 130.421 310.209 130.789C310.542 132.166 311.086 133.49 311.235 134.911C311.837 136.123 312.069 137.456 312.452 138.736C313.902 143.568 315.62 148.289 318.021 152.738C319.072 154.687 320.153 156.634 321.648 158.265C322.997 159.738 324.658 160.884 326.463 161.781C325.538 160.548 324.377 159.556 323.4 158.38C321.041 155.505 319.06 152.339 317.508 148.96C314.654 142.853 312.779 136.371 310.364 130.095C310.325 129.972 310.292 129.847 310.266 129.721Z" fill="#F3A169"/>
<path d="M301.149 109.892C298.138 109.892 295.265 109.892 292.389 109.892C292.135 109.914 291.885 109.975 291.648 110.071C291.322 110.174 291.069 110.379 291.052 110.743C291.038 111.077 291.306 111.245 291.57 111.37C293.204 112.14 294.944 112.518 296.721 112.757C297.036 112.801 297.357 112.818 297.667 112.888C297.993 112.978 298.339 112.97 298.66 112.863C298.982 112.757 299.265 112.557 299.472 112.29C300.118 111.555 300.68 110.751 301.149 109.892Z" fill="#FBD2BC"/>
<path d="M324.917 119.891C323.478 118.68 322.042 117.464 320.603 116.259C320.412 116.105 320.266 115.71 319.91 116.042C321.073 117.49 322.491 118.697 323.719 120.093C326.569 123.328 329.378 126.593 331.82 130.156C331.908 130.289 332.025 130.401 332.162 130.482C331.652 128.37 330.621 126.516 329.324 124.806C327.985 123.049 326.239 121.661 324.917 119.891Z" fill="#F3A26A"/>
<path d="M308.303 118.171C309.169 115.185 311.215 113.344 314.238 112.21C311.577 111.731 308.244 115.188 308.303 118.171Z" fill="#F3A26A"/>
<path d="M287.198 28.0446C286.846 28.0403 286.495 28.0125 286.146 27.9614C285.698 27.8705 285.47 27.9938 285.44 28.4637C285.411 28.9059 285.491 29.1802 286.04 29.2126C288.978 29.3836 291.916 29.5854 294.853 29.7811C299.26 30.0749 303.665 30.3733 308.07 30.6763C308.503 30.7056 308.915 30.8119 308.959 30.1555C309.001 29.5608 308.754 29.3959 308.189 29.3666C304.896 29.19 301.604 28.9907 298.315 28.7688C294.617 28.5238 290.91 28.2526 287.206 27.9984L287.198 28.0446Z" fill="#584F80"/>
<path d="M290.562 121.407C289.294 121.407 288.343 122.3 288.332 123.516C288.323 124.695 289.339 125.673 290.554 125.673C291.134 125.669 291.689 125.436 292.098 125.024C292.506 124.612 292.735 124.055 292.734 123.475C292.731 122.321 291.776 121.413 290.562 121.407Z" fill="#584F80"/>
<path d="M282.203 27.0493C281.505 27.0246 281.114 27.4714 281.038 28.191C280.97 28.8304 281.574 29.399 282.251 29.3867C283.032 29.3728 283.447 28.8844 283.447 28.1787C283.447 27.5084 283.037 27.0616 282.203 27.0493Z" fill="#574F7F"/>
<path d="M311.412 30.3034C311.457 31.0184 311.787 31.4668 312.514 31.5053C313.273 31.5469 313.737 31.1863 313.746 30.3944C313.754 29.6332 313.346 29.1987 312.58 29.1941C311.856 29.1894 311.498 29.6255 311.412 30.3034Z" fill="#584F80"/>
</g>
<defs>
<filter id="filter0_b_337_440" x="264.819" y="26.0282" width="60.1022" height="99.1693" filterUnits="userSpaceOnUse" color-interpolation-filters="sRGB">
<feFlood flood-opacity="0" result="BackgroundImageFix"/>
<feGaussianBlur in="BackgroundImage" stdDeviation="1.5"/>
<feComposite in2="SourceAlpha" operator="in" result="effect1_backgroundBlur_337_440"/>
<feBlend mode="normal" in="SourceGraphic" in2="effect1_backgroundBlur_337_440" result="shape"/>
</filter>
<clipPath id="clip0_337_440">
<rect width="325" height="161.348" fill="white" transform="translate(29)"/>
</clipPath>
<clipPath id="clip1_337_440">
<rect width="112.046" height="202" fill="white" transform="matrix(-1 0 0 1 368.046 24)"/>
</clipPath>
</defs>
</svg>
