<svg width="379" height="227" viewBox="0 0 379 227" fill="none" xmlns="http://www.w3.org/2000/svg">
<path d="M0.0206241 141.491C-0.743267 127.372 19.8665 113.229 36.3054 108.366C47.4067 105.08 64.98 104.277 98.3277 111.094C135.099 118.611 140.794 110.075 212.619 107.585C279.568 105.265 303.066 99.1276 338.222 111.483C349.323 115.385 377.986 125.459 378.009 138.766C378.04 156.128 331.156 172.105 295.318 177.735C246.765 185.367 240.736 170.554 180.637 170.722C115.485 170.913 97.3174 188.38 49.1827 174.229C38.6315 171.124 1.02132 160.068 0.0206241 141.491Z" fill="#EDEDED"/>
<path d="M92.9336 53.4355C96.4365 46.8518 102.546 43.4992 109.303 40.3993C105.555 38.1674 102.352 35.6637 99.565 32.6544C94.8937 27.6088 95.0082 26.4952 100.779 22.6037C103.485 20.7772 106.327 19.2129 109.556 18.4642C110.539 18.2257 111.724 17.911 112.079 19.0126C112.909 21.5927 114.862 20.9703 116.555 20.7462C119.872 20.305 123.162 19.6541 126.465 19.077V23.8055C128.043 22.4773 129.355 20.4672 130.628 20.4839C133.931 20.5554 136.847 19.6731 139.844 18.6406C141.139 18.19 140.629 19.1581 140.469 19.7471C137.746 20.5435 135.361 21.9217 135.173 25.0144C134.946 28.8559 134.157 33.1027 139.227 34.946C140.359 35.3609 141.904 35.5659 142.057 37.3996C142.791 46.2819 143.612 55.1571 144.346 64.0394C144.823 69.6812 145.083 75.3373 145.624 80.9695C146.487 89.9377 147.532 98.8915 147.82 107.915L138.638 102.149C141.041 97.9282 142.052 93.5645 139.689 88.9958C138.106 85.9341 135.342 84.4437 132.023 84.0932C129.448 83.8214 127.447 84.9278 125.89 87.4506C126.772 87.3862 127.349 87.4387 127.869 87.2885C130.766 86.4443 133.053 87.3862 134.546 89.8733C136.453 93.0471 137.035 96.4736 135.662 100.06C132.543 97.437 132.221 101.312 130.602 102.464C129.648 100.942 128.68 99.6236 127.953 98.1714C126.999 96.2829 125.995 96.0396 124.679 97.7636C122.962 100.012 121.03 100.229 118.841 98.4385C118.474 98.138 118.002 97.9615 117.625 97.6754C116.28 96.6238 115.591 96.8384 115.169 98.6006C113.739 104.536 110.639 110.416 114.931 116.418C113.789 116.468 112.644 116.489 111.504 116.575C109.477 116.723 109.196 117.615 110.474 119.122C110.56 120.154 110.684 121.184 110.725 122.222C110.88 126.201 109.592 128.66 106.788 129.781C106.912 127.778 107.889 125.918 107.66 123.843C106.576 113.987 105.516 104.131 104.479 94.2751C104.384 93.3594 104.32 92.4986 103.216 92.3126C97.6454 91.3755 92.2779 89.3678 86.5741 89.1436C86.1259 88.2208 85.1434 87.4506 86.0639 86.2059C86.4287 85.7147 86.5145 84.9325 86.5408 84.2768C86.6981 78.8878 87.9715 73.6633 88.8108 68.3745C88.8108 67.807 88.8188 67.2387 88.8347 66.6696C90.5157 62.356 90.945 57.6561 92.9336 53.4355Z" fill="#3D3C3B"/>
<path d="M229.392 47.8891C233.873 47.3335 238.344 46.4584 243.611 47.9869C238.015 41.4438 237.698 34.3236 237.929 27.0031C238 24.7402 238.84 24.1632 240.867 24.3301C243.748 24.5847 246.522 25.5418 248.948 27.1176C250.378 28.0142 250.727 28.9036 248.755 29.5856C247.92 29.8741 246.847 30.3129 246.89 31.1689C246.942 32.416 248.304 32.6592 249.274 32.9167C253.83 34.1603 258.562 34.6334 263.274 34.3165C267.089 34.0398 270.737 34.6622 274.071 36.701C275.723 37.7048 276.281 38.63 274.827 40.4661C271.434 44.7416 267.554 48.3565 261.996 50.7934C268.322 52.2671 273.52 54.5109 277.271 59.2656C279.5 63.1585 281.194 67.334 282.307 71.6794C284.792 81.5418 285.884 91.5353 284.909 101.724C284.689 104.049 284.217 106.493 285.366 108.79C283.542 110.735 280.879 112.4 283.175 115.705C283.361 115.969 283.013 116.611 282.913 117.076C282.076 118.318 282.658 119.72 282.464 121.034C279.417 122.603 279.417 122.603 279.412 119.386V116.93C276.496 120.455 273.79 118.538 271.009 117.267C267.716 115.76 262.516 119.687 262.799 123.345C262.873 124.318 263.469 125.729 261.931 125.968C258.66 126.509 259.13 128.705 259.499 130.932C259.444 132.215 258.836 132.716 257.506 132.687C252.93 132.592 248.354 132.601 243.78 132.57C248.132 125.827 252.339 118.979 256.957 112.416C258.951 109.581 259.79 106.341 257.911 102.962C257.208 101.698 258.076 100.794 258.703 99.8334C260.689 96.7884 262.623 93.7099 264.638 90.684C265.651 89.1651 264.748 88.371 263.632 87.6581C262.516 86.9451 261.402 86.5206 260.508 88.1183C259.48 89.9543 258.445 91.8095 257.186 93.4834C255.279 95.9991 254.349 99.8024 249.956 99.2802C249.639 99.242 249.241 99.8453 248.886 100.153C246.024 100.673 244.973 103.205 243.401 105.16C241.787 107.159 241.017 109.825 238.661 111.236C238.363 110.309 238.833 109.546 239.221 108.787C241.189 104.946 242.417 100.806 244.081 96.8432C245.462 93.5621 245.221 90.4622 243.439 87.4697C241.949 84.9421 241.949 82.3287 242.903 79.72C244.064 76.5867 245.326 73.4821 246.718 70.4442C247.806 68.0717 246.883 66.9318 244.751 66.0043C242.438 64.998 241.286 66.0901 240.518 68.0168C239.598 70.3298 238.878 72.7262 237.896 75.0058C236.703 77.7671 236.095 81.103 232.774 82.2452C230.482 83.0321 228.481 84.2673 226.426 85.4571C226.397 82.7626 226.7 80.0944 226.903 77.4142C227.613 67.5614 228.357 57.7133 229.392 47.8891Z" fill="#3D3C3B"/>
<path d="M285.364 108.78C284.215 106.493 284.687 104.04 284.906 101.715C285.86 91.5257 284.789 81.5322 282.305 71.6699C281.191 67.3245 279.498 63.149 277.269 59.2561C278.931 58.5975 280.685 58.2024 282.469 58.0853C280.361 60.0168 280.528 62.0984 281.802 64.4615C282.469 65.6991 282.548 67.2419 283.108 68.5557C283.824 70.2249 284.747 71.7939 285.583 73.4058C286.666 75.4899 288.659 74.4836 290.555 74.5456C285.829 78.5993 285.514 80.6023 288.91 83.819C291.502 86.2727 294.692 85.9388 297.84 85.5478C298.615 85.45 298.956 84.7132 299.366 84.0026C300.952 81.2604 306.231 79.5436 309.083 80.6977C309.538 80.8837 310.001 81.1197 309.922 81.7016C309.832 82.3454 309.245 82.2929 308.797 82.3001C307.426 82.3215 306.612 83.1323 305.721 84.1552C309.145 84.9731 311.868 83.5138 314.348 79.8989C315.485 78.2297 315.512 76.8181 314.787 74.8485C312.798 69.4523 308.508 66.362 304.161 63.2478C303.227 62.5777 302.003 61.8171 301.002 62.3202C299.552 63.0356 301.095 64.3709 300.84 65.4201C300.806 65.5632 300.601 65.6585 300.47 65.7849C299.843 65.8302 299.755 65.2198 299.418 64.9313C294.888 61.0779 294.227 61.1828 291.721 66.672C291.721 61.7122 289.477 59.0844 285.102 58.3118C284.959 58.2856 284.863 58.0352 284.735 57.8898C283.18 54.4442 281.575 51.02 281.315 47.1595C281.11 44.1168 281.611 43.8736 284.463 44.7106C287.009 45.4593 287.489 47.0402 287.212 49.2817C285.102 50.6528 285.154 51.1464 288.113 55.1357C287.579 51.6066 289.914 51.3562 292.041 51.1321C296.187 50.6957 296.428 54.1342 297.194 57.1482C298.181 55.6865 298.698 54.5109 298.684 53.0945C298.67 51.5207 299.526 50.4 301.128 50.5717C302.731 50.7434 303.751 51.919 303.417 53.5857C303.193 54.7327 303.72 55.6388 303.801 56.6665L301.178 60.0692C301.274 60.1718 301.369 60.3554 301.514 60.415C311.801 64.5545 317.238 72.8478 320.591 82.8747C324.167 93.605 326.342 104.562 325.305 115.962C325.271 116.31 325.24 116.661 325.207 117.009C324.365 117.934 324.754 119.076 324.663 120.133C322.66 119.997 320.557 120.741 318.759 120.483C315.774 120.056 312.748 121.847 309.834 120.08C309.169 119.677 308.193 120.276 307.404 120.7C305.666 121.635 304.49 123.13 303.291 124.616L302.161 123.442C301.657 121.754 301.684 119.606 298.903 119.959C298.996 118.967 301.049 117.789 298.534 117.314C297.837 117.183 298.176 116.148 298.152 115.509C298.081 113.506 298.028 111.503 297.969 109.5C298.553 108.601 299.826 107.593 297.566 107.182C296.64 107.018 296.023 106.41 295.591 105.649C294.852 104.35 293.884 104.471 292.68 104.92C290.062 105.878 287.715 107.33 285.364 108.78ZM315.244 95.6224C318.821 95.6772 320.638 93.8268 320.471 89.642C320.35 86.5898 318.864 83.3469 315.812 83.4422C312.092 83.5495 306.751 87.3362 306.767 90.1451C306.772 92.6894 311.215 95.5604 315.244 95.6224ZM302.044 91.5687C303.236 90.5505 305.33 90.0235 305.308 88.1254C305.294 86.6947 303.894 85.7409 302.237 85.8148C300.065 85.9221 300.162 87.8011 299.914 89.1699C299.683 90.4503 300.625 91.2277 302.039 91.5687H302.044Z" fill="#524E4E"/>
<path d="M229.392 47.8891C228.362 57.7133 227.614 67.5614 226.896 77.4142C226.7 80.0944 226.397 82.7627 226.419 85.4548C226.729 87.4458 225.31 89.2152 225.415 91.0369C225.813 97.9854 223.865 104.75 224.044 111.67C224.092 113.532 223.944 115.345 223.271 117.25C222.527 119.367 222.318 121.978 224.905 123.643C225.947 124.31 226.655 125.417 226.424 126.833C225.849 126.867 225.277 126.922 224.702 126.931C219.602 127.031 214.21 126.085 210.757 131.493C209.975 132.714 208.64 132.475 207.848 130.911C206.894 129.034 206.372 126.941 204.973 125.3C206.425 123.929 207.934 122.72 207.956 120.343C208.015 113.807 207.808 107.28 208.394 100.73C209.055 93.3642 208.328 85.946 208.959 78.5206C209.637 70.5778 208.974 62.5706 209.546 54.5753C210.176 45.7955 208.223 48.2921 216.425 44.5866C216.573 44.5198 216.793 44.6152 217.165 44.6581C217.165 45.5952 217.215 46.5514 217.165 47.5004C216.599 56.7857 215.886 66.0639 215.495 75.3563C215.326 79.3862 214.992 83.4184 214.68 87.4196C214.413 90.8772 214.477 94.3347 214.203 97.7756C213.628 105.129 213.116 112.488 212.534 119.842C212.331 122.393 213.674 123.896 215.958 123.853C218.021 123.807 219.373 122.203 219.461 119.99C219.814 110.883 220.479 101.801 221.159 92.7132C221.76 84.675 221.65 76.5725 222.511 68.57C222.942 64.5593 222.816 60.5414 223.317 56.5258C223.82 52.4722 223.968 48.3016 224.051 44.1764C224.084 42.419 222.539 40.521 224.955 38.971C222.332 39.1284 220.002 39.5695 217.644 39.7841C212.422 40.261 207.25 41.4318 201.956 40.9645C202.056 38.3868 202.307 35.802 201.618 33.2601C205.356 33.1075 208.993 32.5114 212.376 30.8064C213.075 30.4535 214.463 31.2213 214.37 29.5808C215.417 29.4473 216.475 29.3853 217.503 29.1707C219.976 28.6532 222.778 28.8511 224.309 26.1757C226.815 25.8848 228.944 24.6234 231.059 23.4073C231.741 23.0162 232.955 22.1387 231.059 21.5235C231.321 20.5697 229.33 20.3551 230.31 19.1819C236.606 20.9822 239.279 26.1757 236.784 31.9605C235.964 33.8682 234.03 34.6121 232.254 35.275C230.685 35.864 229.996 36.72 229.948 38.4059C229.86 41.5654 229.588 44.7249 229.392 47.8891Z" fill="#616060"/>
<path d="M88.7965 68.3793C87.9667 73.6681 86.6862 78.8926 86.5288 84.2816C86.5098 84.9373 86.4239 85.7123 86.0519 86.2107C85.1291 87.4554 86.1139 88.2256 86.5622 89.1484C82.9362 88.2041 79.3093 87.2575 75.6817 86.3084C74.8161 86.07 74.0411 85.853 73.5356 86.9737C72.3004 89.7207 70.9937 92.439 69.7204 95.1669C72.2671 92.6346 73.0587 97.0745 74.9019 96.2757C75.2429 97.8781 73.8098 98.3717 73.011 99.2349C72.0338 100.297 70.999 101.305 69.9111 102.254C64.5698 106.865 63.5946 113.18 63.0676 119.677C61.9183 120.679 61.4771 122.353 59.9319 122.975C56.2765 121.807 52.187 121.962 48.9846 119.398C48.8058 119.198 48.6293 118.998 48.4505 118.8C46.2901 114.167 46.9411 109.369 47.8305 104.641C50.2341 91.8501 54.7933 79.8798 62.0422 69.0183C63.368 67.032 64.7439 65.0362 66.8113 63.7008L66.9138 63.8081C66.9997 65.184 66.2175 66.0854 65.3853 67.0821C63.6136 69.2043 61.6631 71.2097 60.8548 74.0282C60.3588 75.7784 61.0479 77.0207 62.5239 76.9063C64.7654 76.7346 67.1403 76.4294 69.0813 75.0416C69.6274 74.6553 70.9198 74.0878 69.625 73.134C68.1037 72.0204 69.3246 71.9107 70.1019 71.7343C74.3726 70.7805 78.226 71.3981 81.4975 74.6076C82.623 75.7093 83.5959 77.9459 85.1744 77.4118C86.97 76.799 86.5288 74.269 87.0344 72.5832C87.497 71.1024 86.9127 69.252 88.7965 68.3793ZM61.7776 84.0885C63.9977 84.0605 66.201 83.6987 68.3135 83.0154C69.0551 82.777 69.7442 82.3311 69.6799 81.4059C69.6083 80.5212 68.7451 80.5355 68.1538 80.3615C66.5228 79.8846 64.8607 79.4863 63.213 79.05C61.3054 78.5445 59.6363 78.8854 58.2389 80.34C57.7334 80.8694 57.5045 81.5108 57.9504 82.157C58.3618 82.7874 58.9324 83.2979 59.6044 83.637C60.2764 83.9762 61.0261 84.1319 61.7776 84.0885Z" fill="#524E4E"/>
<path d="M302.156 123.431L303.286 124.604C303.422 125.348 302.273 126.049 303.019 126.7C303.658 127.258 304.488 126.917 305.096 126.352C305.704 125.786 306.472 125.715 307.242 125.66C308.348 126.755 309.514 125.248 310.635 125.736C310.897 127.384 312.135 126.979 312.471 126.189C313.346 124.12 314.379 125.517 315.395 125.784C317.474 128.004 316.229 130.77 316.62 133.269L315.998 137.266C315.452 138.765 314.82 140.241 314.374 141.77C313.659 144.264 312.466 144.958 310.37 143.053C310.046 142.759 309.519 142.693 309.085 142.521C307.893 141.381 307.23 144.617 306.102 142.962C304.247 140.239 303.114 142.247 302.049 143.558C300.351 145.642 298.779 146.069 296.977 143.732C296.578 143.217 295.873 142.433 295.455 142.516C292.041 143.191 288.438 143.565 285.352 145.018C283.445 145.921 281.811 147.812 279.689 148.733C277.548 149.416 275.337 149.859 273.098 150.051C271.586 149.834 270.11 149.56 269.7 147.726C269.917 144.987 272.292 144.028 273.992 142.509C275.018 141.968 276.026 141.374 277.228 141.317C277.273 144.09 279.179 145.435 281.592 144.004C283.514 142.864 285.374 141.858 287.949 141.782C286.838 140.272 285.803 139.443 284.27 139.431C285.083 138.954 285.481 138.267 285.304 137.301L285.266 135.546C285.467 134.507 285.779 133.472 285.846 132.423C286.008 129.866 286.323 127.415 288.683 125.822L290.713 126.838C292.093 126.662 293.65 127.58 294.852 126.375C297.303 123.924 299.654 122.644 302.17 126.528L302.156 123.431Z" fill="#616060"/>
<path d="M59.9343 122.975C61.4795 122.353 61.9206 120.679 63.07 119.68C64.8583 117.259 71.9547 115.865 75.1261 117.321C74.2605 118.454 72.5031 118.275 71.6328 119.615C72.0787 119.842 72.4077 120.138 72.7559 120.159C74.2867 120.262 76.1061 119.05 77.2864 120.636C78.2832 121.995 78.8125 123.707 79.5207 125.274C80.6558 127.789 78.6861 130.126 79.0701 132.601C78.2975 133 78.4906 133.765 78.3762 134.414L76.1729 135.558C74.766 136.021 73.1183 135.899 72.0763 137.249C69.9874 139.395 73.8098 139.915 73.3258 141.615C72.6962 141.889 72.2122 141.675 71.6566 141.455C67.7722 139.946 63.5492 139.331 59.9534 137.06C58.4297 133.722 55.0318 134.345 52.435 133.911C47.6469 133.107 42.7372 132.985 37.8704 132.718C35.8531 132.613 34.5559 132.003 34.451 129.816C34.5464 124.771 35.4048 124.346 40.0212 124.547C40.6937 124.575 41.3685 124.516 42.0409 124.496H44.9953L49.4734 124.527C53.0001 124.353 56.7724 125.715 59.9343 122.975Z" fill="#94BC45"/>
<path d="M284.735 57.8874C284.856 58.0328 284.959 58.2832 285.102 58.3094C289.477 59.082 291.733 61.7098 291.721 66.6696C294.227 61.1852 294.878 61.0755 299.418 64.9289C299.759 65.2174 299.843 65.8278 300.47 65.7825C300.596 65.6633 300.806 65.5608 300.84 65.4177C301.095 64.3709 299.552 63.0332 301.002 62.3178C302.003 61.8242 303.227 62.5753 304.161 63.2454C308.508 66.3596 312.798 69.4451 314.787 74.8461C315.502 76.8157 315.485 78.2369 314.348 79.8965C311.868 83.5114 309.145 84.9707 305.721 84.1528C306.612 83.1299 307.426 82.3191 308.797 82.2977C309.245 82.2977 309.832 82.343 309.922 81.6992C310.001 81.1173 309.538 80.8813 309.083 80.6953C306.221 79.5412 300.952 81.258 299.366 84.0002C298.956 84.7156 298.615 85.4476 297.84 85.5454C294.692 85.9365 291.502 86.2607 288.91 83.8166C285.514 80.5999 285.829 78.6041 290.555 74.5432C288.659 74.4812 286.666 75.497 285.583 73.4034C284.747 71.7915 283.819 70.2201 283.108 68.5533C282.548 67.2395 282.469 65.6919 281.802 64.4591C280.528 62.0961 280.371 60.0144 282.469 58.0829L284.735 57.8874Z" fill="#616060"/>
<path d="M285.29 137.294C285.467 138.26 285.068 138.942 284.255 139.424C281.837 139.791 279.009 138.627 277.214 141.31C276.022 141.374 275.003 141.968 273.978 142.502C273.604 140.494 272.45 139.466 270.358 139.624C267.44 138.403 264.938 136.307 261.805 135.537C259.993 134.526 260.021 132.59 259.497 130.932C259.127 128.703 258.658 126.507 261.929 125.965C263.467 125.71 262.883 124.31 262.797 123.342C262.513 119.685 267.714 115.757 271.007 117.264C273.787 118.535 276.491 120.452 279.41 116.928V119.37C279.41 122.586 279.41 122.586 282.462 121.017C285.765 121.017 286.733 124.043 288.662 125.813C286.294 127.403 285.986 129.866 285.824 132.413C285.758 133.462 285.445 134.497 285.245 135.539C283.752 135.706 282.212 135.742 280.462 137.292L285.29 137.294Z" fill="#EBCB96"/>
<path d="M140.469 19.7471C140.629 19.1581 141.139 18.19 139.844 18.6406C136.847 19.6803 133.921 20.5482 130.628 20.4958C129.355 20.4719 128.043 22.4892 126.465 23.8174V19.0889C126.634 17.2838 126.861 15.4812 126.942 13.6713C126.996 12.5887 127.709 12.2048 128.489 11.8328C133.02 9.67009 137.588 7.56695 142.081 5.34219C143.807 4.49092 145.324 4.25009 147.16 5.16812C148.164 5.67364 149.487 6.08855 150.751 5.53772C151.147 7.55741 152.973 7.07812 154.254 7.55264C155.01 8.40868 157.044 8.02954 156.786 9.66055C156.61 10.786 154.747 10.8719 154.235 12.0451C155.666 12.7604 157.986 11.1151 158.589 13.6308C159.066 15.6505 160.003 17.5771 159.989 19.7113C158.689 22.6371 155.725 21.9837 153.429 22.7706C152.694 22.9685 151.521 20.8392 151.195 23.1974C149.17 23.1116 147.313 23.7793 145.457 24.4565C144.611 22.0386 142.613 20.8129 140.469 19.7471Z" fill="#EBCB96"/>
<path d="M182.396 9.08827C183.943 7.12343 184.625 4.14755 188.212 4.71268C189.969 4.99167 191.836 4.86291 193.617 4.63161C196.181 4.29539 198.05 4.8486 198.725 7.61464C198.682 8.41345 199.188 8.8069 199.829 9.07635C199.829 9.36726 199.843 9.66055 199.848 9.95385C199.727 13.3208 198.949 16.59 198.115 19.8162C197.399 22.5727 196.803 25.117 197.027 27.3727L196.903 27.4633C191.781 26.2711 187.058 27.1534 182.754 30.2103C180.333 30.8971 177.906 31.1951 175.462 30.3105C178.027 30.6109 178.271 29.1373 177.846 27.1629C177.657 26.2568 177.47 25.3515 177.286 24.4469C178.027 21.4806 177.906 17.9897 181.969 17.1098C182.923 16.9023 183.095 16.249 182.446 15.3882C181.991 14.7896 181.702 14.06 181.337 13.3875C180.779 11.7303 182.928 10.7384 182.396 9.08827Z" fill="#C6A262"/>
<path d="M92.9336 53.4355C90.945 57.6561 90.5157 62.3631 88.8227 66.6743C88.5939 66.1653 88.3384 65.6686 88.0573 65.1864C87.404 64.1801 86.4931 63.3408 85.2722 63.4672C84.1729 63.5816 84.2874 64.7 84.2278 65.5488C84.1896 66.071 84.0036 66.517 83.4361 66.567C82.7208 66.6338 82.5395 65.9876 82.2176 65.5274C79.5494 61.7121 79.2298 61.6907 76.8096 65.3581C76.4471 65.9065 76.1777 66.7435 75.3574 66.3119C74.8113 66.0257 74.9568 65.2627 75.1547 64.7286C75.5362 63.7008 75.9583 62.5992 74.8853 61.8528C73.7288 61.0516 72.4459 61.4546 71.38 62.17C70.0089 63.088 68.6927 64.0323 66.9233 63.8105L66.8208 63.7032L69.5153 61.2615L66.3224 59.7521C67.0831 59.0939 67.4169 58.4072 66.3224 57.792C65.4923 57.2932 64.8285 56.5597 64.4148 55.6841C63.4396 53.8075 65.1135 53.0993 66.208 52.3458C67.0831 51.7353 68.3541 50.9318 69.1457 52.4316C70.6766 55.3312 73.9147 55.7222 76.223 57.4796C76.7452 57.8778 77.6704 58.4191 78.2593 57.5106C78.6981 56.8334 78.0209 56.2969 77.6894 55.7175C75.5863 51.9547 75.6101 51.1869 78.741 48.2516C80.6057 46.5013 81.1565 43.8712 83.9226 42.1377C81.9553 41.8467 81.2758 42.4643 80.5676 43.3299C78.8054 45.476 77.0623 47.665 75.0832 49.6131C73.9577 50.7267 72.403 52.1169 71.1845 49.4176C70.8316 48.6402 70.1043 48.0727 69.0384 48.5329C68.1228 48.9288 67.1523 48.7881 66.2008 48.5759C67.4493 47.5061 69.0397 46.919 70.6837 46.921C71.4253 46.9019 72.434 46.8232 72.6223 47.7651C73.1302 50.2975 73.9863 48.428 74.4918 47.8915C76.335 45.9314 78.1997 43.9737 79.8355 41.8444C81.6692 39.4599 83.5053 39.8175 85.4224 41.5129C88.6977 44.3795 91.0826 48.1249 92.2946 52.3052C92.421 52.7273 92.3304 53.271 92.9336 53.4355Z" fill="#524E4E"/>
<path d="M224.316 26.1757C222.785 28.8511 219.983 28.6532 217.51 29.1707C216.483 29.3853 215.424 29.4473 214.384 29.5832C211.699 28.2431 208.9 27.3179 205.86 27.2678C204.331 26.2902 202.65 26.6359 201 26.7098H201.019C200.943 24.0869 201.339 21.7977 204.539 21.2255C205.254 21.0919 206.668 20.2502 205.459 19.6064C201.737 17.632 203.702 15.2642 204.596 12.8892C206.844 10.9482 209.195 9.1908 212.2 8.59706C213.094 8.29184 213.733 7.75771 213.869 6.7586C216.492 6.93505 219.036 7.95085 221.721 7.52641C220.069 9.84177 220.46 10.8242 224.127 13.5712C223.955 14.3411 223.964 15.1407 224.155 15.9064C224.345 16.6721 224.711 17.3829 225.224 17.9825C225.169 19.6374 225.701 21.8693 223.751 22.4487C220.527 23.4025 222.506 24.0916 223.596 25.0407C223.91 25.3197 224.077 25.7894 224.316 26.1757Z" fill="#95D0CC"/>
<path d="M316 137.266L316.623 133.269C318.154 133.269 319.687 133.214 321.218 133.255C324.098 133.326 326.464 132.673 327.684 129.635C328.19 128.367 329.354 127.592 330.763 127.282C331.975 127.017 333.17 126.676 334.34 126.261C335.446 125.865 336.543 125.178 336.605 123.938C336.657 122.863 335.768 122.157 334.838 121.518C332.558 119.947 329.885 119.561 327.332 118.864C326.208 118.557 325.31 118.323 325.209 116.997C325.243 116.649 325.274 116.298 325.307 115.95C333.212 116.051 340.971 117.076 348.399 119.904C350.993 120.891 353.809 121.94 354.005 125.338C354.119 127.315 351.358 128.731 347.328 129.244C344.293 129.63 341.269 130.148 338.267 130.725C336.569 131.049 335.644 131.891 336.836 133.753C337.907 135.422 337.552 136.834 335.467 137.142C328.984 138.1 322.496 138.227 316 137.266Z" fill="#C3966F"/>
<path d="M155.21 158.767C152.897 159.859 150.465 159.177 148.135 159.036C142.064 158.674 136.153 158.96 130.554 161.628C130.652 160.364 132.13 159.709 132.056 158.178C129.391 158.564 129.288 156.721 128.549 154.816C126.88 150.538 126.608 149.307 129.841 147.021C131.911 145.554 132.746 144.297 131.606 142.013L132.755 141.908C132.994 143.43 134.245 142.984 135.171 143.177C136.756 144.216 138.175 145.635 140.302 145.456C140.302 145.638 140.302 145.821 140.326 146.002C141.463 147.602 142.968 148.625 144.935 148.895C144.396 150.659 145.286 151.201 146.876 151.618C148.76 152.112 150.873 150.965 152.563 152.5C152.504 153.108 150.832 153.48 152.036 154.155C155.184 155.924 152.449 155.989 151.421 156.408C150.617 156.737 149.652 156.647 148.922 157.286C150.809 158.431 153.01 158.95 155.21 158.767Z" fill="#C6A262"/>
<path d="M59.9391 137.07C63.5421 139.34 67.7579 139.955 71.6423 141.465C72.2027 141.684 72.6867 141.899 73.3115 141.624C73.7884 139.924 69.9731 139.4 72.062 137.258L75.1285 138.067C74.7183 139.471 75.2739 140.475 76.1252 141.644C78.4382 144.82 81.7741 144.173 84.9121 144.388C84.7834 148.399 83.8606 149.589 80.0048 149.491C72.1359 149.295 64.5651 147.61 57.6213 143.716C56.1263 142.876 54.1304 141.884 54.4809 139.974C54.8744 137.828 57.1254 137.449 59.0735 137.158C59.3644 137.115 59.653 137.099 59.9391 137.07Z" fill="#C3966F"/>
<path d="M120.78 150.557C117.084 148.854 112.995 148.95 109.115 148.055C101.842 146.386 94.6124 144.679 87.9691 141.14C87.7633 141.02 87.5258 140.965 87.2882 140.983C87.0506 141.001 86.824 141.091 86.6385 141.241C85.8707 139.95 85.6346 138.618 86.3691 137.232L89.7885 135.594C92.0895 135.465 94.2785 135.959 96.4079 136.786C95.0296 139.393 96.8657 140.125 98.759 140.735C106.473 143.26 114.43 144.696 122.416 146.002L120.78 150.557Z" fill="#C3966F"/>
<path d="M186.023 141.934C188.348 141.629 189.986 142.256 190.963 144.686C191.841 146.87 193.508 147.414 195.437 145.602C195.778 145.282 196.166 145.015 196.515 144.7C200.33 141.241 200.33 141.238 201.904 146.405C197.089 146.2 192.532 147.44 188.193 149.288C182.854 151.563 177.264 152.104 171.601 152.445C170.018 152.326 168.659 152.026 169.827 149.965C170.266 149.193 169.799 148.535 169.725 147.819C174.551 147.869 178.829 146.243 182.754 143.527C183.767 142.838 184.697 141.999 186.023 141.934Z" fill="#C3966F"/>
<path d="M120.78 150.557L122.416 145.986C124.085 144.555 125.771 143.363 128.189 143.601C129.143 143.697 129.758 143.077 128.327 142.507C128.296 142.128 128.263 141.751 128.232 141.374C129.388 141.333 130.54 141.544 131.606 141.994C132.746 144.288 131.911 145.545 129.841 147.002C126.608 149.288 126.884 150.519 128.549 154.796C129.288 156.704 129.391 158.545 132.056 158.159C132.13 159.69 130.652 160.345 130.554 161.609C124.955 163.662 121.035 161.242 120.618 155.385C120.506 153.8 120.718 152.174 120.78 150.557Z" fill="#825B3B"/>
<path d="M248.416 147.097C245.187 148.349 241.909 148.749 238.544 147.693C236.889 145.981 235.168 144.319 235.625 141.57C235.716 141.014 235.149 140.818 234.65 140.766L238.613 135.043L240.302 134.311C242.448 134.311 244.534 134.392 244.916 137.23C245.047 138.184 246.253 137.788 246.635 138.474C246.675 139.269 246.196 140.201 247.24 140.725L248.879 140.873C248.733 142.614 245.996 144.557 249.279 146.029C248.991 146.384 248.705 146.742 248.416 147.097Z" fill="#E0D9AA"/>
<path d="M279.682 148.733C281.804 147.812 283.425 145.921 285.345 145.018C288.431 143.565 292.022 143.191 295.448 142.516C295.866 142.433 296.571 143.217 296.97 143.732C298.772 146.069 300.344 145.64 302.041 143.558C303.117 142.237 304.249 140.239 306.095 142.962C307.223 144.617 307.879 141.381 309.078 142.521C309.004 143.952 307.984 144.839 306.932 145.416C299.516 149.498 291.671 151.525 283.17 150.004C281.976 149.787 280.845 149.167 279.682 148.733Z" fill="#C3966F"/>
<path d="M169.725 147.817C169.799 148.532 170.266 149.193 169.827 149.963C168.659 152.023 170.018 152.324 171.601 152.443C173.003 154.904 174.1 157.293 172.443 160.205C171.1 162.563 169.238 162.732 167.85 161.034C165.337 157.963 162.168 158.008 158.815 158.128C158.222 156.318 154.786 155.774 156.512 152.932C158.055 152.65 159.726 153.435 161.176 152.364L163.584 150.087C164.41 150.061 165.125 149.892 165.168 148.857C165.838 148.821 166.277 148.52 166.36 147.812C167.481 147.443 168.602 146.832 169.725 147.817Z" fill="#E0D9AA"/>
<path d="M196.62 152.512C198.289 151.499 199.283 151.349 200.325 153.075C201.408 154.868 200.53 155.719 199.481 156.716C197.631 158.473 195.556 159.835 192.981 160.324C192.323 160.45 191.657 160.357 191.507 159.821C191.111 158.39 190.422 158.698 189.249 158.867C187.613 159.105 187.556 157.124 186.676 156.23C185.851 155.39 186.29 154.663 186.95 154.002C189.29 151.663 192.099 150.089 195.194 148.995C196.114 148.673 196.88 149.076 197.468 149.81C198.358 150.938 196.846 151.213 196.62 152.512Z" fill="#95D0CC"/>
<path d="M269.693 147.722C270.103 149.555 271.579 149.83 273.091 150.047C273.172 153.225 271.477 155.054 268.572 155.884C265.518 156.769 262.478 156.442 259.497 155.55C258.393 155.219 257.298 154.618 257.112 153.297C256.903 151.866 257.775 150.912 258.884 150.242C262.201 148.234 265.942 147.943 269.693 147.722Z" fill="#C3966F"/>
<path d="M66.1961 48.5592C67.1499 48.7714 68.118 48.9121 69.0336 48.5162C70.0995 48.056 70.8268 48.6235 71.1797 49.4009C72.3982 52.1002 73.9529 50.71 75.0784 49.5964C77.0528 47.6483 78.7958 45.4617 80.5628 43.3132C81.2781 42.45 81.9506 41.8324 83.9178 42.121C81.1517 43.8545 80.6009 46.4846 78.7362 48.2349C75.6054 51.175 75.5815 51.938 77.6847 55.7008C78.009 56.2802 78.6933 56.8167 78.2546 57.4939C77.6656 58.4024 76.7404 57.8611 76.2182 57.4629C73.9171 55.7056 70.6718 55.3169 69.1409 52.4149C68.3564 50.9103 67.0736 51.721 66.2104 52.341C65.1159 53.1064 63.442 53.8146 64.4172 55.6793C64.8309 56.5549 65.4947 57.2884 66.3248 57.7872C67.4289 58.4024 67.095 59.0892 66.3248 59.7473C65.6095 59.5232 64.875 59.3562 64.1931 59.0629C59.1117 56.8668 59.0878 56.7452 62.5931 52.1479C64.8941 52.0668 65.9314 50.6981 66.2032 48.5711L66.1961 48.5592Z" fill="#616060"/>
<path d="M160.008 19.7208C160.022 17.5748 159.09 15.6671 158.608 13.6403C158.005 11.1246 155.692 12.7795 154.254 12.0546C154.767 10.8623 156.638 10.786 156.805 9.67009C157.063 8.04862 155.029 8.41822 154.273 7.56218C155.387 5.89302 157.831 6.07901 158.837 4.26439L159.936 4.30493L160.704 4.64115C163.914 5.96217 167.161 7.20688 170.316 8.64952C171.332 9.12642 171.716 8.44683 172.288 8.09154C174.029 7.0042 175.605 7.11627 177.276 8.48975C175.04 9.71778 171.365 8.01285 171.031 12.0856C169.193 12.3455 168.885 10.4546 167.755 9.70109C166.367 8.78543 162.347 8.43968 161.271 9.35295C159.817 10.5857 162.037 11.2606 161.734 12.3097C161.734 13.7405 161.853 15.1712 161.698 16.6019C161.567 17.8013 161.891 19.4037 160.008 19.7208Z" fill="#A57854"/>
<path d="M303.801 56.6546C303.72 55.6269 303.193 54.7207 303.417 53.5738C303.744 51.9046 302.723 50.7291 301.128 50.5598C299.533 50.3905 298.67 51.5136 298.684 53.0826C298.698 54.5133 298.181 55.6793 297.194 57.1363C296.428 54.1222 296.187 50.6838 292.041 51.1201C289.914 51.3443 287.579 51.597 288.113 55.1237C285.154 51.1344 285.102 50.6408 287.212 49.2697C289.408 49.1577 291.612 49.1243 293.798 48.9049C295.229 48.7595 296.369 48.5425 297.613 47.1022C299.075 45.414 301.514 47.1404 303.291 48.1133C304.891 48.9908 307.323 49.7824 306.868 52.0072C306.534 53.6978 304.874 55.1166 303.801 56.6546Z" fill="#616060"/>
<path d="M98.0174 154.732C95.0832 154.942 92.1763 154.049 89.8671 152.226C88.7774 151.368 87.8594 150.237 88.3673 148.757C88.8752 147.276 90.3178 146.849 91.7056 147.087C95.9668 147.874 100.106 149.14 103.953 151.141C105.734 152.073 105.383 153.244 103.647 154.002C101.911 154.761 100.071 154.734 98.0174 154.732Z" fill="#C3966F"/>
<path d="M260.548 145.375C257.449 147.044 254.139 147.354 250.715 147.044C252.572 146.298 254.563 142.485 254.246 140.277C256.209 139.8 254.632 138.722 254.644 137.914C254.702 137.542 254.761 137.168 254.818 136.796C256.156 134.972 257.527 134.528 259.022 136.648C259.227 136.936 259.633 137.084 259.945 137.297C263 141.999 263.012 142.147 260.548 145.375Z" fill="#E0D9AA"/>
<path d="M161.734 12.3074C162.037 11.251 159.826 10.5834 161.271 9.35056C162.347 8.43729 166.367 8.78305 167.755 9.6987C168.888 10.4451 169.186 12.336 171.031 12.0832L173.275 13.3017C173.392 13.8328 173.551 14.3536 173.752 14.8588C175.095 17.5581 174.775 18.5739 172.143 19.7852C172.269 18.085 170.85 17.3625 169.772 17.0001C166.739 15.9819 163.995 14.5989 161.734 12.3074Z" fill="#94BC45"/>
<path d="M86.3667 137.23C85.6346 138.622 85.8707 139.948 86.6385 141.238C86.4621 142.504 85.513 143.353 84.9169 144.393C81.7789 144.181 78.443 144.827 76.13 141.651C75.2787 140.482 74.7231 139.478 75.1332 138.074L77.3437 136.617C77.9398 136.889 78.5359 137.173 79.1297 137.428C79.7234 137.683 80.682 140.137 80.9419 137.165C80.992 136.605 81.9267 136.827 82.4585 136.86C83.7628 136.941 85.0647 137.096 86.3667 137.23Z" fill="#94BC45"/>
<path d="M42.0266 124.518C41.3542 124.537 40.6794 124.597 40.0069 124.568C35.3905 124.368 34.5225 124.792 34.4367 129.838C33.2731 129.397 32.0903 129.006 30.9529 128.507C30.0993 128.13 28.9833 127.832 29 126.654C29.0167 125.589 29.9347 125.043 30.7789 124.57C35.0066 122.207 39.6445 121.037 44.2967 119.904C45.6892 119.565 47.0675 119.169 48.4529 118.8C48.6317 118.998 48.8082 119.198 48.987 119.398C47.7041 120.769 45.0287 119.875 44.3634 122.26C42.6847 122.071 42.0052 122.923 42.0266 124.518Z" fill="#C3966F"/>
<path d="M34.8158 119.625C34.5299 119.66 34.2409 119.66 33.955 119.625C32.3502 119.21 30.104 119.534 29.9228 117.2C29.7225 114.66 32.0426 114.512 33.738 114.198C36.5828 113.673 39.4943 113.575 42.1935 114.887C43.8078 115.671 44.1393 116.687 42.2841 117.734C39.9569 119.05 37.3744 119.272 34.8158 119.625Z" fill="#C3966F"/>
<path d="M260.548 145.375C263.009 142.147 262.997 141.989 259.945 137.306C260.122 136.904 260.378 136.541 260.697 136.238C261.016 135.936 261.392 135.7 261.803 135.544C264.936 136.314 267.437 138.405 270.356 139.631C270.427 141.338 269.247 142.166 267.986 142.845C265.681 144.135 263.161 144.992 260.548 145.375Z" fill="#C3966F"/>
<path d="M221.709 7.5121C219.024 7.93655 216.483 6.92074 213.857 6.74429C212.999 5.03697 213.981 3.44412 214.17 1.80596C214.251 1.0906 214.77 0.914147 215.419 1.02145C215.896 1.09775 216.373 1.15737 216.828 1.24083C223.708 2.50462 222.713 1.07391 221.709 7.5121Z" fill="#616060"/>
<path d="M224.316 26.1757C224.077 25.7894 223.91 25.3197 223.584 25.0335C222.494 24.0797 220.515 23.3954 223.739 22.4416C225.694 21.8621 225.169 19.6302 225.212 17.9777L225.844 16.8999H228.105C228.419 18.0684 229.49 18.4952 230.313 19.1605C229.33 20.3336 231.321 20.5554 231.059 21.5021C228.319 22.4988 229.101 18.7909 227.029 18.3664C227.506 19.5229 227.668 20.5268 228.222 21.2278C228.937 22.1196 229.905 23.6124 231.062 21.5187C232.969 22.134 231.746 23.0115 231.062 23.4025C228.951 24.6234 226.822 25.8848 224.316 26.1757Z" fill="#A57854"/>
<path d="M335.899 110.447C338.179 110.781 340.43 110.335 342.547 111.212C343.086 111.434 343.68 111.584 343.697 112.295C343.713 113.005 343.108 113.28 342.59 113.454C338.248 114.923 334.089 114.086 330.033 112.333C329.75 112.209 329.411 111.739 329.442 111.47C329.506 110.912 330.088 110.831 330.555 110.795C332.382 110.659 334.199 110.557 335.899 110.447Z" fill="#C3966F"/>
<path d="M172.145 19.7852C174.768 18.5739 175.097 17.5581 173.754 14.8588C173.553 14.3536 173.392 13.8329 173.275 13.3017C177.422 14.2961 179.077 9.86801 182.41 9.08827C182.94 10.7384 180.791 11.7303 181.354 13.3804C180.188 15.8841 178.254 17.3912 175.605 18.1947C175.044 18.364 174.808 19.5992 174.413 20.3408L170.914 20.2502C170.914 20.0117 170.914 19.7924 170.914 19.5611C171.42 19.0985 171.716 19.8281 172.145 19.7852Z" fill="#C3966F"/>
<path d="M212.2 8.5899C209.195 9.19319 206.844 10.9506 204.596 12.882C202.774 12.2859 202.431 9.30526 199.848 9.94193C199.848 9.64863 199.836 9.35534 199.829 9.06204C201.834 8.41822 204.298 8.82359 205.595 6.55353C208.266 5.70464 210.621 5.88109 212.2 8.5899Z" fill="#C3966F"/>
<path d="M156.512 152.934C154.786 155.777 158.222 156.32 158.815 158.13L158.775 158.156L158.205 158.633L155.212 158.774C153.011 158.954 150.809 158.432 148.922 157.284C149.652 156.645 150.617 156.735 151.421 156.406C152.449 155.986 155.184 155.929 152.036 154.153C150.844 153.478 152.513 153.106 152.561 152.498C153.584 151.768 154.271 150.299 155.844 150.757C157.008 151.089 156.259 152.207 156.512 152.934Z" fill="#825B3B"/>
<path d="M254.249 140.287C254.566 142.495 252.579 146.308 250.717 147.054L248.416 147.097C248.705 146.742 248.991 146.382 249.279 146.026C245.996 144.555 248.733 142.612 248.879 140.871L254.249 140.287Z" fill="#C3966F"/>
<path d="M234.653 140.766C235.158 140.818 235.716 141.004 235.625 141.57C235.168 144.319 236.889 145.981 238.544 147.693L231.152 147.772C231.98 145.475 231.555 142.764 233.417 140.809L234.653 140.766Z" fill="#C3966F"/>
<path d="M207.505 157.951L202.536 152.579C203.983 152.524 205.655 151.639 206.828 153.239C207.827 154.589 208.328 156.196 207.505 157.951Z" fill="#95D0CC"/>
<path d="M158.837 4.25485C157.831 6.08139 155.391 5.89063 154.273 7.55264C152.992 7.07573 151.173 7.55264 150.77 5.53772C151.962 4.16663 153.581 3.90671 155.203 4.22386C156.445 4.46946 157.628 4.25009 158.837 4.25485Z" fill="#C3966F"/>
<path d="M205.595 6.5583C204.298 8.83551 201.834 8.42299 199.829 9.06681C199.188 8.7902 198.682 8.4063 198.725 7.60748C199.006 7.58125 199.44 7.66471 199.55 7.51449C201.265 5.19912 203.368 5.52819 205.595 6.5583Z" fill="#E0D9AA"/>
<path d="M228.1 16.9142H225.839L225.601 16.6758C225.615 16.7259 225.601 16.7974 225.644 16.8236C225.705 16.8629 225.772 16.8934 225.842 16.9142L225.21 17.992C224.697 17.3919 224.331 16.6807 224.141 15.9146C223.95 15.1485 223.941 14.3487 224.113 13.5783C226.261 13.7118 228.148 14.1577 228.1 16.9142Z" fill="#C3966F"/>
<path d="M66.2104 48.5687C65.9314 50.6957 64.9013 52.0644 62.6002 52.1455C63.4586 50.6146 64.5412 49.3079 66.2104 48.5687Z" fill="#524E4E"/>
<path d="M160.704 4.63161L159.936 4.29539C160.009 4.26687 160.086 4.25295 160.164 4.25442C160.242 4.25589 160.319 4.27273 160.39 4.30397C160.461 4.33521 160.526 4.38024 160.58 4.43646C160.634 4.49269 160.676 4.55901 160.704 4.63161Z" fill="#C3966F"/>
<path d="M96.4079 136.77C94.2785 135.949 92.0895 135.456 89.7908 135.577L88.3864 135.034C85.3795 133.825 82.1866 133.386 79.0558 132.611C78.6718 130.136 80.6415 127.799 79.5064 125.283C78.7911 123.717 78.2689 122.005 77.2721 120.645C76.1013 119.05 74.282 120.262 72.7416 120.169C72.3934 120.147 72.0644 119.851 71.6185 119.625C72.484 118.275 74.2414 118.464 75.1118 117.331C71.9404 115.879 64.844 117.269 63.0557 119.689C63.5826 113.189 64.5579 106.875 69.8992 102.263C70.987 101.315 72.0219 100.307 72.9991 99.2444C73.7979 98.3812 75.231 97.8876 74.89 96.2853C73.0539 97.0888 72.2551 92.6441 69.7085 95.1765C70.9889 92.4486 72.2957 89.7302 73.5237 86.9832C74.0268 85.8625 74.8018 86.0891 75.6697 86.318C79.2942 87.2718 82.9211 88.2184 86.5503 89.1579C92.2541 89.3821 97.6216 91.3898 103.192 92.327C104.296 92.5129 104.36 93.3738 104.456 94.2894C105.495 104.145 106.556 114.001 107.637 123.857C107.875 125.932 106.888 127.792 106.764 129.795C106.17 130.987 104.041 129.597 103.874 131.514C102.498 131.791 101.883 130.155 100.609 130.188C99.875 132.02 101.341 133.403 101.539 135.034C100.087 136.331 98.6016 137.592 96.4079 136.77Z" fill="#EBCB96"/>
<path d="M114.926 116.42C110.617 110.418 113.734 104.538 115.164 98.603C115.587 96.8409 116.276 96.6262 117.621 97.6778C117.997 97.9711 118.469 98.1404 118.837 98.4408C121.026 100.232 122.957 100.015 124.674 97.766C125.99 96.042 126.992 96.2852 127.948 98.1738C128.675 99.6045 129.643 100.933 130.597 102.466C132.216 101.314 132.538 97.4441 135.657 100.06C135.14 103.842 132.579 104.309 129.333 103.892C126.088 103.475 123.31 104.207 120.682 105.954C119.614 106.67 118.467 107.485 119.082 108.947C119.588 110.139 120.706 110.664 122.094 110.769C126.167 111.076 129.87 110.292 133.184 107.743C134.951 106.384 138.168 106.992 138.771 108.885C140.091 112.999 140.25 117.397 139.229 121.594C138.445 124.892 135.946 126.986 133.885 129.389C133.714 129.707 133.54 130.025 133.365 130.343L130.454 131.474L121.317 131.507C119.261 131.316 117.196 131.166 115.327 130.148C116.545 127.177 119.397 127.46 121.817 126.883C123.565 127.012 123.811 125.827 123.377 124.666C122.628 122.665 122.142 120.419 119.984 119.279C120.751 115.569 124.037 117.655 126.026 116.701C123.451 113.95 119.826 115.183 118.443 119.231C116.581 119.162 116.962 116.279 114.926 116.42Z" fill="#C6A262"/>
<path d="M140.469 19.7471C142.615 20.8129 144.611 22.0386 145.476 24.466C142.257 27.5659 142.377 29.6738 145.965 31.6911C147.014 32.2825 148.259 32.54 149.285 33.16C151.614 34.5716 154.604 35.368 154.962 38.7874C151.953 38.9591 149.184 37.5952 146.206 37.4259C144.973 37.3615 144.387 37.0944 144.752 38.7302C145.398 41.6226 145.307 44.7702 146.755 47.3717C148.843 51.1297 149.323 55.2263 149.442 59.2633C149.809 71.4529 150.718 83.6092 151.295 95.7845C151.493 99.9026 151.683 104.03 152.122 108.127C152.32 109.968 150.93 111.916 152.492 113.642C152.499 113.798 152.467 113.953 152.399 114.093C151.03 113.792 150.398 115.34 149.168 115.385C148.018 113.32 148.502 111.05 148.347 108.859C148.171 108.541 147.994 108.223 147.816 107.905C147.518 98.8891 146.483 89.9353 145.62 80.96C145.078 75.3277 144.809 69.6717 144.341 64.0299C143.607 55.1476 142.787 46.2724 142.052 37.3901C141.9 35.5564 140.355 35.3513 139.222 34.9364C134.157 33.0932 134.946 28.8464 135.168 25.0049C135.361 21.9217 137.746 20.5435 140.469 19.7471Z" fill="#616060"/>
<path d="M66.9257 63.8081C68.695 64.0299 70.0113 63.0928 71.3824 62.1676C72.4483 61.4522 73.7311 61.0493 74.8876 61.8505C75.9607 62.5968 75.5386 63.6985 75.1571 64.7262C74.9592 65.2603 74.8137 66.0234 75.3598 66.3095C76.18 66.7435 76.4495 65.9065 76.8119 65.3557C79.2322 61.6883 79.5517 61.7002 82.22 65.525C82.5419 65.9852 82.7231 66.6314 83.4385 66.5646C84.006 66.5146 84.192 66.0687 84.2302 65.5465C84.2898 64.6976 84.1753 63.5792 85.2746 63.4648C86.4954 63.3384 87.4063 64.1801 88.0597 65.184C88.3408 65.6662 88.5963 66.1629 88.8251 66.6719C88.8156 67.2411 88.8076 67.8094 88.8013 68.3769C86.9151 69.2496 87.4993 71.1 87.0582 72.5784C86.5527 74.2642 86.9938 76.7942 85.1983 77.407C83.6197 77.9459 82.6468 75.7045 81.5214 74.6028C78.2498 71.3933 74.3964 70.7662 70.1257 71.7295C69.3508 71.9059 68.1299 72.0156 69.6488 73.1292C70.9436 74.083 69.6488 74.6529 69.1052 75.0368C67.1642 76.4246 64.7797 76.7346 62.5478 76.9015C61.067 77.016 60.3778 75.7736 60.8786 74.0234C61.6774 71.2049 63.6279 69.1995 65.4092 67.0773C66.2271 66.0854 67.0092 65.184 66.9257 63.8081Z" fill="#616060"/>
<path d="M133.878 129.38C135.938 126.974 138.437 124.88 139.222 121.583C140.243 117.385 140.084 112.987 138.764 108.873C138.161 106.98 134.949 106.372 133.177 107.731C129.863 110.275 126.159 111.069 122.087 110.757C120.699 110.652 119.581 110.135 119.075 108.935C118.46 107.473 119.607 106.653 120.675 105.943C123.298 104.195 126.066 103.46 129.326 103.88C132.586 104.3 135.132 103.83 135.65 100.048C137.023 96.4712 136.432 93.0375 134.534 89.8637C133.048 87.3767 130.762 86.4348 127.857 87.2789C127.337 87.4292 126.76 87.3767 125.878 87.4411C127.435 84.9183 129.436 83.8118 132.011 84.0837C135.33 84.4342 138.094 85.9245 139.677 88.9862C142.04 93.5526 141.029 97.9186 138.626 102.139C137.705 103.331 136.325 104.586 138.149 105.983C141.642 108.673 143.199 112.221 143.256 116.537V117.636C143.256 119.937 143.586 122.405 141.587 124.089C139.198 126.094 136.935 128.333 133.878 129.38ZM123.386 108.112C126.61 108.477 129.276 108.961 131.527 106.148C128.575 105.976 125.966 105.606 123.396 108.112H123.386Z" fill="#718E2F"/>
<path d="M121.817 126.893C119.397 127.47 116.545 127.186 115.327 130.16C112.003 131.531 112.704 134.542 112.465 137.173C110.584 135.635 107.555 136.367 106.12 133.949C106.201 133.186 105.917 132.716 105.099 132.673L103.886 131.507C104.053 129.599 106.182 130.982 106.776 129.788C109.58 128.66 110.868 126.211 110.713 122.229C110.672 121.194 110.548 120.164 110.462 119.129C111.346 120.213 112.233 121.296 113.123 122.379C113.674 126.318 116.445 124.525 118.536 124.477C119.535 125.414 120.463 126.445 121.817 126.893Z" fill="#E0D9AA"/>
<path d="M113.13 122.377C112.243 121.294 111.356 120.211 110.469 119.127C109.191 117.617 109.473 116.725 111.499 116.577C112.639 116.492 113.784 116.47 114.926 116.42C116.962 116.279 116.581 119.162 118.443 119.241L119.984 119.289C122.142 120.428 122.628 122.675 123.377 124.675C123.811 125.837 123.565 127.022 121.817 126.893C120.463 126.445 119.535 125.415 118.541 124.475L113.13 122.377Z" fill="#D63526"/>
<path d="M143.256 116.537C143.197 112.221 141.64 108.668 138.146 105.983C136.332 104.586 137.712 103.329 138.623 102.139L147.816 107.9L148.347 108.854C146.168 111.095 145.336 114.233 143.256 116.537Z" fill="#C6A262"/>
<path d="M232.27 126.781L226.431 126.833C226.669 125.417 225.954 124.31 224.912 123.643C222.318 121.974 222.527 119.367 223.279 117.25C223.951 115.342 224.099 113.532 224.051 111.67C223.872 104.755 225.82 97.9854 225.422 91.0369C225.317 89.2152 226.736 87.4459 226.426 85.4548C228.479 84.2625 230.48 83.0321 232.774 82.2452C236.095 81.103 236.701 77.7671 237.896 75.0058C238.883 72.7262 239.603 70.3298 240.518 68.0168C241.286 66.0901 242.438 64.998 244.751 66.0043C246.883 66.9318 247.806 68.0717 246.718 70.4442C245.328 73.4821 244.067 76.5867 242.903 79.72C241.949 82.3287 241.93 84.9421 243.428 87.4625C245.209 90.4551 245.45 93.555 244.069 96.8361C242.4 100.799 241.177 104.943 239.209 108.78C238.821 109.538 238.351 110.301 238.649 111.229C238.616 112.529 237.934 113.563 237.307 114.636C236.353 116.251 235.273 117.846 235.649 119.882C234.934 119.968 234.51 120.3 234.612 121.087C234.556 121.821 234.5 122.554 234.443 123.285C232.941 123.965 233.191 125.739 232.27 126.781ZM232.802 122.16C235.757 114.629 238.764 107.376 241.432 100.012C243.101 95.4173 244.758 90.653 240.9 86.1368C240.032 85.121 240.323 83.819 240.781 82.56C241.515 80.5403 242.08 78.4586 242.719 76.4032L242.037 76.1385C240.643 78.3561 239.968 80.9409 238.78 83.2586C237.745 85.2759 237.86 86.9952 238.861 88.9815C240.228 91.6951 240.497 94.5422 239.741 97.6349C237.929 105.058 234.927 112.078 232.726 119.363C232.461 120.238 231.729 121.056 232.802 122.16Z" fill="#718E2F"/>
<path d="M249.952 99.285C237.094 122.036 229.869 131.733 228.992 131.304C227.115 130.384 243.549 98.944 249.952 99.285C250.858 99.4139 251.783 99.3046 252.634 98.9678C254.866 98.014 255.753 95.3911 257.181 93.4834C258.44 91.8143 259.475 89.9544 260.503 88.1183C261.397 86.5207 262.492 86.926 263.627 87.6581C264.762 88.3901 265.647 89.1651 264.633 90.684C262.618 93.71 260.684 96.7884 258.698 99.8334C258.071 100.787 257.203 101.698 257.906 102.962C259.788 106.341 258.948 109.581 256.953 112.417C252.334 118.991 248.13 125.827 243.776 132.57C243.239 134.404 241.251 133.307 240.299 134.304L238.611 135.041C236.901 135.232 235.928 133.651 234.443 133.302C234.443 130.885 235.263 128.195 232.268 126.781C232.458 125.974 232.803 125.212 233.284 124.537C233.614 124.071 234.007 123.653 234.45 123.292" fill="#825B3B"/>
<path d="M285.364 108.78C287.715 107.33 290.062 105.878 292.675 104.908C293.867 104.459 294.847 104.338 295.587 105.637C296.018 106.398 296.636 107.006 297.561 107.171C299.821 107.574 298.548 108.589 297.964 109.488C294.366 113.146 289.878 115.428 285.374 117.677C284.568 117.417 283.533 118.068 282.91 117.064C283.011 116.599 283.359 115.958 283.173 115.693C280.876 112.39 283.54 110.726 285.364 108.78Z" fill="#EBCB96"/>
<path d="M240.302 134.309C241.255 133.312 243.242 134.409 243.778 132.575C248.352 132.606 252.928 132.597 257.503 132.692C258.834 132.721 259.442 132.215 259.497 130.937C260.021 132.606 259.993 134.533 261.805 135.544C261.394 135.7 261.018 135.936 260.699 136.238C260.38 136.541 260.125 136.904 259.948 137.306C259.635 137.094 259.232 136.946 259.025 136.657C257.53 134.538 256.163 134.988 254.821 136.805L246.635 138.474C246.253 137.788 245.047 138.191 244.916 137.23C244.534 134.39 242.443 134.321 240.302 134.309Z" fill="#A57854"/>
<path d="M282.91 117.062C283.533 118.065 284.58 117.414 285.374 117.674C286.287 119.582 290.734 119.37 288.271 123.302C292.324 122.625 290.441 125.333 290.698 126.831L288.669 125.815C286.733 124.046 285.765 121.015 282.469 121.02C282.655 119.706 282.073 118.304 282.91 117.062Z" fill="#524E4E"/>
<path d="M290.698 126.831C290.441 125.333 292.324 122.625 288.271 123.302C290.734 119.37 286.287 119.575 285.374 117.674C289.883 115.428 294.366 113.144 297.964 109.488C298.024 111.491 298.076 113.494 298.148 115.497C298.171 116.136 297.833 117.166 298.529 117.302C301.054 117.779 298.992 118.955 298.899 119.947C301.684 119.594 301.653 121.742 302.156 123.431L302.156 126.53C299.64 122.646 297.289 123.927 294.838 126.378C293.636 127.572 292.079 126.654 290.698 126.831Z" fill="#C6A262"/>
<path d="M315.244 95.6224C311.215 95.5604 306.772 92.6894 306.768 90.138C306.768 87.329 312.092 83.5424 315.812 83.4351C318.864 83.3445 320.343 86.5874 320.471 89.6348C320.638 93.8316 318.812 95.6772 315.244 95.6224Z" fill="#616060"/>
<path d="M325.202 116.997C325.302 118.323 326.201 118.557 327.324 118.864C329.878 119.561 332.551 119.947 334.831 121.518C335.761 122.157 336.65 122.863 336.598 123.938C336.536 125.178 335.439 125.865 334.333 126.261C333.163 126.676 331.968 127.017 330.756 127.282C329.325 127.592 328.183 128.367 327.677 129.635C326.468 132.673 324.101 133.326 321.211 133.255C319.68 133.214 318.146 133.255 316.616 133.269C316.225 130.77 317.469 128.004 315.39 125.784C315.556 125.666 315.684 125.5 315.755 125.309C315.826 125.118 315.839 124.909 315.791 124.711L317.739 124.575C317.977 126.423 318.692 127.892 320.853 127.184C322.849 126.528 322.536 124.928 321.823 123.409C321.63 122.992 321.165 122.629 321.613 122.148C322.181 121.537 322.746 122.052 323.113 122.362C323.969 123.078 324.949 123.807 324.766 125.171C323.793 128.271 321.699 129.819 318.447 129.812C317.839 129.812 317.267 130.002 317.302 130.765C317.321 131.183 317.677 131.342 318.073 131.481C320.421 132.272 324.01 131.445 325.281 129.335C327 126.473 329.401 125.231 332.592 125.152C333.407 125.133 334.156 124.914 334.366 124.005C334.604 122.961 333.889 122.324 333.109 121.983C332.275 121.623 331.426 121.075 330.391 121.268C331.822 123.555 331.636 123.872 328.836 124.008C328.169 124.039 327.499 124.101 326.831 124.148C327.169 122.229 325.021 121.664 324.651 120.13C324.749 119.065 324.36 117.915 325.202 116.997Z" fill="#A57854"/>
<path d="M324.659 120.121C325.028 121.654 327.177 122.219 326.84 124.136C326.056 124.289 326.006 125.913 324.773 125.171C324.957 123.807 323.977 123.085 323.121 122.362C322.753 122.052 322.188 121.537 321.621 122.148C321.172 122.625 321.637 122.992 321.831 123.409C322.546 124.928 322.856 126.528 320.86 127.184C318.714 127.899 317.975 126.423 317.746 124.575C317.786 123.547 319.177 122.486 317.841 121.516C316.921 120.848 315.965 121.487 315.299 122.095C314.195 123.109 315.135 123.927 315.798 124.718C315.844 124.916 315.83 125.123 315.758 125.313C315.686 125.503 315.558 125.667 315.392 125.784C314.381 125.517 313.344 124.115 312.469 126.189C312.133 126.979 310.895 127.382 310.633 125.736C310.449 124.616 312.042 123.125 310.781 122.56C309.519 121.995 308.577 123.671 307.7 124.635C307.461 124.897 307.387 125.314 307.24 125.66C306.467 125.715 305.709 125.777 305.094 126.352C304.478 126.926 303.663 127.258 303.017 126.7C302.27 126.049 303.42 125.348 303.284 124.604C304.476 123.118 305.668 121.623 307.397 120.688C308.186 120.264 309.162 119.665 309.827 120.068C312.741 121.835 315.767 120.045 318.752 120.471C320.552 120.729 322.656 119.985 324.659 120.121Z" fill="#F1AB38"/>
<path d="M302.039 91.5687C300.608 91.2277 299.678 90.4503 299.91 89.1699C300.148 87.8011 300.06 85.9221 302.232 85.8148C303.901 85.7314 305.289 86.6852 305.303 88.1254C305.33 90.0164 303.231 90.5505 302.039 91.5687Z" fill="#616060"/>
<path d="M204.989 125.307L203.885 125.15C200.969 124.387 200.184 122.42 200.382 119.568C200.752 114.214 200.75 108.818 200.809 103.472C200.955 90.4074 202.063 77.3593 201.494 64.285C203.418 61.8242 204.961 59.3253 202.559 56.2683C201.949 55.491 202.939 55.1142 203.167 54.5491C204.007 52.4745 204.627 49.6751 202.707 48.7094C199.429 47.0617 200.816 44.9299 201.052 42.7481C201.052 42.6527 201.052 42.5549 201.067 42.4596L201.973 40.9621C207.266 41.439 212.438 40.261 217.661 39.7841C220.019 39.5695 222.358 39.1284 224.971 38.971C222.556 40.521 224.101 42.419 224.068 44.1764C223.984 48.3016 223.829 52.4698 223.333 56.5258C222.833 60.5414 222.959 64.5593 222.527 68.57C221.667 76.5725 221.776 84.675 221.175 92.7132C220.496 101.801 219.83 110.883 219.478 119.99C219.389 122.203 218.047 123.805 215.975 123.853C213.69 123.903 212.348 122.393 212.551 119.842C213.132 112.488 213.645 105.129 214.22 97.7756C214.489 94.3299 214.425 90.8772 214.697 87.4196C215.009 83.4184 215.343 79.3862 215.512 75.3564C215.901 66.0567 216.614 56.7857 217.181 47.5004C217.238 46.5466 217.181 45.5928 217.181 44.6581C216.809 44.6152 216.59 44.5198 216.442 44.5866C208.239 48.2921 210.192 45.7955 209.563 54.5753C208.99 62.5706 209.653 70.5778 208.976 78.5206C208.344 85.9412 209.072 93.3642 208.411 100.73C207.824 107.28 208.032 113.807 207.972 120.343C207.941 122.72 206.432 123.929 204.989 125.307Z" fill="#524E4E"/>
<path d="M205.86 27.2678C208.897 27.3179 211.699 28.2431 214.384 29.5832C214.47 31.2213 213.082 30.4535 212.384 30.8064C209 32.5114 205.364 33.1075 201.632 33.2601L200.974 33.1194C200.399 30.6681 198.265 29.3447 196.901 27.4633L197.025 27.3727C198.389 27.4607 199.754 27.2373 201.019 26.7194H201C202.493 28.0189 204.233 27.1462 205.86 27.2678Z" fill="#D63526"/>
<path d="M200.974 33.1194L201.632 33.2601C202.314 35.802 202.063 38.3868 201.963 40.9645C201.66 41.4605 201.36 41.9612 201.057 42.4596C201.029 39.3502 201.001 36.2368 200.974 33.1194Z" fill="#C6A262"/>
<path d="M194.619 123.426C193.381 120.669 190.565 120.087 188.262 118.8C188.076 117.572 187.73 116.344 187.728 115.116C187.694 96.135 187.728 77.1543 187.654 58.1735C187.654 57.2197 188.784 55.8033 187.558 55.3908C186.569 55.0593 185.157 55.7079 184.022 56.1538C182.591 56.719 183.087 58.1187 183.085 59.2013C183.063 78.4729 183.052 97.743 183.052 117.011C180.422 117.003 177.841 117.722 175.595 119.091C175.581 117.741 175.55 116.391 175.55 115.037C175.55 96.7192 175.486 78.4038 175.614 60.0883C175.633 57.1601 174.072 57.482 172.176 57.3771C170.101 57.2626 169.355 58.2498 169.419 60.0764C169.794 70.542 170.211 81.0053 170.404 91.4805C170.557 99.7476 171.053 108.005 170.965 116.279C170.945 118.142 171.315 120.006 171.508 121.871C170.759 121.812 169.968 121.893 169.274 121.666C166.579 120.789 165.459 122.102 165.087 124.527C164.083 123.619 163.954 122.434 163.987 121.175C164.052 118.831 164.033 116.489 163.415 114.198L164.631 113.017C166.083 112.259 168.601 111.751 168.141 110.015C167.71 108.38 165.28 108.143 163.372 108.375C163.754 98.0856 162.836 87.8178 162.631 77.5406C162.535 72.7143 162.869 67.7641 161.808 62.9426C163 63.181 162.924 64.1658 162.848 64.9861C162.609 67.5351 163.928 69.6454 164.429 72.0705C165.642 71.4219 166.098 70.7232 166.336 69.5453C167.226 64.9408 167.409 60.3029 167.4 55.6436C167.4 53.7622 168.42 52.1884 168.969 50.4859C169.159 49.8945 169.839 48.9598 170.984 49.2531C171.785 49.4581 172.057 49.935 172.078 50.6838C172.104 51.6662 172.147 52.5914 173.485 52.775C174.742 52.9395 175.602 52.2099 176.108 51.3824C178.063 48.2158 180.591 45.2471 180.305 41.1505C186.457 42.3642 192.618 40.9287 198.773 41.2101C198.704 44.0715 198.031 46.3439 194.428 46.2176C193.517 46.1866 192.583 46.6945 191.665 46.9687C190.684 47.2715 189.802 47.839 189.95 48.955C190.098 50.0709 191.056 50.3642 192.11 50.4572C193.756 50.6576 195.415 50.2226 196.751 49.2411C198.987 47.5124 200.139 48.4614 201.057 50.5717C200.732 51.0353 200.261 51.3769 199.719 51.5422C195.213 52.8561 195.213 52.8799 195.213 57.3294C195.213 59.7282 195.277 62.1271 195.313 64.5235L195.418 65.3676C195.346 66.6123 195.215 67.8547 195.215 69.0994C195.201 86.1185 195.191 103.138 195.186 120.157C195.191 121.254 195.642 122.486 194.619 123.426Z" fill="#524E4E"/>
<path d="M194.619 123.426C195.642 122.486 195.191 121.254 195.194 120.157C195.222 103.139 195.232 86.1201 195.222 69.0994C195.222 67.8547 195.353 66.6123 195.423 65.3676C197.654 66.1903 199.686 65.8898 201.484 64.2779C202.054 77.3522 200.945 90.4003 200.8 103.465C200.74 108.811 200.742 114.207 200.373 119.561C200.175 122.422 200.959 124.38 203.876 125.143C199.316 128.123 197.857 127.851 194.619 123.426Z" fill="#616060"/>
<path d="M171.518 121.878C171.325 120.014 170.955 118.149 170.974 116.287C171.062 108.01 170.566 99.7523 170.414 91.4876C170.221 81.0124 169.803 70.5492 169.429 60.0835C169.365 58.257 170.111 57.2698 172.185 57.3843C174.093 57.4892 175.643 57.1673 175.624 60.0954C175.495 78.4109 175.557 96.7264 175.559 115.044C175.559 116.394 175.59 117.743 175.605 119.098C174.064 119.758 174.05 122.684 171.518 121.878Z" fill="#616060"/>
<path d="M204.989 125.307C206.389 126.948 206.918 129.041 207.865 130.918C208.657 132.482 209.992 132.721 210.774 131.5C214.239 126.092 219.618 127.038 224.719 126.938C225.293 126.938 225.866 126.874 226.44 126.84L232.28 126.788C235.275 128.202 234.455 130.892 234.455 133.31C233.532 135.732 232.43 138.131 233.439 140.816C231.577 142.776 232.008 145.483 231.176 147.779C230.143 149.586 228.689 150.056 226.624 149.675C221.669 148.761 216.793 147.347 211.711 147.18C210.435 147.137 209.405 147.292 208.485 148.478C207.405 149.87 206.067 151.685 204.052 151.046C202.037 150.407 202.161 148.184 201.906 146.413C200.339 141.245 200.339 141.248 196.517 144.708C196.169 145.022 195.78 145.289 195.439 145.609C193.51 147.421 191.843 146.878 190.966 144.693C189.988 142.263 188.343 141.636 186.025 141.942C184.311 140.466 182.21 140.826 180.219 140.749C179.005 139.154 175.786 140.377 175.545 137.411L176.659 137.218C178.838 136.467 181.046 135.952 183.383 136.15C184.048 136.204 184.752 136.164 184.702 135.122C184.63 133.586 182.467 131.989 180.722 132.237C178.831 131.76 176.978 131.073 174.963 131.812C173.75 132.26 172.507 132.766 171.148 132.575C170.688 130.684 168.981 130.98 167.714 130.784C164.865 130.346 164.045 128.877 164.917 126.225C165.087 125.703 165.041 125.112 165.096 124.556C165.48 122.119 166.589 120.805 169.283 121.695C169.977 121.933 170.769 121.84 171.518 121.9C174.05 122.694 174.064 119.78 175.605 119.112C177.846 117.738 180.423 117.011 183.052 117.011L188.252 118.8C190.549 120.099 193.372 120.669 194.609 123.426C197.848 127.851 199.307 128.123 203.866 125.143L204.989 125.307Z" fill="#95D0CC"/>
<path d="M183.052 117.011C183.052 97.7398 183.06 78.4697 183.076 59.2013C183.076 58.1187 182.577 56.719 184.013 56.1538C185.148 55.7079 186.559 55.0593 187.549 55.3908C188.774 55.8033 187.642 57.2173 187.644 58.1735C187.711 77.1543 187.685 96.135 187.718 115.116C187.718 116.344 188.066 117.572 188.252 118.8L183.052 117.011Z" fill="#616060"/>
<path d="M164.641 113.036L163.425 114.217C162.032 114.865 161.081 115.996 160.909 117.455C160.244 123.085 158.944 128.951 165.225 132.616C164.464 132.559 163.68 132.616 162.953 132.418C161.665 132.091 161.682 132.911 161.732 133.705C161.925 136.648 164.832 139.063 167.762 138.339C170.802 137.58 173.962 137.08 176.699 135.315C177.57 134.755 178.647 134.438 178.845 133.109C178.603 132.999 178.346 132.927 178.082 132.895C174.582 133.038 171.182 134.325 167.626 133.829C166.691 133.701 165.347 134.337 165.208 132.611L171.143 132.57C172.5 132.756 173.743 132.256 174.959 131.807C176.974 131.068 178.826 131.745 180.717 132.232C182.811 133.734 182.215 134.616 180.107 135.387C178.893 135.825 177.129 135.341 176.654 137.213L175.54 137.406C173.275 138.184 171.368 139.731 168.721 139.643C164.648 139.507 164.643 139.679 165.297 143.613C166.012 144.436 166.441 145.373 166.36 146.494V147.815C166.279 148.53 165.84 148.823 165.168 148.859C165.452 145.802 163.737 143.403 162.378 140.966C160.566 137.709 159.54 134.247 159.04 130.622C158.863 129.347 159.452 128.035 159.226 126.654C158.334 121.223 158.305 115.972 163.15 112.076C163.627 111.692 163.968 111.272 163.925 110.628C165.578 111 165.282 111.971 164.641 113.036Z" fill="#F1AB38"/>
<path d="M171.148 132.57L165.213 132.611C158.932 128.946 160.232 123.073 160.897 117.45C161.069 115.991 162.02 114.861 163.413 114.212C164.03 116.504 164.049 118.845 163.985 121.189C163.952 122.448 164.08 123.633 165.084 124.542C165.029 125.102 165.084 125.693 164.906 126.211C164.033 128.865 164.853 130.331 167.703 130.77C168.983 130.975 170.688 130.68 171.148 132.57Z" fill="#616060"/>
<path d="M165.297 143.613C164.643 139.679 164.648 139.507 168.721 139.643C171.368 139.731 173.285 138.179 175.543 137.406C175.781 140.37 179.003 139.147 180.216 140.745L180.164 140.804C175.226 141.827 170.5 143.99 165.297 143.613Z" fill="#A57854"/>
<path d="M166.36 147.815C166.36 147.374 166.36 146.935 166.36 146.496C169.823 146.078 173.232 145.296 176.53 144.162C178.123 143.618 180.131 143.184 180.164 140.802L180.216 140.742C182.217 140.818 184.308 140.458 186.023 141.934C184.697 141.987 183.765 142.838 182.754 143.534C178.829 146.241 174.551 147.867 169.725 147.827C168.601 146.832 167.481 147.443 166.36 147.815Z" fill="#A57854"/>
<path d="M234.445 133.302C235.931 133.651 236.904 135.232 238.613 135.041L234.65 140.764L233.429 140.807C232.411 138.124 233.522 135.725 234.445 133.302Z" fill="#A57854"/>
<path d="M176.656 137.213C177.133 135.341 178.895 135.825 180.109 135.387C182.217 134.624 182.813 133.734 180.72 132.232C182.465 131.993 184.628 133.581 184.699 135.117C184.749 136.159 184.046 136.2 183.381 136.145C181.044 135.947 178.836 136.462 176.656 137.213Z" fill="#C6A262"/>
<path d="M61.7776 84.0885C61.028 84.1298 60.2808 83.973 59.6111 83.634C58.9414 83.2949 58.3727 82.7855 57.9623 82.157C57.5164 81.5108 57.7453 80.8694 58.2509 80.34C59.6386 78.8854 61.3221 78.5445 63.225 79.05C64.8727 79.4863 66.5347 79.8774 68.1657 80.3615C68.757 80.5355 69.6202 80.5212 69.6918 81.4059C69.7657 82.3311 69.067 82.7865 68.3254 83.0154C66.2091 83.6999 64.0017 84.0616 61.7776 84.0885Z" fill="#616060"/>
<path d="M44.3634 122.257C45.0287 119.873 47.7018 120.769 48.987 119.396C52.1894 121.959 56.2789 121.804 59.9343 122.973C56.7725 125.713 53.0002 124.356 49.4592 124.542C47.5492 124.256 47.1891 120.498 44.3634 122.257Z" fill="#A57854"/>
<path d="M277.214 141.31C279.014 138.627 281.837 139.791 284.255 139.424C285.798 139.424 286.823 140.265 287.935 141.775C285.359 141.841 283.499 142.857 281.577 143.997C279.164 145.428 277.259 144.083 277.214 141.31Z" fill="#D63526"/>
<path d="M307.244 125.66C307.392 125.314 307.464 124.897 307.705 124.635C308.582 123.681 309.524 121.995 310.785 122.56C312.047 123.125 310.454 124.616 310.638 125.736C309.517 125.248 308.351 126.755 307.244 125.66Z" fill="#524E4E"/>
<path d="M285.29 137.294H280.469C282.219 135.744 283.759 135.708 285.252 135.542C285.264 136.126 285.278 136.71 285.29 137.294Z" fill="#FEFEFE"/>
<path d="M88.3864 135.034L89.7861 135.584L86.3691 137.23C85.0648 137.103 83.7628 136.948 82.4585 136.86C81.9267 136.827 80.992 136.605 80.9419 137.165C80.682 140.137 79.7616 137.695 79.1297 137.428C78.4978 137.161 77.9374 136.889 77.3437 136.619L76.1634 135.561L78.3667 134.416C81.6835 135.019 85.048 134.972 88.3864 135.034Z" fill="#FEFEFE"/>
<path d="M88.3864 135.034C85.048 134.972 81.6787 135.019 78.3714 134.423C78.4859 133.775 78.2927 133.009 79.0653 132.611C82.1866 133.386 85.3843 133.825 88.3864 135.034Z" fill="#C3966F"/>
<path d="M44.3634 122.257C47.1891 120.498 47.5492 124.256 49.4592 124.544L44.9882 124.513C44.4948 123.869 44.2746 123.057 44.3754 122.253L44.3634 122.257Z" fill="#C3966F"/>
<path d="M76.1634 135.561L77.3437 136.605L75.1332 138.06L72.0667 137.251C73.1088 135.909 74.7565 136.038 76.1634 135.561Z" fill="#E0D9AA"/>
<path d="M44.3682 122.253C44.2695 123.058 44.4922 123.871 44.9882 124.513L42.0338 124.513C42.0052 122.923 42.6847 122.071 44.3682 122.253Z" fill="#A57854"/>
<path d="M180.312 41.1743C180.598 45.2733 178.07 48.242 176.115 51.4086C175.605 52.2361 174.744 52.9657 173.492 52.8012C172.154 52.6248 172.111 51.6924 172.085 50.71C172.064 49.9541 171.792 49.4772 170.991 49.2793C169.846 48.986 169.167 49.9207 168.976 50.5121C168.427 52.2146 167.404 53.7884 167.407 55.6698C167.407 60.3291 167.233 64.9694 166.343 69.5715C166.117 70.7495 165.657 71.4481 164.436 72.0967C163.935 69.6717 162.619 67.5661 162.855 65.0123C162.931 64.192 163.017 63.2072 161.813 62.9688C162.371 60.5342 160.518 59.1536 159.402 57.4582C158.313 55.3439 157.911 52.9421 158.253 50.5884C158.813 46.6205 157.082 43.1964 155.964 39.6005C155.794 39.0569 155.501 38.8113 154.969 38.7874C154.609 35.368 151.619 34.5716 149.289 33.16C148.264 32.54 147.019 32.2824 145.97 31.6911C142.393 29.6738 142.262 27.5611 145.481 24.466C147.336 23.7888 149.194 23.1211 151.218 23.207C151.746 24.1162 152.183 25.0745 152.525 26.0684C153.658 29.6452 159.774 33.427 163.327 33.005C164.45 32.8714 165.728 32.3492 165.95 31.5981C166.172 30.847 165.142 29.8526 164.042 29.5832C164.011 29.2207 163.978 28.8559 163.945 28.4911C164.08 27.7757 164.314 27.1462 165.232 27.6279C165.983 28.0213 166.689 28.5149 167.595 28.4577C170.099 29.5903 172.741 30.1268 175.464 30.32C177.908 31.2046 180.336 30.9066 182.754 30.2198C185.112 30.8207 187.465 30.3963 189.75 29.9242C193.822 29.0872 195.508 29.6547 197.731 33.0836C194.099 32.7331 190.603 33.6535 187.081 34.2759C183.622 34.8649 180.495 38.1436 180.312 41.1743Z" fill="#D63526"/>
<path d="M172.145 19.7852C171.716 19.8281 171.43 19.0985 170.914 19.5754C165.821 20.8082 163.761 23.2642 163.422 28.5006C159.268 28.0452 156.483 25.1957 153.448 22.7778C155.744 21.9909 158.708 22.6442 160.008 19.7184C161.891 19.4013 161.567 17.8108 161.698 16.5876C161.853 15.1759 161.734 13.7262 161.734 12.2954C163.995 14.587 166.742 15.97 169.775 16.9882C170.852 17.3625 172.271 18.0851 172.145 19.7852ZM162.349 22.6466C163.959 22.0028 164.972 21.2803 165.046 19.7852C165.072 19.1319 164.412 18.6478 163.854 18.922C162.442 19.6183 162.628 21.049 162.349 22.6395V22.6466Z" fill="#E0D9AA"/>
<path d="M153.448 22.773C156.483 25.1885 159.268 28.038 163.422 28.4958L163.401 28.4815C163.32 29.0157 163.491 29.402 164.038 29.5689C165.137 29.8383 166.167 30.8279 165.945 31.5838C165.723 32.3397 164.445 32.8571 163.322 32.9907C159.769 33.4127 153.653 29.6213 152.52 26.0541C152.179 25.0602 151.741 24.1019 151.214 23.1927C151.535 20.8487 152.713 22.9781 153.448 22.773Z" fill="#94BC45"/>
<path d="M197.728 33.0741C195.506 29.6452 193.82 29.0777 189.747 29.9146C187.463 30.3915 185.109 30.8112 182.751 30.2103C187.058 27.1534 191.781 26.283 196.903 27.4633C198.265 29.3447 200.399 30.6681 200.974 33.1194C201.002 36.232 201.03 39.3454 201.057 42.4596C201.057 42.5549 201.057 42.6527 201.043 42.7481C200.804 44.9228 199.419 47.0545 202.698 48.7094C204.617 49.6632 203.997 52.4745 203.158 54.549C202.919 55.1142 201.939 55.5029 202.55 56.2683C204.951 59.3252 203.408 61.8242 201.484 64.285C199.686 65.8969 197.654 66.1926 195.423 65.3747C195.389 65.0934 195.356 64.812 195.32 64.5306C197.423 63.9178 198.983 62.5658 200.316 60.8847C201.06 59.95 201.772 58.6194 201.245 57.7848C200.509 56.6236 199.7 58.2403 198.861 58.4072C197.924 58.5908 196.953 58.9246 196.14 58.1687C195.945 57.9851 195.933 57.4152 196.057 57.1172C196.251 56.6727 196.566 56.291 196.964 56.0144C197.363 55.7378 197.83 55.5773 198.315 55.5505C201.472 55.2477 202.309 53.8027 201.069 50.5717C200.151 48.4614 198.999 47.5123 196.763 49.2411C195.428 50.2343 193.765 50.6788 192.113 50.4835C191.059 50.3905 190.1 50.0876 189.952 48.9812C189.805 47.8748 190.687 47.2977 191.667 46.9949C192.585 46.7135 193.52 46.2128 194.431 46.2438C198.034 46.3702 198.706 44.0977 198.775 41.2363C199.839 38.3343 199.283 35.6494 197.728 33.0741Z" fill="#F1AB38"/>
<path d="M201.019 26.7194C199.754 27.2373 198.389 27.4607 197.025 27.3727C196.803 25.117 197.402 22.5727 198.115 19.8162C198.949 16.59 199.727 13.3208 199.848 9.95385C202.431 9.31241 202.774 12.2978 204.596 12.894C203.702 15.2666 201.734 17.6344 205.459 19.6088C206.668 20.2526 205.266 21.0943 204.539 21.2278C201.338 21.8192 200.936 24.0893 201.019 26.7194Z" fill="#A57854"/>
<path d="M175.462 30.3105C172.736 30.1173 170.094 29.5808 167.593 28.4482C166.687 24.8976 169.977 23.0568 170.917 20.2621L174.415 20.3527C175.345 21.7405 174.987 24.0368 177.3 24.4469C177.486 25.3531 177.673 26.2584 177.861 27.1629C178.283 29.1373 178.027 30.6109 175.462 30.3105Z" fill="#E0D9AA"/>
<path d="M177.295 24.4422C174.982 24.032 175.34 21.7357 174.41 20.348C174.796 19.604 175.033 18.3688 175.602 18.2019C178.256 17.3983 180.185 15.8913 181.352 13.3876C181.716 14.0576 182.005 14.7873 182.46 15.3858C183.114 16.2466 182.937 16.8999 181.983 17.1074C177.915 17.9897 178.044 21.4806 177.295 24.4422Z" fill="#A57854"/>
<path d="M205.86 27.2678C204.233 27.1462 202.493 28.0118 201 26.7098C202.65 26.6359 204.331 26.2902 205.86 27.2678Z" fill="#A57854"/>
<path d="M163.923 110.628C163.966 111.272 163.623 111.692 163.148 112.076C158.303 115.972 158.331 121.223 159.223 126.654C159.45 128.035 158.861 129.347 159.037 130.622C159.54 134.247 160.566 137.709 162.375 140.966C163.737 143.403 165.452 145.814 165.168 148.859C165.125 149.894 164.409 150.063 163.582 150.087C162.888 149.782 162.378 149.202 161.751 148.795C159.388 147.261 156.774 145.821 155.029 143.706C152.566 140.723 151.094 137.087 151.266 132.988C151.314 131.836 151.729 130.532 150.365 128.934C149.201 130.305 148.219 131.619 147.084 132.766C144.408 135.444 141.928 138.25 138.239 139.843C136.43 140.628 134.157 140.148 132.755 141.887L131.606 141.992C130.54 141.542 129.388 141.33 128.232 141.372C127.106 141.133 125.978 140.926 124.858 140.68C124.118 140.518 123.63 140.06 123.684 139.273C123.725 138.708 124.199 138.536 124.719 138.486C130.38 137.928 134.102 134.092 137.786 130.42C141.63 126.585 145.24 122.496 148.707 118.316C149.9 116.871 151.996 116.194 152.399 114.081C152.467 113.941 152.499 113.786 152.492 113.63C154.891 112.664 157.847 113.776 159.924 111.618L161.632 110.538L163.923 110.628Z" fill="#FDD04D"/>
<path d="M140.302 145.447C138.175 145.626 136.756 144.207 135.171 143.165C141.382 141.717 145.662 137.416 150.3 132.172C149.823 137.449 150.231 141.634 153.515 144.941C149.132 145.666 144.706 145.297 140.302 145.447Z" fill="#A57854"/>
<path d="M153.515 144.944C150.231 141.634 149.826 137.449 150.3 132.172C145.658 137.418 141.382 141.71 135.171 143.165C134.245 142.974 132.986 143.42 132.755 141.899C134.157 140.16 136.43 140.64 138.239 139.855C141.928 138.258 144.408 135.456 147.084 132.778C148.238 131.631 149.192 130.315 150.365 128.946C151.729 130.532 151.319 131.836 151.266 133C151.094 137.099 152.566 140.735 155.029 143.718C156.774 145.833 159.388 147.273 161.751 148.807C162.378 149.214 162.888 149.794 163.582 150.099L161.174 152.379C159.702 151.368 158.928 149.546 157.134 148.912C156.801 147.645 155.961 146.882 154.736 146.508C154.817 145.592 153.961 145.43 153.515 144.944Z" fill="#F1AB38"/>
<path d="M157.134 148.9C158.928 149.534 159.702 151.356 161.174 152.367C159.726 153.437 158.055 152.653 156.512 152.934C156.259 152.207 157.008 151.089 155.844 150.75C154.271 150.292 153.584 151.761 152.561 152.491C150.873 150.955 148.76 152.102 146.876 151.608C145.286 151.191 144.396 150.655 144.935 148.885L157.134 148.9Z" fill="#C3966F"/>
<path d="M157.134 148.9L144.935 148.885C142.968 148.609 141.463 147.593 140.326 145.993C144.258 146.355 148.195 146.742 152.122 147.059C153.014 147.13 154.03 147.478 154.745 146.496C155.961 146.87 156.801 147.633 157.134 148.9Z" fill="#A57854"/>
<path d="M154.736 146.496C154.039 147.478 153.014 147.13 152.113 147.059C148.178 146.742 144.244 146.343 140.316 145.993C140.304 145.812 140.297 145.628 140.293 145.447C144.697 145.297 149.115 145.666 153.505 144.941C153.961 145.43 154.817 145.592 154.736 146.496Z" fill="#C3966F"/>
<path d="M112.47 137.173C112.708 134.55 111.993 131.531 115.331 130.16C117.201 131.175 119.266 131.326 121.321 131.516C122.671 135.506 126.329 134.964 129.97 135.153C126.491 138.014 123.038 137.28 119.74 137.409C119.106 137.435 118.324 137.211 118.012 138.052C117.737 138.794 118.169 139.283 118.665 139.798C120.935 142.182 124.772 144.276 128.332 142.516C129.763 143.086 129.15 143.709 128.194 143.611C125.776 143.372 124.078 144.565 122.421 145.995C114.435 144.689 106.478 143.253 98.7638 140.728C96.8705 140.108 95.0344 139.385 96.4127 136.779C98.6064 137.602 100.092 136.34 101.563 135.029C104.186 138.536 107.525 140.687 112.017 140.804C113.381 140.84 114.852 140.439 115.017 139.254C115.188 137.983 113.774 137.347 112.47 137.173Z" fill="#A57854"/>
<path d="M128.327 142.516C124.767 144.276 120.935 142.17 118.66 139.798C118.164 139.283 117.733 138.794 118.007 138.052C118.319 137.211 119.101 137.435 119.736 137.409C123.033 137.28 126.486 138.002 129.965 135.153C126.319 134.964 122.666 135.506 121.317 131.516L130.447 131.454C130.177 132.482 128.391 132.151 128.508 133.601C131.064 134.511 132.829 132.933 134.338 131.478C135.6 130.265 133.952 130.524 133.358 130.315C133.532 129.997 133.705 129.679 133.878 129.361C136.935 128.316 139.198 126.077 141.585 124.072C143.59 122.389 143.254 119.921 143.254 117.619C144.797 119.15 146.242 119.377 147.546 117.324C148.002 116.608 148.948 116.294 149.158 115.369C150.389 115.323 151.02 113.776 152.389 114.076C151.986 116.189 149.897 116.866 148.698 118.311C145.231 122.491 141.621 126.58 137.777 130.415C134.093 134.087 130.371 137.924 124.71 138.482C124.19 138.532 123.715 138.703 123.675 139.268C123.62 140.055 124.109 140.513 124.848 140.675C125.969 140.914 127.097 141.138 128.222 141.367C128.263 141.76 128.296 142.137 128.327 142.516Z" fill="#F1AB38"/>
<path d="M246.635 138.472L254.821 136.803C254.764 137.175 254.704 137.549 254.647 137.921C252.305 139.19 249.42 139.021 247.24 140.721C246.196 140.199 246.675 139.266 246.635 138.472Z" fill="#C3966F"/>
<path d="M247.24 140.723C249.42 139.023 252.305 139.192 254.647 137.924C254.647 138.732 256.211 139.807 254.249 140.287L248.879 140.871L247.24 140.723Z" fill="#A57854"/>
<path d="M231.064 21.5235C229.907 23.6147 228.949 22.1244 228.224 21.2326C227.664 20.5411 227.49 19.5372 227.032 18.3712C229.104 18.7956 228.322 22.5036 231.062 21.5068L231.064 21.5235Z" fill="#C3966F"/>
<path d="M170.912 20.2621C169.958 23.0568 166.682 24.8976 167.588 28.4481C166.684 28.5054 165.979 28.0118 165.227 27.6183C164.309 27.1414 164.076 27.7543 163.94 28.4815C163.764 28.4297 163.577 28.4297 163.401 28.4815L163.422 28.4958C163.759 23.2499 165.821 20.8034 170.914 19.5706C170.914 19.8043 170.914 20.0332 170.912 20.2621Z" fill="#A57854"/>
<path d="M225.844 16.8999C225.774 16.8791 225.708 16.8486 225.646 16.8093C225.613 16.7831 225.618 16.7116 225.603 16.6615L225.842 16.8999H225.844Z" fill="#A57854"/>
<path d="M112.47 137.173C113.767 137.347 115.181 137.983 115.005 139.245C114.84 140.437 113.369 140.83 112.005 140.795C107.505 140.678 104.165 138.527 101.551 135.019C101.353 133.388 99.8821 132.005 100.621 130.174C101.895 130.141 102.51 131.776 103.886 131.5L105.104 132.673C104.966 133.481 105.331 133.889 106.125 133.949C107.567 136.367 110.596 135.635 112.47 137.173Z" fill="#D63526"/>
<path d="M119.984 119.289L118.443 119.241C119.836 115.187 123.451 113.959 126.026 116.711C124.04 117.677 120.751 115.578 119.984 119.289Z" fill="#825B3B"/>
<path d="M133.358 130.315C133.952 130.513 135.6 130.265 134.338 131.478C132.829 132.933 131.064 134.511 128.508 133.601C128.391 132.144 130.177 132.475 130.447 131.454L133.358 130.315Z" fill="#FDD04D"/>
<path d="M159.922 111.63C157.845 113.788 154.888 112.676 152.489 113.642C150.918 111.916 152.318 109.968 152.12 108.127C151.681 104.03 151.49 99.9026 151.292 95.7845C150.715 83.6092 149.807 71.4624 149.44 59.2633C149.32 55.2263 148.841 51.1297 146.752 47.3717C145.305 44.7702 145.395 41.6226 144.749 38.7302C144.384 37.0944 144.971 37.3615 146.204 37.4259C149.182 37.5856 151.95 38.9591 154.96 38.7874C155.494 38.8113 155.787 39.0569 155.956 39.6005C157.075 43.1892 158.818 46.6205 158.246 50.5884C157.907 52.9398 158.311 55.3381 159.402 57.4486C158.16 57.6132 156.421 56.6784 156.591 59.3563C157.404 72.123 158.048 84.9016 158.813 97.6707C159.094 102.325 159.55 106.975 159.922 111.63Z" fill="#524E4E"/>
<path d="M149.168 115.385C148.958 116.31 148.011 116.625 147.556 117.341C146.249 119.394 144.804 119.167 143.264 117.636V116.537C145.345 114.234 146.178 111.095 148.357 108.859C148.502 111.05 148.018 113.32 149.168 115.385Z" fill="#3D3C3B"/>
<path d="M123.396 108.112C125.966 105.606 128.575 105.966 131.537 106.148C129.286 108.961 126.62 108.477 123.396 108.112Z" fill="#C6A262"/>
<path d="M118.541 124.475L113.13 122.377C113.681 126.316 116.452 124.513 118.541 124.475Z" fill="#EBCB96"/>
<path d="M106.132 133.949C105.338 133.889 104.973 133.472 105.111 132.673C105.929 132.716 106.213 133.176 106.132 133.949Z" fill="#EBCB96"/>
<path d="M232.802 122.16C231.729 121.056 232.461 120.238 232.726 119.367C234.927 112.083 237.929 105.06 239.741 97.6397C240.497 94.5398 240.218 91.6998 238.861 88.9862C237.86 86.9976 237.745 85.2783 238.78 83.2634C239.972 80.9457 240.643 78.3608 242.037 76.1432L242.719 76.4079C242.08 78.4634 241.515 80.5451 240.781 82.5648C240.323 83.8214 240.032 85.1233 240.9 86.1415C244.758 90.6578 243.099 95.4221 241.432 100.017C238.756 107.38 235.749 114.629 232.802 122.16Z" fill="#94BC45"/>
<path d="M235.656 119.89C235.656 120.605 235.375 121.048 234.619 121.094C234.517 120.3 234.944 119.975 235.656 119.89Z" fill="#825B3B"/>
<path d="M324.773 125.171C326.006 125.913 326.056 124.289 326.84 124.136C327.506 124.091 328.176 124.029 328.843 123.998C331.643 123.862 331.831 123.545 330.398 121.258C331.433 121.058 332.282 121.606 333.116 121.974C333.898 122.315 334.614 122.951 334.373 123.996C334.163 124.904 333.419 125.124 332.599 125.143C329.409 125.221 327.007 126.457 325.288 129.325C324.017 131.447 320.428 132.275 318.08 131.471C317.684 131.338 317.329 131.178 317.309 130.756C317.274 129.993 317.846 129.802 318.454 129.802C321.707 129.819 323.8 128.264 324.773 125.171Z" fill="#C3966F"/>
<path d="M315.798 124.711C315.135 123.927 314.195 123.109 315.299 122.088C315.965 121.48 316.921 120.841 317.841 121.509C319.177 122.479 317.786 123.54 317.746 124.568L315.798 124.711Z" fill="#825B3B"/>
<path d="M159.922 111.63C159.547 106.975 159.092 102.33 158.813 97.6635C158.048 84.8944 157.404 72.1158 156.591 59.3491C156.421 56.6785 158.16 57.6132 159.402 57.4415C160.518 59.144 162.371 60.5199 161.813 62.9545C162.871 67.7688 162.542 72.731 162.638 77.5525C162.843 87.8298 163.761 98.0975 163.379 108.387C162.855 109.154 161.782 109.472 161.629 110.533L159.922 111.63Z" fill="#616060"/>
<path d="M197.728 33.0741C199.283 35.6398 199.839 38.3344 198.78 41.2363C192.625 40.9549 186.464 42.3904 180.312 41.1767C180.495 38.1436 183.622 34.8649 187.079 34.2616C190.601 33.644 194.097 32.7236 197.728 33.0741Z" fill="#616060"/>
<path d="M201.057 50.5621C202.297 53.7932 201.46 55.2382 198.303 55.541C197.819 55.5677 197.351 55.7283 196.952 56.0049C196.554 56.2815 196.24 56.6632 196.045 57.1076C195.921 57.4057 195.933 57.9756 196.128 58.1592C196.937 58.9175 197.912 58.5837 198.849 58.3977C199.7 58.2308 200.518 56.614 201.234 57.7753C201.761 58.6099 201.048 59.9405 200.304 60.8752C198.971 62.5563 197.411 63.9083 195.308 64.5211C195.272 62.1366 195.217 59.7258 195.208 57.327C195.191 52.8775 195.208 52.8537 199.707 51.5303C200.253 51.368 200.728 51.027 201.057 50.5621Z" fill="#616060"/>
<path d="M161.632 110.549C161.784 109.479 162.857 109.162 163.382 108.403C165.289 108.165 167.719 108.403 168.151 110.044C168.611 111.78 166.093 112.288 164.641 113.046C165.282 111.98 165.578 111.019 163.925 110.638L161.632 110.549Z" fill="#A57854"/>
<path d="M165.213 132.611C165.351 134.337 166.696 133.701 167.631 133.829C171.186 134.321 174.587 133.038 178.087 132.895C178.351 132.927 178.608 132.999 178.85 133.109C178.647 134.438 177.57 134.755 176.704 135.315C173.979 137.08 170.807 137.58 167.767 138.339C164.848 139.054 161.93 136.648 161.736 133.705C161.686 132.911 161.67 132.091 162.957 132.418C163.673 132.604 164.469 132.559 165.23 132.616L165.213 132.611Z" fill="#FDD04D"/>
<path d="M180.164 140.807C180.131 143.191 178.123 143.623 176.53 144.166C173.232 145.299 169.823 146.08 166.36 146.496C166.441 145.373 166.021 144.436 165.297 143.613C170.5 143.99 175.226 141.827 180.164 140.807Z" fill="#C3966F"/>
<path d="M163.401 28.4958C163.577 28.444 163.764 28.444 163.94 28.4958C163.973 28.8607 164.007 29.2255 164.038 29.588C163.499 29.4067 163.32 29.0204 163.401 28.4958Z" fill="#E0D9AA"/>
<path d="M162.349 22.6395C162.628 21.049 162.442 19.6183 163.861 18.9101C164.412 18.6359 165.072 19.1199 165.053 19.7733C164.982 21.2731 163.959 21.9957 162.349 22.6395Z" fill="#A57854"/>
<g filter="url(#filter0_b_337_440)">
<rect x="274.324" y="30.0282" width="47.7226" height="89.9539" transform="rotate(4.14665 274.324 30.0282)" fill="#C4C4C4" fill-opacity="0.1"/>
</g>
<g clip-path="url(#clip0_337_440)">
<path d="M283.148 128.835C278.229 130.391 273.31 131.932 268.27 133.074C267.039 133.334 265.886 133.879 264.903 134.664C263.324 135.949 263.247 137.648 264.749 139.031C266.3 140.464 268.242 141.015 270.268 141.293C273.827 141.778 277.365 141.374 280.909 141.009C283.001 140.792 285.069 140.339 287.218 140.685C290.493 141.217 292.662 143.032 293.69 146.134C294.872 149.727 295.939 153.357 297.397 156.852C297.568 157.263 297.771 157.661 297.959 158.066C299.226 160.177 300.596 162.218 302.07 164.19C303.845 166.582 305.693 168.907 307.844 170.987C309.778 172.901 312.365 174.012 315.085 174.096C315.787 174.129 316.472 173.861 317.181 173.93C317.611 173.913 317.951 173.654 318.329 173.495C317.853 173.785 317.26 173.893 316.924 174.404C315.89 175.753 315.876 177.233 316.307 178.796C317.18 181.948 318.062 185.099 318.951 188.249C321.956 198.902 325 209.543 328.084 220.173C328.637 222.083 329.162 224 329.763 225.898C329.886 226.296 329.991 226.704 330.319 227H368.046C360.629 209.885 353.173 192.785 346.732 175.267C344.441 169.038 343.062 162.607 342.205 156.041C341.589 151.335 341.211 146.618 341.011 141.875C340.857 138.348 340.885 134.823 340.857 131.296C340.826 128.001 340.46 124.8 339.124 121.73C337.948 119.026 336.812 116.308 335.523 113.652C331.529 105.392 327.153 97.3332 322.682 89.3257C322.597 89.1913 322.504 89.0621 322.404 88.9389C321.887 89.472 321.867 90.1716 321.879 90.8295C321.927 93.3287 321.694 95.8171 321.648 98.3132C321.566 102.794 321.503 107.275 321.417 111.754C321.363 114.552 322.079 116.992 323.66 119.23C323.996 119.697 324.301 120.186 324.574 120.693C325.057 121.563 325.666 122.356 326.381 123.048C328.78 125.288 330.675 127.869 331.598 130.364C328.46 125.834 324.452 121.227 320.093 116.915C319.551 116.387 319.015 115.854 318.486 115.307C318.06 114.838 317.582 114.419 317.061 114.059C316.29 113.553 315.745 112.826 315.15 112.15C314.861 112.144 314.575 112.079 314.312 111.959C311.75 110.698 308.961 110.481 306.187 110.147C303.856 109.866 301.512 110.002 299.177 109.821C296.719 109.632 294.246 110.006 291.781 110.02C290.599 110.02 290.007 110.945 290.164 112.274C290.346 113.815 291.027 115.154 291.946 116.378C293.273 118.158 294.922 119.674 296.808 120.846C299.833 122.738 303.173 124.07 306.67 124.777C307.653 124.972 308.172 125.475 308.475 126.381C308.873 127.565 309.218 128.767 309.643 129.941C309.759 130.25 309.874 130.558 309.995 130.866C312.007 136.24 313.736 141.718 315.907 147.034C317.808 151.691 320.189 156.072 323.466 159.927C324.054 160.629 324.694 161.285 325.381 161.89C324.856 161.457 324.065 160.986 323.363 160.392C322.603 159.75 321.85 159.11 321.252 158.298C320.682 157.528 320.118 156.739 319.629 155.912C317.865 152.965 316.357 149.872 315.122 146.667C313.919 143.484 312.907 140.239 311.971 136.96C311.831 136.473 311.75 135.943 311.235 135.664C309.274 134.938 307.229 134.553 305.203 134.061C298.697 132.478 292.195 130.88 285.695 129.27C284.842 129.068 284.015 128.86 283.148 128.835Z" fill="#F8B684"/>
<path d="M330.296 227C329.988 225.099 329.306 223.302 328.783 221.453C326.537 213.541 324.241 205.641 321.985 197.725C320.167 191.353 318.39 184.971 316.572 178.602C316.141 177.092 316.273 175.706 317.201 174.42C317.134 174.349 317.044 174.304 316.948 174.293C316.851 174.283 316.753 174.307 316.672 174.361C315.34 175.15 314.092 176.021 313.759 177.689C316.562 186.266 318.124 195.135 319.876 203.956C321.37 211.49 322.703 219.056 324.105 226.606C324.122 226.733 324.132 226.861 324.135 226.989L330.296 227Z" fill="#F6AC78"/>
<path d="M315.187 112.378C315.176 112.821 315.384 113.11 315.74 113.382C316.64 114.071 317.497 114.815 318.37 115.539C318.873 115.432 318.87 115.003 318.908 114.635C319.095 112.851 319.192 111.057 319.304 109.267C319.54 105.495 319.802 101.725 320.028 97.9526C320.182 95.4257 320.409 92.905 320.491 90.3734C320.525 89.2532 320.714 88.1423 320.694 87.016C320.686 86.5306 320.674 86.0591 320.497 85.6031C320.463 83.1008 320.756 80.6139 320.905 78.1209C321.278 71.8837 321.706 65.6496 322.11 59.4139C322.604 51.7715 323.096 44.1286 323.586 36.4852C323.662 35.3034 323.771 34.1185 323.777 32.9413C323.788 30.2911 321.876 28.077 319.23 27.8566C314.696 27.4822 310.15 27.228 305.609 26.9322C298.988 26.4905 292.368 26.057 285.748 25.6317C282.487 25.4191 279.226 25.1772 275.963 25.0154C272.907 24.8613 270.599 26.8413 270.38 29.8736C269.907 36.4251 269.499 42.9828 269.071 49.5374C268.636 56.1885 268.205 62.8402 267.776 69.4924C267.432 74.8338 267.092 80.1753 266.755 85.5168C266.71 86.2194 266.622 86.9189 266.555 87.6184C265.948 88.4921 266.105 89.5244 266.035 90.4813C265.834 93.2747 265.703 96.0744 265.474 98.8663C265.438 99.3286 265.451 99.7616 265.764 100.134C265.601 103.715 265.411 107.296 265.051 110.865C264.932 110.973 264.836 111.104 264.771 111.251C264.706 111.398 264.672 111.557 264.672 111.718C264.559 113.721 264.364 115.734 264.277 117.746C264.226 119.023 263.978 120.288 264.063 121.575C264.095 122.06 264.111 122.536 264.416 122.943C265.354 125.98 266.644 127.092 269.809 127.336C274.277 127.678 278.745 127.926 283.214 128.223C283.622 128.25 284.049 128.16 284.436 128.377C284.633 128.686 284.955 128.741 285.275 128.761C287.349 128.895 289.423 129.031 291.497 129.169C295.167 129.407 298.838 129.632 302.505 129.889C304.579 130.035 306.657 130.112 308.73 130.288C309.143 130.323 309.572 130.316 309.87 129.934C309.533 128.436 309.076 126.969 308.503 125.545C308.338 125.132 308.152 124.737 307.614 124.641C303.856 123.978 300.362 122.604 297.064 120.703C296.14 120.231 295.123 120.274 294.146 120.21C291.716 120.056 289.285 119.911 286.855 119.747C283.403 119.505 279.949 119.324 276.499 119.059C274.391 118.895 272.273 118.871 270.171 118.613C268.954 118.459 268.428 117.934 268.524 116.7C268.775 113.473 268.934 110.241 269.168 107.014C269.342 104.617 269.476 102.216 269.641 99.8186C269.889 96.1422 270.115 92.4658 270.357 88.7895C270.511 86.3596 270.652 83.9267 270.82 81.4983C271.057 77.9822 271.266 74.4646 271.508 70.9484C271.675 68.5201 271.8 66.0872 271.971 63.6573C272.216 60.2075 272.414 56.753 272.656 53.3016C272.821 50.9364 272.964 48.5682 273.118 46.2031C273.368 42.3341 273.544 38.4605 273.906 34.5992C274.011 33.4667 274.447 33.0754 275.601 33.0754C278.423 33.0754 281.232 33.3835 284.047 33.5376C286.605 33.6917 289.163 33.8689 291.719 34.043C295.298 34.2864 298.881 34.5052 302.46 34.7425C304.891 34.8966 307.321 35.0507 309.751 35.2048C312.597 35.3958 315.452 35.5129 318.286 35.798C319.312 35.9012 319.816 36.5684 319.716 37.801C319.632 38.8241 319.609 39.8503 319.528 40.8703C319.101 46.2046 318.814 51.5497 318.449 56.8947C318.212 60.4108 318.013 63.9316 317.787 67.4493C317.569 70.8072 317.346 74.1641 317.119 77.52C316.95 80.013 316.799 82.5091 316.645 85.0037C316.431 88.4566 316.195 91.9096 315.961 95.361C315.799 97.7585 315.665 100.159 315.498 102.557C315.327 105.082 315.212 107.61 314.995 110.133C314.911 110.883 314.75 111.661 315.187 112.378Z" fill="#312C4B"/>
<path d="M309.859 129.929C305.332 129.643 300.806 129.359 296.28 129.075C292.329 128.834 288.377 128.613 284.425 128.373L283.146 128.835C284.596 129.541 286.192 129.736 287.73 130.12C295.56 132.075 303.403 133.984 311.241 135.91C311.634 135.513 311.431 135.071 311.318 134.647C311.052 133.627 310.66 132.644 310.36 131.636C310.274 131.344 310.089 131.045 310.272 130.721C310.112 130.468 310.135 130.119 309.859 129.929Z" fill="#F5A672"/>
<path d="M264.416 122.935C264.461 119.083 264.912 115.27 265.054 111.43C265.054 111.239 265.054 111.048 265.054 110.857C263.381 110.427 261.69 110.339 260.011 110.749C258.056 111.228 256.684 112.39 256.208 114.41C255.663 116.721 256.174 118.746 258.077 120.284C259.925 121.78 262.21 122.273 264.416 122.935Z" fill="#F8B684"/>
<path d="M320.494 85.6C320.298 88.2194 320.084 90.831 319.91 93.4489C319.464 100.124 319.042 106.802 318.592 113.479C318.546 114.165 318.705 114.882 318.37 115.538C318.816 116.105 319.334 116.611 319.911 117.043C321.352 118.059 322.592 119.313 323.951 120.425C324.235 120.656 324.45 121.042 324.924 120.888C324.336 119.356 323.318 118.062 322.572 116.615C322.081 115.644 321.831 114.569 321.843 113.481C321.83 110.181 321.748 106.877 321.862 103.58C322.008 99.2654 322.186 94.9589 322.233 90.6446C322.241 90.0745 322.491 89.5198 322.41 88.9358C321.856 87.7773 321.215 86.6622 320.494 85.6Z" fill="#F5A672"/>
<path d="M265.764 100.127C266.089 95.9588 266.397 91.7894 266.555 87.6107C265.564 87.536 264.568 87.6187 263.604 87.8557C259.92 88.7402 258.8 91.1176 259.361 94.6183C259.857 97.7169 262.401 99.8001 265.764 100.127Z" fill="#F8B684"/>
<path d="M317.209 173.657C315.397 173.8 313.605 173.824 311.847 173.195C310.553 172.732 309.368 172.009 308.366 171.069C305.727 168.634 303.551 165.804 301.494 162.878C300.448 161.389 299.437 159.878 298.402 158.382C298.298 158.228 298.3 157.876 297.949 158.073C300.91 165.007 304.643 171.391 310.913 175.922C311.733 176.535 312.619 177.055 313.554 177.472C313.746 177.352 313.891 177.169 313.964 176.955C314.468 175.819 315.327 175.053 316.404 174.469C316.725 174.287 317.249 174.227 317.209 173.657Z" fill="#F6AC78"/>
<path d="M317.209 173.657C316.56 174.047 315.88 174.394 315.269 174.834C314.37 175.482 313.745 176.34 313.554 177.465L313.766 177.696C314.537 176.489 315.381 175.343 316.694 174.651C316.859 174.563 317.038 174.497 317.21 174.426L318.867 173.326C318.187 173.226 317.731 173.608 317.209 173.657Z" fill="#F3A26A"/>
<path d="M310.266 130.721C309.948 131.062 310.121 131.421 310.209 131.789C310.542 133.166 311.086 134.49 311.235 135.91C311.837 137.123 312.069 138.456 312.452 139.736C313.902 144.568 315.62 149.289 318.021 153.738C319.072 155.687 320.153 157.634 321.648 159.265C322.997 160.738 324.658 161.884 326.463 162.781C325.538 161.548 324.377 160.556 323.4 159.38C321.041 156.505 319.06 153.339 317.508 149.96C314.654 143.853 312.779 137.371 310.364 131.095C310.325 130.972 310.292 130.847 310.266 130.721Z" fill="#F3A169"/>
<path d="M301.149 110.892C298.138 110.892 295.265 110.892 292.389 110.892C292.135 110.914 291.885 110.975 291.648 111.071C291.322 111.174 291.069 111.379 291.052 111.743C291.038 112.077 291.306 112.245 291.57 112.37C293.204 113.14 294.944 113.518 296.721 113.757C297.036 113.801 297.357 113.818 297.667 113.888C297.993 113.978 298.339 113.97 298.66 113.863C298.982 113.757 299.265 113.557 299.472 113.29C300.118 112.555 300.68 111.751 301.149 110.892Z" fill="#FBD2BC"/>
<path d="M324.917 120.891C323.478 119.68 322.042 118.464 320.603 117.259C320.412 117.105 320.266 116.71 319.91 117.042C321.073 118.49 322.491 119.697 323.719 121.093C326.569 124.328 329.378 127.593 331.82 131.156C331.908 131.289 332.025 131.401 332.162 131.482C331.652 129.37 330.621 127.516 329.324 125.806C327.985 124.049 326.239 122.661 324.917 120.891Z" fill="#F3A26A"/>
<path d="M308.303 119.171C309.169 116.185 311.215 114.344 314.238 113.21C311.577 112.731 308.244 116.188 308.303 119.171Z" fill="#F3A26A"/>
<path d="M287.198 29.0446C286.846 29.0402 286.495 29.0125 286.146 28.9614C285.698 28.8705 285.47 28.9938 285.44 29.4637C285.411 29.9059 285.491 30.1802 286.04 30.2126C288.978 30.3836 291.916 30.5854 294.853 30.7811C299.26 31.0749 303.665 31.3733 308.07 31.6763C308.503 31.7056 308.915 31.8119 308.959 31.1555C309.001 30.5608 308.754 30.3959 308.189 30.3666C304.896 30.19 301.604 29.9907 298.315 29.7688C294.617 29.5238 290.91 29.2526 287.206 28.9984L287.198 29.0446Z" fill="#584F80"/>
<path d="M290.562 122.407C289.294 122.407 288.343 123.3 288.332 124.516C288.323 125.695 289.339 126.673 290.554 126.673C291.134 126.669 291.689 126.436 292.098 126.024C292.506 125.612 292.735 125.055 292.734 124.475C292.731 123.321 291.776 122.413 290.562 122.407Z" fill="#584F80"/>
<path d="M282.203 28.0493C281.505 28.0246 281.114 28.4714 281.038 29.191C280.97 29.8304 281.574 30.399 282.251 30.3867C283.032 30.3728 283.447 29.8844 283.447 29.1787C283.447 28.5084 283.037 28.0616 282.203 28.0493Z" fill="#574F7F"/>
<path d="M311.412 31.3034C311.457 32.0184 311.787 32.4668 312.514 32.5053C313.273 32.5469 313.737 32.1863 313.746 31.3943C313.754 30.6332 313.346 30.1987 312.58 30.1941C311.856 30.1894 311.498 30.6255 311.412 31.3034Z" fill="#584F80"/>
</g>
<defs>
<filter id="filter0_b_337_440" x="264.819" y="27.0282" width="60.1022" height="99.1693" filterUnits="userSpaceOnUse" color-interpolation-filters="sRGB">
<feFlood flood-opacity="0" result="BackgroundImageFix"/>
<feGaussianBlur in="BackgroundImage" stdDeviation="1.5"/>
<feComposite in2="SourceAlpha" operator="in" result="effect1_backgroundBlur_337_440"/>
<feBlend mode="normal" in="SourceGraphic" in2="effect1_backgroundBlur_337_440" result="shape"/>
</filter>
<clipPath id="clip0_337_440">
<rect width="112.046" height="202" fill="white" transform="matrix(-1 0 0 1 368.046 25)"/>
</clipPath>
</defs>
</svg>
