<svg width="332" height="204" viewBox="0 0 332 204" fill="none" xmlns="http://www.w3.org/2000/svg">
<g filter="url(#filter0_d_254_651)">
<path d="M151.262 47.2876C151.262 47.2876 200.763 49.2965 193.282 33.1869C193.282 33.1869 159.002 25.6929 155.548 27.5446C151.881 29.5124 150.793 39.9218 151.262 47.2876Z" fill="#EBE7DF"/>
<path d="M66.5054 133.374C70.5109 129.489 74.4293 125.508 79.0831 122.372C82.6677 126.334 87.5489 127.691 92.4638 128.931C93.828 129.276 94.9987 128.907 96.2299 128.017C100.165 125.174 104.098 122.283 108.292 119.858C114.306 116.384 120.464 115.459 126.968 119.259C134.113 123.436 141.541 127.13 148.841 131.041C156.705 135.293 165.119 138.438 173.844 140.389C184.586 142.758 195.417 144.724 206.222 146.803C210.694 147.663 215.109 148.978 219.714 146.916C226.639 143.808 234.016 141.975 241.299 139.906C247.392 138.18 253.572 136.911 259.97 137.223C263.472 137.392 266.419 138.745 267.877 142.004C269.72 146.131 270.951 150.477 270.855 155.082C260.346 158.689 249.835 162.294 239.323 165.898C232.309 168.286 225.265 170.592 218.248 172.978C217.242 173.36 216.139 173.406 215.104 173.109C195.27 167.526 175.436 161.972 155.602 156.446C143.508 153.061 131.397 149.716 119.32 146.293C117.491 145.768 115.551 145.768 113.723 146.293C102.208 149.395 90.6852 152.473 79.1557 155.527C79.1218 151.792 80.0966 148.292 81.6543 144.934C82.4863 143.143 82.467 141.953 80.0409 141.55C76.6546 140.979 73.5634 139.415 70.7576 137.566C69.1515 136.517 66.8948 135.779 66.5054 133.374Z" fill="#AEDCF7"/>
<path d="M61.7428 128.015C57.7542 131.665 53.8019 135.354 49.7722 138.958C45.7425 142.563 41.7152 146.191 37.5307 149.619C31.6724 154.422 25.9907 159.419 20.4105 164.539C19.9413 164.967 19.3825 165.453 18.7391 164.991C18.0957 164.53 18.3715 163.858 18.5214 163.241C20.5242 154.957 22.4302 146.648 24.3265 138.342C26.7719 127.638 29.747 117.069 31.9554 106.294C33.2712 99.8832 35.1288 93.5762 36.6285 87.1967C39.3327 75.7067 42.3804 64.2965 44.8766 52.7558C45.8022 48.4689 46.7914 44.1982 47.8444 39.9435C48.2435 38.3214 49.2038 37.8573 50.9066 38.5801C61.5033 43.0886 72.1484 47.4762 82.7476 51.9774C89.8854 55.0088 96.9725 58.1636 104.081 61.2627C103.29 61.6881 102.473 62.0701 101.711 62.5439C95.439 66.4359 89.1622 70.3135 83.3523 74.9211C73.3361 82.8622 64.0842 91.3135 60.6157 104.293C58.4678 112.335 57.8534 120.272 61.7428 128.015ZM48.2435 111.702C48.2435 110.252 47.7356 109.659 46.2263 110.046C42.9077 110.897 39.6084 111.953 36.2294 112.413C32.7415 112.896 31.5418 114.811 30.8742 117.973C29.464 124.659 27.6766 131.268 26.1334 137.926C25.8479 139.164 25.0135 141.141 27.8821 140.411C32.0618 139.347 36.2463 138.301 40.4599 137.368C42.1917 136.981 43.0963 136.101 43.435 134.363C44.0566 131.181 44.8403 128.032 45.5151 124.86C46.444 120.48 47.3413 116.09 48.2435 111.702ZM60.3544 84.0057C60.7318 82.4972 60.1125 81.7164 58.5428 82.0548C52.4651 83.3635 46.3924 84.6995 40.3244 86.0629C39.115 86.3337 38.1741 86.9453 37.8766 88.2893C36.8704 92.8566 35.8464 97.4191 34.8047 101.977C34.4637 103.459 34.8047 103.983 36.4302 103.601C42.8351 102.098 49.2498 100.657 55.6765 99.2499C56.9681 98.967 57.7373 98.4086 57.9743 97.0138C58.7096 92.66 59.5538 88.3377 60.3544 84.0057ZM82.8976 63.0491C82.9774 62.0822 81.9421 61.6736 80.4425 62.0024C79.475 62.2127 78.5849 62.7035 77.6246 62.8944C72.3202 63.9533 67.0013 65.3481 61.6944 65.8606C55.3524 66.4722 52.861 69.4505 52.6336 75.2716C52.6198 75.4524 52.5816 75.6305 52.52 75.801C51.7943 78.0033 52.8925 78.3393 54.7211 77.9477C62.9135 76.1902 71.106 74.4206 79.3081 72.6995C80.4691 72.4577 81.4366 72.0661 81.6616 70.8211C82.08 68.5173 82.4138 66.1966 82.8976 63.0491ZM45.2491 65.3215C51.2791 64.1636 57.2801 62.8171 63.3489 61.913C67.4197 61.3062 70.0514 59.8001 70.0272 55.2917C70.0272 54.5906 70.286 53.8678 70.523 53.1885C71.2898 50.9838 70.569 50.4303 68.3461 50.9282C62.2725 52.2892 56.1506 53.4133 50.0117 54.4673C48.0017 54.813 45.1862 54.9508 44.9588 58.0306C44.8183 59.9192 44.5009 61.7904 44.0107 63.6197C43.7494 64.6374 43.7978 65.4931 45.2515 65.3215H45.2491ZM42.1603 80.44C44.4992 80.6334 46.5286 79.5939 47.1575 76.5721C47.5735 74.556 48.0718 72.5592 48.5023 70.5455C48.6475 69.8663 48.5023 69.3078 47.6824 69.1144C45.4135 68.5705 42.6029 70.1515 41.7201 72.4263C40.8614 74.6334 40.6921 76.9758 40.2688 79.2676C40.0487 80.3989 40.5856 80.7422 42.1627 80.44H42.1603Z" fill="#EAE6DE"/>
<path d="M159.46 113.322C159.502 112.781 159.502 112.238 159.46 111.697C159.014 108.924 160.386 107.863 162.984 107.447C170.373 106.258 177.721 104.8 185.116 103.635C192.87 102.412 200.597 101.042 208.295 99.5255C212.262 98.7446 214.011 100.345 216.207 102.738C218.589 105.33 220.774 108.09 223.171 110.653C225.998 113.675 229.805 113.969 233.506 113C237.207 112.031 240.279 109.874 243.13 107.198C249.724 101.015 255.536 94.1443 261.574 87.4553C268.753 79.4996 275.119 70.8912 282.242 62.8944C282.699 62.3795 282.99 61.4778 283.882 61.8114C284.608 62.0846 284.429 62.9041 284.395 63.5036C283.938 71.1451 283.989 78.8107 283.261 86.4424C282.932 89.6672 280.16 90.2499 278.094 91.4199C271.08 95.4086 266.07 101.293 265.229 109.125C264.621 114.767 261.6 116.21 257.346 117.518C248.807 120.146 240.344 123.04 231.745 125.445C226.003 127.05 220.551 129.506 214.741 130.865C213.779 131.102 212.775 131.109 211.809 130.884C196.402 127.384 180.991 123.898 165.577 120.426C165.313 120.368 165.047 120.315 164.783 120.247C159.46 118.899 159.46 118.899 159.46 113.322ZM167.076 113.974L167.035 114.799C168.757 115.207 170.467 115.688 172.204 116.007C182.665 117.941 193.144 119.786 203.588 121.795C208.769 122.793 213.836 123.61 218.969 121.432C222.005 120.144 222.186 119.89 219.968 117.581C216.782 114.272 213.575 110.979 210.523 107.551C209.425 106.316 208.314 106.241 206.894 106.514C199.196 108 191.493 109.467 183.785 110.916C178.227 111.963 172.649 112.957 167.071 113.974H167.076Z" fill="#EBE7DF"/>
<path d="M270.862 155.087C270.959 150.494 269.728 146.143 267.884 142.009C266.433 138.75 263.48 137.397 259.977 137.227C253.58 136.916 247.4 138.194 241.307 139.911C234.024 141.975 226.646 143.808 219.721 146.921C215.126 148.988 210.702 147.668 206.229 146.808C195.425 144.729 184.593 142.763 173.851 140.394C165.125 138.443 156.711 135.298 148.846 131.046C141.546 127.135 134.118 123.441 126.973 119.264C120.469 115.464 114.31 116.389 108.297 119.863C104.103 122.281 100.17 125.182 96.2348 128.022C95.0036 128.912 93.8329 129.281 92.4687 128.936C87.5537 127.688 82.6726 126.339 79.088 122.377C81.1947 119.754 83.7756 117.627 86.4411 115.628C88.2165 114.296 90.4853 114.978 92.5098 114.683C100.361 113.539 108.292 112.904 116.11 111.593C120.258 110.897 123.548 112.768 127.009 114.035C139.546 118.628 151.894 123.731 164.5 128.116C170.337 130.147 176.594 130.945 182.663 132.342C192.251 134.551 201.834 136.779 211.413 139.024C213.342 139.484 215.364 139.353 217.218 138.649C223.076 136.567 229.043 134.781 234.955 132.847C243.341 130.094 251.715 127.287 260.096 124.524C260.609 124.355 261.131 124.212 261.654 124.067C265.618 122.972 265.429 123.1 267.822 126.545C273.143 134.194 280.74 137.261 289.862 136.49C292.077 136.304 292.866 136.908 293.042 138.883C293.241 141.129 294.336 143.189 294.385 145.48C294.404 146.322 294.704 147.214 293.587 147.414C291.651 147.787 289.958 149.085 287.89 148.913C287.912 147.842 287.907 146.771 287.96 145.7C288.014 144.63 287.59 143.851 286.453 143.955C283.406 144.236 280.368 144.613 277.33 144.99C276.345 145.111 276.012 145.754 276.089 146.725C276.261 148.875 276.377 151.028 276.515 153.18L270.862 155.087Z" fill="#EBE7DF"/>
<path d="M281.65 34.7654C281.802 37.3448 283.038 39.6607 283.442 42.1772C283.594 43.1273 283.696 44.087 283.822 45.0419C281.855 46.415 280.677 48.4818 279.158 50.261C271.86 58.8445 264.547 67.4158 257.22 75.975C251.988 82.0693 246.819 88.2386 241.379 94.1322C237.804 98.0001 232.807 97.855 229.481 94.0355C224.402 88.1878 219.489 82.1902 214.485 76.2676C213.333 74.9041 213.186 74.0266 215.039 72.9823C222.273 68.9065 229.416 64.6664 236.588 60.4819C250.778 52.1998 264.968 43.9137 279.158 35.6236C279.942 35.1643 280.665 34.6059 281.65 34.7654Z" fill="#ACD194"/>
<path d="M281.65 34.7655C280.665 34.6059 279.942 35.1643 279.161 35.6237C264.97 43.917 250.78 52.2031 236.59 60.4819C229.418 64.6664 222.276 68.9066 215.041 72.9823C213.188 74.0267 213.348 74.9042 214.487 76.2676C219.492 82.1854 224.404 88.1879 229.484 94.0356C232.809 97.8551 237.807 97.9977 241.382 94.1323C246.834 88.2386 251.99 82.0694 257.222 75.9751C264.563 67.4336 271.875 58.8622 279.161 50.2611C280.675 48.4819 281.858 46.415 283.824 45.0419C285.275 47.3409 284.937 49.3787 283.171 51.4239C276.689 58.9178 270.187 66.4118 263.857 74.0436C255.902 83.6286 247.709 92.984 238.777 101.682C237.734 102.697 236.667 103.671 235.39 104.341C232.173 106.033 229.955 105.308 227.684 102.477C223.217 96.9171 218.212 91.8406 213.108 86.88C209.125 83.0122 206.05 78.4868 203.124 73.826C202.209 72.3756 202.64 71.544 204.212 71.4545C211.287 71.0557 216.282 66.0927 222.278 63.3393C228.325 60.5593 233.987 57.0153 239.952 54.0443C246.396 50.834 252.569 47.0894 258.884 43.6229C265.366 40.0644 271.867 36.5374 278.387 33.0419C280.198 32.0725 281.301 32.7759 281.65 34.7655Z" fill="#EAE7DE"/>
<path d="M61.7428 128.015C57.8533 120.279 58.4629 112.335 60.6132 104.29C64.0841 91.3111 73.336 82.8598 83.3498 74.9186C89.1549 70.3255 95.4437 66.4359 101.711 62.5342C102.473 62.0508 103.29 61.6785 104.081 61.253C107.69 62.3674 111.221 63.6704 114.482 65.6044C113.945 66.9218 112.59 67.2264 111.55 67.8525C102.676 73.1926 93.9295 78.697 86.2039 85.6688C81.7655 89.6769 77.4649 93.7406 75.7185 99.7503C74.1439 105.175 73.1376 110.59 75.2613 116.106C71.2607 120.637 66.5489 124.379 61.7428 128.015Z" fill="#AFDCF6"/>
<path d="M154.01 33.622C153.657 34.7461 153.391 35.9088 152.6 36.8395C143.863 37.4125 135.126 37.9757 126.392 38.5801C125.488 38.6258 124.599 38.8261 123.763 39.1724C118.18 41.6478 112.569 44.0676 107.085 46.7534C104.638 47.9621 102.04 48.7066 99.5872 49.8259C98.3125 50.4037 97.0329 50.1474 95.6784 49.5721C84.5665 44.8533 73.4255 40.2167 62.2725 35.5704C61.2155 35.1304 60.0617 34.8669 59.3385 33.5084C63.4988 32.4713 67.5285 31.7267 71.5896 31.0474C79.1508 29.7807 86.6635 28.2336 94.2247 26.9717C97.5094 26.4229 100.768 25.5889 104.142 25.6179C103.714 26.6671 102.71 26.5849 101.849 26.7614C97.1563 27.7283 92.4711 28.7291 87.7593 29.5849C85.6767 29.9644 84.535 31.0088 84.281 33.0877C84.1793 34.0747 84.0227 35.0553 83.8118 36.0249C83.328 38.1111 84.2012 38.655 86.1387 38.2948C92.7928 37.0547 99.4541 35.8774 106.108 34.6349C109.11 34.0765 109.978 32.4737 110.116 28.5744C110.227 25.5744 108.118 26.2102 106.469 25.9153C106.212 25.8327 105.967 25.7147 105.743 25.5647C108.365 23.6816 111.565 24.1651 114.47 23.4374C114.431 27.2231 113.766 30.9483 113.389 34.7001C113.011 38.452 113.389 38.6478 116.898 37.3593C121.182 35.7831 125.282 33.5035 130.064 33.6462C131.336 33.6848 131.636 32.8605 131.83 31.7388C132.376 28.6107 132.432 25.4753 132.313 22.323C133.852 22.3351 135.339 22.5647 136.687 23.3625C136.612 25.8693 136.994 28.4149 136.396 30.8782C135.835 33.1917 136.851 33.7332 138.909 33.6993C143.921 33.622 148.962 33.6437 154.01 33.622Z" fill="#EBE7DF"/>
<path d="M97.3499 105.912C101.22 102.354 104.875 98.9381 108.602 95.6165C112.438 92.2007 116.439 88.9686 120.212 85.4852C123.371 82.5673 127.594 81.7986 131.136 79.6834C132.258 79.0137 132.659 80.1669 133.24 80.805C138.044 86.0774 141.737 92.2152 146.41 97.5867C147.296 98.6045 148.103 99.6802 148.981 100.712C152.281 104.638 150.406 109.272 150.708 113.6C150.8 114.893 149.826 114.518 148.981 114.219C144.649 112.688 140.274 111.25 135.954 109.703C131.878 108.252 127.8 106.783 123.792 105.156C119.242 103.306 114.695 104.575 110.157 104.955C106.928 105.226 103.731 105.845 100.509 106.246C99.5655 106.364 98.5738 106.463 97.3499 105.912ZM143.14 99.349C142.717 98.7664 142.439 98.3071 142.085 97.9155C139.613 95.1645 137.403 92.2056 134.865 89.4981C130.166 84.4819 130.27 84.3876 124.537 87.8228C124.46 87.8687 124.39 87.9292 124.31 87.9702C122.563 88.8163 122.438 89.9235 123.647 91.3885C125.824 94.0283 127.948 96.7237 130.105 99.3853C131.179 100.708 132.282 102.003 133.363 103.323C134.089 104.213 134.781 104.994 136.067 104.162C138.438 102.629 141.132 101.561 143.14 99.349Z" fill="#EBE7DF"/>
<path d="M189.69 70.3787C190.448 70.2611 191.224 70.3793 191.912 70.7172C193.051 71.3392 194.024 72.2235 194.752 73.2965C198.38 78.6753 201.95 84.0927 205.637 89.44C206.938 91.3328 206.135 91.9493 204.306 92.2708C197.369 93.4916 190.449 94.7438 183.519 95.9646C175.796 97.3183 168.054 98.5681 160.35 100.026C158.403 100.393 157.101 100.06 155.875 98.5029C150.965 92.2805 145.958 86.133 141.031 79.9251C140.45 79.1999 139.388 78.4069 139.901 77.3723C140.385 76.386 141.614 76.5504 142.601 76.5189C149.279 76.3086 155.904 75.5979 162.548 74.8751L167.57 74.0484L178.118 72.3151L187.459 70.78C188.19 70.6616 188.945 70.4585 189.69 70.3787ZM198.351 90.6342L159.012 94.5021C161.479 94.2192 163.18 94.0041 164.885 93.8348C166.271 93.6971 166.527 93.1096 165.959 91.8429C164.227 87.975 162.589 84.0806 160.899 80.2031C160.509 79.3062 159.825 78.6801 158.799 78.7986C156.833 79.0403 154.874 79.3352 152.917 79.6543C151.637 79.8622 151.33 80.4666 151.879 81.7551C153.33 85.1394 154.581 88.6181 155.991 92.0242C156.671 93.639 157.793 94.7438 159.012 94.5021L198.351 90.6342Z" fill="#EBE7DF"/>
<path d="M75.2686 116.099C73.1449 110.583 74.1511 105.168 75.7258 99.743C77.4721 93.7333 81.7727 89.6696 86.2112 85.6616C93.9368 78.6898 102.683 73.1853 111.558 67.8453C112.598 67.2192 113.952 66.9146 114.489 65.5971C118.415 66.697 122.193 68.0483 125.096 71.1378C126.484 72.6148 126.757 73.7268 124.503 74.4762C121.55 75.4577 119.651 77.892 117.406 79.7945C109.216 86.7083 101.157 93.7768 93.083 100.836C87.8584 105.405 82.6943 110.041 77.5133 114.661C76.836 115.265 76.2119 115.925 75.2686 116.099ZM113.486 69.4287C112.917 69.6704 112.09 69.8372 111.442 70.2772C101.355 77.1499 91.3633 84.1072 83.5264 93.6825C80.4787 97.4029 78.3211 101.471 77.9341 106.33C77.8688 107.155 77.0803 108.25 78.1615 108.777C79.1992 109.284 79.7095 108.052 80.3166 107.505C92.3961 96.5093 104.454 85.4867 116.49 74.4376C117.327 73.6688 118.889 73.1346 118.587 71.8678C118.243 70.4295 116.548 70.3231 115.278 69.9339C114.763 69.7768 114.238 69.6414 113.481 69.4287H113.486Z" fill="#EAE7DE"/>
<path d="M66.5054 133.374C66.8948 135.791 69.1515 136.517 70.7479 137.568C73.5537 139.418 76.6473 140.982 80.0312 141.552C82.45 141.961 82.4766 143.15 81.6446 144.937C80.0868 148.294 79.1121 151.795 79.1459 155.53C77.0174 156.086 74.8937 156.683 72.6708 156.738C73.2973 154.867 73.9576 153.006 74.5333 151.118C74.8768 149.996 74.6373 148.993 73.2151 149.128C69.4006 149.493 66.3965 147.823 63.5907 145.558C62.6232 144.784 61.6968 144.61 60.7003 145.558C54.2921 151.645 47.8774 157.723 41.4564 163.792C40.8057 164.409 40.2155 165.069 41.6499 165.47C40.2542 166.744 38.3893 166.357 36.7663 166.826C33.4664 167.803 30.1027 168.549 26.6993 169.06C39.8551 157.002 52.9045 144.869 66.5054 133.374Z" fill="#EAE7DE"/>
<path d="M297.928 101.982L300.589 113.399C300.626 113.57 300.704 113.729 300.816 113.863C300.802 114.245 300.79 114.625 300.775 115.004C299.155 117.62 297.309 119.986 294.486 121.454C290.396 123.574 284.992 123.146 281.797 120.337C278.329 117.298 276.918 112.463 278.389 108.639C281.655 100.144 290.248 97.2169 297.928 101.982Z" fill="#ACD194"/>
<path d="M140.366 59.145C135.134 59.8509 129.776 59.6285 124.67 61.2675C120.558 59.8171 116.231 58.8501 112.762 55.9613C116.913 54.2111 120.502 50.8848 124.917 50.1934C133.624 48.813 142.472 48.2111 151.262 47.2925" fill="#AFDCF6"/>
<path d="M297.928 101.982C290.241 97.2168 281.647 100.144 278.382 108.639C276.911 112.463 278.321 117.298 281.79 120.337C284.985 123.139 290.389 123.574 294.479 121.454C297.311 119.986 299.157 117.62 300.768 115.004C300.923 115.517 301.106 116.022 301.22 116.542C302.408 121.981 301.484 123.958 296.382 126.422C284.85 131.999 271.505 124.971 272.461 111.144C272.761 106.826 274.935 103.287 277.978 100.328C282.201 96.2185 287.244 94.299 293.216 94.8865C295.318 95.0919 296.542 95.9356 296.878 98.0919C297.108 99.4094 297.582 100.686 297.928 101.982Z" fill="#EAE7DE"/>
<path d="M41.6499 165.477C40.2155 165.076 40.8057 164.416 41.4564 163.8C47.8694 157.719 54.284 151.641 60.7003 145.565C61.6968 144.62 62.6353 144.794 63.5907 145.565C66.3965 147.83 69.3958 149.501 73.2151 149.136C74.6373 149 74.8768 150.003 74.5333 151.125C73.9577 153.013 73.2973 154.875 72.6709 156.746C71.5606 157.788 70.0949 157.954 68.7161 158.327C59.6957 160.717 50.6736 163.1 41.6499 165.477Z" fill="#AED296"/>
<path d="M276.191 22.3617C277.712 22.12 278.696 22.4511 279.202 24.1917C279.741 26.041 278.701 26.6284 277.458 27.2836C268.589 31.9572 259.726 36.6253 250.868 41.2876C246.967 43.34 243.022 45.3102 239.161 47.4351C237.853 48.1604 237.318 47.8147 236.687 46.6132C234.384 42.2304 231.994 37.8912 229.617 33.5447C228.838 32.1232 228.891 31.1756 230.782 30.9024C232.57 30.6462 234.338 30.2594 236.104 29.9355C238.813 32.8364 242.238 34.9178 245.068 37.6567C246.652 39.1893 247.91 38.8533 249.627 38.0241C257.559 34.195 264.989 29.4109 273.073 25.867C274.509 25.236 276.524 24.7259 276.191 22.3617Z" fill="#EBE7DF"/>
<path d="M195.202 61.7292L198.17 55.8235C202.86 55.6446 207.286 54.9363 210.426 50.8388C214.233 45.8686 215.588 40.2578 215.218 34.1249L217.866 33.3416C220.072 38.1764 222.191 43.0572 224.523 47.834C225.548 49.9347 225.127 51.0926 223.088 52.1104C219.702 53.8026 216.272 55.4682 213.106 57.523C209.158 60.0927 204.899 61.1418 200.311 61.3352C198.605 61.4053 196.905 61.5939 195.202 61.7292Z" fill="#AED296"/>
<path d="M276.19 22.3617C276.524 24.7259 274.497 25.236 273.082 25.8621C264.999 29.406 257.568 34.1901 249.637 38.0193C247.92 38.8484 246.662 39.1845 245.078 37.6518C242.248 34.9129 238.823 32.8315 236.113 29.9306C247.525 27.7566 258.936 25.5809 270.344 23.4036C272.289 23.0386 274.241 22.705 276.19 22.3617Z" fill="#D7D3CC"/>
<path d="M132.289 22.3279C132.408 25.4705 132.352 28.6131 131.806 31.7437C131.612 32.8653 131.322 33.6897 130.04 33.651C125.258 33.5084 121.158 35.788 116.874 37.3641C113.357 38.6575 112.982 38.4907 113.365 34.705C113.747 30.9193 114.407 27.2279 114.446 23.4423C118.171 22.7582 121.884 21.9918 125.623 21.4189C127.887 21.0684 130.045 22.1756 132.289 22.3279Z" fill="#D7D3CC"/>
<path d="M151.262 47.2876C142.472 48.2111 133.634 48.813 124.917 50.1885C120.507 50.8896 116.913 54.2062 112.762 55.9564C112.311 55.97 111.858 55.9393 111.413 55.8646C109.516 55.3642 106.732 55.1684 106.309 53.539C105.985 52.2917 108.97 51.8058 110.508 51.0612C113.998 49.369 117.643 47.9959 121.03 46.1369C124.206 44.394 127.657 44.2224 131.007 44.1063C137.78 43.8646 144.504 43.0572 151.269 42.8565L151.262 47.2876Z" fill="#EBE7DF"/>
<path d="M105.719 25.5745C105.943 25.7245 106.187 25.8425 106.444 25.925C108.094 26.2103 110.203 25.5745 110.092 28.5842C109.952 32.4834 109.086 34.0862 106.084 34.6446C99.43 35.8799 92.7686 37.062 86.1145 38.3045C84.1795 38.6647 83.3014 38.1208 83.7876 36.0346C83.9984 35.0658 84.1551 34.0861 84.2569 33.0999C84.5108 31.0209 85.6525 29.9766 87.7351 29.597C92.4469 28.7413 97.1321 27.7308 101.825 26.7735C102.686 26.597 103.689 26.6792 104.118 25.6301L105.719 25.5745Z" fill="#D7D3CC"/>
<path d="M156.518 60.6583C149.842 61.8428 143.067 62.1668 136.338 62.892C135.281 63.008 133.593 62.6116 133.796 64.444C133.961 65.9307 134.461 67.5334 136.643 67.2965C138.706 67.0741 140.784 66.9822 142.85 66.7671C148.147 66.2159 153.442 65.6285 158.736 65.0556C159.912 65.8992 160.633 67.0572 161.08 68.4085C153.446 69.0346 145.803 69.5664 138.186 70.3424C135.683 70.5987 133.658 70.4367 131.789 68.4931C130.115 66.7526 127.918 65.5439 126.286 63.7066C125.628 62.9669 124.818 62.3481 124.67 61.2772C129.776 59.6478 135.134 59.8606 140.366 59.1547C140.366 59.1547 194.239 55.4004 200.161 50.9355L198.17 55.8235L156.518 60.6583Z" fill="#EAE7DE"/>
<path d="M195.202 61.7292C196.895 61.5939 198.605 61.4053 200.31 61.3352C204.906 61.1442 209.156 60.0926 213.096 57.5326C216.262 55.4778 219.692 53.8098 223.079 52.12C225.118 51.1023 225.539 49.9443 224.513 47.8436C222.181 43.0668 220.062 38.1885 217.856 33.3512C219.92 32.8073 221.485 33.182 222.515 35.3287C224.815 40.0789 227.164 44.8146 229.713 49.4367C230.79 51.3706 230.335 52.4536 228.545 53.2635C221.828 56.307 215.655 60.4166 208.992 63.5109C205.501 65.1378 201.377 64.6301 197.541 65.0653C196.23 65.2127 194.713 66.274 193.521 64.6881C193.804 63.5684 194.385 62.546 195.202 61.7292Z" fill="#EAE7DE"/>
<path d="M154.01 33.622C148.972 33.6437 143.931 33.622 138.895 33.7042C136.837 33.738 135.821 33.1965 136.382 30.8831C136.979 28.4197 136.597 25.8742 136.672 23.3673C142.656 24.3972 148.732 24.929 154.593 26.6284C154.266 28.6276 154.511 30.6244 154.593 32.6212L154.01 33.622Z" fill="#D7D3CC"/>
<path d="M215.218 34.1272C215.588 40.2602 214.233 45.871 210.426 50.8412C207.281 54.9508 202.86 55.647 198.17 55.8259L200.161 50.9234C207.105 47.7808 209.5 41.9137 209.896 34.8331L215.218 34.1272Z" fill="#EAE7DE"/>
<path d="M209.896 34.8332C209.5 41.9137 207.105 47.7905 200.161 50.9234C201.41 45.491 200.88 39.8008 198.646 34.6929C202.386 35.2151 206.13 36.0274 209.896 34.8332Z" fill="#AFDAF4"/>
<path d="M276.51 153.19C276.372 151.038 276.268 148.884 276.084 146.735C276.007 145.768 276.34 145.12 277.325 144.999C280.363 144.622 283.401 144.245 286.448 143.965C287.585 143.861 288.011 144.622 287.955 145.71C287.9 146.798 287.907 147.852 287.885 148.923C286.269 150.7 283.882 150.702 281.838 151.502C280.114 152.184 278.292 152.636 276.51 153.19Z" fill="#AED296"/>
<path d="M307.12 140.723C307.27 142.599 306.246 143.24 304.911 143.568C303.629 143.885 302.928 143.281 302.405 142.118C301.269 139.587 301.172 136.853 300.836 134.191C300.565 132.042 302.625 131.532 304.074 131.184C305.39 130.867 305.284 132.463 305.494 133.323C306.113 135.859 306.621 138.426 307.12 140.723Z" fill="#EBE7DF"/>
<path d="M291.806 77.0339C292.445 79.7124 293.095 82.3908 293.715 85.0742C293.957 86.0991 294.506 87.4311 292.825 87.6173C291.216 87.7986 290.256 86.892 290.406 85.1636C290.633 82.5045 290.889 79.8284 291.131 77.162L291.806 77.0339Z" fill="#EBE7DF"/>
<path d="M154.593 32.6163C154.501 30.6196 154.257 28.6228 154.593 26.6236C155.288 26.5251 155.997 26.5839 156.667 26.7956C157.337 27.0073 157.951 27.3666 158.463 27.8468L154.593 32.6163Z" fill="#EAE6DE"/>
<path d="M300.831 113.863C300.719 113.729 300.641 113.57 300.603 113.399L300.831 113.863Z" fill="#EAE7DE"/>
<path d="M158.736 65.0459C153.442 65.6188 148.147 66.2063 142.85 66.7574C140.784 66.9726 138.706 67.0644 136.643 67.2868C134.466 67.5286 133.961 65.921 133.796 64.4343C133.593 62.6019 135.281 62.9984 136.338 62.8823L198.17 55.8235L195.202 61.7292L158.736 65.0459Z" fill="#AED296"/>
<path d="M48.2435 111.702C47.3341 116.09 46.4439 120.48 45.5127 124.86C44.8379 128.032 44.0614 131.181 43.4325 134.363C43.0939 136.101 42.1893 136.981 40.4574 137.368C36.2463 138.301 32.0618 139.347 27.8797 140.411C25.011 141.136 25.8455 139.164 26.1309 137.926C27.6741 131.266 29.4616 124.659 30.8717 117.973C31.5393 114.811 32.739 112.896 36.2269 112.413C39.6133 111.953 42.9052 110.897 46.2238 110.046C47.7356 109.659 48.2484 110.261 48.2435 111.702Z" fill="#D7D3CC"/>
<path d="M60.3543 84.0057C59.5537 88.3377 58.7144 92.6601 57.9743 97.0017C57.7324 98.3966 56.968 98.955 55.6764 99.2379C49.2521 100.657 42.835 102.098 36.4301 103.589C34.8071 103.971 34.4636 103.447 34.8047 101.965C35.8528 97.4087 36.8768 92.8462 37.8765 88.2773C38.174 86.9332 39.1198 86.3216 40.3243 86.0508C46.3907 84.6922 52.4634 83.3562 58.5427 82.0428C60.1149 81.7164 60.7317 82.4972 60.3543 84.0057Z" fill="#D7D3CC"/>
<path d="M82.8976 63.0492C82.4138 66.1918 82.0776 68.5173 81.6616 70.8211C81.4366 72.0661 80.4691 72.4553 79.3081 72.6995C71.1059 74.4207 62.9135 76.1902 54.721 77.9477C52.8924 78.3393 51.7991 78.0033 52.5199 75.801C52.5815 75.6305 52.6198 75.4524 52.6336 75.2716C52.861 69.4505 55.3523 66.4722 61.6944 65.8606C67.0012 65.3481 72.3202 63.9533 77.6246 62.8944C78.5921 62.7035 79.4846 62.2127 80.4425 62.0024C81.9445 61.6736 82.9798 62.0798 82.8976 63.0492Z" fill="#D7D3CC"/>
<path d="M45.2515 65.3215C43.8002 65.4811 43.7494 64.6374 44.0203 63.6293C44.5105 61.8 44.828 59.9288 44.9685 58.0403C45.1958 54.9508 48.0113 54.8227 50.0213 54.477C56.1602 53.423 62.2822 52.3013 68.3558 50.9379C70.5714 50.4399 71.2922 50.9935 70.5327 53.1982C70.2908 53.8775 70.0344 54.6003 70.0368 55.3013C70.061 59.8098 67.4294 61.3159 63.3586 61.9226C57.2825 62.8171 51.2815 64.1636 45.2515 65.3215Z" fill="#D7D3CC"/>
<path d="M42.1627 80.4401C40.5856 80.7422 40.0486 80.399 40.2615 79.2579C40.6945 76.9662 40.8638 74.6237 41.7128 72.4166C42.5956 70.1418 45.4063 68.5608 47.6751 69.1048C48.4878 69.2982 48.6426 69.8566 48.4951 70.5359C48.0645 72.5496 47.5663 74.5464 47.1502 76.5625C46.531 79.594 44.5016 80.6335 42.1627 80.4401Z" fill="#D7D3CC"/>
<path d="M167.071 113.974C172.635 112.957 178.222 111.963 183.788 110.919C191.496 109.468 199.199 108.001 206.897 106.517C208.31 106.243 209.42 106.318 210.525 107.554C213.578 110.982 216.785 114.274 219.971 117.584C222.189 119.892 222.007 120.146 218.972 121.434C213.839 123.61 208.772 122.795 203.59 121.797C193.144 119.788 182.665 117.951 172.204 116.017C170.467 115.696 168.757 115.214 167.035 114.808L167.071 113.974Z" fill="#D7D3CC"/>
<path d="M182.552 80.2925C183.863 83.3457 185.162 86.4062 186.492 89.4521C187.283 91.2628 186.806 92.1306 184.748 92.2225C180.508 92.4135 176.27 92.6625 172.04 92.9985C170.673 93.1073 170.105 92.544 169.669 91.3764C168.3 87.7696 166.81 84.2112 165.439 80.6068C164.316 77.66 167.057 78.9146 168.061 78.2909L174.792 77.6527L178.159 77.3385C178.776 77.2804 179.369 77.1378 179.995 77.0846C181.115 76.9904 181.284 77.4642 181.688 78.3683C181.966 79.0089 182.274 79.6422 182.552 80.2925Z" fill="#AED296"/>
<path d="M185.096 77.3771C185.056 77.452 185.033 77.5343 185.026 77.6189C185.025 77.7871 185.065 77.9531 185.142 78.1024C185.553 79.0452 186.069 79.942 186.492 80.8824C187.061 82.1443 187.626 83.4078 188.185 84.6729C191.124 91.3595 191.119 91.3595 198.351 90.6343C198.621 90.6057 198.893 90.5952 199.164 90.6028C200.872 90.6391 201.234 90.1 200.323 88.5263C198.475 85.3377 196.663 82.1298 195.461 78.6149C194.82 76.7317 193.342 75.9992 191.255 75.8759C189.953 76.166 188.64 76.3788 187.339 76.6592C186.811 76.7535 185.428 76.7655 185.096 77.3771Z" fill="#D7D3CC"/>
<path d="M143.14 99.349C141.132 101.561 138.438 102.629 136.067 104.162C134.781 104.994 134.084 104.213 133.363 103.323C132.287 102.003 131.186 100.708 130.105 99.3853C127.948 96.7261 125.831 94.0283 123.647 91.3885C122.438 89.9235 122.563 88.8163 124.31 87.9702C124.389 87.9291 124.46 87.8687 124.537 87.8228C130.267 84.3876 130.166 84.4819 134.865 89.498C137.403 92.2056 139.613 95.1645 142.085 97.9155C142.439 98.3071 142.717 98.7664 143.14 99.349Z" fill="#D7D3CC"/>
<path d="M159.012 94.5021C157.803 94.7438 156.661 93.6511 155.989 92.0242C154.581 88.6181 153.328 85.1467 151.877 81.7551C151.328 80.4666 151.635 79.8622 152.914 79.6543C154.871 79.3352 156.83 79.0282 158.797 78.7986C159.822 78.6801 160.507 79.3062 160.896 80.2031C162.589 84.0709 164.225 87.9847 165.956 91.8429C166.525 93.1121 166.268 93.6971 164.882 93.8349C163.18 93.992 161.479 94.2071 159.012 94.5021Z" fill="#D7D3CC"/>
<path d="M113.481 69.4287C114.238 69.6414 114.763 69.7768 115.278 69.9364C116.548 70.3304 118.243 70.4368 118.587 71.8703C118.889 73.137 117.327 73.6713 116.49 74.44C104.441 85.4698 92.3832 96.49 80.3167 107.501C79.7095 108.054 79.1992 109.28 78.1615 108.772C77.0803 108.245 77.8689 107.15 77.9342 106.326C78.3212 101.467 80.4787 97.4054 83.5264 93.6778C91.3633 84.1072 101.355 77.1499 111.439 70.2772C112.085 69.8445 112.912 69.6584 113.481 69.4287Z" fill="#AED296"/>
<path d="M158.736 65.0459L195.202 61.7292L195.364 65.5367L161.08 68.3989L158.736 65.0459Z" fill="#EAE7DE"/>
<path d="M140.366 59.145C140.366 59.145 196.936 55.4875 200.161 50.9258C203.385 46.3642 198.646 34.6953 198.646 34.6953C198.646 34.6953 193.731 32.7469 192.916 34.7412C192.101 36.7356 190.831 41.9935 186.855 43.3182C182.878 44.643 151.262 47.29 151.262 47.29L140.366 59.145Z" fill="#AFDCF6"/>
<path d="M151.27 36.9266C151.27 36.9266 158.349 33.784 157.52 25.7026C157.52 25.7026 165.531 26.2247 164.479 28.5358C163.731 30.1748 162.408 38.1474 151.27 42.8614" fill="#FDFDFC"/>
<path d="M189.723 36.3706C189.511 36.6558 189.08 36.9822 189.121 37.2239C189.76 40.8138 187.692 40.2022 185.449 39.7598C181.045 38.8871 176.621 38.0942 172.178 37.4488C169.785 37.1007 168.257 36.3416 168.678 33.564C168.823 32.597 168.702 31.5769 168.034 30.738C168.811 29.9112 169.897 29.7082 170.893 29.3262C174.214 29.933 177.521 30.6534 180.863 31.1006C182.557 31.3279 184.085 32.684 185.943 31.8984C186.11 31.9587 186.286 31.9906 186.463 31.9926C187.534 33.4576 189.044 34.6035 189.723 36.3706Z" fill="#D7D3CC"/>
<path d="M197.548 65.0653C201.384 64.6302 205.508 65.1378 208.999 63.5109C215.663 60.4069 221.835 56.3094 228.552 53.2635C230.342 52.4537 230.797 51.3827 229.721 49.4367C227.171 44.8146 224.822 40.0789 222.522 35.3287C221.482 33.182 219.927 32.8074 217.861 33.3513L215.225 34.1273L209.903 34.8331C206.137 36.0273 202.405 35.2151 198.654 34.6929L158.461 27.8517L164.991 23.0748L195.154 28.7026C204.447 31.5817 213.399 28.7243 222.401 27.0467C242.04 23.3899 261.668 19.6727 281.284 15.8951C283.626 15.4431 283.788 16.7702 284.187 18.3125C291.643 47.5197 299.109 76.7253 306.585 105.929C309.762 118.339 312.942 130.754 316.127 143.174C317.399 148.137 317.399 148.137 313.113 150.185C312.33 150.376 311.526 150.504 310.767 150.765C286.543 159.091 262.307 167.382 238.121 175.812C233.385 177.463 228.475 178.686 223.988 181.026C220.616 181.921 217.276 183.267 213.73 181.768C181.507 172.619 149.285 163.459 117.065 154.287C115.914 153.958 114.966 154.176 113.921 154.461C83.499 162.68 53.0803 170.91 22.6648 179.15C18.086 180.4 13.35 181.181 9.00586 183.233C9.02643 183.213 9.04581 183.192 9.06391 183.17H8.53419C4.53593 183.654 4.56012 183.654 5.56634 179.697C16.7847 135.538 27.9982 91.3861 39.2069 47.2393C40.3848 42.6051 41.6257 37.9879 42.7166 33.3343C43.1157 31.6422 43.8703 30.7888 45.682 30.4697C72.1049 25.8476 98.5229 21.1143 124.96 16.4947C129.433 15.7114 133.726 17.4254 138.065 18.153C147.063 19.6639 156.018 21.4189 164.991 23.0748C162.813 24.6687 160.636 26.261 158.461 27.8517C157.948 27.3714 157.334 27.0122 156.665 26.8005C155.995 26.5888 155.286 26.53 154.59 26.6284C148.73 24.9363 142.654 24.3972 136.67 23.3674C135.322 22.5624 133.835 22.34 132.296 22.3279C130.052 22.1756 127.902 21.0684 125.63 21.4238C121.891 22.0064 118.178 22.763 114.453 23.4495C111.551 24.1748 108.348 23.6913 105.726 25.5745L104.125 25.618C100.755 25.589 97.4973 26.423 94.2078 26.9717C86.6466 28.2336 79.1339 29.7808 71.5727 31.0475C67.5116 31.7268 63.4819 32.4713 59.3216 33.5084C60.0472 34.867 61.1985 35.1305 62.2555 35.5704C73.3989 40.2167 84.5495 44.8533 95.6615 49.5721C97.016 50.1474 98.2955 50.4037 99.5702 49.8259C102.033 48.7067 104.63 47.9524 107.068 46.7534C112.552 44.0676 118.163 41.6478 123.746 39.1724C124.582 38.8261 125.471 38.6258 126.375 38.5801C135.11 37.9758 143.846 37.4125 152.583 36.8396C151.451 38.6962 152.085 40.9371 151.262 42.8614C144.49 43.062 137.773 43.8791 131 44.1112C127.65 44.2272 124.198 44.3988 121.022 46.1418C117.636 48.0008 113.991 49.386 110.501 51.0661C108.958 51.8106 105.978 52.2965 106.302 53.5439C106.725 55.1732 109.509 55.3691 111.405 55.8695C111.851 55.9441 112.303 55.9749 112.755 55.9613C116.224 58.8501 120.551 59.8292 124.663 61.2675C124.81 62.3385 125.63 62.9597 126.279 63.697C127.914 65.5343 130.107 66.743 131.781 68.4835C133.651 70.4174 135.676 70.5891 138.179 70.3328C145.556 69.581 153.606 69.0057 161 68.3989L197.524 65.0605L197.548 65.0653ZM142.603 76.519C141.616 76.4755 140.387 76.386 139.904 77.3723C139.391 78.407 140.453 79.1926 141.033 79.9251C145.963 86.133 150.967 92.2805 155.877 98.5029C157.104 100.06 158.405 100.393 160.352 100.026C168.056 98.5754 175.798 97.3184 183.522 95.9646C190.449 94.7559 197.369 93.4916 204.297 92.2708C206.125 91.9493 206.928 91.3329 205.627 89.4401C201.95 84.0927 198.371 78.6753 194.742 73.2966L142.603 76.519ZM276.181 22.3617C274.231 22.7074 272.279 23.0386 270.334 23.4085C258.923 25.5761 247.513 27.7517 236.106 29.9355C234.328 30.2618 232.56 30.6607 230.785 30.9024C228.886 31.1756 228.85 32.1111 229.619 33.5447C231.997 37.896 234.386 42.2304 236.689 46.6132C237.32 47.8219 237.855 48.1555 239.164 47.4351C243.034 45.3102 246.969 43.34 250.87 41.2876C259.739 36.6269 268.603 31.9588 277.46 27.2836C278.703 26.6284 279.744 26.041 279.204 24.1917C278.696 22.4632 277.712 22.12 276.19 22.3617H276.181ZM300.777 115.004C300.777 114.625 300.802 114.245 300.816 113.863L300.589 113.399L297.928 101.982C297.575 100.686 297.101 99.4095 296.895 98.092C296.559 95.9356 295.335 95.092 293.233 94.8865C287.266 94.2991 282.223 96.2233 277.995 100.328C274.952 103.287 272.777 106.826 272.478 111.144C271.522 124.966 284.867 131.999 296.399 126.422C301.479 123.958 302.413 121.981 301.237 116.542C301.123 116.017 300.939 115.517 300.787 115.004H300.777ZM41.6499 165.477C50.672 163.097 59.694 160.714 68.7161 158.329C70.0948 157.962 71.5606 157.79 72.6709 156.748C74.8937 156.688 77.0247 156.091 79.146 155.539C90.6771 152.463 102.199 149.383 113.713 146.3C115.542 145.775 117.481 145.775 119.31 146.3C131.404 149.718 143.498 153.069 155.592 156.453C175.426 161.997 195.26 167.551 215.094 173.116C216.129 173.413 217.232 173.367 218.239 172.986C225.253 170.6 232.299 168.294 239.313 165.905C249.832 162.326 260.342 158.721 270.845 155.09L276.493 153.192C278.275 152.638 280.097 152.186 281.831 151.5C283.865 150.7 286.253 150.697 287.878 148.918C289.951 149.092 291.639 147.794 293.577 147.422C294.694 147.209 294.394 146.317 294.375 145.488C294.326 143.196 293.231 141.136 293.032 138.891C292.856 136.916 292.065 136.311 289.852 136.497C280.73 137.269 273.128 134.201 267.812 126.552C265.419 123.11 265.608 122.979 261.644 124.074C261.121 124.219 260.599 124.362 260.086 124.531C251.705 127.304 243.331 130.091 234.945 132.854C229.034 134.788 223.066 136.572 217.208 138.656C215.355 139.361 213.332 139.491 211.403 139.031C201.823 136.796 192.24 134.568 182.653 132.349C176.592 130.952 170.317 130.154 164.491 128.123C151.889 123.738 139.541 118.63 126.999 114.042C123.538 112.775 120.248 110.899 116.1 111.6C108.283 112.911 100.352 113.546 92.5001 114.69C90.4756 114.985 88.2067 114.303 86.4314 115.635C83.7707 117.634 81.185 119.762 79.0782 122.382C74.4196 125.525 70.5012 129.501 66.5005 133.386C52.8876 144.881 39.8503 157.014 26.6945 169.079C30.0978 168.568 33.4616 167.822 36.7615 166.846C38.3918 166.365 40.2542 166.751 41.6499 165.477ZM75.2711 116.099C76.2144 115.925 76.8384 115.265 77.5157 114.649C82.6967 110.029 87.8609 105.393 93.0855 100.824C101.159 93.7672 109.219 86.6963 117.409 79.7777C119.653 77.88 121.552 75.4457 124.506 74.4594C126.76 73.71 126.487 72.598 125.098 71.1209C122.196 68.0315 118.417 66.6801 114.492 65.5802C111.226 63.6463 107.695 62.3505 104.091 61.2289C96.9821 58.1297 89.8951 54.975 82.7572 51.9436C72.1581 47.4424 61.513 43.0548 50.9163 38.5463C49.2231 37.8211 48.2556 38.2876 47.8541 39.9097C46.8075 44.166 45.8182 48.4367 44.8862 52.722C42.3828 64.2845 39.3351 75.7019 36.6309 87.1919C35.1312 93.5762 33.2736 99.8833 31.9578 106.289C29.7494 117.057 26.7743 127.633 24.3289 138.337C22.4301 146.643 20.5241 154.952 18.5238 163.236C18.3738 163.853 18.1295 164.547 18.7415 164.987C19.3534 165.427 19.9509 164.962 20.4129 164.535C25.993 159.414 31.6748 154.418 37.5331 149.614C41.7176 146.186 45.74 142.56 49.7746 138.953C53.8091 135.347 57.7566 131.66 61.7452 128.01C66.5489 124.379 71.2607 120.637 75.2686 116.099H75.2711ZM283.822 45.0419C283.696 44.087 283.594 43.1273 283.442 42.1772C283.038 39.6607 281.802 37.3424 281.65 34.7655C281.301 32.7759 280.198 32.0725 278.372 33.0515C271.853 36.5487 265.352 40.0757 258.869 43.6325C252.554 47.0991 246.381 50.8437 239.938 54.054C233.973 57.025 228.327 60.581 222.263 63.3489C216.267 66.1024 211.272 71.0653 204.197 71.4642C202.613 71.5536 202.195 72.3828 203.109 73.8357C206.036 78.494 209.11 83.0218 213.094 86.8897C218.197 91.8526 223.202 96.9365 227.669 102.487C229.941 105.308 232.159 106.04 235.376 104.351C236.665 103.674 237.732 102.7 238.762 101.691C247.695 92.9888 255.887 83.6383 263.842 74.0532C270.172 66.4239 276.662 58.9347 283.156 51.4335C284.934 49.3787 285.278 47.3408 283.822 45.0419ZM159.46 113.322C159.46 118.899 159.46 118.899 164.781 120.248C165.044 120.315 165.311 120.368 165.574 120.426C180.992 123.908 196.407 127.393 211.819 130.884C212.784 131.109 213.789 131.102 214.751 130.865C220.556 129.506 226.013 127.05 231.755 125.445C240.354 123.028 248.817 120.146 257.355 117.518C261.607 116.21 264.631 114.767 265.238 109.125C266.08 101.293 271.077 95.4086 278.104 91.4199C280.164 90.2499 282.941 89.6697 283.253 86.4497C283.979 78.8179 283.931 71.1523 284.388 63.5109C284.422 62.9186 284.601 62.0991 283.875 61.8187C282.982 61.4851 282.692 62.3868 282.235 62.9017C275.121 70.8985 268.745 79.5069 261.566 87.4626C255.519 94.1516 249.714 101.022 243.123 107.206C240.279 109.865 237.187 112.04 233.499 113.007C229.81 113.974 226 113.682 223.163 110.66C220.766 108.098 218.582 105.342 216.2 102.745C214.003 100.352 212.254 98.7519 208.288 99.5327C200.604 101.044 192.878 102.414 185.108 103.642C177.714 104.808 170.366 106.265 162.976 107.455C160.379 107.87 159.007 108.932 159.452 111.704C159.497 112.242 159.499 112.783 159.46 113.322ZM97.3498 105.912C98.5737 106.463 99.5654 106.364 100.506 106.246C103.728 105.845 106.926 105.226 110.155 104.955C114.693 104.575 119.24 103.306 123.79 105.156C127.798 106.783 131.876 108.245 135.951 109.703C140.279 111.25 144.647 112.688 148.979 114.219C149.823 114.518 150.798 114.893 150.706 113.6C150.404 109.272 152.278 104.638 148.979 100.712C148.113 99.6802 147.286 98.6045 146.408 97.5867C141.735 92.2152 138.041 86.0774 133.237 80.8051C132.657 80.1669 132.255 79.0138 131.133 79.6834C127.592 81.7986 123.369 82.5674 120.21 85.4852C116.439 88.9687 112.438 92.2007 108.6 95.6165C104.875 98.9381 101.23 102.354 97.3498 105.912ZM307.119 140.723C306.636 138.426 306.116 135.859 305.494 133.321C305.284 132.46 305.39 130.865 304.074 131.181C302.623 131.532 300.565 132.04 300.835 134.189C301.172 136.848 301.268 139.584 302.405 142.115C302.928 143.281 303.629 143.885 304.911 143.566C306.244 143.24 307.267 142.609 307.119 140.723ZM291.809 77.0339L291.143 77.162C290.901 79.8212 290.635 82.4948 290.418 85.1637C290.268 86.8994 291.228 87.7986 292.836 87.6173C294.518 87.4312 293.964 86.0992 293.727 85.0742C293.09 82.3909 292.445 79.7124 291.806 77.0339H291.809Z" fill="#FDFDFC"/>
<path d="M155.048 54.0515C151.141 46.0934 148.8 36.3633 149.001 27.4866C149.134 21.2279 150.749 14.9161 154.542 9.83951C157.704 5.64546 162.131 2.57838 167.171 1.0909C172.115 -0.355364 177.369 -0.363751 182.317 1.06672C187.438 2.53287 191.999 5.50447 195.408 9.59535C199.348 14.3625 201.392 20.3794 201.863 26.5003C202.524 35.0894 200.332 43.7098 197.115 51.6099C195.027 56.6549 192.552 61.5308 189.711 66.1942C188.081 68.9049 186.362 71.556 184.555 74.1475C183.123 76.2119 181.471 78.112 179.908 80.0749C178.672 81.6293 177.862 83.3723 176.406 84.7816C175.733 85.4343 174.814 85.7655 174.175 84.9049C166.992 75.2353 160.4 64.9613 155.048 54.0515ZM175.508 8.2005C150.912 7.55264 150.793 46.0523 175.119 45.9121C199.65 46.3956 199.967 8.01195 175.508 8.2005Z" fill="#D1351B"/>
</g>
<defs>
<filter id="filter0_d_254_651" x="0" y="0" width="331.866" height="203.388" filterUnits="userSpaceOnUse" color-interpolation-filters="sRGB">
<feFlood flood-opacity="0" result="BackgroundImageFix"/>
<feColorMatrix in="SourceAlpha" type="matrix" values="0 0 0 0 0 0 0 0 0 0 0 0 0 0 0 0 0 0 127 0" result="hardAlpha"/>
<feOffset dx="5" dy="10"/>
<feGaussianBlur stdDeviation="5"/>
<feComposite in2="hardAlpha" operator="out"/>
<feColorMatrix type="matrix" values="0 0 0 0 0 0 0 0 0 0 0 0 0 0 0 0 0 0 0.1 0"/>
<feBlend mode="normal" in2="BackgroundImageFix" result="effect1_dropShadow_254_651"/>
<feBlend mode="normal" in="SourceGraphic" in2="effect1_dropShadow_254_651" result="shape"/>
</filter>
</defs>
</svg>
