<svg width="185" height="208" viewBox="0 0 185 208" fill="none" xmlns="http://www.w3.org/2000/svg">
<g clip-path="url(#clip0_233_883)">
<path d="M0.0483906 175.618C-0.0208503 175.072 -0.0208503 174.519 0.0483906 173.973C0.474906 170.66 3.45392 167.647 7.24639 165.399C19.8528 157.923 32.7736 157.824 47.761 161.645C64.3885 165.9 80.1234 169.92 98.314 170.156C119.994 170.439 124.167 166.267 145.017 168.703C160.042 170.459 184.275 175.709 184.985 182.648C185.926 191.849 146.539 200.469 127.504 203.565C105.738 207.099 72.035 212.592 38.1402 200.95C27.1761 197.196 17.1816 191.42 8.4226 185.769C4.13986 183.006 0.501289 179.45 0.0483906 175.618Z" fill="#EDEDED"/>
<path d="M137.648 56.0599C136.949 64.8743 136.085 73.6798 135.581 82.5052C134.19 106.83 132.965 131.164 131.637 155.491C131.198 163.528 130.643 171.557 130.142 179.589C127.893 182.875 125.288 182.553 122.494 180.36C121.133 178.372 121.086 176.084 121.047 173.812C120.627 151.288 121.631 128.76 124.054 106.364C124.934 98.303 124.239 90.2418 124.859 82.2137C125.448 74.5698 125.299 66.6963 129.729 59.8674C130.402 56.4663 133.717 56.9588 135.834 55.6712C136.155 55.6381 136.476 55.6138 136.799 55.5851C137.083 55.7441 137.364 55.9141 137.648 56.0599Z" fill="#FDD344"/>
<path d="M46.5473 180.371C44.2564 139.761 41.9641 99.1526 39.6703 58.5445C42.1129 55.7595 45.5228 57.067 48.4798 56.4398C49.1889 56.4984 49.8596 56.7876 50.3903 57.2635C52.2415 60.0375 52.778 63.1516 52.7472 66.418C49.1768 76.8137 51.826 87.3994 52.3075 97.8105C53.0352 113.27 55.2425 128.755 53.831 144.157C53.1715 151.348 53.6925 157.923 55.1304 164.783C56.2033 169.898 55.17 175.097 54.1037 180.192C53.5298 181.243 52.5515 181.685 51.4654 181.959C49.5879 182.193 47.8049 182.122 46.5473 180.371Z" fill="#FDBD23"/>
<path d="M138.114 42.1989C139.558 43.6301 139.099 45.4853 139.213 47.2124C136.028 48.2835 137.454 53.0761 133.902 53.8557C134.583 54.5846 136.626 53.2594 136.32 55.4746C136.401 55.7816 136.498 56.082 136.606 56.3779C133.882 57.5087 130.907 56.9875 128.128 57.6876C125.95 57.7406 123.731 57.7053 124.855 61.0689C125.338 62.5111 125.413 64.1322 123.887 64.9339C122.1 65.8725 120.75 64.8433 119.728 63.3327C118.688 61.4731 119.147 58.6947 116.379 57.893C107.95 57.5705 99.543 57.8289 91.1358 57.7781C89.3567 57.9717 87.5622 57.9754 85.7824 57.7892C76.8717 58.1514 67.9105 56.8373 59.0526 58.5423C57.6697 59.8454 57.8324 61.9943 56.4913 63.3194C54.2466 64.3464 53.8531 62.3432 53.0264 61.1307C51.9381 59.5273 51.7579 57.2569 49.5747 56.4751C46.7166 55.2935 43.2144 58.0012 40.7476 52.7404C38.0434 46.9672 40.4068 46.033 44.3994 44.54C46.1428 44.0276 47.917 44.169 49.6978 44.1314C75.291 43.4689 100.88 43.7052 126.455 43.9813C130.431 44.4869 134.468 43.8697 138.114 42.1989Z" fill="#CFD1C8"/>
<path d="M138.114 42.199C136.714 49.0322 131.444 44.8779 127.963 45.8078C124.943 34.6369 124.142 23.0927 122.406 11.712C121.194 3.78326 120.994 3.24658 112.8 3.17149C93.8928 2.99481 74.9854 3.47407 56.078 2.93518C54.2026 2.7872 52.2789 2.77837 51.0214 1.00931C52.3735 -0.359994 54.0993 0.0596328 55.713 0.0596328C76.786 0.0750927 97.8589 0.0596328 118.932 0.150184C128.386 0.189938 130.696 1.98991 132.477 11.0627C134.495 21.412 136.243 31.8165 138.114 42.199Z" fill="#A4D06D"/>
<path d="M51.0082 1.00931L55.9153 1.30967C54.816 16.3588 54.0399 31.4654 48.5832 45.7923L43.6453 46.1766C40.4222 46.8391 37.1464 47.579 38.4941 42.2277C40.6179 30.9397 42.7021 19.6473 44.8852 8.37265C45.5668 4.86104 46.5803 1.45544 51.0082 1.00931Z" fill="#80B845"/>
<path d="M131.789 188.154C125.818 190.237 119.767 191.361 113.389 192.017C101.75 193.211 90.1113 192.238 78.5272 192.478C67.4202 192.712 55.6163 193.196 44.8457 188.297C46.4946 185.868 49.2252 186.555 51.5095 185.941C76.0121 185.879 100.519 185.477 125.026 186.122C127.416 186.343 130.03 185.848 131.789 188.154Z" fill="#DADBD7"/>
<path d="M38.4941 42.2211C38.1687 46.2274 41.1104 45.9292 43.6453 46.1677C42.4493 47.7137 37.3751 47.1086 42.3086 51.7952C44.9314 54.2864 48.1875 53.3411 49.8913 55.9009C50.2929 56.4236 50.2248 56.8771 49.6869 57.2613C49.3962 57.1097 49.094 56.9812 48.7833 56.877C45.4723 57.0294 42.0821 58.0962 38.9668 56.0091C32.6658 52.8575 32.4438 51.9939 36.234 46.3709C37.1112 45.0789 37.7466 43.6147 38.4941 42.2211Z" fill="#C2C2AF"/>
<path d="M136.327 55.4724C134.627 53.9838 132.29 55.2736 130.446 54.2864C131.142 52.4644 136.208 55.3443 133.963 50.0128C132.609 46.795 137.041 47.5834 139.222 47.2102C141.256 47.1925 142.74 47.6364 142.878 50.1917C143.098 54.0324 140.152 54.7922 137.65 56.0577L136.327 55.4724Z" fill="#DCDBD1"/>
<path d="M131.789 188.154L125.503 188.006C125.593 185.83 124.754 184.335 122.865 182.9C122.408 182.553 122.469 181.784 122.533 181.168C122.698 180.901 122.863 180.632 123.03 180.364C125.479 180.777 127.88 180.762 130.153 179.585C132.818 182.023 134.39 184.689 131.789 188.154Z" fill="#BDB2AB"/>
<path d="M51.1313 188.063L44.8479 188.284C41.704 184.841 41.8161 182.1 46.5473 180.36L51.1027 180.773C51.3211 183.198 51.3306 185.637 51.1313 188.063Z" fill="#8D867A"/>
<path d="M38.9668 56.0157C42.2646 55.8964 45.6679 54.8076 48.781 56.8859C46.167 59.7725 42.6867 57.8665 39.6703 58.5423C39.4373 57.7001 39.2028 56.8579 38.9668 56.0157Z" fill="#F8A724"/>
<path d="M55.9637 63.4232L56.3638 57.2591C66.0681 56.6761 75.7747 55.6137 85.4482 57.5396C87.2884 58.507 86.9388 60.8215 88.2425 62.2063C89.8013 61.0336 89.2715 58.6063 91.0479 57.6169C98.413 55.4812 105.934 57.0471 113.37 56.6275C115.348 56.5148 117.402 57.1377 119.306 56.1018C121.711 58.1978 119.978 61.0468 120.625 63.463C122.098 65.9078 123.591 66.9238 124.894 63.3813C125.437 61.9037 125.127 60.1877 126.031 58.7808C127.418 57.4734 128.918 57.6456 130.463 58.4495C130.877 60.0309 131.343 61.6012 131.679 63.1957C131.806 63.7854 131.679 64.4325 131.679 65.0553C126.22 64.5739 128.346 68.6752 128.016 71.2393C127.546 74.9122 126.754 78.6071 126.838 82.2821C127.245 100.28 124.56 118.061 123.421 135.935C122.483 150.697 123.096 165.56 123.021 180.378L123.14 180.76C120.721 182.789 117.797 182.798 114.9 182.805C97.3313 182.856 79.7628 182.882 62.1965 182.78C59.1647 182.765 55.8933 183.158 53.5937 180.351C52.545 178.703 52.158 176.987 52.6923 175.026C54.5017 168.376 53.7915 162.011 50.4366 155.957C50.1508 155.436 49.777 154.582 49.9969 154.213C54.1169 147.276 49.9969 139.382 52.5647 132.306C53.6926 129.199 52.4394 126.182 52.1448 123.222C50.9356 111.097 50.065 98.9678 49.8671 86.781C49.8232 84.0953 49.9485 81.434 48.9877 78.8014C47.2949 74.1347 49.9441 70.0842 51.1401 65.8372C52.6989 64.9007 54.6468 64.8014 55.9637 63.4232Z" fill="#FECC31"/>
<path d="M130.47 58.4451C129.287 59.121 128.111 59.3286 126.952 58.3855C126.154 57.6059 126 56.813 126.906 55.9981C130.155 55.7264 133.414 55.2604 136.61 56.3779C135.15 58.8162 132.73 58.3877 130.47 58.4451Z" fill="#F9BC1C"/>
<path d="M53.5936 180.329L123.14 180.746C124.951 182.831 128.161 184.455 125.503 188.006L51.1313 188.063C47.7433 185.634 48.792 183.204 51.1115 180.775L53.5936 180.329Z" fill="#9F998F"/>
<path d="M55.9637 63.4232C56.2781 68.1032 53.7652 67.0651 51.1533 65.8239C50.6652 62.9719 50.1764 60.1214 49.6869 57.2724L49.8914 55.9119C55.3063 55.6425 53.3584 61.3891 55.9637 63.4232Z" fill="#E3D9CF"/>
<path d="M48.5833 45.7923C50.0585 36.2646 51.5557 26.7412 52.9957 17.2091C53.2991 15.1883 53.9631 12.9841 53.4706 11.1311C52.4395 7.23524 53.4904 4.17418 55.9176 1.30967C76.6849 1.2655 97.4523 1.28759 118.22 1.10869C121.517 1.07998 123.643 2.27923 123.756 5.38226C124.239 18.9649 129.371 32.0462 127.964 45.81L48.5833 45.7923Z" fill="#96C95A"/>
<path d="M91.0302 58.3546C89.6847 60.773 92.7891 65.7952 88.3063 65.7908C83.8235 65.7864 86.9168 60.7862 85.6065 58.3568C85.0722 57.5198 85.1074 56.7203 85.7714 55.9671H90.8653C91.5293 56.7203 91.5557 57.5175 91.0302 58.3546Z" fill="#E7DBD5"/>
<path d="M85.7714 55.9671L85.6065 58.3568C77.7313 56.7534 69.788 56.3028 61.9854 58.3325C59.5934 58.9531 58.4524 56.2123 56.3638 57.2547C58.1226 54.6265 60.8048 55.9141 63.0165 55.87C70.5993 55.7242 78.1864 55.9141 85.7714 55.9671Z" fill="#F4B003"/>
<path d="M91.0302 58.3546L90.8654 55.9671L119.31 56.0974C117.738 57.9195 115.792 57.4049 113.693 57.4005C106.134 57.3872 98.5053 56.3006 91.0302 58.3546Z" fill="#F4B002"/>
<path d="M126.91 55.998L126.956 58.3855C126.369 60.5609 125.789 62.7408 125.198 64.9118C124.787 66.4114 123.681 66.5881 122.324 66.5483C119.893 66.4776 120.601 64.8146 120.64 63.4563C122.713 64.3155 125.294 65.1415 123.445 61.4223C121.264 57.0537 122.731 55.8567 126.91 55.998Z" fill="#DDD2CC"/>
<path d="M88.3965 139.795C74.4578 139.795 63.553 128.909 63.6806 115.112C63.8059 101.768 74.9195 90.8845 88.4382 90.8646C101.761 90.8469 113.033 102.493 112.899 116.139C112.772 129.068 101.669 139.791 88.3965 139.795Z" fill="#FBFCF9"/>
<path d="M119.284 18.6138C121.388 24.0004 121.245 29.3937 119.354 34.7981C116.496 37.1281 113.198 37.9077 109.575 37.8901C95.368 37.8488 81.1618 37.8488 66.9564 37.8901C63.3816 37.8901 59.9783 37.4351 57.2037 34.8732C55.4625 29.4335 55.225 24.0048 57.3356 18.5939C60.983 17.0103 64.8106 16.6967 68.7504 16.7011C82.8914 16.7188 97.0367 16.9397 111.169 16.5421C114.308 16.4494 116.415 18.6778 119.284 18.6138Z" fill="#759B57"/>
<path d="M57.2036 34.8688C75.9791 37.3158 94.8359 35.4518 113.647 35.9598C115.658 36.015 117.092 33.378 119.363 34.7981C118.411 39.4471 114.447 39.5597 111.153 39.6083C95.9498 39.8277 80.7462 39.8277 65.5427 39.6083C62.2163 39.5708 58.3029 39.3985 57.2036 34.8688Z" fill="#678D4C"/>
<path d="M119.284 18.6137C102.999 18.5983 86.7124 18.7087 70.4322 18.4834C66.0572 18.4216 61.7019 20.1443 57.3356 18.5894C58.6965 16.1092 61.0929 15.3186 63.6036 14.7201C80.5016 13.8779 97.431 13.886 114.328 14.7443L119.284 18.6137Z" fill="#658E4B"/>
<path d="M114.328 14.7444L63.6036 14.7201C64.8898 13.2646 66.6222 13.6158 68.2404 13.5959C83.1054 13.4487 97.9704 13.3058 112.835 13.1674C113.873 13.1564 114.201 13.872 114.328 14.7444Z" fill="#A1D273"/>
<path d="M81.3348 131.725C74.4006 132.681 73.7059 126.442 70.9226 122.469C67.9941 118.288 70.0739 114.297 71.8305 110.856C72.8155 108.922 76.498 108.719 78.2722 110.686C79.5914 112.162 82.0515 114.37 79.277 116.979C77.8237 118.346 75.6274 119.85 76.5662 121.99C77.3928 123.874 79.9343 123.028 81.6074 122.891C85.468 122.571 85.888 124.587 85.9583 127.737C86.0375 131.226 84.3996 132.081 81.3348 131.725Z" fill="#ABC35D"/>
<path d="M101.506 122.902C100.59 121.672 99.1671 120.53 98.8241 119.121C98.3008 116.985 94.2995 115.366 97.2236 112.862C98.9032 111.422 101.585 108.418 103.408 110.212C105.47 112.254 107.783 115.271 107.055 118.975C105.956 124.625 100.24 129.313 94.6183 131.361C91.6151 132.465 91.3095 131.029 90.019 129.612C88.203 127.624 88.8581 125.888 90.2015 124.09C91.248 122.688 91.6877 121.034 94.3589 122.679C96.1375 123.79 99.1253 122.902 101.506 122.902Z" fill="#A9C257"/>
<path d="M83.3969 97.2716C88.9812 97.5609 95.0316 95.0123 99.1538 101.945C101.352 105.655 99.5935 107.723 97.5753 108.988C95.7153 110.156 92.5187 110.755 91.4941 106.607C91.2073 105.402 90.6752 104.27 89.9313 103.282C89.1874 102.293 88.2479 101.47 87.1718 100.865C84.3005 101.368 83.2716 99.9351 83.3969 97.2716Z" fill="#ABC35C"/>
<path d="M83.397 97.2716C84.3028 98.8419 85.5163 100.088 87.1718 100.867C87.5456 103.619 85.3998 105.386 84.4501 107.594C82.9551 111.093 80.9192 108.92 78.9955 107.994C77.0718 107.069 75.0381 106.249 76.8541 103.513C78.5712 100.938 78.9142 96.9227 83.397 97.2716Z" fill="#AAC35C"/>
</g>
<defs>
<clipPath id="clip0_233_883">
<rect width="185" height="208" fill="white"/>
</clipPath>
</defs>
</svg>
