<?xml version="1.0" encoding="UTF-8" standalone="no"?>
<svg
   xmlns:dc="http://purl.org/dc/elements/1.1/"
   xmlns:cc="http://creativecommons.org/ns#"
   xmlns:rdf="http://www.w3.org/1999/02/22-rdf-syntax-ns#"
   xmlns:svg="http://www.w3.org/2000/svg"
   xmlns="http://www.w3.org/2000/svg"
   viewBox="0 0 666.66669 666.66669"
   height="666.66669"
   width="666.66669"
   xml:space="preserve"
   id="svg2"
   version="1.1"><defs
     id="defs6"><clipPath
       id="clipPath18"
       clipPathUnits="userSpaceOnUse"><path
         id="path16"
         d="M 0,500 H 500 V 0 H 0 Z" /></clipPath></defs><g
     transform="matrix(1.3333333,0,0,-1.3333333,0,666.66667)"
     id="g10"><g
       id="g12"><g
         clip-path="url(#clipPath18)"
         id="g14"><g
           transform="translate(251.1553,321.8276)"
           id="g20"><path
             id="path22"
             style="fill-opacity:1;fill-rule:nonzero;stroke:none"
             d="m 0,0 c -40.685,-0.011 -72.96,-32.284 -72.973,-72.966 -0.013,-40.292 32.411,-72.732 72.71,-72.744 40.643,-0.013 72.998,32.34 72.988,72.98 C 72.714,-32.421 40.283,0.012 0,0 m -179.331,-195.228 c 0.139,2.91 1.877,5.699 3.936,8.354 8.445,10.893 16.818,21.842 25.363,32.656 2.176,2.753 2.798,4.973 0.887,8.323 -3.687,6.464 -6.43,13.424 -8.505,20.584 -0.752,2.594 -1.959,3.464 -4.708,3.833 -15.601,2.095 -31.155,4.536 -46.732,6.811 -6.304,0.921 -10.072,4.459 -10.13,10.884 -0.189,20.949 -0.192,41.9 0.001,62.848 0.06,6.564 3.857,10.043 10.469,11.018 15.572,2.295 31.13,4.686 46.704,6.968 2.571,0.377 3.916,1.43 4.763,4.107 2.143,6.774 4.843,13.38 8.39,19.562 1.376,2.398 0.964,4.054 -0.607,6.196 -8.451,11.522 -17.262,22.756 -26.352,33.776 -6.497,7.875 -6.71,10.58 -0.14,18.62 12.545,15.352 26.535,29.316 41.617,42.181 1.386,1.182 2.898,2.228 4.42,3.233 6.287,4.15 9.26,4.086 15.272,-0.542 11.579,-8.913 23.161,-17.824 34.616,-26.894 2.602,-2.06 4.547,-2.822 7.836,-0.985 5.904,3.298 12.252,5.801 18.747,7.786 2.369,0.724 3.305,1.883 3.578,4.484 1.644,15.658 3.77,31.257 7,46.68 1.823,8.704 4.786,11.071 13.678,11.079 19.452,0.02 38.903,0.025 58.355,-0.002 8.549,-0.012 11.673,-2.452 13.07,-10.925 2.588,-15.694 5.016,-31.417 7.234,-47.167 0.376,-2.675 1.602,-3.571 3.754,-4.256 6.626,-2.108 13.062,-4.719 19.23,-7.918 2.191,-1.137 3.677,-0.984 5.692,0.567 12.366,9.519 24.872,18.855 37.323,28.262 5.097,3.851 9.875,4.089 14.412,-0.09 15.891,-14.64 31.867,-29.222 45.409,-46.17 5.136,-6.428 5.196,-10.384 0.206,-16.953 C 166.82,30.31 158.103,18.996 149.241,7.798 147.312,5.36 147.093,3.444 148.557,0.741 c 3.625,-6.695 6.444,-13.769 8.833,-20.993 0.688,-2.082 1.515,-3.395 3.944,-3.744 15.743,-2.261 31.46,-4.709 47.199,-7.003 6.627,-0.965 10.365,-4.412 10.425,-11.122 0.186,-20.781 0.181,-41.567 0.006,-62.348 -0.059,-6.886 -3.751,-10.292 -10.731,-11.318 -15.573,-2.288 -31.129,-4.692 -46.702,-6.995 -2.357,-0.347 -3.743,-1.279 -4.572,-3.744 -2.264,-6.735 -4.933,-13.342 -8.337,-19.595 -1.293,-2.374 -0.989,-3.98 0.622,-6.186 8.527,-11.675 17.549,-22.954 26.657,-34.169 6.039,-7.436 6.262,-10.615 0.346,-17.885 -12.517,-15.381 -26.486,-29.359 -41.501,-42.298 -1.506,-1.297 -3.123,-2.482 -4.775,-3.59 -6.511,-4.363 -9.896,-4.309 -16.191,0.569 -11.551,8.953 -23.078,17.94 -34.476,27.085 -2.411,1.933 -4.248,2.25 -7.025,0.753 -5.966,-3.219 -12.256,-5.79 -18.742,-7.812 -2.405,-0.75 -3.621,-1.829 -3.925,-4.758 -1.623,-15.66 -3.761,-31.263 -6.983,-46.689 -1.791,-8.572 -4.83,-10.917 -13.824,-10.926 -18.62,-0.017 -37.24,-0.006 -55.86,-0.005 -11.972,0 -14.374,2.359 -15.979,14.021 -2.032,14.77 -4.591,29.469 -6.684,44.232 -0.342,2.412 -1.319,3.323 -3.385,3.984 -6.778,2.165 -13.395,4.784 -19.685,8.108 -2.299,1.215 -3.75,0.732 -5.676,-0.754 -12.355,-9.533 -24.799,-18.953 -37.259,-28.35 -5.086,-3.835 -9.725,-3.774 -14.403,0.488 -15.116,13.772 -30.216,27.572 -43.446,43.24 -2.78,3.292 -5.7,6.56 -5.759,11.835" /></g></g></g></g></svg>