<svg width="50" height="91" viewBox="0 0 50 91"  xmlns="http://www.w3.org/2000/svg">
<rect y="3.84668" width="50" height="6.92308" rx="3.46154" />
<rect x="15.6343" y="0.000244141" width="1.53846" height="4.61539" rx="0.769231" />
<rect x="33.3264" y="0.000244141" width="1.53846" height="4.61539" rx="0.769231" />
<rect x="15.6343" y="1.53845" width="1.53846" height="19.2308" rx="0.769231" transform="rotate(-90 15.6343 1.53845)" />
<path fill-rule="evenodd" clip-rule="evenodd" d="M5 13.8467C2.23858 13.8467 0 16.0853 0 18.8467V88.7698C0 89.8743 0.895432 90.7698 2 90.7698H48C49.1046 90.7698 50 89.8743 50 88.7698V18.8467C50 16.0853 47.7614 13.8467 45 13.8467H5ZM11.0257 20.0002C9.53879 20.0002 8.3334 21.2056 8.3334 22.6925V81.9232C8.3334 83.4102 9.53879 84.6156 11.0257 84.6156C12.5126 84.6156 13.718 83.4102 13.718 81.9232V22.6925C13.718 21.2056 12.5126 20.0002 11.0257 20.0002ZM22.0516 22.6925C22.0516 21.2056 23.257 20.0002 24.7439 20.0002C26.2308 20.0002 27.4362 21.2056 27.4362 22.6925V81.9232C27.4362 83.4102 26.2308 84.6156 24.7439 84.6156C23.257 84.6156 22.0516 83.4102 22.0516 81.9232V22.6925ZM38.4623 20.0002C36.9754 20.0002 35.77 21.2056 35.77 22.6925V81.9232C35.77 83.4102 36.9754 84.6156 38.4623 84.6156C39.9492 84.6156 41.1546 83.4102 41.1546 81.9232V22.6925C41.1546 21.2056 39.9492 20.0002 38.4623 20.0002Z" />
</svg>
