<svg width="35" height="38" viewBox="0 0 35 38" fill="none" xmlns="http://www.w3.org/2000/svg">
<g clip-path="url(#clip0_934_921)">
<path d="M17.4503 37.9999C13.3121 37.9999 9.23535 37.5803 5.28853 36.2777C4.0429 35.8913 2.86294 35.3233 1.78785 34.5926C0.451159 33.6522 -0.17958 32.4794 0.0443406 30.7774C0.362274 28.3592 1.16736 26.1769 2.70575 24.2727C4.53346 21.9747 7.13537 20.3977 10.0404 19.8273C10.1792 19.7917 10.3245 19.7883 10.4648 19.8176C10.6052 19.8468 10.7367 19.9079 10.8489 19.9958C14.3069 22.591 20.7237 22.6095 24.2021 19.9605C24.3032 19.8855 24.42 19.8339 24.5439 19.8094C24.6679 19.7849 24.7958 19.7881 24.9183 19.8189C30.207 20.771 34.4427 25.4641 34.9709 30.683C35.1845 32.8046 34.2358 34.0348 32.5778 35.0105C30.9198 35.9862 29.125 36.5389 27.2789 36.9821C24.385 37.6646 21.1784 37.9966 17.4503 37.9999Z" fill="white"/>
<path d="M17.329 19.7532C15.4487 19.7785 13.7103 19.0269 12.2249 17.758C9.55328 15.4746 8.09865 12.5829 8.11061 9.05757C8.11061 4.76382 11.4985 0.861028 15.8025 0.138101C20.939 -0.726378 25.7696 2.4973 26.7097 7.5224C27.3592 11.0005 26.2174 14.022 23.9235 16.6407C22.5338 18.2264 20.8108 19.3032 18.681 19.674C18.2326 19.7294 17.7809 19.7558 17.329 19.7532Z" fill="white"/>
</g>
<defs>
<clipPath id="clip0_934_921">
<rect width="35" height="38" fill="white"/>
</clipPath>
</defs>
</svg>
