<svg id="Camada_1" data-name="Camada 1" xmlns="http://www.w3.org/2000/svg" viewBox="0 0 464.15 376.31"><defs><style>.cls-1{fill:#FFFFFF;}</style></defs><path class="cls-1" d="M250.42,256.93c17,1.19,33.92-1.52,50.63,2.95,38.15,10.21,65.79,45.13,66.12,84.53.17,21-.31,41.95.21,62.9.19,7.56-3.28,11.42-9.28,14.26-13,6.12-26.81,9.08-40.79,11.51-34,5.91-68.23,6.45-102.43,2.7-25.19-2.77-50.2-6.88-74.34-15.2-5.63-1.95-7.75-4.62-7.54-10.73.87-25-1-50,1.09-75,3.1-36.56,34.55-70.17,70.93-76.3C220.21,256,235.44,258,250.42,256.93Z" transform="translate(-17.93 -61.85)"/><path class="cls-1" d="M199.3,248.09c-44.25,5.29-76.58,42.81-77.17,88.38-.2,15.48,0,31-.06,46.44,0,2.6,1.14,6-3.83,5.66-29.39-1.77-58.67-4.2-86.63-14.46a60.45,60.45,0,0,1-6.41-3c-5.1-2.59-7.39-6.33-7.27-12.48.44-23.1,0-46.21.44-69.3.78-37.8,34.13-75.2,72.1-80.57,25.32-3.59,50.87-.88,76.31-1.57,2.24-.06,3.63.77,4.31,2.83C176.18,225.31,186,237.21,199.3,248.09Z" transform="translate(-17.93 -61.85)"/><path class="cls-1" d="M300.77,249.85a79.79,79.79,0,0,0,27.6-36c1.17-2.94,2.36-4.23,5.46-4.21,23.81.19,47.69-.88,71.4.71,35.28,2.35,68.72,34.49,75.06,69.79,2.92,16.31,1.18,32.75,1.58,49.13.26,10.47-.31,21,.18,31.42.3,6.46-2.35,10.06-7.82,12.82-12.85,6.49-26.72,9.48-40.67,11.89a318.7,318.7,0,0,1-50.31,5c-4.55.05-5.48-1.25-5.46-5.56.09-18.33.42-36.69-.53-55-1.93-37.05-32.11-71.13-68.45-78.32C306.49,251,304.18,250.55,300.77,249.85Z" transform="translate(-17.93 -61.85)"/><path class="cls-1" d="M182.76,180.06c.05-37.78,30.51-68.48,68.08-68.63s69.13,31.48,68.73,69a68.41,68.41,0,0,1-136.81-.39Z" transform="translate(-17.93 -61.85)"/><path class="cls-1" d="M134.82,198.68c-36.58-.09-66.45-27.28-69.25-61.91C62.7,101.22,87.13,69.08,121.69,62.9a69.22,69.22,0,0,1,77.82,47.47c1.26,4.12.88,6.75-3,10-20.71,17-31,39.1-29.92,66,.14,3.65-1.13,5.12-4,6.35C153.28,196.67,143.76,199.26,134.82,198.68Z" transform="translate(-17.93 -61.85)"/><path class="cls-1" d="M434.49,132.53c0,49-50,82.18-95.09,63.24-4.52-1.9-6-4-5.89-9.34.32-25.66-9.4-47.11-29.39-63.45-4.05-3.31-5-6.15-3.33-11.19,10-30.3,38.1-49.44,70.53-47.63,30.17,1.69,55.93,25.22,62.06,56.34A66.08,66.08,0,0,1,434.49,132.53Z" transform="translate(-17.93 -61.85)"/><path class="cls-1" d="M151.8,298.48v-.72" transform="translate(-17.93 -61.85)"/></svg>