<svg id="Camada_1" data-name="Camada 1" xmlns="http://www.w3.org/2000/svg" viewBox="0 0 438.46 438.39"><defs><style>.cls-1{fill:#030304;}</style></defs><path class="cls-1" d="M71.82,373.4c.14-2.91,1.88-5.7,3.94-8.35,8.45-10.9,16.82-21.85,25.36-32.66,2.18-2.75,2.8-5,.89-8.32a94.27,94.27,0,0,1-8.5-20.59c-.76-2.59-2-3.46-4.71-3.83-15.6-2.09-31.16-4.54-46.73-6.81C35.76,291.92,32,288.38,31.94,282q-.29-31.41,0-62.84c.06-6.57,3.85-10.05,10.47-11,15.57-2.3,31.13-4.69,46.7-7,2.57-.38,3.92-1.43,4.76-4.11a100.28,100.28,0,0,1,8.39-19.56c1.38-2.4,1-4-.61-6.19Q89,154,75.3,137.48c-6.49-7.88-6.71-10.58-.14-18.62a330.39,330.39,0,0,1,41.62-42.18,45,45,0,0,1,4.42-3.23c6.29-4.15,9.26-4.09,15.27.54,11.58,8.91,23.16,17.82,34.62,26.89,2.6,2.06,4.55,2.82,7.83,1a96.21,96.21,0,0,1,18.75-7.79c2.37-.72,3.31-1.88,3.58-4.48a462.16,462.16,0,0,1,7-46.68c1.82-8.71,4.79-11.07,13.68-11.08q29.17,0,58.35,0c8.55,0,11.68,2.45,13.07,10.92q3.88,23.55,7.24,47.17c.37,2.68,1.6,3.57,3.75,4.26a122.09,122.09,0,0,1,19.23,7.92c2.19,1.13,3.68,1,5.69-.57,12.37-9.52,24.87-18.86,37.33-28.26,5.09-3.85,9.87-4.09,14.41.09,15.89,14.64,31.86,29.22,45.41,46.17,5.13,6.43,5.19,10.38.2,17q-12.94,17.06-26.21,33.88c-1.93,2.44-2.15,4.36-.69,7.06a127.67,127.67,0,0,1,8.83,21c.69,2.08,1.52,3.39,3.95,3.74,15.74,2.26,31.46,4.71,47.2,7,6.63,1,10.36,4.41,10.42,11.12q.28,31.17,0,62.35c-.06,6.89-3.75,10.29-10.73,11.32-15.57,2.29-31.13,4.69-46.7,7a5,5,0,0,0-4.58,3.75,122.35,122.35,0,0,1-8.33,19.59c-1.3,2.38-1,4,.62,6.19,8.53,11.67,17.55,22.95,26.66,34.17,6,7.43,6.26,10.61.34,17.88a335,335,0,0,1-41.5,42.3,49.14,49.14,0,0,1-4.77,3.59c-6.51,4.36-9.9,4.31-16.19-.57-11.56-9-23.08-17.94-34.48-27.08-2.41-1.94-4.25-2.25-7-.76a105.78,105.78,0,0,1-18.74,7.82c-2.4.75-3.62,1.83-3.92,4.75a459.5,459.5,0,0,1-7,46.69C292,467.85,289,470.19,280,470.2q-27.93,0-55.86,0c-12,0-14.37-2.35-16-14-2-14.77-4.59-29.47-6.68-44.23a4.17,4.17,0,0,0-3.39-4,121.06,121.06,0,0,1-19.68-8.11c-2.3-1.22-3.75-.73-5.68.75Q154.17,414.92,135.43,429c-5.08,3.84-9.72,3.78-14.4-.48-15.12-13.78-30.22-27.58-43.45-43.24C74.8,381.94,71.88,378.68,71.82,373.4ZM251.15,178.17a72.86,72.86,0,1,0,72.73,72.73A72.51,72.51,0,0,0,251.15,178.17Z" transform="translate(-31.79 -31.82)"/></svg>