<svg width="38" height="38" viewBox="0 0 38 38" fill="none" xmlns="http://www.w3.org/2000/svg">
<path d="M18.4801 0.0563299C18.0556 0.179966 17.6121 0.505329 16.8455 1.24715C16.478 1.60505 15.8825 2.17118 15.515 2.50956C15.1475 2.84793 14.4506 3.50516 13.9564 3.97368C11.986 5.84777 11.0674 6.70672 11.0104 6.72624C10.9787 6.73926 10.9533 5.60049 10.9533 3.99321C10.9533 1.50093 10.9407 1.22112 10.8393 1.01289C10.6429 0.602937 10.4655 0.557387 8.97029 0.557387C7.45608 0.557387 7.30403 0.589922 7.11396 0.986863C6.99992 1.22763 6.99358 1.4684 6.9619 5.89983L6.93023 10.559L5.91653 11.5286C5.35899 12.0622 4.64307 12.7324 4.33262 13.0122C3.48365 13.7801 1.69701 15.472 1.00009 16.1617C0.290501 16.8645 0.0624184 17.2875 0.00539785 17.9707C-0.0516227 18.7581 0.347521 19.6236 0.993754 20.1051C1.43091 20.437 1.86807 20.5541 2.46362 20.5216C3.31892 20.4695 3.31892 20.4695 5.97988 17.9642C6.66413 17.32 7.50677 16.5261 7.84889 16.2073C8.19101 15.8819 8.97029 15.1596 9.57218 14.587C10.1741 14.0209 11.2828 12.9797 12.0304 12.2769C12.778 11.5741 13.608 10.7933 13.8677 10.5395C14.1275 10.2792 14.647 9.79766 15.0145 9.46579C15.8064 8.74349 17.5234 7.1362 18.347 6.3293C18.6701 6.01696 18.9616 5.76317 18.9996 5.76317C19.0313 5.76317 19.7535 6.4139 20.5961 7.20778C21.4388 8.00817 22.4145 8.91918 22.7629 9.24454C23.1177 9.5634 23.6309 10.0514 23.9097 10.3247C24.1884 10.5915 24.841 11.2097 25.3542 11.6913C26.8747 13.1098 27.4956 13.689 28.3763 14.5154C28.8261 14.9449 29.6688 15.7323 30.2453 16.2724C32.5388 18.4197 33.185 19.0249 33.7045 19.5325C34.0086 19.8188 34.4331 20.1572 34.6549 20.2808C35.0414 20.489 35.092 20.5021 35.6939 20.5021C36.2578 20.5021 36.3655 20.4825 36.6823 20.3199C37.4426 19.9359 37.9494 19.1355 37.9938 18.2245C38.0444 17.1834 37.8354 16.884 35.5355 14.7562C34.3825 13.689 32.3677 11.7954 29.7068 9.27708C29.2316 8.82808 28.408 8.05372 27.8694 7.55266C27.3309 7.0516 26.3299 6.11456 25.652 5.47035C24.9677 4.82613 23.7956 3.72641 23.048 3.03014C22.3004 2.33386 21.4641 1.53998 21.1854 1.26667C20.9066 0.999878 20.5581 0.681023 20.4124 0.570401C19.8042 0.0888655 19.0629 -0.106351 18.4801 0.0563299Z" fill="white"/>
<path d="M5.9482 20.7623V28.6816C5.9482 34.3364 5.9672 36.6986 6.01789 36.9458C6.11292 37.3818 6.35368 37.6421 6.86686 37.8438L7.247 38L11.042 37.9805C13.1328 37.9675 14.9004 37.9349 14.9828 37.9089C15.0588 37.8764 15.1792 37.7722 15.2552 37.6746C15.3883 37.4989 15.3883 37.4859 15.3883 33.4124V29.3194H22.6109V33.3669C22.6109 36.4578 22.6299 37.4599 22.6932 37.577C22.7312 37.6681 22.858 37.7918 22.9593 37.8503C23.1304 37.9545 23.4852 37.9675 26.9191 37.9805C30.4797 38 30.7078 37.9935 31.0626 37.8764C31.5187 37.7267 31.8799 37.3948 31.9812 37.0304C32.0319 36.8482 32.0509 34.408 32.0509 28.7532V20.7363L26.2412 15.2832C23.0417 12.2834 20.1083 9.53085 19.7155 9.16645L19.0122 8.4962L5.9482 20.7623Z" fill="white"/>
</svg>
