<svg width="38" height="38" viewBox="0 0 38 38" fill="none" xmlns="http://www.w3.org/2000/svg">
<path d="M6.03502 27.6298C5.62983 28.375 5.30732 29.4962 5.30732 30.2027C5.30732 30.3667 5.30732 30.5753 5.347 30.8646L0.282828 21.946C0.120728 21.6566 0 21.2414 0 20.8674C0 20.4928 0.120728 20.0375 0.282828 19.7477L2.71403 15.3917L0 13.8166L8.83179 13.6492L13.1253 21.5719L10.3716 19.9543L6.03502 27.6298ZM9.925 2.49159C10.6941 1.12121 11.951 0.374541 13.4891 0.374541C15.1513 0.374541 16.448 1.16376 17.3791 2.77948L18.7567 5.14379L13.9753 13.6085L6.23843 9.00329L9.925 2.49159ZM10.4906 34.8059C8.18176 34.8059 6.27811 32.8563 6.27811 30.492C6.27811 29.8281 6.56257 28.707 6.96776 28.0024L8.26275 25.6381H17.8652V34.806H10.4906V34.8059ZM18.1895 2.24093C17.5825 1.16376 16.7721 0.415172 15.7996 0H25.7643C26.6557 0 27.3437 0.374541 27.7506 1.08051L30.2216 5.39439L32.8945 3.77526L28.599 11.6588L19.8103 11.532L22.5243 9.95695L18.1895 2.24093ZM33.5444 25.7213C34.7584 25.7213 35.7722 25.3894 36.6223 24.7269L31.5978 33.6861C31.1926 34.3907 30.4649 34.8058 29.6146 34.8058H24.8729V38L20.3362 30.2432L24.8729 22.4845V25.7212H33.5444V25.7213ZM37.4311 18.2539C37.7966 18.9178 38 19.6224 38 20.3695C38 21.8632 37.0672 23.4397 35.7722 24.185C35.1636 24.5189 34.3118 24.7269 33.4634 24.7269H30.7874L26.0091 16.2622L33.7462 11.7402L37.4311 18.2539Z" fill="white"/>
</svg>
