<svg id="Camada_1" data-name="Camada 1" xmlns="http://www.w3.org/2000/svg" viewBox="0 0 1478.42 751.8"><defs><style>.cls-1{fill:#26413C;}</style></defs><path class="cls-1" d="M16.83,695.41H38.94c23.88,0,39.27,11.88,39.27,38.76s-15.39,39.45-38.28,39.45H16.83Zm21,64c13.26,0,22.22-6.5,22.22-25.21s-9-24.53-22.22-24.53H34.51v49.74Z" transform="translate(-16.83 -23.26)"/><path class="cls-1" d="M94.7,743.87c0-19.31,13.78-31.23,28.08-31.23,17,0,25.36,12.33,25.36,28.58a39.6,39.6,0,0,1-.74,7.79H111.79c1.58,8.64,7.5,12.6,15.44,12.6,4.5,0,8.55-1.37,12.87-3.89l5.84,10.63a38.79,38.79,0,0,1-21.12,6.71C107.85,775.06,94.7,763.58,94.7,743.87Zm38.37-6.52c0-6.55-2.85-11.26-9.89-11.26-5.58,0-10.39,3.74-11.59,11.26Z" transform="translate(-16.83 -23.26)"/><path class="cls-1" d="M168.11,752V727.92H160V714.76l9.12-.68,2.07-15.81h14.58v15.81H200v13.84H185.74v23.84c0,6.75,3.07,9.46,7.71,9.46a17.85,17.85,0,0,0,5.66-1.13l2.78,12.81a42,42,0,0,1-13.23,2.16C174,775.06,168.11,765.77,168.11,752Z" transform="translate(-16.83 -23.26)"/><path class="cls-1" d="M212.66,743.87c0-19.31,13.78-31.23,28.08-31.23,17,0,25.36,12.33,25.36,28.58a39.6,39.6,0,0,1-.74,7.79H229.75c1.58,8.64,7.5,12.6,15.44,12.6,4.5,0,8.55-1.37,12.87-3.89l5.84,10.63a38.79,38.79,0,0,1-21.12,6.71C225.81,775.06,212.66,763.58,212.66,743.87ZM251,737.35c0-6.55-2.85-11.26-9.89-11.26-5.58,0-10.39,3.74-11.59,11.26Z" transform="translate(-16.83 -23.26)"/><path class="cls-1" d="M281.42,743.87c0-19.79,14.57-31.23,31-31.23a25.91,25.91,0,0,1,17.39,6.41l-8.33,11.34c-2.85-2.41-5.24-3.51-8.07-3.51-8.49,0-13.93,6.69-13.93,17s5.67,17,13.33,17c3.91,0,7.65-1.93,10.74-4.39L330.48,768a29.74,29.74,0,0,1-19.62,7.09C294.24,775.06,281.42,763.62,281.42,743.87Z" transform="translate(-16.83 -23.26)"/><path class="cls-1" d="M348.71,752V727.92h-8.14V714.76l9.12-.68,2.07-15.81h14.58v15.81h14.28v13.84H366.34v23.84c0,6.75,3.07,9.46,7.71,9.46a17.85,17.85,0,0,0,5.66-1.13l2.78,12.81a42,42,0,0,1-13.23,2.16C354.55,775.06,348.71,765.77,348.71,752Z" transform="translate(-16.83 -23.26)"/><path class="cls-1" d="M393.26,743.87c0-19.79,13.94-31.23,29-31.23s29,11.44,29,31.23-13.94,31.19-29,31.19S393.26,763.62,393.26,743.87Zm39.92,0c0-10.3-3.62-17-10.92-17s-10.92,6.69-10.92,17,3.62,17,10.92,17S433.18,754.17,433.18,743.87Z" transform="translate(-16.83 -23.26)"/><path class="cls-1" d="M469.92,714.08h14.39l1.27,10.41H486c4.33-8,10.84-11.85,16.91-11.85a16.57,16.57,0,0,1,7.1,1.2l-2.94,15.23a24.25,24.25,0,0,0-6.42-1c-4.49,0-9.94,2.89-13.11,11v34.5H469.92Z" transform="translate(-16.83 -23.26)"/><path class="cls-1" d="M551.81,743.87c0-19.47,12.16-31.23,24.69-31.23,6.57,0,10.58,2.45,14.6,6.22l-.64-9V689.55H608.1v84.07H593.71l-1.27-5.9H592c-4.2,4.2-10.09,7.34-15.83,7.34C561.37,775.06,551.81,763.31,551.81,743.87Zm38.65,11.42V730.84a14.41,14.41,0,0,0-9.84-3.76c-5.72,0-10.73,5.27-10.73,16.59,0,11.69,4,17,10.87,17C584.51,760.62,587.54,759.2,590.46,755.29Z" transform="translate(-16.83 -23.26)"/><path class="cls-1" d="M626.78,743.87c0-19.31,13.78-31.23,28.08-31.23,17,0,25.36,12.33,25.36,28.58a39.6,39.6,0,0,1-.74,7.79H643.87c1.58,8.64,7.49,12.6,15.44,12.6,4.5,0,8.55-1.37,12.87-3.89L678,768.35a38.76,38.76,0,0,1-21.12,6.71C639.92,775.06,626.78,763.58,626.78,743.87Zm38.37-6.52c0-6.55-2.85-11.26-9.9-11.26-5.57,0-10.38,3.74-11.58,11.26Z" transform="translate(-16.83 -23.26)"/><path class="cls-1" d="M731.06,695.41h49.36v14.83H748.75v18.13h27.06V743.2H748.75v30.42H731.06Z" transform="translate(-16.83 -23.26)"/><path class="cls-1" d="M793.46,743.87c0-19.79,13.93-31.23,29-31.23s29,11.44,29,31.23-13.93,31.19-29,31.19S793.46,763.62,793.46,743.87Zm39.92,0c0-10.3-3.63-17-10.92-17s-10.93,6.69-10.93,17,3.63,17,10.93,17S833.38,754.17,833.38,743.87Z" transform="translate(-16.83 -23.26)"/><path class="cls-1" d="M866.66,743.87c0-19.79,14.57-31.23,31-31.23a25.94,25.94,0,0,1,17.4,6.41l-8.34,11.34c-2.85-2.41-5.23-3.51-8.07-3.51-8.48,0-13.93,6.69-13.93,17s5.68,17,13.34,17c3.91,0,7.65-1.93,10.74-4.39L915.72,768a29.77,29.77,0,0,1-19.63,7.09C879.48,775.06,866.66,763.62,866.66,743.87Z" transform="translate(-16.83 -23.26)"/><path class="cls-1" d="M925.94,743.87c0-19.79,13.93-31.23,29-31.23s29,11.44,29,31.23-13.93,31.19-29,31.19S925.94,763.62,925.94,743.87Zm39.91,0c0-10.3-3.62-17-10.92-17s-10.92,6.69-10.92,17,3.63,17,10.92,17S965.85,754.17,965.85,743.87Z" transform="translate(-16.83 -23.26)"/><path class="cls-1" d="M996.73,766.74l7.94-11c5.39,4.08,10.37,6.26,15.35,6.26,5.25,0,7.53-2,7.53-5.12,0-3.93-5.91-5.7-12-8.1-7.3-2.83-15.75-7.67-15.75-17.51,0-11.08,9-18.64,22.74-18.64,9.12,0,15.91,3.69,21,7.54l-7.89,10.6c-4.24-3.08-8.42-5.09-12.54-5.09-4.56,0-6.8,1.79-6.8,4.76,0,3.79,5.58,5.25,11.74,7.49,7.54,2.79,16,7,16,17.92s-8.5,19.2-24.45,19.2A38.65,38.65,0,0,1,996.73,766.74Z" transform="translate(-16.83 -23.26)"/><path class="cls-1" d="M1089.29,743.87c0-19.47,12.16-31.23,24.69-31.23,6.57,0,10.57,2.45,14.6,6.22l-.64-9V689.55h17.64v84.07h-14.39l-1.27-5.9h-.44c-4.21,4.2-10.09,7.34-15.84,7.34C1098.85,775.06,1089.29,763.31,1089.29,743.87Zm38.65,11.42V730.84a14.45,14.45,0,0,0-9.85-3.76c-5.71,0-10.72,5.27-10.72,16.59,0,11.69,4,17,10.86,17C1122,760.62,1125,759.2,1127.94,755.29Z" transform="translate(-16.83 -23.26)"/><path class="cls-1" d="M1164.26,743.87c0-19.31,13.77-31.23,28.08-31.23,17,0,25.35,12.33,25.35,28.58A39.76,39.76,0,0,1,1217,749h-35.62c1.59,8.64,7.5,12.6,15.44,12.6,4.51,0,8.56-1.37,12.88-3.89l5.83,10.63a38.76,38.76,0,0,1-21.12,6.71C1177.4,775.06,1164.26,763.58,1164.26,743.87Zm38.36-6.52c0-6.55-2.85-11.26-9.89-11.26-5.57,0-10.38,3.74-11.58,11.26Z" transform="translate(-16.83 -23.26)"/><path class="cls-1" d="M1268.54,695.41h17.68v63.38h30.87v14.83h-48.55Z" transform="translate(-16.83 -23.26)"/><path class="cls-1" d="M1334.46,696.16c0-5.41,4.29-9.23,10.21-9.23s10.21,3.82,10.21,9.23-4.29,9.22-10.21,9.22S1334.46,701.52,1334.46,696.16Zm1.37,17.92h17.64v59.54h-17.64Z" transform="translate(-16.83 -23.26)"/><path class="cls-1" d="M1387.76,742.63l-17.21-28.55h18.91l5.29,9.63c1.63,3.32,3.39,6.83,5.06,10.15h.48c1.27-3.32,2.79-6.83,4.06-10.15l4.06-9.63h18.28l-17.21,30.57,18.3,29h-18.91l-5.86-9.84c-1.86-3.4-3.67-7-5.57-10.36H1397c-1.51,3.36-3.07,6.86-4.58,10.36l-4.63,9.84h-18.27Z" transform="translate(-16.83 -23.26)"/><path class="cls-1" d="M1437.25,743.87c0-19.79,13.94-31.23,29-31.23s29,11.44,29,31.23-13.94,31.19-29,31.19S1437.25,763.62,1437.25,743.87Zm39.92,0c0-10.3-3.62-17-10.92-17s-10.92,6.69-10.92,17,3.62,17,10.92,17S1477.17,754.17,1477.17,743.87Z" transform="translate(-16.83 -23.26)"/><path class="cls-1" d="M72.2,23.26h135q88.2,0,137.25,33.75t68.4,98.55q19.35,64.8,19.35,187.2,0,79.2-7.2,134.1t-29.25,96.75q-22.06,41.85-68.4,65.25T207.2,662.26H72.2q-19.8,0-32.85-7.65t-17.1-23q-4-15.3-4.05-41.4v-495q0-26.1,4.05-41.4t17.1-22.95Q52.39,23.28,72.2,23.26Zm117,121.5q-9,0-13.95,4.5t-4.95,23.4l.9,318.6q0,20.72,3.6,32.85t14.4,12.15q25.19,0,41.4-12.15t23.4-46.8q7.2-34.63,7.2-139,0-81-5.4-118.35t-20.7-56.25Q219.78,144.76,189.2,144.76Z" transform="translate(-16.83 -23.26)"/><path class="cls-1" d="M849.79,147.46q-26.12,0-35.55,4.5a36.08,36.08,0,0,0-14.85,12.6q-5.4,8.1-5.4,52.2,0,27,2.7,38.7t13,15.3a72.18,72.18,0,0,0,23.85,3.6l62.1-1.8q27.88,0,38.7,4.95t12.6,16.2a177.46,177.46,0,0,1,1.8,27.45v8.1q0,39.62-4,53.1t-18,17.1q-14,3.6-39.15,3.6l-63-1.8q-21.6,0-26.1,8.55T794,453.46v136.8q0,26.12-4,41.4t-17.1,23q-13.05,7.65-32.85,7.65H695q-19.8,0-32.85-7.65t-17.1-23q-4-15.3-4-41.4v-495q0-40.5,13.5-56.25T695,23.26h223.2q18,0,30.15,7.2t12.15,19.8v76.5q0,9.92-5.4,16.2t-34.2,6.3Z" transform="translate(-16.83 -23.26)"/><path class="cls-1" d="M1343,533.56l88.2-1.8q19.79,0,31,9t11.25,37.8v11.7q0,26.12-4,41.4t-17.1,23q-13.06,7.65-32.85,7.65h-203.4q-19.81,0-32.85-7.65t-17.1-23q-4-15.3-4.05-41.4v-495q0-26.1,4.05-41.4t17.1-22.95q13-7.64,32.85-7.65h45q19.79,0,32.85,7.65t17.1,23q4.05,15.31,4,41.4v387.9q0,28.82,6.75,39.15T1343,533.56Z" transform="translate(-16.83 -23.26)"/></svg>